<svg xmlns="http://www.w3.org/2000/svg" width="1920" height="1080" viewBox="0 0 1920 1080"><defs><style>.cls-1{fill:#81aa93;}.cls-2{fill:#fcfcfc;}.cls-3{fill:#5b5551;opacity:0.45;}.cls-4{fill:#ceb38a;}.cls-5{fill:#f7e4d7;}.cls-6{fill:#f2a672;}.cls-12,.cls-13,.cls-7{fill:none;stroke-linecap:round;stroke-linejoin:round;}.cls-7{stroke:#050505;}.cls-13,.cls-7{stroke-width:6px;}.cls-8{fill:#050505;}.cls-9{fill:#edcfbc;}.cls-10{fill:#100f3f;}.cls-11{fill:#efe3dc;}.cls-12{stroke:#312f84;stroke-width:12px;}.cls-13{stroke:#020202;}.cls-14{fill:#fff;}.cls-15{fill:#d3c9c2;}</style></defs><title>Artboard_baggrund</title><g id="bord_baggrund" data-name="bord/baggrund"><rect class="cls-1" y="-1" width="1920" height="1079"/><path class="cls-2" d="M1518.07-1C1651.6781,147.1809,1733,343.346,1733,558.4871a832.1816,832.1816,0,0,1-181.0892,519.52c-2.4431,3.0746-1309.4715,2.9576-1311.82.0026A832.1818,832.1818,0,0,1,59,558.4871c0-215.14,81.3209-411.3038,214.9281-559.4844"/><polygon class="cls-3" points="1918 279.747 1920 1078.002 1178 1080 789.132 736.331 1534 -0.991 1918 279.747"/><path class="cls-4" d="M1534.07-1C1667.6781,147.1809,1749,343.346,1749,558.4871a832.1816,832.1816,0,0,1-181.0892,519.52c-2.4431,3.0746-1309.4715,2.9576-1311.82.0026A832.1818,832.1818,0,0,1,75,558.4871c0-215.14,81.3209-411.3038,214.9281-559.4844"/></g><g id="kaffebønner"><ellipse class="cls-5" cx="1777.8594" cy="983.1067" rx="15.7528" ry="14.0141"/><path class="cls-5" d="M1834.2782,1046.9308l-27.0334-.0988a30.6452,30.6452,0,0,1-20.3593-7.6207,25.9458,25.9458,0,0,1-7.199-10.7543,22.9491,22.9491,0,0,1-1.2-7.42q.1223-26.4509.2443-52.9018c.0652-14.1291,13.113-25.6417,28.9951-25.5837l27.0335.0988a30.6437,30.6437,0,0,1,20.3592,7.6207,25.8875,25.8875,0,0,1,7.9518,13.5667,22.2011,22.2011,0,0,1,.4469,4.6073q-.1221,26.451-.2442,52.9018C1863.2081,1035.4761,1850.16,1046.9888,1834.2782,1046.9308Z"/><path class="cls-6" d="M1777.636,987.3659a4.1808,4.1808,0,1,1,.0383-8.3046"/><path class="cls-7" d="M1807.4969,986.1776c-5.7424,5.3491-13.8619,6.8189-18.0434,3.2663l-2.5343-2.1532"/><ellipse class="cls-5" cx="1863.2472" cy="983.2421" rx="15.7528" ry="14.0141"/><path class="cls-6" d="M1863.0621,979.1967a4.1808,4.1808,0,1,1-.0384,8.3046"/><rect class="cls-8" x="1819.2302" y="1013.1069" width="56.839" height="18.1795" rx="7.9785" ry="7.9785" transform="translate(3.7474 -6.7444) rotate(0.2094)"/><rect class="cls-8" x="1763.7235" y="1013.4024" width="54.3855" height="17.3948" rx="7.6341" ry="7.6341" transform="translate(3.7467 -6.5371) rotate(0.2094)"/><rect class="cls-9" x="1802.8" y="993.9024" width="34.6231" height="24.5558" rx="10.7769" ry="10.7769" transform="translate(807.287 2822.603) rotate(-89.7906)"/><path class="cls-10" d="M1778.5193,964.392c.07-15.0823,24.157-25.4611,43.15-25.3917s41.4979,10.6185,41.4283,25.7007"/><rect class="cls-11" x="1812.9454" y="995.8632" width="7.4131" height="14.0141" rx="3.2534" ry="3.2534" transform="translate(3.6772 -6.6324) rotate(0.2094)"/><ellipse class="cls-5" cx="1811.3531" cy="1048.1471" rx="8.3465" ry="7.7876" transform="translate(-2.9509 5.1163) rotate(-0.1617)"/><ellipse class="cls-5" cx="1828.0458" cy="1048.2081" rx="8.3465" ry="7.7876" transform="matrix(1, -0.0028, 0.0028, 1, -2.951, 5.1634)"/><rect class="cls-10" x="1774.7366" y="960.429" width="91.2064" height="6.1827" rx="2.7134" ry="2.7134" transform="translate(3.5328 -6.645) rotate(0.2094)"/><path class="cls-12" d="M1839.83,952.3141c3.4028-.75,6.7887.7965,7.5242,3.437l.4457,1.6"/><path class="cls-13" d="M1831.5242,986.12c5.3253,5.68,13.3154,7.6324,17.7559,4.3378l2.6912-1.9967"/><ellipse class="cls-14" cx="1826.5261" cy="1036.6403" rx="4.2605" ry="3.7903"/><path class="cls-15" d="M1839.4118,1034.0763l-1.5153-.0453,2.588-1.6907a1.0476,1.0476,0,0,0,.27-1.57,1.1976,1.1976,0,0,0-.31-.26,1.3281,1.3281,0,0,0-.8842-.3629l-5.0466-.151a1.2138,1.2138,0,0,0-1.3041,1.0846,1.191,1.191,0,0,0,1.2192,1.16l1.8559.0555-1.72,1.1236a3.2456,3.2456,0,0,0-1.3491,2.2746h0a1.2811,1.2811,0,0,0,.7727.432,1.3859,1.3859,0,0,0,.2918.0427l5.0467.151a1.2138,1.2138,0,0,0,1.3041-1.0846A1.1911,1.1911,0,0,0,1839.4118,1034.0763Z"/><path class="cls-15" d="M1846.3581,1026.1631l-1.9144-.0573,3.2762-2.313a1.499,1.499,0,0,0,.3475-2.1414,1.535,1.535,0,0,0-.391-.353,1.6086,1.6086,0,0,0-1.1158-.4922l-6.3753-.1908a1.5837,1.5837,0,0,0-1.6518,1.4828,1.5538,1.5538,0,0,0,1.536,1.5783l2.3446.07-3.5428,2.5013a1.499,1.499,0,0,0-.3475,2.1414h0a1.5825,1.5825,0,0,0,.9746.5867,1.63,1.63,0,0,0,.3685.0573l6.3754.1908a1.5835,1.5835,0,0,0,1.6517-1.4828A1.5538,1.5538,0,0,0,1846.3581,1026.1631Z"/><path class="cls-15" d="M1859.554,1020.6077l-2.2972-.0687,3.9314-2.7757a1.7989,1.7989,0,0,0,.417-2.57,1.8416,1.8416,0,0,0-.4692-.4236,1.93,1.93,0,0,0-1.3389-.5906l-7.65-.2289a1.9,1.9,0,0,0-1.9821,1.7794,1.8646,1.8646,0,0,0,1.8431,1.8939l2.8135.0842-4.2513,3.0016a1.7988,1.7988,0,0,0-.417,2.57h0a1.8989,1.8989,0,0,0,1.1695.704,1.9547,1.9547,0,0,0,.4422.0688l7.65.229a1.9005,1.9005,0,0,0,1.9821-1.7795A1.8646,1.8646,0,0,0,1859.554,1020.6077Z"/><circle class="cls-5" cx="1779.4907" cy="82.3738" r="14.2529"/><circle class="cls-6" cx="1779.3169" cy="82.1957" r="4.2231"/><circle class="cls-5" cx="1859.9869" cy="82.1084" r="14.2529"/><circle class="cls-6" cx="1859.8131" cy="81.9303" r="4.2231"/><path class="cls-5" d="M1830.4786,152.1759l-24.4577-.3015a26.0469,26.0469,0,0,1-18.3564-7.9017,26.99,26.99,0,0,1-6.4234-10.9906,26.0118,26.0118,0,0,1-1.0234-7.5549q.3316-26.9.6632-53.8a26.2039,26.2039,0,0,1,26.4472-25.8031l24.4578.3015a26.0466,26.0466,0,0,1,18.3563,7.9017,26.9666,26.9666,0,0,1,7.081,13.8566,25.2967,25.2967,0,0,1,.3658,4.6889q-.3315,26.9-.6632,53.8A26.2038,26.2038,0,0,1,1830.4786,152.1759Z"/><rect class="cls-8" x="1819.7293" y="114.8678" width="58.2691" height="18.4892" rx="8.5216" ry="8.5216" transform="translate(1.6703 -22.7802) rotate(0.7063)"/><rect class="cls-8" x="1762.8292" y="114.6623" width="55.7539" height="17.6911" rx="8.1538" ry="8.1538" transform="translate(1.6584 -22.0634) rotate(0.7063)"/><rect class="cls-9" x="1800.7718" y="96.4791" width="35.213" height="22.2177" rx="10.24" ry="10.24" transform="translate(1688.3846 1924.5019) rotate(-89.2937)"/><circle class="cls-8" cx="1837.4244" cy="92.94" r="4.4016"/><circle class="cls-8" cx="1798.0224" cy="92.4542" r="4.4016"/><path class="cls-10" d="M1781.0969,64.78c.1891-15.3382,22.069-25.7144,39.2524-25.5026s37.4566,11.1076,37.2675,26.4459"/><rect class="cls-11" x="1811.9222" y="97.0694" width="6.7072" height="14.2529" rx="3.0913" ry="3.0913" transform="translate(1.4223 -22.3677) rotate(0.7063)"/><ellipse class="cls-5" cx="1810.1032" cy="150.2033" rx="7.9203" ry="7.5517" transform="translate(1637.5997 1958.3175) rotate(-89.2937)"/><ellipse class="cls-5" cx="1825.2055" cy="150.3894" rx="7.9203" ry="7.5517" transform="translate(1652.3297 1973.6026) rotate(-89.2937)"/><rect class="cls-10" x="1777.6804" y="61.0602" width="82.5221" height="6.288" rx="2.8981" ry="2.8981" transform="translate(0.9296 -22.4159) rotate(0.7063)"/><path class="cls-14" d="M1808.8876,134.4145c-.0415,4.7459,5.1445,4.4468,11.2795,4.5006s10.8958.44,10.9374-4.306"/><path class="cls-12" d="M1836.6689,52.9523c3.0849-.7376,6.1353.8606,6.7787,3.5514l.39,1.6309"/></g></svg>
