<svg xmlns="http://www.w3.org/2000/svg" width="120" height="110" viewBox="0 0 120 110"><defs><style>.cls-1{fill:#fff;}.cls-2{fill:#5b5551;}</style></defs><title>Artboard_settings</title><g id="titelskærm"><path class="cls-1" d="M53.6838,18.3794A35.0956,35.0956,0,1,0,88.7794,53.475,35.0956,35.0956,0,0,0,53.6838,18.3794Zm0,47.9912A12.8956,12.8956,0,1,1,66.5794,53.475,12.8957,12.8957,0,0,1,53.6838,66.3706Z"/><rect class="cls-1" x="44.7059" y="79.1029" width="18.2824" height="26.7706" rx="9.1412" ry="9.1412"/><rect class="cls-1" x="44.7059" y="0.75" width="18.2824" height="26.7706" rx="9.1412" ry="9.1412"/><rect class="cls-1" x="75.7206" y="11.1971" width="18.2824" height="26.7706" rx="9.1412" ry="9.1412" transform="translate(42.2378 -52.8063) rotate(45)"/><rect class="cls-1" x="87.4735" y="44.1706" width="18.2824" height="26.7706" rx="9.1412" ry="9.1412" transform="translate(154.1706 -39.0588) rotate(90)"/><rect class="cls-1" x="75.7206" y="71.9206" width="18.2824" height="26.7706" rx="9.1412" ry="9.1412" transform="translate(205.1885 85.6199) rotate(135)"/><rect class="cls-1" x="11.4059" y="11.1971" width="18.2824" height="26.7706" rx="9.1412" ry="9.1412" transform="translate(52.4584 27.4357) rotate(135)"/><rect class="cls-1" x="3.2441" y="43.8441" width="18.2824" height="26.7706" rx="9.1412" ry="9.1412" transform="translate(69.6147 44.8441) rotate(90)"/><rect class="cls-1" x="17.2824" y="71.9206" width="18.2824" height="26.7706" rx="9.1412" ry="9.1412" transform="translate(68.0596 6.3013) rotate(45)"/><path class="cls-2" d="M56.6838,19.3794A35.0956,35.0956,0,1,0,91.7794,54.475,35.0956,35.0956,0,0,0,56.6838,19.3794Zm0,47.9912A12.8956,12.8956,0,1,1,69.5794,54.475,12.8957,12.8957,0,0,1,56.6838,67.3706Z"/><rect class="cls-2" x="47.7059" y="80.1029" width="18.2824" height="26.7706" rx="9.1412" ry="9.1412"/><rect class="cls-2" x="47.7059" y="1.75" width="18.2824" height="26.7706" rx="9.1412" ry="9.1412"/><rect class="cls-2" x="78.7206" y="12.1971" width="18.2824" height="26.7706" rx="9.1412" ry="9.1412" transform="translate(43.8236 -54.6348) rotate(45)"/><rect class="cls-2" x="90.4735" y="45.1706" width="18.2824" height="26.7706" rx="9.1412" ry="9.1412" transform="translate(158.1706 -41.0588) rotate(90)"/><rect class="cls-2" x="78.7206" y="72.9206" width="18.2824" height="26.7706" rx="9.1412" ry="9.1412" transform="translate(211.0169 85.2057) rotate(135)"/><rect class="cls-2" x="14.4059" y="12.1971" width="18.2824" height="26.7706" rx="9.1412" ry="9.1412" transform="translate(58.2868 27.0215) rotate(135)"/><rect class="cls-2" x="6.2441" y="44.8441" width="18.2824" height="26.7706" rx="9.1412" ry="9.1412" transform="translate(73.6147 42.8441) rotate(90)"/><rect class="cls-2" x="20.2824" y="72.9206" width="18.2824" height="26.7706" rx="9.1412" ry="9.1412" transform="translate(69.6454 4.4728) rotate(45)"/></g></svg>
