<svg xmlns="http://www.w3.org/2000/svg" width="190" height="140" viewBox="0 0 190 140"><defs><style>.cls-1{fill:#77685d;}.cls-2{fill:#af1212;}.cls-3{fill:#89786d;}.cls-4{fill:#f7e4d7;}</style></defs><title>Artboard_play_1</title><g id="infoboks"><rect class="cls-1" x="9.7615" y="10.0151" width="178.5028" height="123.7349" rx="24.1543" ry="24.1543"/><rect class="cls-2" x="3" y="3.2537" width="178.5028" height="123.7349" rx="24.1543" ry="24.1543"/><path class="cls-3" d="M134.4724,59.7751c6.7887,3.307,6.7959,11.5892.013,14.908L109.1846,87.0625,83.8838,99.4418c-6.7829,3.3188-15.2687-.8149-15.2745-7.4407l-.0215-24.7147-.0214-24.7147c-.0058-6.6258,8.4728-10.7743,15.2615-7.4673L109.15,47.44Z"/><path class="cls-4" d="M129.5681,56.7841c6.4262,3.3073,6.4334,11.59.013,14.908L105.6325,84.07,81.6839,96.4485c-6.42,3.3185-14.4531-.8156-14.4589-7.4414l-.0215-24.7147L67.182,39.5777c-.0057-6.6258,8.02-10.7739,14.4459-7.4666l23.97,12.3365Z"/></g></svg>
