<svg xmlns="http://www.w3.org/2000/svg" width="280" height="280" viewBox="0 0 280 280"><defs><style>.cls-1{fill:#f4edea;}.cls-2{fill:#fc9;}.cls-3{fill:#f4ebe6;}.cls-4{fill:#f4e1d3;}.cls-5{fill:#d3aa85;}.cls-6{fill:#63412a;}.cls-7{opacity:0.38;}.cls-8{fill:#a88a7d;}.cls-9{fill:#020202;}</style></defs><title>Artboard_cortado</title><g id="decaf"><circle class="cls-1" cx="137.9541" cy="142.0468" r="131.6754"/><circle class="cls-2" cx="142.8234" cy="146.5103" r="131.6754"/><circle class="cls-1" cx="137.1179" cy="140.3234" r="103.9406"/><rect class="cls-3" x="179.5526" y="36.6703" width="49.4059" height="17.0648" rx="8.5324" ry="8.5324" transform="translate(50.012 186.5269) rotate(-54.9759)"/><circle class="cls-4" cx="143.0826" cy="146.7695" r="103.9406"/><circle class="cls-4" cx="143.0826" cy="146.7695" r="103.9406"/><rect class="cls-4" x="183.2046" y="38.6992" width="49.4059" height="17.0648" rx="8.5324" ry="8.5324" transform="matrix(0.5739, -0.8189, 0.8189, 0.5739, 49.9065, 190.3821)"/><circle class="cls-5" cx="143.2373" cy="146.9211" r="90.2883"/><path class="cls-6" d="M215.6608,146.51c5.1134,46.4816-28.519,76.8308-72.6345,71.62C103.3,213.4381,66.7744,182.5183,85.4056,147.119c8.1156-15.42,3.77-29.8408,11.3619-38.9548,10.249-12.3049,27.9987-4.4636,50.3166-17.8543C181.3863,69.7286,211.2865,106.7473,215.6608,146.51Z"/><circle class="cls-6" cx="72.0149" cy="134.1341" r="4.4636"/><circle class="cls-6" cx="76.0727" cy="119.526" r="4.4636"/><circle class="cls-6" cx="80.5363" cy="104.9179" r="4.4636"/><circle class="cls-6" cx="122.3316" cy="89.0925" r="4.4636"/><circle class="cls-6" cx="118.0709" cy="71.0354" r="3.0433"/><circle class="cls-6" cx="125.9836" cy="72.8614" r="1.6231"/><circle class="cls-6" cx="87.4345" cy="91.5272" r="1.6231"/><circle class="cls-6" cx="92.3039" cy="86.6579" r="1.6231"/><circle class="cls-6" cx="125.9836" cy="81.3827" r="1.6231"/><circle class="cls-6" cx="103.2599" cy="93.1503" r="1.6231"/><circle class="cls-6" cx="106.5062" cy="95.9908" r="1.6231"/><circle class="cls-6" cx="115.0275" cy="95.9908" r="1.6231"/><circle class="cls-6" cx="69.1745" cy="112.222" r="1.6231"/><circle class="cls-6" cx="67.5513" cy="123.9896" r="1.6231"/><circle class="cls-6" cx="80.5363" cy="129.6705" r="1.6231"/><circle class="cls-6" cx="78.1016" cy="140.2207" r="1.6231"/><circle class="cls-6" cx="69.1745" cy="141.8439" r="1.6231"/><circle class="cls-6" cx="92.3039" cy="107.7584" r="1.6231"/><circle class="cls-6" cx="90.6808" cy="103.2948" r="1.6231"/><circle class="cls-6" cx="88.2461" cy="98.4255" r="1.6231"/><circle class="cls-6" cx="168.9962" cy="72.8614" r="1.6231"/><circle class="cls-6" cx="134.5049" cy="82.1943" r="2.4347"/><circle class="cls-6" cx="134.5049" cy="70.8325" r="2.4347"/><circle class="cls-6" cx="140.5916" cy="78.9481" r="2.4347"/><circle class="cls-6" cx="111.3755" cy="89.0925" r="2.4347"/><circle class="cls-6" cx="149.9245" cy="80.977" r="2.4347"/><circle class="cls-6" cx="163.3153" cy="76.5134" r="2.4347"/><circle class="cls-6" cx="163.3153" cy="65.9631" r="2.4347"/><circle class="cls-6" cx="87.6374" cy="115.2653" r="3.0433"/><circle class="cls-6" cx="95.9559" cy="95.9908" r="4.4636"/><circle class="cls-6" cx="104.883" cy="81.2699" r="6.6792"/><circle class="cls-6" cx="149.9245" cy="70.7196" r="6.6792"/><g class="cls-7"><path class="cls-8" d="M231.08,126.4242c-.928-4.64-18.981-21.034-43.8242-35.3028-23.2425-13.3494-56.7613-12.745-75.8807-4.8693-16.298,6.7135-31.1007,29.9252-34.897,53.9686-3.652,23.13,1.6231,68.5767,1.6231,68.5767-.5012.78-2.1386-1.2828-4.0578-3.652a81.8169,81.8169,0,0,1-7.71-10.956,130.5522,130.5522,0,0,1-6.8982-13.3907c-18.6659-46.6646,4.2372-98.85,50.8493-117.702s97.6659,4.49,117.5491,51.1542"/></g><circle class="cls-1" cx="169.9005" cy="140.6016" r="15.2167"/><circle class="cls-1" cx="134.818" cy="149.1728" r="15.2167"/><circle class="cls-9" cx="134.0992" cy="149.9594" r="6.4925"/><circle class="cls-9" cx="169.8077" cy="140.6265" r="6.4925"/></g></svg>
