<svg xmlns="http://www.w3.org/2000/svg" width="220" height="160" viewBox="0 0 220 160"><defs><style>.cls-1{fill:#77685d;}.cls-2{fill:#af1212;}.cls-3,.cls-5{fill:none;stroke-linecap:round;stroke-linejoin:round;stroke-width:29px;}.cls-3{stroke:#afa095;}.cls-4{fill:#afa095;}.cls-5{stroke:#f7e4d7;}.cls-6{fill:#f7e4d7;}</style></defs><title>Artboard_replay</title><g id="vigtig_boks" data-name="vigtig boks"><rect class="cls-1" x="9.8756" y="11.6256" width="207.9171" height="144.1244" rx="24.1543" ry="24.1543"/><rect class="cls-2" x="2" y="3.75" width="207.9171" height="144.1244" rx="24.1543" ry="24.1543"/><path class="cls-3" d="M104.6343,114.6766a44.0295,44.0295,0,1,1,17.9375-86.2127"/><path class="cls-4" d="M103.1278,137.1974a5.0338,5.0338,0,0,1-6.5149-5.7943l3.66-17.7541,3.66-17.7541a5.0339,5.0339,0,0,1,8.2755-2.7449l13.5452,12.0471L139.3,117.2443a5.0337,5.0337,0,0,1-1.7606,8.5391l-17.2057,5.707Z"/><path class="cls-3" d="M70.847,62.5171A44.0295,44.0295,0,0,1,157.06,80.4546"/><path class="cls-5" d="M103.6765,117.0207A44.0295,44.0295,0,0,1,121.64,30.8134"/><path class="cls-6" d="M97.8584,137.0351a5.0338,5.0338,0,0,1-6.5131-5.7962l3.6658-17.753L98.677,95.7328a5.0338,5.0338,0,0,1,8.2762-2.7424l13.5417,12.0512,13.5416,12.0512a5.0339,5.0339,0,0,1-1.7631,8.5387l-17.2075,5.7018Z"/><path class="cls-5" d="M69.9049,64.8511a44.0294,44.0294,0,1,1,86.2072,17.9634"/></g></svg>
