<svg xmlns="http://www.w3.org/2000/svg" width="410" height="170" viewBox="0 0 410 170"><defs><style>.cls-1{opacity:0.7;}.cls-2{fill:#755f5f;}.cls-3{fill:#af1212;}.cls-4{fill:#9e826f;}.cls-5{fill:#f7e4d7;}.cls-6{opacity:0.35;}.cls-7{fill:#fff;}</style></defs><title>Artboard_spil</title><g id="titelskærm"><g class="cls-1"><rect class="cls-2" x="6" y="8.5028" width="388.2362" height="153.3664" rx="44.7629" ry="44.7629"/></g><rect class="cls-3" x="14.7638" y="6.75" width="388.2362" height="153.3664" rx="44.7629" ry="44.7629"/><path class="cls-4" d="M134.5713,62.3376c-4.1284.0523-6.27,2.3028-6.5,5.055-.3045,3.73,2.2273,5.6589,8.59,7.9512,14.1331,4.9377,20.8333,10.8312,21.3069,22.7421.4429,11.6431-5.9736,21.3247-22.9495,20.9378-13.9626-.3338-24.9138-7.4519-26.2422-18.721-.4982-4.6435.803-7.7866,2.6316-9.6213a1.3433,1.3433,0,0,1,1.0672-.61,1.6922,1.6922,0,0,1,1.4013.8863c4.626,7.322,12.3516,12.2126,19.1629,12.2961,4.595.0547,7.2317-1.5254,7.018-4.93-.2006-3.31-2.9946-5.2087-9.9914-7.4656-11.4294-3.8879-20.9968-9.3322-19.97-21.508C111.1855,58.07,121.396,48.7891,136.334,48.4287c8.4-.1824,15.2173,2.2073,19.657,5.8455a2.4044,2.4044,0,0,1,.9546,2.1487c-.2525,2.7055-3.752,8.9555-6.6365,12.2988a1.8527,1.8527,0,0,1-1.3967.7283,1.6893,1.6893,0,0,1-1.2391-.53C143.3914,64.6384,138.6174,62.2844,134.5713,62.3376Z"/><path class="cls-4" d="M170.229,118.3386a2.6124,2.6124,0,0,1-2.7383-2.2A119.0113,119.0113,0,0,1,163.967,88.261a124.5188,124.5188,0,0,1,4.9512-37.1155,2.6061,2.6061,0,0,1,2.4453-1.926c2.8335-.3,7.2305-.4343,11.4473-.4666,12.9922-.0932,18.9785,1.5484,23.8506,6.4622,3.6313,3.8276,5.1035,9.4766,5.114,16.4951.0207,16.6751-9.8728,23.7947-19.99,28.3237-6.1868,2.81-7.8362,4.3409-7.718,7.7063.1262,3.3623,2.0178,7.918,2.0793,9.1922.05,1.0014-.5451,1.4516-1.5944,1.5344-1.833.1694-4.6407.2368-7.5381.2114C174.7319,118.6562,172.3486,118.5439,170.229,118.3386ZM190.37,85.1956c2.6343-2.6373,4.56-8.2847,4.6265-14.2957.0622-5.9211-1.7454-9.5583-7.1262-9.5393-1.7954.0071-2.7012.2839-3.4451,1.0137-2.0364,2.101-3.2263,9.5532-3.2581,19.5486-.01,4.4506.4722,6.4521,2.2007,6.4531A10.9034,10.9034,0,0,0,190.37,85.1956Z"/><path class="cls-4" d="M228.5688,118.7761a62.1167,62.1167,0,0,1-8.4221-.3281c-1.2263-.18-1.7458-.6335-2.16-2.1814-.7271-3.5518-1.4785-15.3047-1.4639-27.4236.0474-20.6865,1.9038-33.6211,2.7915-37.4446a2.5624,2.5624,0,0,1,2.3262-2.361c2.4543-.1744,5.0881-.254,7.7231-.2383,2.8123.0144,5.6258.1272,8.0982.3261,1.0559.1019,1.6189.556,1.5937,1.6468.1558,2.446-3.1894,14.509-3.2073,33.15.0208,18.187,2.8811,31.0669,2.7605,32.88-.0664,1.0911-.6123,1.4578-1.675,1.5574A63.157,63.157,0,0,1,228.5688,118.7761Z"/><path class="cls-4" d="M282.8872,99.0972c1.1394,2.94,1.6165,12.6342,1.0176,16.11a3.2087,3.2087,0,0,1-3.2263,2.7315c-4.344.3523-9.5379.5383-14.5418.6186-6.6694.1067-13.0625.0091-17.5261-.1252-1.9251-.0694-2.9465-.4219-2.88-2.5967.1016-3.8953.2671-8.25.4617-12.7822.643-16.5,1.5137-35.8255,3.1384-51.6443.1658-1.2664.7937-2.07,1.9314-2.15,1.5659-.1621,4.3687-.2192,7.53-.175,3.4241.0471,7.0486.2849,9.0921.4961,1.3286.11,1.7539.6555,1.852,1.4641.6814,2.1284-4.2512,29.5991-5.47,45.9431-.2271,4.8653.7622,5.8486,3.8315,5.8218,3.7847-.0342,8.2451-1.8677,11.3511-3.6824a4.7353,4.7353,0,0,1,2.2312-.9111A1.107,1.107,0,0,1,282.8872,99.0972Z"/><path class="cls-4" d="M305.99,50.57a2.2588,2.2588,0,0,1,2.0559,1.8858c-.092,2.2785.2131,10.592-2.1016,40.6091-.2319,2.3721-1.2968,3.0874-5.7683,3.57a26.574,26.574,0,0,1-3.5486.2083c-2.2673.019-3.3186-.4121-3.6787-2.0081-1.5727-7.5305-2.7871-15.8948-4.0468-25.8643-.6748-5.34-1.2344-9.7041-2.053-15.3095-.2027-1.9585.0024-3.37,2.7678-3.5774,2.0811-.1284,4.9634-.1538,7.95-.0791A78.4231,78.4231,0,0,1,305.99,50.57Zm-18.1409,59.2371c.7266-5.7864,4.8423-9.2063,10.9124-9.2737,6.3144-.0706,9.6494,3.2165,8.716,8.915-.9472,5.6106-5.1855,8.6946-11.2939,8.8516C290.3071,118.4492,287.1177,115.5049,287.8491,109.8074Z"/><path class="cls-5" d="M147.7178,62.3376c-4.1284.0523-6.2681,2.3028-6.5,5.055-.304,3.73,2.2277,5.6589,8.59,7.9512,14.1294,4.9377,20.834,10.8312,21.3069,22.7421.44,11.6431-5.9732,21.3247-22.9495,20.9378-13.9643-.3338-24.914-7.4519-26.2422-18.721-.497-4.6435.8033-7.7866,2.6316-9.6213a1.3385,1.3385,0,0,1,1.0672-.61,1.6935,1.6935,0,0,1,1.4013.8863c4.6258,7.322,12.3543,12.2126,19.1629,12.2961,4.5949.0547,7.2326-1.5254,7.018-4.93-.2-3.31-2.99-5.2087-9.9914-7.4656-11.4292-3.8879-20.9976-9.3322-19.97-21.508C124.33,58.07,134.5408,48.7891,149.4805,48.4287c8.4008-.1824,15.2163,2.2073,19.657,5.8455a2.4019,2.4019,0,0,1,.9545,2.1487c-.25,2.7055-3.7534,8.9555-6.6364,12.2988a1.85,1.85,0,0,1-1.3968.7283,1.6876,1.6876,0,0,1-1.239-.53C156.5381,64.6384,151.7666,62.2844,147.7178,62.3376Z"/><path class="cls-5" d="M183.3755,118.3386a2.613,2.613,0,0,1-2.7383-2.2,118.7718,118.7718,0,0,1-3.5237-27.8772,124.4251,124.4251,0,0,1,4.9512-37.1155A2.6038,2.6038,0,0,1,184.51,49.22c2.8347-.3,7.2293-.4343,11.4473-.4666,12.9909-.0932,18.9792,1.5484,23.8506,6.4622,3.6272,3.8276,5.1062,9.4766,5.114,16.4951.0219,16.6751-9.8706,23.7947-19.99,28.3237-6.1851,2.81-7.8389,4.3409-7.718,7.7063.1279,3.3623,2.019,7.918,2.0793,9.1922.0469,1.0014-.5439,1.4516-1.5945,1.5344-1.8347.1694-4.6384.2368-7.538.2114C187.8774,118.6562,185.501,118.5439,183.3755,118.3386Zm20.1406-33.143c2.6392-2.6373,4.5586-8.2847,4.6265-14.2957.0617-5.9211-1.7459-9.5583-7.1262-9.5393-1.7984.0071-2.7012.2839-3.4451,1.0137-2.0369,2.101-3.2273,9.5532-3.2581,19.5486-.0105,4.4506.4724,6.4521,2.2007,6.4531A10.91,10.91,0,0,0,203.5161,85.1956Z"/><path class="cls-5" d="M241.7153,118.7761a62.1292,62.1292,0,0,1-8.4221-.3281c-1.2261-.18-1.7456-.6335-2.16-2.1814-.7254-3.5518-1.48-15.3047-1.4639-27.4236.05-20.6865,1.906-33.6211,2.7915-37.4446a2.5616,2.5616,0,0,1,2.3262-2.361c2.4536-.1744,5.0864-.254,7.7231-.2383,2.8142.0144,5.6238.1272,8.0982.3261,1.0578.1019,1.6164.556,1.5937,1.6468.1514,2.446-3.1846,14.509-3.2073,33.15.02,18.187,2.8772,31.0669,2.7605,32.88-.0634,1.0911-.6152,1.4578-1.675,1.5574A63.1451,63.1451,0,0,1,241.7153,118.7761Z"/><path class="cls-5" d="M296.0337,99.0972c1.1418,2.94,1.6169,12.6342,1.0176,16.11a3.2091,3.2091,0,0,1-3.2263,2.7315c-4.3475.3523-9.5384.5383-14.5418.6186-6.67.1067-13.06.0091-17.5261-.1252-1.927-.0694-2.949-.4219-2.88-2.5967.1008-3.8953.2693-8.25.4617-12.7822.6425-16.5,1.5156-35.8255,3.1384-51.6443.1636-1.2664.7964-2.07,1.9314-2.15,1.5664-.1621,4.3682-.2192,7.53-.175,3.4246.0471,7.0491.2849,9.0921.4961,1.3322.11,1.7512.6555,1.852,1.4641.678,2.1284-4.2478,29.5991-5.47,45.9431-.2238,4.8653.76,5.8486,3.8316,5.8218,3.7839-.0342,8.2429-1.8677,11.3511-3.6824a4.7224,4.7224,0,0,1,2.2312-.9111A1.1073,1.1073,0,0,1,296.0337,99.0972Z"/><path class="cls-5" d="M319.1367,50.57a2.26,2.26,0,0,1,2.0557,1.8858c-.0913,2.2785.2134,10.592-2.1016,40.6091-.2314,2.3721-1.2969,3.0874-5.7685,3.57a26.5794,26.5794,0,0,1-3.5486.2083c-2.2674.019-3.3191-.4121-3.6785-2.0081-1.5715-7.5305-2.7883-15.8948-4.0469-25.8643-.6765-5.34-1.2346-9.7041-2.0529-15.3095-.2017-1.9585.0029-3.37,2.7678-3.5774,2.0781-.1284,4.9648-.1538,7.95-.0791A78.4492,78.4492,0,0,1,319.1367,50.57Zm-18.1411,59.2371c.7258-5.7864,4.8425-9.2063,10.9124-9.2737,6.3191-.0706,9.6482,3.2165,8.716,8.915-.95,5.6106-5.1865,8.6946-11.2939,8.8516C303.4546,118.4492,300.2637,115.5049,300.9956,109.8074Z"/><g class="cls-6"><path class="cls-7" d="M66.2007,17.0073c-11.3844.9212-21.6958,5.4708-28.8431,14.61-7.3154,9.354-9.0508,20.12-7.4133,31.6365C31.0857,71.2817,41.2994,75.6806,48.396,73.73c8.6294-2.3715,11.6216-10.3991,10.4766-18.4518.3041,2.1387.1912-.4292.2432-1.3014.14-2.3465-.5292,1.748.1609-.5029.2271-.7406,1.232-3.1671.3485-1.3792.1788-.3617,2.141-3.2454,1.3316-2.2679a7.1947,7.1947,0,0,1,2.688-1.9758c.7248-.2793,2.0746-.7462.5909-.2914.3552-.1089,4.551-.7618,1.965-.5526,7.8016-.6313,15.3831-6.4469,15-15-.34-7.5847-6.6244-15.6777-15-15Z"/></g></g></svg>
