<svg xmlns="http://www.w3.org/2000/svg" width="1000" height="690" viewBox="0 0 1000 690"><defs><style>.cls-1{fill:#81aa93;opacity:0.91;}.cls-2{fill:#fff;}</style></defs><title>Artboard_setting_boks</title><g id="infoboks"><rect class="cls-1" x="30" y="22" width="950" height="652" rx="42.8202" ry="42.8202"/><path class="cls-2" d="M158.4873,83.7251c-2.7607,0-4.02,1.5-4.02,3.36,0,2.52,1.74,3.84,6,5.4,9.42,3.36,13.92,7.2592,13.92,15.1792,0,7.74-5.16,14.2192-16.8594,14.2192-9.66,0-15.8994-4.68-15.8994-12.4194,0-3.18.96-5.34,2.22-6.6a.9275.9275,0,0,1,.72-.42,1.051,1.051,0,0,1,.9.6c2.8193,4.98,7.5595,8.2193,12.1191,8.2193,3.06,0,4.92-1.08,4.92-3.3594,0-2.22-1.8-3.48-6.36-4.98-7.499-2.58-13.499-6.3-13.499-14.64,0-7.74,5.46-13.9195,15.7793-13.9195a23.26,23.26,0,0,1,13.92,4.14,1.772,1.772,0,0,1,.7793,1.44c0,1.8-2.04,5.9395-3.84,8.16a1.1385,1.1385,0,0,1-.8994.48,1.1828,1.1828,0,0,1-.84-.36C164.5469,85.3447,161.1865,83.7251,158.4873,83.7251Z"/><path class="cls-2" d="M191.1855,121.8833c-10.7988,0-14.3994-8.2793-14.3994-18.3589,0-14.8193,7.5606-20.8794,16.56-20.8794,6.06,0,10.8,3.24,10.8,9.96,0,10.26-8.58,11.46-13.8594,13.8-1.86.66-2.64,1.2-2.64,2.22,0,1.74,1.26,3.12,4.14,3.12a12.8093,12.8093,0,0,0,10.26-4.86c.3594-.3.6-.48.8994-.48.84,0,1.5,1.56,1.5,4.38C204.4453,117.7437,198.2656,121.8833,191.1855,121.8833Zm.8409-30.8984c-3.3,0-5.58,3.6-5.58,7.74,0,.6.18,1.08.72,1.08a2.6831,2.6831,0,0,0,1.14-.3c2.4-1.44,6.48-2.94,6.48-5.82A2.5668,2.5668,0,0,0,192.0264,90.9849Z"/><path class="cls-2" d="M222.6855,75.7451c-.1806.78-1.92,4.62-1.92,7.08,0,.54.3.84,1.14.84.6,0,1.86-.24,2.7-.24.54,0,.84.36.96,1.08a24.4985,24.4985,0,0,1,.3,4.02,25.0885,25.0885,0,0,1-.42,4.8.8391.8391,0,0,1-.9.72c-.7793,0-1.8-.3-2.88-.3-.96,0-1.2.72-1.26,1.74a33.5214,33.5214,0,0,0-.18,3.72,79.4168,79.4168,0,0,0,2.76,18.5991c.06.42.24.84.24,1.14a1.2635,1.2635,0,0,1-.66,1.08c-2.22,1.44-7.08,2.4-9.84,2.4-.84,0-1.32-.18-1.56-.84-1.2-3.3-1.86-10.8594-1.92-17.5791,0-3.42.18-6.66.2393-8.46.06-1.02-.2393-1.44-.8995-1.44-.48,0-1.02.06-1.38.06-.54,0-.84-.3-.9-1.02a10.1637,10.1637,0,0,1-.12-1.5,41.0085,41.0085,0,0,1,.6006-6.72c.18-1.14.66-1.44,1.3194-1.44.48,0,.9.06,1.32.06,1.4394,0,1.5-1.32,1.86-4.38a2.3571,2.3571,0,0,1,1.3194-2.34c2.94-1.62,8.16-2.16,9.3-2.16C222.5654,74.6655,222.8057,75.1455,222.6855,75.7451Z"/><path class="cls-2" d="M241.8242,74.6655a.7728.7728,0,0,1,.84.78c0,.9-1.98,4.5-1.98,7.38,0,.54.3.84.96.84.78,0,2.04-.24,2.88-.24.54,0,.84.36.96,1.08a25.304,25.304,0,0,1,.3,4.08,24.8918,24.8918,0,0,1-.42,4.74.8385.8385,0,0,1-.9.72c-.7793,0-1.8-.3-2.88-.3-.8994,0-1.14.54-1.26,2.1a33.515,33.515,0,0,0-.18,3.72,75.5138,75.5138,0,0,0,2.88,18.7192,3.96,3.96,0,0,1,.12.66,1.2636,1.2636,0,0,1-.66,1.08c-2.28,1.5-7.5,2.4-10.02,2.4a1.2825,1.2825,0,0,1-1.38-.84c-1.32-3.3-1.86-8.28-1.86-13.62,0-5.9995.66-10.8594.7207-12.7193.06-.66-.1807-.9-.7207-1.02a4.9871,4.9871,0,0,0-.7793-.12,1.1135,1.1135,0,0,1-.96-1.26,66.3557,66.3557,0,0,1,.4794-8.1c.18-.9.54-1.26,1.08-1.26h.9c.7793,0,.8994-.96,1.0791-3.06.24-2.52.36-2.94,1.5-3.6C235.4043,75.1455,240.6846,74.6655,241.8242,74.6655Z"/><path class="cls-2" d="M260.123,121.1035c-1.4394.12-3.1191.18-4.8593.18s-3.42-.06-4.92-.18a1.5146,1.5146,0,0,1-1.5-1.56,118.7031,118.7031,0,0,1-.72-13.6792,133.1052,133.1052,0,0,1,1.5-20.9395,1.61,1.61,0,0,1,1.68-1.5c1.32-.12,2.52-.12,3.66-.12,1.2,0,2.3994,0,3.72.12.8994.06,1.38.48,1.38,1.2,0,1.32-.42,6.78-.42,13.14,0,11.9395,1.62,20.1592,1.62,22.2588C261.2637,120.7437,260.7236,121.0435,260.123,121.1035Zm-11.5195-44.998c0-3.18,2.1006-5.16,6.54-5.16,4.68,0,6.54,1.98,6.54,5.16,0,3.12-1.86,4.92-6.54,4.92C250.7041,81.0254,248.6035,79.2251,248.6035,76.1055Z"/><path class="cls-2" d="M294.082,98.1245a190.7248,190.7248,0,0,1-1.26,21.2393c-.18,1.14-.78,1.68-1.68,1.74a33.1936,33.1936,0,0,1-3.66.12c-1.5,0-2.9394-.06-4.2-.12-.96-.12-1.3193-.54-1.3193-1.26,0-2.76.8994-12.78.8994-20.6392,0-4.26-.72-6.3-2.9394-6.3a3.8009,3.8009,0,0,0-2.76,1.08c-1.02.96-1.44,2.64-1.44,7.02,0,8.9995.84,16.7393.84,18.5391,0,1.08-.4795,1.5-1.56,1.56s-2.22.12-3.36.12c-1.5,0-2.94-.06-4.02-.12-1.0195-.06-1.68-.36-1.8-1.92-.42-4.62-.72-10.4995-.72-17.2793,0-4.86.12-10.2.54-15.8394.12-1.92,1.26-2.4,2.8193-2.58,1.08-.06,2.34-.12,3.54-.12,1.02,0,2.04.06,2.76.12,1.08.06,1.5.54,1.5,1.38s.3,1.14.84,1.14c1.8,0,4.08-3.18,8.58-3.18C291.3818,82.8252,294.082,86.9648,294.082,98.1245Z"/><path class="cls-2" d="M311.4824,82.585c2.52,0,3.54.36,4.68.36,1.56,0,2.3994-2.16,3.66-3.84.6-1.02,1.26-1.5,1.92-1.5,1.5,0,5.3994,3.78,5.3994,5.34a1.1774,1.1774,0,0,1-.6,1.0195c-1.32.72-2.7,1.44-2.7,2.94,0,1.62,2.64,2.58,2.64,8.28,0,6.9-4.38,11.64-14.1,11.64-5.1591,0-6.6,1.98-6.6,3.78,0,1.2.66,1.74,2.04,1.74,2.76,0,7.2-2.64,12.18-2.64a10.53,10.53,0,0,1,5.8193,1.44,2.36,2.36,0,0,1,1.08,2.16c0,2.76-1.68,8.4-3.6,8.4a3.22,3.22,0,0,1-1.26-.3,8.7656,8.7656,0,0,0-5.04-1.32c-3.66,0-6.42,1.92-11.46,1.92-5.5791,0-8.7588-2.7-8.7588-7.62a11.4352,11.4352,0,0,1,4.1992-8.7c.42-.42.66-.72.66-1.08a1.6678,1.6678,0,0,0-.4805-.9,12.3647,12.3647,0,0,1-3.6-8.9995C297.5625,87.2051,303.1426,82.585,311.4824,82.585Zm.72,15.6a3.9554,3.9554,0,0,0,4.2-4.02,4.1419,4.1419,0,1,0-4.2,4.02Z"/><path class="cls-2" d="M341.4814,112.8237c2.1,0,3-.84,3-2.34s-1.08-2.52-4.38-4.08c-5.76-2.76-10.44-5.22-10.44-12.24,0-7.2,5.3994-11.58,13.919-11.58,3.84,0,7.8.96,9.84,2.16a1.9894,1.9894,0,0,1,1.14,1.98,22.3983,22.3983,0,0,1-2.039,7.8594,1.0321,1.0321,0,0,1-.96.72,1.1846,1.1846,0,0,1-.8408-.36c-2.22-1.86-5.6992-3.78-8.52-3.78-1.92,0-2.88.9-2.88,2.16,0,1.56,1.08,2.28,4.5,3.84,5.34,2.4,11.2793,5.22,11.2793,12.66,0,8.04-5.1592,12.0591-13.0186,12.0591-8.04,0-13.0195-3.84-13.0195-10.02a10.3354,10.3354,0,0,1,1.14-5.16,1.13,1.13,0,0,1,.9-.6.8224.8224,0,0,1,.78.48C333.6221,109.584,337.2812,112.8237,341.4814,112.8237Z"/><path class="cls-2" d="M113.0469,274.2876c-1.1035.0478-2.544.0962-4.2715.0962-1.585,0-3.2647,0-4.7051-.0962a.973.973,0,0,1-.9121-.8159,84.4881,84.4881,0,0,1-1.3437-15.6494,137.0958,137.0958,0,0,1,1.4882-19.1538c.0957-.816.5762-1.0562.96-1.0562,1.0557-.0957,2.9277-.144,4.7519-.144,1.5362,0,3.0245.0483,4.0811.144a1.9653,1.9653,0,0,1,1.7754,1.1523,94.5205,94.5205,0,0,1,5.2324,12.7212c.0967.336.2881.48.5283.48s.3838-.144.4805-.4321c1.8242-5.0405,3.6963-9.6011,5.1357-12.5293a2.317,2.317,0,0,1,1.6329-1.2959c1.2-.0962,2.5918-.1919,4.0322-.1919,1.2959,0,2.5918.0957,3.9365.1919a1.5645,1.5645,0,0,1,1.4883,1.1519,81.213,81.213,0,0,1,2.1113,18.4335,115.5461,115.5461,0,0,1-1.1513,15.7935,1.2451,1.2451,0,0,1-1.1524,1.2c-1.1523.0962-3.456.1919-5.6162.1919-1.6807,0-3.1689-.0957-4.1289-.1919-.624-.0962-.8643-.3359-.8643-.8159,0-1.7285,2.4483-8.353,2.4483-16.6094a32.9164,32.9164,0,0,0-.5274-6.5767.3662.3662,0,0,0-.3847-.3359.4075.4075,0,0,0-.3838.3359,138.07,138.07,0,0,1-6.3848,15.6011,1.1936,1.1936,0,0,1-1.0557.7681,1.3182,1.3182,0,0,1-1.1523-.7681,100.5521,100.5521,0,0,1-6.24-15.5054.5519.5519,0,0,0-.4805-.3837c-.1914,0-.3359.144-.3838.3837a49.4089,49.4089,0,0,0-.4805,7.6329c0,8.3046,2.4483,14.2094,2.4483,15.5532C113.959,274,113.623,274.1914,113.0469,274.2876Z"/><path class="cls-2" d="M143.1416,259.5024a133.5814,133.5814,0,0,1,1.0088-13.8252c.1435-1.0083.5762-1.44,1.3437-1.5361.96-.0483,2.16-.0962,3.3125-.0962,1.1036,0,2.1123.0479,2.9278.0962.8164.0957,1.0566.48,1.0566,1.104,0,1.5361-.72,9.8408-.72,16.0816,0,3.936.9111,5.2324,2.4961,5.2324a2.7977,2.7977,0,0,0,1.9678-.7681c.96-.9121,1.3437-2.5444,1.3437-5.7607a132.68,132.68,0,0,0-.7676-14.4971c-.0478-.96.336-1.2964,1.2481-1.3921a21.265,21.265,0,0,1,2.5918-.0962c1.2,0,2.3525,0,3.2646.0962.9121.0479,1.44.336,1.584,1.68a102.4862,102.4862,0,0,1,.6719,12.5771c0,4.1763-.1914,8.7364-.624,13.8252-.0957,1.44-1.0079,1.8721-2.1114,1.9678a22.5121,22.5121,0,0,1-2.5927.0962c-.6719,0-1.3438,0-1.8243-.0479-.8164-.0961-1.1523-.4321-1.1523-1.2,0-.6724-.2393-.9122-.7676-.9122-1.5361,0-3.6006,2.5923-7.0088,2.5923C145.0146,274.72,143.1416,270.9751,143.1416,259.5024Z"/><path class="cls-2" d="M178.95,267.6631c1.68,0,2.3994-.6719,2.3994-1.8721s-.8633-2.0161-3.5039-3.2646c-4.6084-2.208-8.3525-4.1763-8.3525-9.7925,0-5.7608,4.32-9.2651,11.1367-9.2651a17.3931,17.3931,0,0,1,7.873,1.7285,1.5919,1.5919,0,0,1,.9121,1.5839,17.9084,17.9084,0,0,1-1.6328,6.2886.8238.8238,0,0,1-.7676.5762.9464.9464,0,0,1-.6718-.2881c-1.7764-1.4883-4.5606-3.0244-6.8164-3.0244-1.5362,0-2.3047.72-2.3047,1.728,0,1.2481.8642,1.8242,3.6006,3.0723,4.2724,1.92,9.0244,4.1767,9.0244,10.1289,0,6.4326-4.1279,9.6489-10.417,9.6489-6.4326,0-10.417-3.0722-10.417-8.0166a8.2744,8.2744,0,0,1,.9121-4.1284.9048.9048,0,0,1,.7207-.48.66.66,0,0,1,.624.3838C172.6611,265.0708,175.59,267.6631,178.95,267.6631Z"/><path class="cls-2" d="M201.6064,274.2876c-1.1523.0962-2.497.144-3.8886.144s-2.7364-.0478-3.9366-.144a1.2124,1.2124,0,0,1-1.2-1.248,94.9473,94.9473,0,0,1-.5762-10.9449,106.6089,106.6089,0,0,1,1.2-16.7534,1.2887,1.2887,0,0,1,1.3447-1.2c1.0557-.0962,2.0156-.0962,2.9277-.0962.96,0,1.92,0,2.9766.0962.72.0479,1.1035.3838,1.1035.96,0,1.0561-.3359,5.4243-.3359,10.5127,0,9.5532,1.2969,16.1294,1.2969,17.8095C202.5186,274,202.0859,274.24,201.6064,274.2876ZM192.39,238.2847c0-2.5445,1.68-4.1285,5.2325-4.1285,3.7441,0,5.2324,1.584,5.2324,4.1285,0,2.4961-1.4883,3.936-5.2324,3.936C194.0693,242.2207,192.39,240.7808,192.39,238.2847Z"/><path class="cls-2" d="M204.6768,260.8945c0-11.9531,5.3759-17.4257,12.4326-17.4257,5.6162,0,8.3525,3.9365,8.3525,8.9287,0,3.2163-3.4082,5.6645-5.9521,5.6645-.6719,0-.96-.1919-1.0078-.7681-.1446-3.0722-.1924-6.0483-2.16-6.0483-1.7764,0-3.0244,2.7363-3.0244,7.7285,0,4.0806.8154,7.0567,3.9365,7.0567,3.0723,0,4.8477-2.3521,5.8565-4.56a.6605.6605,0,0,1,.624-.4321.7422.7422,0,0,1,.5273.3359,6.7849,6.7849,0,0,1,1.4883,4.5122c0,4.9444-3.4082,9.0249-10.1289,9.0249C207.94,274.9116,204.6768,269.0552,204.6768,260.8945Z"/><path class="cls-2" d="M126.5439,373.3809c-2.208,0-3.2158,1.1992-3.2158,2.6875,0,2.0166,1.3916,3.0722,4.8008,4.32,7.5361,2.6884,11.1367,5.8086,11.1367,12.1455,0,6.1924-4.1289,11.3769-13.4892,11.3769-7.7285,0-12.7217-3.7441-12.7217-9.9365a7.2779,7.2779,0,0,1,1.7764-5.2812.7412.7412,0,0,1,.5761-.336.84.84,0,0,1,.72.4805c2.2568,3.9844,6.0488,6.5762,9.6972,6.5762,2.4483,0,3.9365-.8633,3.9365-2.6875,0-1.7764-1.44-2.7852-5.0888-3.9844-6-2.0645-10.8008-5.041-10.8008-11.7129,0-6.1934,4.3682-11.1367,12.625-11.1367a18.61,18.61,0,0,1,11.1367,3.3115,1.4165,1.4165,0,0,1,.624,1.1523c0,1.44-1.6318,4.753-3.0722,6.5284a.91.91,0,0,1-.72.3847.9471.9471,0,0,1-.6718-.289C131.3926,374.6768,128.7041,373.3809,126.5439,373.3809Z"/><path class="cls-2" d="M141.2305,388.4062c0-9.5058,4.08-15.9374,12.1933-15.9374s11.4727,6.1445,11.4727,15.9374c0,10.8965-5.28,15.5049-12.1455,15.5049C145.9824,403.9111,141.2305,399.3027,141.2305,388.4062Zm15.2168-.6718c0-5.5215-1.2481-8.1133-3.36-8.1133-2.2558,0-3.456,2.5918-3.456,8.1133,0,5.4717.96,7.872,3.4082,7.872C155.5352,395.6064,156.4473,393.11,156.4473,387.7344Z"/><path class="cls-2" d="M167.4375,388.502a133.5989,133.5989,0,0,1,1.0088-13.8252c.1435-1.0088.5762-1.44,1.3437-1.5362.96-.0488,2.16-.0957,3.3125-.0957,1.1045,0,2.1123.0469,2.9278.0957.8164.0957,1.0566.4805,1.0566,1.1035,0,1.5371-.72,9.8418-.72,16.0821,0,3.9355.9121,5.2324,2.4961,5.2324a2.8,2.8,0,0,0,1.9678-.7676c.96-.9121,1.3437-2.5449,1.3437-5.7617a132.6612,132.6612,0,0,0-.7676-14.4961c-.0478-.9609.336-1.2969,1.2481-1.3926a21.3754,21.3754,0,0,1,2.5918-.0957c1.2,0,2.3525,0,3.2646.0957.9121.0479,1.44.336,1.584,1.68a102.5085,102.5085,0,0,1,.6719,12.5781c0,4.1758-.1914,8.7364-.624,13.8243-.0957,1.44-1.0079,1.873-2.1124,1.9687a22.6026,22.6026,0,0,1-2.5917.0957c-.6719,0-1.3438,0-1.8243-.0478-.8164-.0967-1.1523-.4327-1.1523-1.2,0-.6719-.2393-.9121-.7676-.9121-1.5361,0-3.6006,2.5918-7.0088,2.5918C169.3105,403.7188,167.4375,399.9746,167.4375,388.502Z"/><path class="cls-2" d="M217.5039,384.9014a152.4209,152.4209,0,0,1-1.0078,16.9931c-.1445.9121-.624,1.3448-1.3447,1.3926a26.6437,26.6437,0,0,1-2.9278.0957c-1.2,0-2.3525-.0478-3.36-.0957-.7686-.0957-1.0557-.4316-1.0557-1.0078,0-2.209.72-10.2246.72-16.5137,0-3.4082-.5761-5.041-2.3525-5.041a3.0416,3.0416,0,0,0-2.208.8652c-.8164.7676-1.1523,2.1114-1.1523,5.6153,0,7.2011.6718,13.3935.6718,14.834,0,.8642-.3838,1.2-1.248,1.248s-1.7754.0957-2.6875.0957c-1.2,0-2.3526-.0478-3.2168-.0957-.8154-.0478-1.3438-.2881-1.44-1.5361-.3369-3.6963-.5761-8.4014-.5761-13.8252,0-3.8887.0957-8.16.4316-12.6729.0957-1.5361,1.0078-1.9209,2.2559-2.0644.8642-.0479,1.872-.0967,2.833-.0967.8154,0,1.6318.0488,2.208.0967.8642.0478,1.2.4326,1.2,1.1045s.2392.9121.6718.9121c1.44,0,3.2647-2.5449,6.8643-2.5449C215.3438,372.66,217.5039,375.9727,217.5039,384.9014Z"/><path class="cls-2" d="M220.19,389.75c0-11.041,3.456-17.2334,8.497-17.2334,2.4,0,4.1758,1.4873,5.3281,2.4961a.6918.6918,0,0,0,.4805.1924c.2881,0,.48-.1924.48-.6719,0-2.9287-1.2-8.3535-1.2-9.3613,0-.7207.48-1.0078,1.1524-1.0567.8642-.0468,1.7763-.0957,2.6884-.0957,1.2959,0,2.64.0489,3.8877.1446.8164.0957,1.3448.3359,1.4883,1.6318a191.4333,191.4333,0,0,1,1.0567,20.7373,104.1455,104.1455,0,0,1-.7686,14.0654,2.1476,2.1476,0,0,1-1.4883,1.7285c-1.5361.5762-4.5117,1.2481-9.6006,1.2481C223.6934,403.5752,220.19,399.3506,220.19,389.75Zm15.1689-3.0723c0-5.28-1.4395-7.1523-3.168-7.1523-1.872,0-3.0244,2.16-3.0244,9.0723,0,6.4326,1.1524,8.3046,3.2647,8.3046C234.7344,396.9023,235.3584,395.6064,235.3584,386.6777Z"/><path class="cls-2" d="M266.4619,403.9111c-8.6406,0-11.5205-6.624-11.5205-14.6894,0-11.8565,6.0479-16.7051,13.249-16.7051,4.8487,0,8.6407,2.5928,8.6407,7.9688,0,8.208-6.8643,9.1689-11.0889,11.04-1.4883.5293-2.1123.9609-2.1123,1.7773,0,1.3916,1.0078,2.4961,3.3125,2.4961a10.2474,10.2474,0,0,0,8.208-3.8886c.2881-.24.4805-.3848.7207-.3848.6719,0,1.2,1.249,1.2,3.5049C277.0713,400.5986,272.127,403.9111,266.4619,403.9111Zm.6719-24.7216c-2.64,0-4.4639,2.88-4.4639,6.1914,0,.48.1436.8652.5762.8652a2.1612,2.1612,0,0,0,.9121-.24c1.92-1.1524,5.1846-2.3526,5.1846-4.6563A2.0541,2.0541,0,0,0,267.1338,379.19Z"/><path class="cls-2" d="M294.6855,364.5479a27.5486,27.5486,0,0,1-.7207,4.7529c-.0957.3828-.3359.5752-.5761.5752a16.0862,16.0862,0,0,0-1.8242-.336c-1.2481,0-1.92.96-1.92,2.6885,0,.6719.3838,1.0567,1.3448,1.0567.72,0,1.8232-.1446,2.3515-.1446.4805,0,.6719.2881.8164.8633a24.4154,24.4154,0,0,1,.24,3.1211,18.535,18.535,0,0,1-.3848,4.0322.67.67,0,0,1-.72.5762c-.6241,0-1.4883-.24-2.2559-.24-.5762,0-.7685.3838-.8164,1.44-.0478.8164-.0957,1.68-.0957,2.7363a130.1307,130.1307,0,0,0,1.248,16.2735c.0958.5761.0479,1.1035-.4326,1.1992a22.6832,22.6832,0,0,1-4.56.3847c-1.2481,0-2.4971,0-3.4571-.0957-.6718-.0488-1.2-.1445-1.248-.6718-.2881-3.0254-.3838-6.7207-.3838-10.1778,0-4.32.1924-7.9687.24-9.6972.0479-.7676-.24-1.2481-.9121-1.2481-.4326,0-.8164.0488-.96.0488a.7694.7694,0,0,1-.8164-.7685,15.1855,15.1855,0,0,1-.0958-1.6807,21.628,21.628,0,0,1,.5762-5.3281.7747.7747,0,0,1,.8154-.623c.3838,0,.8643.0468,1.1045.0468.8643,0,.8643-.959,1.2481-3.2158.4795-4.1279,2.6406-7.3447,8.0166-7.3447a7.9042,7.9042,0,0,1,3.6484.5762A1.13,1.13,0,0,1,294.6855,364.5479Z"/><path class="cls-2" d="M296.5068,386.4863a124.0858,124.0858,0,0,1,.6241-14.8818c.9609-6.4326,3.4091-8.833,8.5927-8.833a6.3819,6.3819,0,0,1,3.2647.5762,1.0923,1.0923,0,0,1,.5283,1.1035,22.3435,22.3435,0,0,1-.7207,4.85c-.1436.3828-.3359.5752-.5752.5752a12.1574,12.1574,0,0,0-1.7285-.336c-1.0557,0-1.68.9121-1.68,2.6407,0,.72.4316,1.1045,1.3437,1.1045.72,0,1.8243-.1446,2.4-.1446.4317,0,.6719.2881.7676.8633a19.5017,19.5017,0,0,1,.24,3.3125,20.3887,20.3887,0,0,1-.336,3.8408.67.67,0,0,1-.72.5762c-.624,0-1.2969-.24-2.1123-.24s-1.0088.624-1.0088,1.6806c0,9.8887,1.3447,17.4248,1.3447,18.961,0,.5761-.1445.9121-.5762,1.0566a31.1462,31.1462,0,0,1-4.9921.3359c-1.1524,0-2.2569-.0488-3.1211-.0957a1.22,1.22,0,0,1-1.1992-1.2011C296.5068,397.3828,296.5068,391.43,296.5068,386.4863Z"/><path class="cls-2" d="M321.8994,403.9111c-8.6406,0-11.5205-6.624-11.5205-14.6894,0-11.8565,6.0479-16.7051,13.249-16.7051,4.8487,0,8.6407,2.5928,8.6407,7.9688,0,8.208-6.8643,9.1689-11.0889,11.04-1.4883.5293-2.1123.9609-2.1123,1.7773,0,1.3916,1.0078,2.4961,3.3125,2.4961a10.2474,10.2474,0,0,0,8.208-3.8886c.2881-.24.4805-.3848.7207-.3848.6719,0,1.2,1.249,1.2,3.5049C332.5088,400.5986,327.5645,403.9111,321.8994,403.9111Zm.6719-24.7216c-2.64,0-4.4639,2.88-4.4639,6.1914,0,.48.1436.8652.5762.8652a2.1612,2.1612,0,0,0,.9121-.24c1.92-1.1524,5.1846-2.3526,5.1846-4.6563A2.0541,2.0541,0,0,0,322.5713,379.19Z"/><path class="cls-2" d="M334.2344,389.8945c0-11.9531,5.376-17.4257,12.4326-17.4257,5.6162,0,8.3525,3.9355,8.3525,8.9287,0,3.2158-3.4082,5.664-5.9521,5.664-.6719,0-.96-.1924-1.0078-.7685-.1446-3.0723-.1924-6.0479-2.16-6.0479-1.7764,0-3.0244,2.7363-3.0244,7.7285,0,4.0811.8154,7.0567,3.9365,7.0567,3.0723,0,4.8477-2.3526,5.8565-4.56a.66.66,0,0,1,.624-.4326.7422.7422,0,0,1,.5273.3359,6.7854,6.7854,0,0,1,1.4883,4.5127c0,4.9444-3.4082,9.0244-10.1289,9.0244C337.498,403.9111,334.2344,398.0547,334.2344,389.8945Z"/><path class="cls-2" d="M370.1387,366.9961c-.1446.624-1.5362,3.6963-1.5362,5.6641,0,.4316.2393.6718.9112.6718.48,0,1.4883-.1914,2.1611-.1914.4316,0,.6719.2881.7676.8633a19.6379,19.6379,0,0,1,.24,3.2168,20.1076,20.1076,0,0,1-.3359,3.84.6718.6718,0,0,1-.7207.5762c-.624,0-1.4395-.2392-2.3037-.2392-.7686,0-.96.5752-1.0078,1.3916a26.6705,26.6705,0,0,0-.1446,2.9765,63.5688,63.5688,0,0,0,2.208,14.8809c.0479.3359.1924.6719.1924.9121a1.01,1.01,0,0,1-.5283.8643c-1.7764,1.1523-5.6641,1.9209-7.8721,1.9209-.6728,0-1.0566-.1446-1.248-.6729-.961-2.64-1.4883-8.6885-1.5362-14.0654,0-2.7364.1436-5.3282.1914-6.7676.0479-.8164-.1914-1.1524-.72-1.1524-.3838,0-.8164.0479-1.1045.0479-.4316,0-.6718-.24-.72-.8164a8.1192,8.1192,0,0,1-.0957-1.2,32.7786,32.7786,0,0,1,.4795-5.376c.1445-.9121.5283-1.1523,1.0566-1.1523.3838,0,.72.0478,1.0557.0478,1.1523,0,1.2-1.0556,1.4883-3.5039a1.8872,1.8872,0,0,1,1.0556-1.873,20.4011,20.4011,0,0,1,7.44-1.7276C370.042,366.1318,370.2344,366.5156,370.1387,366.9961Z"/><path class="cls-2" d="M383.5781,396.6621c1.68,0,2.4-.6719,2.4-1.8711,0-1.2012-.8642-2.0166-3.5049-3.2656-4.6084-2.207-8.3525-4.1758-8.3525-9.792,0-5.7607,4.32-9.2646,11.1367-9.2646a17.3869,17.3869,0,0,1,7.8731,1.7285,1.5917,1.5917,0,0,1,.9121,1.5839,17.9129,17.9129,0,0,1-1.6328,6.2881.8231.8231,0,0,1-.7676.5762.9485.9485,0,0,1-.6719-.2881c-1.7764-1.4883-4.5605-3.0244-6.8164-3.0244-1.5361,0-2.3047.72-2.3047,1.7275,0,1.2481.8643,1.8243,3.6006,3.0723,4.2725,1.9209,9.0244,4.1768,9.0244,10.1289,0,6.4336-4.1279,9.6494-10.417,9.6494-6.4326,0-10.417-3.0722-10.417-8.0166a8.2751,8.2751,0,0,1,.9121-4.1289.9066.9066,0,0,1,.7207-.48.6592.6592,0,0,1,.6241.3838C377.2891,394.07,380.2178,396.6621,383.5781,396.6621Z"/></g></svg>
