<svg xmlns="http://www.w3.org/2000/svg" width="1920" height="1080" viewBox="0 0 1920 1080"><defs><style>.cls-1{fill:#afa095;}.cls-2{fill:#42210b;}.cls-3{fill:#754c24;}.cls-4{fill:#6b6b6b;}.cls-5{fill:#7f1616;}.cls-6{fill:#af1212;}.cls-7{fill:#999898;}.cls-8{fill:#fff;}.cls-9{fill:#c6c6c6;}.cls-10{fill:#3f3407;}.cls-11{fill:#cecaca;opacity:0.22;}.cls-12{fill:#f7e4d7;}.cls-13{fill:#f2a672;}.cls-14{fill:#050505;}.cls-15{fill:#edcfbc;}.cls-16{fill:#100f3f;}.cls-17{fill:#efe3dc;}.cls-18{fill:#070707;}.cls-19,.cls-20{fill:none;stroke-linecap:round;stroke-linejoin:round;stroke-width:12px;}.cls-19{stroke:#312f84;}.cls-20{stroke:#fff;}.cls-20,.cls-29{opacity:0.35;}.cls-21,.cls-31{fill:#c69c6d;}.cls-21{stroke:#c69c6d;stroke-miterlimit:10;opacity:0.28;}.cls-22{opacity:0.7;}.cls-23{fill:#755f5f;}.cls-24{fill:#9e826f;}.cls-25{fill:#f9f9f9;}.cls-26{fill:#72513b;}.cls-27{opacity:0.12;}.cls-28{fill:#5b5656;}.cls-30{opacity:0.54;}</style></defs><title>Artboard_startside</title><g id="titelskærm"><rect class="cls-1" width="1920" height="1080"/><path class="cls-2" d="M115.7381,334.0938C92.406,266.093,87.1215,205.2221,152.161,205.1658c51.05-.0533,88.8441,34.995,100.2868,67.84,3.1345,8.6407,2.6741,14.4045-.8525,19.8807-4.7736,9.8-22.5151,24.7867-32.5064,24.7867-3.24,0-5.1438-2.3048-6.5757-6.6261-1.43-4.3215-2.91-10.37-4.8809-15.8425-6.62-18.7207-19.5722-38.2847-34.9342-38.2764-17.13.0112-14.9794,23.0148-1.2119,62.7631,13.2465,40.0433,26.5434,53.0374,47.7824,53.0428,20.6227.0093,32.617-14.12,38.6009-33.44.9226-2.0178,2.1475-2.883,3.8978-2.8828,6.7005.001,16.2982,13.8443,20.2363,32.8937,6.954,33.1956-11.964,64.9484-60.39,64.9009C168.7916,434.1709,137.8617,400.3662,115.7381,334.0938Z"/><path class="cls-2" d="M655.6682,209.4427c11.1657-1.8021,50.6976-3.1852,64.025-3.2643,55.7807-.3346,95.9919,14.0608,95.3371,59.9406-.1959,27.6336-13.9566,46.773-33.5752,63.2012a5.46,5.46,0,0,0-1.9836,4.1088,3.9122,3.9122,0,0,0,2.0945,3.5241c30.0773,21.7281,41.4284,77.1584,41.5036,88.0641.0066,4.4184-2.5282,6.7587-6.76,7.0253-5.3619.26-14.6726.4935-24.2676.4332-7.9016-.05-16.088-.3945-21.455-.72-5.93-.3294-8.2127-2.1045-8.8392-6.2175-5.4116-43.4752-18.5125-66.6447-34.7106-66.6714-10.4035-.0182-14.993,6.9937-14.47,20.7464.6331,15.7985,6.7538,42.7613,6.8123,46.5731.076,3.2218-1.8669,4.6754-5.2467,4.95-6.2028.2585-14.662.5047-23.6928.4569-7.62-.04-14.9666-.3707-22.0329-.6985-3.9629-.3127-7.6551-1.2076-8.4383-7.0514-3.4337-23.9626-6.9791-53.7391-9.5279-86.693-2.8259-37.3312-4.5347-78.9941-1.9245-121.5513C648.959,211.5166,651.3069,210.0479,655.6682,209.4427Zm57.93,114.004c16.5952.0139,38.9759-26.3613,38.15-53.6151-.5592-16.4046-11.3-23.095-25.47-23.0391-6.1515.0237-11.9223,1.2147-14.5075,3.8547-5.4849,5.5747-7.5121,27.784-5.9808,53.7975C706.688,319.9367,708.6061,323.4468,713.5986,323.4467Z"/><path class="cls-2" d="M925.8153,432.5154c-4.2262-.329-7.5862-2.4284-8.0162-9.5426-1.195-11.2685-1.3966-26.3779-.8421-42.37,2.1911-62.773,12.3142-97.7108,13.3173-110.7454.3312-4.1454-.6627-6.8054-6.1352-6.7836-18.5807.0767-32.7168,8.6907-39.3353,8.71-2.416.0076-4.1616-1.4621-3.9768-5.2984.364-8.5574,5.5912-36.9018,8.8723-47.8382,1.4851-3.5494,4.1645-5.927,9.0065-7.4361,10.3009-3.3153,37.3565-7.9448,72.64-8.23,33.3651-.2691,58.1206,3.38,69.6081,9.2461,5.3348,3.53,5.6464,6.8062,4.1649,13.3715-2.79,13.7259-7.904,32.2349-11.813,42.6827-1.688,3.2854-3.06,4.4829-5.1733,4.49-6.0214.0193-15.6576-9.173-31.7809-9.1013-4.8589.0205-7.2465,2.1107-9.14,8.06a240.341,240.341,0,0,0-6.606,37.7578c-5.2957,57.051,4.7331,107.4018,4.42,116.3446-.1366,4.1676-1.8883,6.2374-6.1475,7.0963-5.1062.8516-15.2788,1.3642-26.2827,1.2772C943.8484,434.1368,933.4149,433.7583,925.8153,432.5154Z"/><path class="cls-2" d="M1093.1672,434.21c-5.3444-.3492-8.1211-1.5747-8.4039-6.9774a349.301,349.301,0,0,1,.9578-41.6973c5.7409-70.1668,37.5732-148.0042,116.011-184.3281,3.6428-1.5414,6.1606-2.4706,8.3861-2.4933,2.5433-.0261,4.1615.8607,6.531,2.3433,48.5952,36.2312,45.5649,102.9419,34.1727,183.872-1.86,13.0785-4.0494,26.761-6.7421,41.3395-1.1178,6.3791-4.3412,8.17-9.7542,8.7213-6.5368.54-14.4594.76-22.08.6815-9.312-.0962-18.3227-.4909-24.21-1.1551-3.6273-.642-5.4906-2.4754-5.2074-6.4056.4841-6.65,6.0737-20.5233,8.2647-38.9805,1.4593-12.1029-3.5067-17.2719-16.1652-17.3246-16.9336-.069-32.5417,6.8008-34.2,23.965-1.2977,13.5539,1.0212,24.7253.5182,32.56.0719,3.3168-1.16,5.1142-4.8639,5.6815-6.244.5435-14.7264.7631-23.757.6786C1105.57,434.6241,1099.6426,434.5691,1093.1672,434.21Zm85.5035-101.9792c7.1143-.5984,11.8411-.8969,15.458-1.5,3.6739-.9047,5.2315-3.0224,6.05-7.2586,3.6271-19.069.1449-44.7666-5.6866-57.7076-1.0651-1.8059-1.6735-3.0092-2.8893-3.003-1.5176.0077-2.96.92-5.2933,3.0422-19.5158,17.2905-33.091,49.2315-36.0079,68.5128-.4307,2.7115.5964,3.6173,2.3428,3.62C1156.1305,337.942,1165.9437,333.1277,1178.6707,332.2305Z"/><path class="cls-2" d="M1331.6406,436.6661c-4.7685-.3614-6.9226-1.6125-8.0428-4.6908-2.5207-8.9327-5.55-31.9046,8.8407-95.6239,15.55-64.03,37.5437-103.9453,53.1391-127.3505,3.4073-4.9276,7.1011-6.8034,10.4049-7.1474,10.7295-.7342,24.188-1.1976,35.9154-1.3366,39.3639-.4566,69.0966,6.2044,81.0176,27.1652,12.4879,20.938,7.1647,56.1759-10.4994,112.3466-19.0351,63.9889-39.6862,98.8885-118.9074,97.8611C1369.1187,437.7146,1337.2576,437.035,1331.6406,436.6661ZM1447.58,329.3813c16.5692-53.0478,8.3038-76.4935-14.2947-76.31a15.6034,15.6034,0,0,0-8.1393,2.8282c-7.7406,5.9054-19.2394,29.3641-29.8577,66.0462-10.7725,38.2205-11.3658,57.63-7.2,63.5264a8.5864,8.5864,0,0,0,7.3786,3.4456C1417.4689,389.08,1434.8546,373.1074,1447.58,329.3813Z"/><path class="cls-3" d="M140.7381,331.0938c-23.3321-68.0008-28.6167-128.8715,36.4228-128.928,51.05-.0533,88.8443,34.995,100.2869,67.84,3.1344,8.6407,2.6742,14.4045-.8525,19.8807-4.7736,9.8-22.5149,24.7868-32.5064,24.7867-3.24,0-5.1439-2.305-6.5757-6.6261-1.43-4.3213-2.91-10.3706-4.8809-15.8425-6.62-18.7206-19.5722-38.2848-34.9342-38.2764-17.13.0111-14.9793,23.0146-1.2119,62.7631,13.2464,40.0431,26.5433,53.0374,47.7824,53.0428,20.6225.0092,32.617-14.12,38.6009-33.44.9227-2.0178,2.1476-2.883,3.8978-2.8828,6.7006.0011,16.2981,13.8444,20.2363,32.8937,6.9539,33.1955-11.9639,64.9485-60.39,64.9009C193.7915,431.1708,162.8617,397.3663,140.7381,331.0938Z"/><path class="cls-3" d="M680.6682,206.4427c11.1657-1.8021,50.6973-3.185,64.025-3.2643,55.7806-.3346,95.992,14.0608,95.3371,59.9406-.1955,27.6333-13.9568,46.7734-33.5752,63.2012a5.46,5.46,0,0,0-1.9836,4.1088,3.9128,3.9128,0,0,0,2.0945,3.5241c30.077,21.7281,41.428,77.1584,41.5036,88.0641.0068,4.4186-2.5283,6.7585-6.76,7.0253-5.3617.2591-14.6726.4934-24.2676.4332-7.9019-.05-16.0883-.3945-21.455-.72-5.93-.3295-8.2124-2.1042-8.8392-6.2175-5.4113-43.4755-18.5124-66.6448-34.7106-66.6714-10.4034-.0181-14.9935,6.9936-14.47,20.7464.6334,15.7981,6.7534,42.7618,6.8123,46.5731.0762,3.2218-1.8667,4.6755-5.2467,4.95-6.2031.2587-14.6612.5049-23.6928.4569-7.62-.04-14.9665-.3711-22.0329-.6985-3.9632-.3129-7.6552-1.2075-8.4383-7.0514-3.4337-23.9624-6.979-53.7389-9.5279-86.693-2.8259-37.331-4.535-78.9942-1.9245-121.5513C673.96,208.5165,676.3069,207.0479,680.6682,206.4427Zm57.93,114.004c16.5956.014,38.9754-26.3611,38.15-53.6151-.559-16.4046-11.3-23.0952-25.47-23.0391-6.1513.0237-11.9225,1.2146-14.5075,3.8547-5.485,5.5749-7.5123,27.7841-5.9808,53.7975C731.6876,316.9364,733.6065,320.4466,738.5986,320.4467Z"/><path class="cls-3" d="M950.8153,429.5154c-4.2261-.3287-7.5858-2.4283-8.0162-9.5426-1.1953-11.2688-1.3972-26.3782-.8421-42.37,2.1912-62.7733,12.3141-97.7107,13.3173-110.7454.331-4.1454-.6626-6.8053-6.1352-6.7836-18.5806.0766-32.7171,8.6909-39.3353,8.71-2.416.0076-4.1611-1.4623-3.9768-5.2984.3639-8.5575,5.5906-36.9018,8.8723-47.8382,1.4844-3.5494,4.1644-5.9271,9.0065-7.4361,10.3008-3.3153,37.3567-7.9448,72.64-8.23,33.3654-.2691,58.1209,3.38,69.6081,9.2461,5.3335,3.53,5.6469,6.8061,4.1649,13.3715-2.7895,13.7261-7.904,32.2348-11.813,42.6827-1.6885,3.2854-3.06,4.4826-5.1732,4.49-6.0221.0192-15.6571-9.1729-31.781-9.1013-4.8576.0205-7.2467,2.1107-9.14,8.06a240.3368,240.3368,0,0,0-6.606,37.7578c-5.296,57.0513,4.7321,107.4019,4.42,116.3446-.1365,4.1676-1.8888,6.2376-6.1475,7.0963-5.1058.8517-15.2784,1.3641-26.2827,1.2772C968.8479,431.1368,958.4148,430.7582,950.8153,429.5154Z"/><path class="cls-3" d="M1118.1672,431.21c-5.3446-.3495-8.1212-1.5745-8.4039-6.9774a349.0931,349.0931,0,0,1,.9578-41.6973c5.7407-70.1668,37.5732-148.0041,116.011-184.3281,3.643-1.5414,6.1606-2.47,8.3861-2.4933,2.5433-.026,4.1615.8606,6.531,2.3433,48.5949,36.2312,45.5639,102.942,34.1727,183.872-1.86,13.0789-4.0485,26.7609-6.7421,41.3395-1.1181,6.3793-4.34,8.17-9.7542,8.7213-6.5364.54-14.46.76-22.08.6815-9.3125-.0962-18.3225-.4908-24.21-1.1551-3.6284-.6421-5.49-2.4751-5.2074-6.4056.4837-6.65,6.0743-20.5232,8.2647-38.9805,1.4582-12.103-3.5064-17.272-16.1652-17.3246-16.9338-.0688-32.5405,6.8006-34.2,23.965-1.2987,13.5541,1.0217,24.7253.5182,32.56.0716,3.317-1.16,5.114-4.8639,5.6815-6.2451.5435-14.7268.7631-23.757.6786C1130.57,431.6242,1124.6434,431.569,1118.1672,431.21Zm85.5035-101.9792c7.1142-.5986,11.841-.8969,15.458-1.5,3.6738-.9046,5.2317-3.0223,6.05-7.2586,3.6281-19.069.1437-44.7664-5.6866-57.7076-1.0655-1.8059-1.6743-3.0092-2.8893-3.003-1.517.0078-2.96.92-5.2933,3.0422-19.5159,17.2906-33.0916,49.2314-36.0079,68.5128-.43,2.7115.597,3.6173,2.3428,3.62C1181.13,334.9421,1190.9437,330.1279,1203.6707,329.2305Z"/><path class="cls-3" d="M1356.6406,433.6661c-4.77-.3615-6.922-1.6123-8.0428-4.6908-2.5208-8.9326-5.5484-31.9045,8.8407-95.6239,15.5488-64.03,37.5425-103.9455,53.1391-127.3505,3.4079-4.9275,7.1015-6.8035,10.4049-7.1474,10.7309-.7342,24.1869-1.1977,35.9154-1.3366,39.3632-.4565,69.0961,6.2043,81.0173,27.1651,12.488,20.9381,7.164,56.176-10.4991,112.3467-19.0348,63.989-39.6866,98.8884-118.9074,97.8611C1394.1177,434.7149,1362.2588,434.0353,1356.6406,433.6661ZM1472.58,326.3813c16.5686-53.0478,8.3034-76.4933-14.2947-76.31a15.6057,15.6057,0,0,0-8.1393,2.8282c-7.74,5.9051-19.24,29.364-29.8577,66.0462-10.7728,38.2205-11.3643,57.63-7.2,63.5264a8.5861,8.5861,0,0,0,7.3786,3.4456C1442.4684,386.08,1459.8546,370.1074,1472.58,326.3813Z"/><path class="cls-4" d="M618.6605,396.1266c-11.3156,22.7438-56.6155,40.0921-130.8674,47.9741s-121.5219.36-138.0394-19.59c-16.0145-19.3426,55.4511-51.0614,129.703-58.9434S629.8388,373.6588,618.6605,396.1266Z"/><ellipse class="cls-5" cx="480.9968" cy="399.0039" rx="135.2003" ry="41.4057" transform="translate(-39.4309 53.0024) rotate(-6.0593)"/><ellipse class="cls-6" cx="481.0579" cy="396.4251" rx="135.2003" ry="41.4057" transform="translate(-39.1584 52.9945) rotate(-6.0593)"/><ellipse class="cls-7" cx="477.6157" cy="393.9677" rx="99.7352" ry="23.1075" transform="translate(-38.9182 52.6174) rotate(-6.0593)"/><path class="cls-8" d="M546.6233,263.2642c1.4539,13.6966-34.7854,28.7719-81.1472,33.6933s-85.2895-2.1749-86.7434-15.8715,34.9511-28.79,81.3128-33.7109S545.1694,249.5675,546.6233,263.2642Z"/><path class="cls-6" d="M465.6787,298.8652c-37.3964,3.97-70.4514-2.6622-85.0234-15.4657a58.3885,58.3885,0,0,0-3.503,26.9643l5.1952,48.9414c3.5369,33.3194,34.8235,57.5667,69.5257,53.883l50.9727-5.4108c34.7023-3.6837,60.2012-33.9589,56.6643-67.2783l-5.1952-48.9413a58.3792,58.3792,0,0,0-8.9465-25.4108C533.6637,281.6167,502.8726,294.917,465.6787,298.8652Z"/><path class="cls-8" d="M546.6233,263.2642c1.4539,13.6966-34.7854,28.7719-81.1472,33.6933s-85.2895-2.1749-86.7434-15.8715,34.9511-28.79,81.3128-33.7109S545.1694,249.5675,546.6233,263.2642Z"/><path class="cls-9" d="M541.0107,264.0207c1.7122,9.9828-32.6106,22.1282-76.3522,26.9145-43.3289,4.7411-79.52.02-80.6106-10.2527-.9031-8.5075,38.2117-22.5649,74.5371-26.716.5561-.0635,1.1962-.1344,1.97-.2149C497.5287,249.9062,539.5392,255.4412,541.0107,264.0207Z"/><path class="cls-10" d="M404.4862,290.2489c8.3946-9.2509,27.2447-19.6117,59.3413-23.0188s53.818,1.8572,59.3647,5.595c5.7709,3.8889,4.229,3.46,2.4594,4.24-10.5565,4.6574-33.865,11.0012-59.2119,13.6806-23.3913,2.4727-49.526,3.0066-58.1421.7059-1.6528-.4414-3.79-.5-3.8114-1.2031"/><path class="cls-6" d="M552.9773,360.9783c23.7752-2.5237,41.0845-23.0753,38.6613-45.903s-23.6613-39.2875-47.4365-36.7637m1.5525,14.6257c15.3625-1.6308,29.0855,9.0047,30.6513,23.7549s-9.6187,28.03-24.9811,29.6605"/><path class="cls-11" d="M473.0142,273.3286c-3.6554,8.6423,23.9624-24.1561,22.3716-43.18a26.5943,26.5943,0,0,0-1.1387-6.0175c-3.43-10.497-12.8151-14.4946-24.19-22.09-16.0078-10.6885-24.1086-16.0974-26.0159-24.99-1.3486-6.288,1.634-12.9279,7.5992-26.2077,2.6857-5.979,9.5626-19.1056,11.9168-20.2353,8.6034-4.1286-80.6365,57.4324-6.1958,99.3678C468.4646,236.2306,479.7065,257.5062,473.0142,273.3286Z"/><path class="cls-2" d="M381.835,809.75c-6-.3-9.3-3-10.2-11.7-1.8-21.6006-2.7-46.2-2.7-71.1006,0-51.6006,3.6-104.1015,7.8-133.501,1.5-10.2,3.9-12.3007,11.4-12.9,5.7-.3,13.2-.6006,21-.6006,7.5,0,15.3.3007,23.1.6006,5.7.3,8.7,2.1,8.1,8.1-.6,14.1005-10.8,58.2011-10.8,83.7011,0,2.7.9,4.2,2.7,4.2s4.2-1.8,7.5-6.6006c20.1-18.3,35.1-53.1005,41.7006-81.0009,1.5-6,3.6-8.1,7.8-8.3994,6.9-.6006,15-.8995,23.1-.8995,8.7,0,17.1.2989,22.8.8995,4.8.3,6.9,2.3994,6.9,6.3,0,22.5-14.4,64.5009-40.5005,92.4013-2.1,1.8-2.7,3.3-2.7,5.3994a6.8136,6.8136,0,0,0,2.7,5.4c24,22.8,42.9,69.9,42.9,110.1016,0,6.3-2.4,9.3-7.8,9.6-6.3.3-13.8.6-22.8.6-7.8,0-15.9-.3-23.7-.8994-7.2-.6006-9-3.6006-9.6-10.8008-7.5-57.6006-18.9-80.1006-33.9-80.1006-7.2,0-15.3,10.2-15.3,25.501,0,19.5,6.9,46.5,6.9,56.7,0,6-3,8.7-8.4,9-6.3.6-14.1.6-22.5.6C398.0352,810.35,388.7349,810.35,381.835,809.75Z"/><path class="cls-2" d="M625.4307,809.75c-5.7-.3-8.7-1.5-9.3-6.9-1.2-13.5-2.1-27.3-2.1-41.7,0-70.2,17.7-148.2012,80.7007-183.6015,3-1.5,5.1-2.3995,7.2-2.3995,2.4,0,4.2.8995,6.9,2.3995,57,36.6005,78.3008,102.3007,78.3008,182.1015a391.5,391.5,0,0,1-2.1,40.8008c-.6,6.3-3.9,8.1-9.6,8.7-6.9.6-15.3.8994-23.4.8994-9.9,0-19.5-.3-25.8-.8994-3.9-.6006-6-2.4-6-6.3008,0-6.6,4.8-20.3994,4.8-38.7,0-12-6-17.1-19.2-17.1-17.7,0-33,6.8994-33,24,0,13.5,3.3,24.6,3.3,32.4.3,3.3-.9,5.1-4.8,5.7-6.6.6-15.6.8994-25.2.8994C638.6309,810.05,632.3306,810.05,625.4307,809.75Zm78-102.001c7.2-.6,12-.9,15.6-1.5,3.6-.9,4.8-3,4.8-7.2,0-18.9-9.6-44.4-18.6-57.3008-1.5-1.8-2.4-3-3.6-3-1.5,0-2.7.9-4.5,3-15,17.1006-22.5,48.9-22.5,68.1006,0,2.7,1.2,3.6006,3,3.6006C681.231,713.4492,690.5312,708.6494,703.4312,707.749Z"/><path class="cls-2" d="M981.5264,746.4492c4.2,9.9,9.3,42.6006,9.3,54.3008,0,5.1-3.3,8.7-9.6,9-14.7.9-32.4,1.2-49.501,1.2-22.8,0-44.7-.6006-60-1.2-6.6-.3-10.2-1.5-10.5-8.7-.6-12.9-.9-27.3-.9-42.3008-.3-54.6006,3.3-118.501,13.2-171.001.9-4.2,3.3-6.9,7.2-7.2,5.4-.6006,15-.9,25.8-.9,11.7,0,24,.6005,30.9,1.2,4.5.3,5.7,2.1,5.7,4.8,0,7.2-23.7,99.0009-23.7,153.3017,0,16.2,3.6,19.5,13.8,19.5,12.6006,0,27.001-6,36.9-12,3.9-2.3994,5.7-3,7.2-3A4.0263,4.0263,0,0,1,981.5264,746.4492Z"/><path class="cls-2" d="M1176.8223,746.4492c4.2,9.9,9.3,42.6006,9.3,54.3008,0,5.1-3.3,8.7-9.6,9-14.7.9-32.4,1.2-49.501,1.2-22.8,0-44.7-.6006-60-1.2-6.6006-.3-10.2-1.5-10.5-8.7-.6006-12.9-.9-27.3-.9-42.3008-.3-54.6006,3.3-118.501,13.2-171.001.8994-4.2,3.3-6.9,7.2-7.2,5.3994-.6006,15-.9,25.8-.9,11.7,0,24,.6005,30.9,1.2,4.5.3,5.7,2.1,5.7,4.8,0,7.2-23.7,99.0009-23.7,153.3017,0,16.2,3.6,19.5,13.8,19.5,12.6006,0,27.001-6,36.9-12,3.9-2.3994,5.7-3,7.2-3A4.0263,4.0263,0,0,1,1176.8223,746.4492Z"/><path class="cls-2" d="M1262.0166,809.75c-6.6-.3-10.1992-1.5-10.5-8.7-.6-13.2-.8994-27.9-.8994-43.2,0-53.4,4.2-117.001,15-169.2021,1.2-4.5,3.9-7.8,8.1-8.1,11.1006-.9,34.2012-1.5,58.2012-1.5,26.1,0,52.5.6,67.5,1.8,4.5009.3,5.7,2.1,5.7,4.2,0,3.8994-7.2,30.6005-12.8994,43.5a4.7475,4.7475,0,0,1-4.8008,3.3007c-2.3994,0-4.8-.9-9.3-2.4a128.1373,128.1373,0,0,0-40.5-6.3c-9.9,0-15.3008,1.8-19.2,5.7-4.5,5.1-6.9,18.3-6.9,30,0,6.3,2.7,9,8.1,9,10.501,0,24.3008-4.8,41.4-4.8,12.3008,0,21.3008,2.1,21.3008,7.5,0,6.3-6,30-9.6006,40.8-1.1992,3.6006-2.3994,4.5-4.8,4.5-4.2,0-17.4-4.8-31.2-4.8-19.8,0-26.7,8.1006-26.7,23.1006,0,21,4.8,25.2,20.1006,25.2a122.7976,122.7976,0,0,0,56.4-13.5c3-1.5,3.8994-2.4,5.7-2.4s3,.9,3.8994,3c3.9,10.2,9,43.501,9,54.9,0,4.8008-3,8.1006-8.7,8.4-19.5.9-42.6,1.2-64.8,1.2C1305.2178,810.95,1280.0176,810.65,1262.0166,809.75Z"/><path class="cls-3" d="M405.7935,796.75c-6-.3-9.3-3-10.2-11.7-1.8-21.6006-2.7-46.2-2.7-71.1006,0-51.6006,3.6-104.1015,7.8-133.501,1.5-10.2,3.9-12.3007,11.4-12.9,5.7-.3,13.2-.6006,21-.6006,7.5,0,15.3.3007,23.1.6006,5.7.3,8.7,2.1,8.1,8.1-.6,14.1005-10.8,58.2011-10.8,83.7011,0,2.7.9,4.2,2.7,4.2s4.2-1.8,7.5-6.6006c20.1-18.3,35.1006-53.1005,41.7007-81.0009,1.5-6,3.6-8.1,7.8-8.3994,6.9-.6006,15-.8995,23.1-.8995,8.7,0,17.1.2989,22.8.8995,4.8.3,6.9,2.3994,6.9,6.3,0,22.5-14.4,64.5009-40.5,92.4013-2.1,1.8-2.7,3.3-2.7,5.3994a6.8136,6.8136,0,0,0,2.7,5.4c24,22.8,42.9,69.9,42.9,110.1016,0,6.3-2.4,9.3-7.8,9.6-6.3.3-13.8.6-22.8.6-7.8,0-15.9-.3-23.7007-.8994-7.2-.6006-9-3.6006-9.6-10.8008-7.5-57.6006-18.9-80.1006-33.9-80.1006-7.2,0-15.3,10.2-15.3,25.501,0,19.5,6.9,46.5,6.9,56.7,0,6-3,8.7-8.4,9-6.3.6-14.1.6-22.5.6C421.9937,797.35,412.6934,797.35,405.7935,796.75Z"/><path class="cls-3" d="M649.3887,796.75c-5.7-.3-8.7-1.5-9.3-6.9-1.2-13.5-2.1-27.3-2.1-41.7,0-70.2,17.7-148.2012,80.7007-183.6015,3-1.5,5.1-2.3995,7.2-2.3995,2.4,0,4.2.8995,6.9,2.3995,57,36.6005,78.3007,102.3007,78.3007,182.1015a391.5,391.5,0,0,1-2.1,40.8008c-.6,6.3-3.9,8.1-9.6,8.7-6.9.6-15.3.8994-23.4.8994-9.9,0-19.5-.3-25.8-.8994-3.9-.6006-6-2.4-6-6.3008,0-6.6,4.8-20.3994,4.8-38.7,0-12-6-17.1-19.2-17.1-17.7,0-33,6.8994-33,24,0,13.5,3.3,24.6,3.3,32.4.3,3.3-.9,5.1-4.8,5.7-6.6.6-15.6.8994-25.2.8994C662.5889,797.05,656.2886,797.05,649.3887,796.75Zm78-102.001c7.2-.6,12-.9,15.6-1.5,3.6-.9,4.8-3,4.8-7.2,0-18.9-9.6-44.4-18.6-57.3008-1.5-1.8-2.4-3-3.6-3-1.5,0-2.7.9-4.5,3-15,17.1006-22.5,48.9-22.5,68.1006,0,2.7,1.2,3.6006,3,3.6006C705.189,700.4492,714.4893,695.6494,727.3892,694.749Z"/><path class="cls-3" d="M1005.4844,733.4492c4.2,9.9,9.3,42.6006,9.3,54.3008,0,5.1-3.3,8.7-9.6,9-14.7.9-32.4,1.2-49.501,1.2-22.8,0-44.7-.6006-60-1.2-6.6-.3-10.2-1.5-10.5-8.7-.6-12.9-.9-27.3-.9-42.3008-.3-54.6006,3.3-118.501,13.2-171.001.9-4.2,3.3-6.9,7.2-7.2,5.4-.6006,15-.9,25.8-.9,11.7,0,24,.6005,30.9,1.2,4.5.3,5.7,2.1,5.7,4.8,0,7.2-23.7,99.0009-23.7,153.3017,0,16.2,3.6,19.5,13.8,19.5,12.6006,0,27.001-6,36.9-12,3.9-2.3994,5.7-3,7.2-3A4.0263,4.0263,0,0,1,1005.4844,733.4492Z"/><path class="cls-3" d="M1200.78,733.4492c4.2,9.9,9.3,42.6006,9.3,54.3008,0,5.1-3.3,8.7-9.6,9-14.7.9-32.4,1.2-49.501,1.2-22.8,0-44.7-.6006-60-1.2-6.6006-.3-10.2-1.5-10.5-8.7-.6006-12.9-.9-27.3-.9-42.3008-.3-54.6006,3.3-118.501,13.2-171.001.8994-4.2,3.3-6.9,7.2-7.2,5.3994-.6006,15-.9,25.8-.9,11.7,0,24,.6005,30.9,1.2,4.5.3,5.7,2.1,5.7,4.8,0,7.2-23.7,99.0009-23.7,153.3017,0,16.2,3.6,19.5,13.8,19.5,12.6006,0,27.001-6,36.9-12,3.9-2.3994,5.7-3,7.2-3A4.0263,4.0263,0,0,1,1200.78,733.4492Z"/><path class="cls-3" d="M1285.9746,796.75c-6.6-.3-10.1992-1.5-10.5-8.7-.6-13.2-.8994-27.9-.8994-43.2,0-53.4,4.2-117.001,15-169.2021,1.2-4.5,3.9-7.8,8.1-8.1,11.1006-.9,34.2012-1.5,58.2012-1.5,26.1,0,52.5.6,67.5,1.8,4.501.3,5.7,2.1,5.7,4.2,0,3.8994-7.2,30.6005-12.8994,43.5a4.7475,4.7475,0,0,1-4.8008,3.3007c-2.3994,0-4.8-.9-9.3-2.4a128.1373,128.1373,0,0,0-40.5-6.3c-9.9,0-15.3008,1.8-19.2,5.7-4.5,5.1-6.9,18.3-6.9,30,0,6.3,2.7,9,8.1,9,10.501,0,24.3008-4.8,41.4-4.8,12.3008,0,21.3008,2.1,21.3008,7.5,0,6.3-6,30-9.6006,40.8-1.1992,3.6006-2.3994,4.5-4.8,4.5-4.2,0-17.4-4.8-31.2-4.8-19.8,0-26.7,8.1006-26.7,23.1006,0,21,4.8,25.2,20.1006,25.2a122.7976,122.7976,0,0,0,56.4-13.5c3-1.5,3.8994-2.4,5.7-2.4s3,.9,3.8994,3c3.9,10.2,9,43.501,9,54.9,0,4.8008-3,8.1006-8.7,8.4-19.5.9-42.6,1.2-64.8,1.2C1329.1758,797.95,1303.9756,797.65,1285.9746,796.75Z"/><circle class="cls-12" cx="1549.1355" cy="666.5208" r="49.9149"/><circle class="cls-13" cx="1548.7168" cy="665.7565" r="14.7896"/><circle class="cls-12" cx="1820.9366" cy="741.3244" r="49.9149"/><circle class="cls-13" cx="1820.5179" cy="740.5601" r="14.7896"/><path class="cls-12" d="M1655.5,949.9454l-82.2239-24.0172a91.22,91.22,0,0,1-54.4939-43.9186,94.5216,94.5216,0,0,1-11.3335-43.1172,91.0969,91.0969,0,0,1,3.6521-26.4486q26.4156-90.434,52.8309-180.8679c14.11-48.3064,65.1779-76.2851,113.4843-62.1751l82.2239,24.0172a91.2192,91.2192,0,0,1,54.4937,43.9186,94.4421,94.4421,0,0,1,10.8569,53.4039,88.6124,88.6124,0,0,1-3.1755,16.162q-26.4153,90.4339-52.8306,180.8678C1754.8738,936.0767,1703.8059,964.0555,1655.5,949.9454Z"/><rect class="cls-14" x="1641.8807" y="840.1879" width="204.0638" height="64.751" rx="12" ry="12" transform="translate(314.5982 -453.9577) rotate(16.2828)"/><rect class="cls-14" x="1450.6601" y="784.8544" width="195.2553" height="61.956" rx="12" ry="12" transform="translate(290.8453 -401.3841) rotate(16.2828)"/><rect class="cls-15" x="1594.9505" y="749.2458" width="123.3191" height="77.8085" rx="12" ry="12" transform="translate(435.5942 2157.3315) rotate(-73.7172)"/><circle class="cls-14" cx="1734.6365" cy="756.6464" r="15.4149"/><circle class="cls-14" cx="1602.1718" cy="717.9541" r="15.4149"/><path class="cls-16" d="M1571.1,608.6781c15.0619-51.5652,98.6308-65.9929,156.3994-49.119S1843.412,632.2545,1828.35,683.82"/><rect class="cls-17" x="1637.5893" y="748.8319" width="23.4894" height="49.9149" rx="8" ry="8" transform="translate(283.1103 -431.4017) rotate(16.2828)"/><rect class="cls-18" x="1719.3152" y="730.3445" width="61.6596" height="24.9574" rx="8.5" ry="8.5" transform="translate(1192.0219 -1074.673) rotate(49.9311)"/><ellipse class="cls-12" cx="1588.6188" cy="924.1296" rx="27.7375" ry="26.4469" transform="translate(256.1412 2189.9213) rotate(-73.7172)"/><ellipse class="cls-12" cx="1639.391" cy="938.9599" rx="27.7375" ry="26.4469" transform="translate(278.4424 2249.3291) rotate(-73.7172)"/><rect class="cls-16" x="1554.8081" y="631.3152" width="289" height="22.0213" rx="7.5" ry="7.5" transform="translate(248.2552 -450.6865) rotate(16.2828)"/><path class="cls-8" d="M1589.4213,882.4527c4.66-15.9547,21.746-9.7071,42.37-3.6828s36.9775,9.544,32.3172,25.4987"/><path class="cls-19" d="M1769.6925,621.0389c11.1.4128,19.8881,8.6727,19.5281,18.3554l-.2182,5.8682"/><rect class="cls-18" x="1568.5309" y="686.3011" width="61.6596" height="24.9574" rx="8.5" ry="8.5" transform="translate(3334.3846 888.3578) rotate(162.6346)"/><path class="cls-20" d="M408.672,389.1264c-11.7559-14.1435-15.7826-21.6319-11.4032-34.5809h0"/><rect class="cls-21" x="403" y="681" width="25" height="105" rx="8" ry="8"/><g class="cls-22"><rect class="cls-23" x="713" y="866" width="443" height="175" rx="44.7629" ry="44.7629"/></g><rect class="cls-6" x="723" y="864" width="443" height="175" rx="44.7629" ry="44.7629"/><path class="cls-24" d="M859.71,927.42c-4.7116.0616-7.1516,2.6257-7.4157,5.768-.3477,4.2583,2.5422,6.4587,9.8031,9.0734,16.1273,5.6367,23.775,12.362,24.3158,25.9541.5031,13.29-6.8148,24.3344-26.1909,23.8941-15.9375-.3824-28.4312-8.5019-29.9476-21.3645-.5658-5.2983.9184-8.8844,3.0035-10.98a1.5306,1.5306,0,0,1,1.2176-.695,1.9246,1.9246,0,0,1,1.5993,1.0118c5.2778,8.3558,14.0974,13.9358,21.8681,14.0317,5.2431.0621,8.2529-1.7426,8.0092-5.6243-.2292-3.7779-3.4157-5.9471-11.4022-8.52-13.0419-4.4377-23.9627-10.6513-22.79-24.545,1.242-12.8757,12.8939-23.4665,29.9421-23.8768,9.5886-.2076,17.3638,2.52,22.4332,6.6706a2.7441,2.7441,0,0,1,1.0887,2.4523c-.2857,3.0892-4.2823,10.22-7.5736,14.0359a2.1051,2.1051,0,0,1-1.5939.8309,1.9239,1.9239,0,0,1-1.4135-.6059C869.7749,930.0455,864.328,927.361,859.71,927.42Z"/><path class="cls-24" d="M900.3953,991.329a2.9843,2.9843,0,0,1-3.1244-2.5117,135.74,135.74,0,0,1-4.0213-31.8128,142.1158,142.1158,0,0,1,5.65-42.3574,2.9717,2.9717,0,0,1,2.791-2.1978c3.2337-.3451,8.2518-.4975,13.0625-.5328,14.8276-.1071,21.6612,1.7659,27.22,7.3744,4.139,4.3662,5.8245,10.8176,5.8362,18.8249.0253,19.03-11.2662,27.1545-22.8142,32.3232-7.0582,3.2041-8.9446,4.9548-8.8076,8.7945.1425,3.8375,2.3056,9.0371,2.3729,10.4906.0545,1.1411-.622,1.6555-1.82,1.7514-2.0943.1922-5.2949.2715-8.6017.2414C905.5334,991.6925,902.82,991.561,900.3953,991.329ZM923.38,953.506c3.01-3.0111,5.2044-9.4555,5.281-16.3152.0711-6.7547-1.9926-10.91-8.1331-10.8865-2.0494.0081-3.0832.3242-3.9319,1.1575-2.3247,2.396-3.6821,10.9033-3.7188,22.3082-.0117,5.0811.5424,7.363,2.5123,7.3648A12.4489,12.4489,0,0,0,923.38,953.506Z"/><path class="cls-24" d="M966.9664,991.8287a70.7387,70.7387,0,0,1-9.6122-.3761c-1.4-.2038-1.99-.7229-2.4643-2.4892-.8277-4.0518-1.69-17.4661-1.6721-31.2961.0569-23.6056,2.1742-38.3684,3.1874-42.7317a2.923,2.923,0,0,1,2.6542-2.6943c2.803-.199,5.8058-.29,8.8138-.2732,3.2077.018,6.4206.1438,9.2407.3735,1.2094.1126,1.8444.6365,1.82,1.8789.1757,2.7938-3.6363,16.5575-3.66,37.831.0238,20.7534,3.2869,35.4553,3.151,37.5236-.0736,1.2441-.7031,1.6638-1.9116,1.7765A71.7345,71.7345,0,0,1,966.9664,991.8287Z"/><path class="cls-24" d="M1028.9507,969.37c1.3016,3.3544,1.8484,14.42,1.1615,18.3851a3.66,3.66,0,0,1-3.6825,3.1167c-4.96.4035-10.8839.6151-16.5943.7066-7.6132.1233-14.905.0091-20.0028-.1428-2.1979-.0791-3.3635-.4814-3.2858-2.9641.1173-4.4472.3063-9.414.5267-14.5868.7333-18.8309,1.7276-40.8841,3.5823-58.9381.1875-1.443.9085-2.3647,2.203-2.4525,1.7881-.1859,4.9853-.2508,8.5933-.2007,3.909.0532,8.0441.3241,10.3771.5664,1.5164.1262,2,.749,2.1137,1.6718.7748,2.4272-4.8481,33.7771-6.2424,52.43-.2572,5.5531.866,6.6764,4.3726,6.6456,4.3173-.0378,9.4088-2.1353,12.9545-4.2035a5.4088,5.4088,0,0,1,2.5452-1.0405A1.2671,1.2671,0,0,1,1028.9507,969.37Z"/><path class="cls-24" d="M1055.3086,913.991a2.5735,2.5735,0,0,1,2.3452,2.1506c-.1048,2.6.245,12.0875-2.3973,46.3436-.2643,2.7111-1.4814,3.5251-6.5842,4.0753a30.1155,30.1155,0,0,1-4.0486.2381c-2.589.0226-3.7881-.4733-4.1987-2.2929-1.7941-8.5929-3.1812-18.1392-4.6182-29.5166-.7694-6.0954-1.4092-11.0734-2.3418-17.472-.23-2.2328.001-3.8479,3.1582-4.0817,2.3731-.1486,5.6637-.174,9.0728-.09A89.8086,89.8086,0,0,1,1055.3086,913.991Zm-20.7026,67.6013c.83-6.6051,5.5228-10.507,12.4522-10.5821,7.2085-.0785,11.01,3.67,9.947,10.1728-1.0833,6.4014-5.9161,9.9215-12.8885,10.1017C1037.4125,991.4559,1033.77,988.095,1034.606,981.5923Z"/><path class="cls-12" d="M866.71,927.42c-4.7113.0616-7.1514,2.6257-7.4157,5.768-.3471,4.2583,2.5417,6.4587,9.8031,9.0734,16.1272,5.6367,23.7752,12.362,24.3158,25.9541.5033,13.29-6.815,24.3344-26.1909,23.8941-15.9374-.3824-28.4318-8.5019-29.9476-21.3645-.5656-5.2983.9184-8.8844,3.0035-10.98a1.5317,1.5317,0,0,1,1.2176-.695,1.9266,1.9266,0,0,1,1.5993,1.0118c5.2776,8.3558,14.0973,13.9358,21.8681,14.0317,5.2435.0621,8.2525-1.7426,8.0092-5.6243-.2291-3.7779-3.4158-5.9471-11.4022-8.52-13.0422-4.4377-23.9625-10.6513-22.79-24.545,1.2421-12.8757,12.8941-23.4665,29.9421-23.8768,9.5888-.2076,17.3634,2.52,22.4332,6.6706a2.7429,2.7429,0,0,1,1.0887,2.4523c-.2859,3.0892-4.2822,10.22-7.5736,14.0359a2.1048,2.1048,0,0,1-1.5939.8309,1.9244,1.9244,0,0,1-1.4135-.6059C876.7751,930.0455,871.327,927.361,866.71,927.42Z"/><path class="cls-12" d="M907.3953,991.329a2.984,2.984,0,0,1-3.1244-2.5117,135.7133,135.7133,0,0,1-4.0213-31.8128,142.1223,142.1223,0,0,1,5.65-42.3574,2.9722,2.9722,0,0,1,2.791-2.1978c3.2349-.3451,8.2518-.4975,13.0625-.5328,14.8283-.1071,21.661,1.7659,27.22,7.3744,4.139,4.3662,5.824,10.8176,5.8362,18.8249.0255,19.03-11.2656,27.1545-22.8142,32.3232-7.0586,3.2041-8.9443,4.9548-8.8076,8.7945.1425,3.8375,2.3052,9.0371,2.3729,10.4906.0536,1.1411-.6217,1.6555-1.82,1.7514-2.0947.1922-5.2951.2715-8.6017.2414C912.5333,991.6925,909.82,991.561,907.3953,991.329ZM930.38,953.506c3.01-3.0111,5.2045-9.4555,5.281-16.3152.0716-6.7547-1.9925-10.91-8.1331-10.8865-2.049.0081-3.0833.3242-3.9319,1.1575-2.3247,2.396-3.6824,10.9033-3.7188,22.3082-.0118,5.0811.5423,7.363,2.5123,7.3648A12.451,12.451,0,0,0,930.38,953.506Z"/><path class="cls-12" d="M973.9664,991.8287a70.7361,70.7361,0,0,1-9.6122-.3761c-1.4-.2038-1.99-.7229-2.4643-2.4892-.8278-4.0518-1.69-17.4661-1.6721-31.2961.0566-23.6056,2.174-38.3684,3.1874-42.7317a2.9226,2.9226,0,0,1,2.6542-2.6943c2.8033-.199,5.8054-.29,8.8138-.2732,3.2079.018,6.42.1438,9.2407.3735,1.209.1126,1.8453.6365,1.82,1.8789.1751,2.7938-3.6366,16.5575-3.66,37.831.024,20.7534,3.287,35.4553,3.151,37.5236-.0745,1.2441-.7034,1.6638-1.9116,1.7765A71.7345,71.7345,0,0,1,973.9664,991.8287Z"/><path class="cls-12" d="M1035.9507,969.37c1.3017,3.3544,1.8477,14.42,1.1615,18.3851a3.66,3.66,0,0,1-3.6825,3.1167c-4.9608.4035-10.8833.6151-16.5943.7066-7.6137.1233-14.9052.0091-20.0028-.1428-2.1981-.0791-3.364-.4814-3.2858-2.9641.1172-4.4472.3062-9.414.5267-14.5868.7329-18.8309,1.7279-40.8841,3.5823-58.9381.1875-1.443.9088-2.3647,2.203-2.4525,1.7879-.1859,4.985-.2508,8.5933-.2007,3.9092.0532,8.0435.3241,10.3771.5664,1.5173.1262,2,.749,2.1137,1.6718.774,2.4272-4.8474,33.7771-6.2424,52.43-.2578,5.5531.8666,6.6764,4.3726,6.6456,4.3174-.0378,9.41-2.1353,12.9545-4.2035a5.4076,5.4076,0,0,1,2.5452-1.0405A1.267,1.267,0,0,1,1035.9507,969.37Z"/><path class="cls-12" d="M1062.3086,913.991a2.574,2.574,0,0,1,2.3452,2.1506c-.1047,2.6.2439,12.0875-2.3973,46.3436-.2644,2.7111-1.481,3.5251-6.5843,4.0753a30.108,30.108,0,0,1-4.0485.2381c-2.5892.0226-3.7882-.4733-4.1987-2.2929-1.7938-8.5929-3.181-18.1392-4.6182-29.5166-.7691-6.0954-1.4093-11.0734-2.3418-17.472-.23-2.2328.0007-3.8479,3.1582-4.0817,2.3739-.1486,5.6627-.174,9.073-.09A89.8193,89.8193,0,0,1,1062.3086,913.991Zm-20.7026,67.6013c.8293-6.6051,5.5233-10.507,12.4521-10.5821,7.2085-.0785,11.011,3.67,9.9471,10.1728-1.0828,6.4014-5.9163,9.9215-12.8885,10.1017C1044.4124,991.4559,1040.7705,988.095,1041.606,981.5923Z"/><circle class="cls-25" cx="1678.1365" cy="352.1209" r="97.1013"/><path class="cls-26" d="M1746.0409,334.3271a69.952,69.952,0,0,1-135.21,35.9347c-9.9231-37.3374,20.983-4.6708,56.4207-20.0564C1703.072,334.6534,1735.0341,292.9676,1746.0409,334.3271Z"/><g class="cls-27"><path class="cls-28" d="M1653.1958,258.2773a97.1013,97.1013,0,1,1,49.8813,187.6872"/></g><rect class="cls-25" x="1641.0038" y="423.3179" width="118.8696" height="25.4371" transform="translate(-54.9484 451.3901) rotate(-14.8834)"/><rect class="cls-6" x="1594.829" y="244.4409" width="118.8696" height="35.7098" transform="matrix(0.9665, -0.2569, 0.2569, 0.9665, -11.8718, 433.7011)"/><polyline class="cls-8" points="1707.118 229.774 1592.237 260.306 1570.773 229.061"/><rect class="cls-6" x="1702.9805" y="231.1108" width="72.8871" height="17.6103" transform="translate(-3.2665 454.8239) rotate(-14.8834)"/><rect class="cls-6" x="1740.0521" y="250.6154" width="72.8871" height="17.6103" transform="translate(1439.2667 -1503.9604) rotate(70.8653)"/><g class="cls-27"><rect class="cls-28" x="1653.5073" y="236.7765" width="59.1902" height="35.7098" transform="translate(-8.9357 440.8512) rotate(-14.8834)"/></g><g class="cls-27"><rect class="cls-28" x="1699.2011" y="415.7163" width="59.6794" height="25.4371" transform="translate(-52.0363 458.4816) rotate(-14.8834)"/></g><g class="cls-29"><path class="cls-8" d="M781.6925,877.82c-11.4729.8759-22.54,5.3111-30.0774,14.319-8.688,10.3828-11.1581,22.6031-9.253,35.7724,1.1609,8.0251,11.3415,12.4306,18.4517,10.4766,8.6143-2.3673,11.6411-10.4022,10.4766-18.4518.3343,2.31.2063-2.355.212-2.4184-.1807,2.0061.26-.8514.4572-1.5418.1775-.62,1.4266-3.2219.5744-1.6316.0832-.1554,2.587-3.6556,1.2659-2.1362.2334-.2684,2.87-2.7187,1.7957-1.86-1.0695.8553,1.91-1.1462,2.2138-1.3318,2.5851-1.5791-1.0128-.1729,1.9619-.7587.6135-.1208,4.6967-.65,1.9212-.4377,7.8054-.596,15.3819-6.4723,15-15-.3411-7.6152-6.6214-15.64-15-15Z"/></g><g class="cls-30"><path class="cls-31" d="M149.4892,234.7676c.5866-2.8087,1.0747-5.9222,2.5774-8.4191,1.5122-2.5125,4.0163-3.4332,6.7175-4.25,7.3726-2.2286,4.2307-13.8145-3.19-11.5714-5.03,1.52-9.586,3.7527-12.7556,8.0854-2.7805,3.8009-3.9724,8.4251-4.9206,12.9648-1.5739,7.5352,9.9908,10.7568,11.5714,3.19Z"/></g></g></svg>
