<svg xmlns="http://www.w3.org/2000/svg" width="280" height="280" viewBox="0 0 280 280"><defs><style>.cls-1{fill:#f4edea;}.cls-2{fill:#fc9;}.cls-3{fill:#f4ebe6;}.cls-4{fill:#f4e1d3;}.cls-5{fill:#d3aa85;}.cls-6{fill:#63412a;}.cls-7{opacity:0.38;}.cls-8{fill:#a88a7d;}.cls-9{fill:#020202;}.cls-10{fill:#e49c6d;}</style></defs><title>Artboard_decaf</title><g id="decaf"><circle class="cls-1" cx="135.6836" cy="139.0008" r="132.64"/><circle class="cls-2" cx="140.5886" cy="143.4971" r="132.64"/><circle class="cls-1" cx="134.8414" cy="137.2648" r="104.7021"/><rect class="cls-3" x="177.5869" y="32.8524" width="49.7678" height="17.1898" rx="8.5949" ry="8.5949" transform="translate(52.3269 183.4652) rotate(-54.9759)"/><circle class="cls-4" cx="140.8497" cy="143.7582" r="104.7021"/><circle class="cls-4" cx="140.8497" cy="143.7582" r="104.7021"/><rect class="cls-4" x="181.2657" y="34.8961" width="49.7678" height="17.1898" rx="8.5949" ry="8.5949" transform="translate(52.2207 187.3486) rotate(-54.9759)"/><circle class="cls-5" cx="141.0056" cy="143.9108" r="90.9497"/><path class="cls-6" d="M213.96,143.4971c5.1509,46.822-28.7279,77.3936-73.1666,72.1447-40.0177-4.7267-76.81-35.873-58.0428-71.5316,8.1751-15.5326,3.7981-30.0594,11.4451-39.24,10.3241-12.395,28.2039-4.4963,50.6852-17.9851C179.434,66.1528,209.5533,103.4428,213.96,143.4971Z"/><circle class="cls-6" cx="69.2614" cy="131.0301" r="4.4963"/><circle class="cls-6" cx="73.3489" cy="116.315" r="4.4963"/><circle class="cls-6" cx="77.8452" cy="101.6" r="4.4963"/><circle class="cls-6" cx="119.9467" cy="85.6586" r="4.4963"/><circle class="cls-6" cx="115.6548" cy="67.4692" r="3.0656"/><circle class="cls-6" cx="123.6254" cy="69.3086" r="1.635"/><circle class="cls-6" cx="84.794" cy="88.1111" r="1.635"/><circle class="cls-6" cx="89.699" cy="83.2061" r="1.635"/><circle class="cls-6" cx="123.6254" cy="77.8923" r="1.635"/><circle class="cls-6" cx="100.7353" cy="89.7462" r="1.635"/><circle class="cls-6" cx="104.0053" cy="92.6074" r="1.635"/><circle class="cls-6" cx="112.5891" cy="92.6074" r="1.635"/><circle class="cls-6" cx="66.4001" cy="108.9575" r="1.635"/><circle class="cls-6" cx="64.7651" cy="120.8113" r="1.635"/><circle class="cls-6" cx="77.8452" cy="126.5338" r="1.635"/><circle class="cls-6" cx="75.3927" cy="137.1614" r="1.635"/><circle class="cls-6" cx="66.4001" cy="138.7964" r="1.635"/><circle class="cls-6" cx="89.699" cy="104.4612" r="1.635"/><circle class="cls-6" cx="88.064" cy="99.965" r="1.635"/><circle class="cls-6" cx="85.6115" cy="95.0599" r="1.635"/><circle class="cls-6" cx="166.9532" cy="69.3086" r="1.635"/><circle class="cls-6" cx="132.2092" cy="78.7099" r="2.4525"/><circle class="cls-6" cx="132.2092" cy="67.2648" r="2.4525"/><circle class="cls-6" cx="138.3405" cy="75.4398" r="2.4525"/><circle class="cls-6" cx="108.9104" cy="85.6586" r="2.4525"/><circle class="cls-6" cx="147.7418" cy="77.4836" r="2.4525"/><circle class="cls-6" cx="161.2306" cy="72.9873" r="2.4525"/><circle class="cls-6" cx="161.2306" cy="62.3598" r="2.4525"/><circle class="cls-6" cx="84.9984" cy="112.0231" r="3.0656"/><circle class="cls-6" cx="93.3778" cy="92.6074" r="4.4963"/><circle class="cls-6" cx="102.3703" cy="77.7786" r="6.7281"/><circle class="cls-6" cx="147.7418" cy="67.1511" r="6.7281"/><g class="cls-7"><path class="cls-8" d="M229.4922,123.2638c-.9348-4.6742-19.12-21.1881-44.1452-35.5614C161.9342,74.2551,128.17,74.864,108.91,82.7974c-16.4175,6.7626-31.3286,30.1445-35.1527,54.364-3.6788,23.2991,1.635,69.0791,1.635,69.0791-.5049.7854-2.1543-1.2923-4.0875-3.6788a82.4051,82.4051,0,0,1-7.7663-11.0363A131.4984,131.4984,0,0,1,56.59,178.0366C37.7875,131.03,60.8583,78.4623,107.812,59.4723s98.3813,4.5225,118.41,51.529"/></g><circle class="cls-1" cx="167.8641" cy="137.545" r="15.3282"/><circle class="cls-1" cx="132.5246" cy="146.1791" r="15.3282"/><circle class="cls-9" cx="131.8005" cy="144.5189" r="6.54"/><circle class="cls-9" cx="167.7707" cy="135.5264" r="6.54"/><path class="cls-10" d="M145.2893,134.7089c1.6354,4.57-3.2866,7.3852-13.4888,11.0363s-14.7147,7.431-16.35,2.8613-.3922-13.9253,9.81-17.5764S143.6539,130.1391,145.2893,134.7089Z"/><path class="cls-10" d="M184.1207,135.5264c-.48,4.83-4.5345,3.8139-15.3172,2.7419s-17.0456-.7734-16.5654-5.6032,6.1779-11.567,16.9606-10.4949S184.6009,130.6966,184.1207,135.5264Z"/></g></svg>
