<svg xmlns="http://www.w3.org/2000/svg" width="40" height="50" viewBox="0 0 40 50"><defs><style>.cls-1{fill:#684127;}.cls-2{fill:#3a2012;}.cls-3{fill:#281407;}.cls-4{opacity:0.84;}.cls-5{fill:#4c2d1c;}.cls-6{fill:none;stroke:#7f522d;stroke-linecap:round;stroke-linejoin:round;stroke-width:6px;}</style></defs><title>Artboard_kaffebønne</title><g id="kaffebønner"><ellipse class="cls-1" cx="19.3606" cy="25.5732" rx="23.3094" ry="15.8652" transform="translate(-6.4247 44.6503) rotate(-89.3676)"/><path class="cls-2" d="M19.6543,2.2654c-.8587,2.3165-1.2687,5.8455-1.54,10.1033-.4109,6.4512,1.2862,8.8943,1.7774,15.0937C20.744,38.22,16.3557,48.33,17.5571,48.7431c1.3217.4543,8.7484-12.883,8.8634-21.668.08-6.1251-3.3135-6.2564-5.2588-17.3207C20.6039,6.5816,19.7592,3.9007,19.6543,2.2654Z"/><path class="cls-3" d="M19.5862,2.202a35.3444,35.3444,0,0,0-2.1574,10.0355c-.4109,6.4513,1.2863,8.8943,1.7774,15.0937.8523,10.7577-2.8505,20.9989-1.6491,21.4119,1.3217.4543,8.0629-13.0142,8.1778-21.7992.08-6.1251-3.3134-6.2564-5.2588-17.3207A68.14,68.14,0,0,1,19.5862,2.202Z"/><g class="cls-4"><path class="cls-5" d="M26.3629,4.5813c3.4128,2.8882,8.7779,8.1484,8.8636,20.994.0884,13.2571-7.7919,23.4441-16.0223,23.3067-.89-.0149.3391.0046,1.9266-.3615,2.7956-.6446,6.0882-3.25,8.4455-6.8433,3.08-4.6939,4.0961-11.64,4.1471-16.9308.0554-5.7323-2.2016-13.84-5.3207-18.0124"/></g><path class="cls-6" d="M11.6566,10.8892a5.8614,5.8614,0,0,1,2.2619-3.4719"/></g></svg>
