<svg xmlns="http://www.w3.org/2000/svg" width="1000" height="690" viewBox="0 0 1000 690"><defs><style>.cls-1{fill:#81aa93;}.cls-1,.cls-2{opacity:0.91;}.cls-2{fill:#709980;}.cls-3{fill:#fff;}</style></defs><title>Artboard_slut</title><g id="vigtig_boks" data-name="vigtig boks"><rect class="cls-1" x="25" y="20" width="950" height="652" rx="42.8202" ry="42.8202"/><rect class="cls-2" x="100" y="171" width="822" height="289" rx="37.0292" ry="37.0292"/><path class="cls-3" d="M345.999,229.1094c0,11.4492,3.168,15.0488,7.92,15.0488,3.6729,0,5.545-2.0879,5.545-5.76,0-2.7363-1.08-4.249-3.5284-4.8964a1.3088,1.3088,0,0,1-1.0078-1.3692c0-.9355.2159-1.2949,1.8721-1.7275,4.1758-1.7276,11.8086-5.04,13.3926-5.04.7207,0,1.2969.5039,1.44,1.584.36,4.8242.8643,9.6485.8643,14.833,0,9.4326-6.6963,15.4092-19.01,15.4092-14.2568,0-22.1777-9.1445-22.1777-24.5537,0-17.93,8.0644-32.69,24.8418-32.69,10.873,0,15.2656,6.0478,15.2656,12.8164a5.1132,5.1132,0,0,1-1.7285,3.7441c-2.6641,2.7363-8.9287,6.0488-11.0889,6.0488a1.0822,1.0822,0,0,1-1.1523-1.2246c0-.6474.0722-1.4394.0722-2.16,0-2.88-1.08-6.624-4.248-6.624C349.0234,212.5479,345.999,218.3086,345.999,229.1094Z"/><path class="cls-3" d="M379.6934,255.8955c-1.3682-.0713-2.0879-.36-2.2325-1.6562-.288-3.24-.5039-6.5518-.5039-10.0088,0-16.85,4.2481-35.5713,19.37-44.0684a4.0382,4.0382,0,0,1,1.7276-.5762,3.2859,3.2859,0,0,1,1.6562.5762c13.6817,8.7852,18.794,24.5547,18.794,43.709a94.1255,94.1255,0,0,1-.5039,9.792c-.1446,1.5127-.9365,1.9443-2.3047,2.0889-1.6563.1435-3.6719.2148-5.6162.2148-2.376,0-4.6807-.0713-6.1924-.2148-.9365-.1446-1.44-.5762-1.44-1.5127,0-1.584,1.1523-4.8965,1.1523-9.2881,0-2.8809-1.44-4.1055-4.6084-4.1055-4.249,0-7.9209,1.6563-7.9209,5.7617,0,3.24.792,5.9043.792,7.7754.0723.793-.2158,1.2246-1.1523,1.3692-1.584.1435-3.7442.2148-6.0479.2148C382.8613,255.9668,381.35,255.9668,379.6934,255.8955Zm18.7216-24.4814c1.7276-.1446,2.88-.2168,3.7442-.3614.8642-.2148,1.1523-.7187,1.1523-1.7275,0-4.5361-2.3047-10.6572-4.4648-13.7529-.3594-.4317-.5762-.7207-.8643-.7207-.3594,0-.6474.2168-1.08.7207-3.6,4.1035-5.4,11.7363-5.4,16.3457,0,.6474.288.8632.7207.8632C393.0869,232.7812,395.3184,231.6289,398.415,231.4141Z"/><path class="cls-3" d="M440.6777,255.8955c-1.6562.0713-3.8164.1436-6.4082.1436-2.3759,0-4.8965,0-7.0566-.1436a1.4566,1.4566,0,0,1-1.3682-1.2236,126.731,126.731,0,0,1-2.0166-23.4746,205.5616,205.5616,0,0,1,2.2324-28.7305c.1446-1.2246.8643-1.584,1.44-1.584,1.584-.1445,4.3926-.2168,7.1279-.2168,2.3047,0,4.5371.0723,6.1211.2168a2.9488,2.9488,0,0,1,2.6641,1.7285c2.4482,4.4639,5.2568,11.6641,7.8486,19.0811.1445.5049.4326.72.792.72s.5762-.2148.7207-.6475a202.7783,202.7783,0,0,1,7.7041-18.7939,3.4714,3.4714,0,0,1,2.4482-1.9434c1.8-.1445,3.8887-.289,6.0489-.289,1.9443,0,3.8877.1445,5.9043.289a2.344,2.344,0,0,1,2.2324,1.7276,121.8136,121.8136,0,0,1,3.1679,27.65,173.1585,173.1585,0,0,1-1.7285,23.69,1.8645,1.8645,0,0,1-1.7275,1.8c-1.7285.1436-5.1846.2881-8.4248.2881-2.52,0-4.7529-.1445-6.1924-.2881-.9365-.1435-1.2959-.5039-1.2959-1.2236,0-2.5928,3.6719-12.5293,3.6719-24.9141a49.3791,49.3791,0,0,0-.792-9.8652.5482.5482,0,0,0-.5762-.5039.6111.6111,0,0,0-.5762.5039c-2.8076,7.7051-5.832,16.1289-9.5771,23.4023a1.7926,1.7926,0,0,1-1.584,1.1514,1.9789,1.9789,0,0,1-1.7275-1.1514c-3.961-7.3457-7.5606-17.57-9.3614-23.2578a.8253.8253,0,0,0-.72-.5762c-.2881,0-.5039.2149-.5761.5762a74.0373,74.0373,0,0,0-.72,11.4483c0,12.457,3.6719,21.3134,3.6719,23.33C442.0459,255.4629,441.542,255.752,440.6777,255.8955Z"/><path class="cls-3" d="M488.7725,255.8955c-1.584-.0713-2.4483-.36-2.52-2.0889-.1436-3.1679-.2159-6.6953-.2159-10.3681,0-12.8174,1.0078-28.083,3.6006-40.6114a2.2863,2.2863,0,0,1,1.9434-1.9443c2.665-.2168,8.209-.3594,13.97-.3594,6.2647,0,12.6006.1426,16.2012.4317,1.08.0722,1.3681.5039,1.3681,1.0078a55.2733,55.2733,0,0,1-3.0957,10.4414,1.1391,1.1391,0,0,1-1.1523.791,7.6754,7.6754,0,0,1-2.2324-.5762,30.7981,30.7981,0,0,0-9.7207-1.5117c-2.376,0-3.6729.4317-4.6084,1.3682-1.08,1.2236-1.6563,4.3926-1.6563,7.2,0,1.5127.6485,2.16,1.9444,2.16,2.5205,0,5.832-1.1513,9.9365-1.1513,2.9521,0,5.1123.5039,5.1123,1.8,0,1.5117-1.4395,7.2011-2.3037,9.7929-.2881.8643-.5762,1.08-1.1524,1.08-1.0078,0-4.1767-1.1523-7.4883-1.1523-4.7529,0-6.4091,1.9443-6.4091,5.5449,0,5.041,1.1523,6.0488,4.8252,6.0488a29.4771,29.4771,0,0,0,13.5371-3.24c.72-.36.9355-.5762,1.3681-.5762a.969.969,0,0,1,.9356.72c.9365,2.4483,2.16,10.44,2.16,13.1768a1.9454,1.9454,0,0,1-2.0879,2.0166c-4.6806.2158-10.2246.2881-15.5537.2881C499.1416,256.1836,493.0928,256.1113,488.7725,255.8955Z"/><path class="cls-3" d="M559.91,256.9756c-16.2022,0-21.3145-9.6494-21.3145-21.6738,0-18.5059,7.2725-35.6436,21.17-35.6436,13.97,0,21.17,17.1377,21.17,35.6436C580.9355,247.3262,575.8955,256.9756,559.91,256.9756Zm6.6962-24.41c0-11.5927-2.8808-19.8017-6.8408-19.8017-4.1767,0-6.7685,8.3535-6.7685,19.73,0,7.5606,2.4482,10.5118,6.8408,10.5118S566.6064,239.9824,566.6064,232.5654Z"/><path class="cls-3" d="M616.3584,200.666c1.7285,0,3.5283.0723,4.8965.2168a2.621,2.621,0,0,1,2.52,2.376,67.111,67.111,0,0,1,1.8721,15.3369c0,17.3535-7.2725,31.252-18.3614,38.1641a3.7853,3.7853,0,0,1-1.872.5761,4.2724,4.2724,0,0,1-1.9444-.5761c-12.1689-6.5528-18.9375-19.9453-18.9375-37.0118a75.3569,75.3569,0,0,1,2.16-17.4257,1.8692,1.8692,0,0,1,1.8721-1.5118c1.5117-.1445,3.5283-.2158,5.5449-.2158,1.9433,0,3.96.0713,5.6885.2158,1.2236.0723,1.7275.5762,1.7275,1.3682,0,1.2236-1.8,7.8486-1.8,18.9385,0,7.8476,1.584,13.8965,4.6084,17.4961a1.3844,1.3844,0,0,0,1.08.7207c.288,0,.6474-.2158,1.0078-.72,2.664-3.2413,4.32-9.793,4.32-18.0733,0-11.5215-1.8-16.85-1.8-18.3623,0-.8642.3594-1.1514,1.4394-1.2959A53.1254,53.1254,0,0,1,616.3584,200.666Z"/><path class="cls-3" d="M633.0605,255.8955c-1.5839-.0713-2.4482-.36-2.5205-2.0889-.1435-3.1679-.2158-6.6953-.2158-10.3681,0-12.8174,1.0078-28.083,3.6006-40.6114a2.2863,2.2863,0,0,1,1.9434-1.9443c2.665-.2168,8.2089-.3594,13.97-.3594,6.2646,0,12.6006.1426,16.2012.4317,1.08.0722,1.3681.5039,1.3681,1.0078a55.2733,55.2733,0,0,1-3.0957,10.4414,1.1391,1.1391,0,0,1-1.1523.791,7.6746,7.6746,0,0,1-2.2324-.5762,30.7981,30.7981,0,0,0-9.7207-1.5117c-2.376,0-3.6729.4317-4.6084,1.3682-1.08,1.2236-1.6563,4.3926-1.6563,7.2,0,1.5127.6484,2.16,1.9443,2.16,2.52,0,5.8321-1.1513,9.9366-1.1513,2.9521,0,5.1123.5039,5.1123,1.8,0,1.5117-1.44,7.2011-2.3037,9.7929-.2881.8643-.5762,1.08-1.1524,1.08-1.0078,0-4.1767-1.1523-7.4883-1.1523-4.7529,0-6.4091,1.9443-6.4091,5.5449,0,5.041,1.1523,6.0488,4.8251,6.0488a29.4772,29.4772,0,0,0,13.5372-3.24c.72-.36.9355-.5762,1.3681-.5762a.969.969,0,0,1,.9356.72c.9365,2.4483,2.16,10.44,2.16,13.1768a1.9454,1.9454,0,0,1-2.0879,2.0166c-4.6806.2158-10.2246.2881-15.5537.2881C643.43,256.1836,637.3809,256.1113,633.0605,255.8955Z"/><path class="cls-3" d="M675.541,201.1709c2.5928-.4326,11.5928-.72,14.6172-.72,12.6016,0,21.7461,3.6,21.7461,14.833,0,6.7685-3.3125,11.4482-8.209,15.4814a1.3616,1.3616,0,0,0-.5039,1.0078.942.942,0,0,0,.5039.8643c7.3447,5.3281,10.2969,18.8652,10.2969,21.53a1.6238,1.6238,0,0,1-1.7276,1.7275c-1.3681.0713-3.7451.1436-6.1923.1436-2.0166,0-4.1045-.0723-5.4727-.1436-1.5127-.0713-2.0889-.5039-2.2324-1.5127-1.2246-10.6562-4.32-16.3447-8.3526-16.3447-2.5927,0-3.8164,1.7275-3.8164,5.1123,0,3.8887,1.3682,10.5127,1.3682,11.4492,0,.792-.5039,1.1524-1.3682,1.2246-1.5839.0713-3.7441.1426-6.0488.1426-1.9443,0-3.8164-.0713-5.6162-.1426-1.0078-.0722-1.9443-.289-2.0879-1.7285a198.1785,198.1785,0,0,1-1.1523-21.3867,179.1275,179.1275,0,0,1,2.4482-30.0254C673.957,201.6748,674.5332,201.3145,675.541,201.1709Zm11.5215,28.1543c4.1035,0,9.792-6.4805,9.792-13.1768,0-4.0332-2.4473-5.6894-5.76-5.6894a5.22,5.22,0,0,0-3.457.9365c-1.3672,1.3682-2.2315,6.8408-2.2315,13.249C685.4062,228.4609,685.8379,229.3252,687.0625,229.3252Z"/><path class="cls-3" d="M234.8145,342.2949c-.6836-.0351-1.043-.18-1.1153-.8281-.1445-1.6191-.2519-3.2754-.2519-5.002,0-8.4238,2.123-17.7822,9.6826-22.0293a2.0133,2.0133,0,0,1,.8642-.289,1.6338,1.6338,0,0,1,.8272.289c6.84,4.3907,9.3955,12.2735,9.3955,21.8487a47.0609,47.0609,0,0,1-.252,4.8955c-.0722.7558-.4687.9717-1.1523,1.0439-.8281.0713-1.8359.1084-2.8076.1084-1.1875,0-2.34-.0371-3.0957-.1084-.4678-.0722-.72-.2881-.72-.7568a40.1152,40.1152,0,0,0,.5761-4.6426c0-1.4394-.72-2.0517-2.3037-2.0517-2.124,0-3.96.8271-3.96,2.88,0,1.6192.3964,2.9512.3964,3.8868.0362.3964-.1084.6123-.5761.6845-.792.0713-1.8721.1084-3.0235.1084C236.3984,342.332,235.6426,342.332,234.8145,342.2949Zm4.3916-33.08c0-2.6269,1.8359-4.1386,4.6435-4.1386,2.9873,0,4.6436,1.5117,4.6436,4.1386,0,2.5567-1.6563,3.961-4.6436,3.961C241.042,313.1758,239.2061,311.7715,239.2061,309.2148Zm4.9677,20.8418c.8633-.0722,1.44-.1074,1.8721-.18.4316-.1075.5752-.3594.5752-.8633a14.1537,14.1537,0,0,0-2.2315-6.876c-.18-.2158-.288-.36-.4316-.36-.1807,0-.3242.1084-.54.36-1.8,2.0518-2.7,5.8682-2.7,8.1709,0,.3242.1445.4316.36.4316A23.1565,23.1565,0,0,1,244.1738,330.0566Zm1.2959-20.8418c0-.9707-.5761-1.4746-1.62-1.4746a1.3945,1.3945,0,0,0-1.584,1.4746c0,.8653.6123,1.3321,1.584,1.3321C244.8936,310.5469,245.47,310.08,245.47,309.2148Z"/><path class="cls-3" d="M264.1533,312.959a.6866.6866,0,0,1,.54.7558c0,.8282-1.3321,3.8516-1.3321,6.1553,0,.5762.1807.8643.5762.8643.7559,0,2.3037-1.5479,5.04-1.5479,3.4551,0,5.543,2.2676,5.543,9.4668a92.7237,92.7237,0,0,1-.8643,12.6709c-.1074.6836-.4677.9707-.9716,1.0078-.4317,0-1.2237.0352-2.0879.0352-.9717,0-2.0879-.0352-2.88-.1074-.4678-.0362-.8633-.18-.8633-.8282,0-.8642.9356-6.5878.9356-11.0507,0-4.0313-.54-4.8955-1.8711-4.8955-1.5127,0-2.5918,1.3681-2.5918,5.3632,0,5.6514.3593,9.5391.3593,10.5469,0,.6846-.4677.8281-.9355.8994-.6484.0371-1.5117.0723-2.4121.0723-.9356,0-1.8711-.0352-2.627-.0723-.36-.0351-.7207-.18-.8642-.8633-.18-1.5117-.3242-4.6435-.3242-8.4951a119.4772,119.4772,0,0,1,1.332-18.8252c.1435-.7207.54-1.08.9355-1.1162a24.0055,24.0055,0,0,1,2.88-.1435A18.3944,18.3944,0,0,1,264.1533,312.959Z"/><path class="cls-3" d="M300.4756,328.51a114.3563,114.3563,0,0,1-.7559,12.7422c-.1084.6835-.4677,1.0078-1.0078,1.0429a19.8532,19.8532,0,0,1-2.1963.0723c-.8994,0-1.7636-.0352-2.5195-.0723-.5752-.0713-.792-.3232-.792-.7558,0-1.6553.54-7.6661.54-12.3819,0-2.5556-.4316-3.78-1.7636-3.78a2.2814,2.2814,0,0,0-1.6553.6484c-.6123.5762-.8643,1.584-.8643,4.2109,0,5.4.5039,10.043.5039,11.1231,0,.6484-.288.9-.9355.9355-.6484.0371-1.332.0723-2.0156.0723-.9,0-1.7637-.0352-2.4121-.0723-.6123-.0351-1.0078-.2148-1.08-1.1513-.252-2.7715-.4317-6.3-.4317-10.3663,0-2.916.0723-6.1191.3243-9.5039.0713-1.1513.7558-1.4394,1.6914-1.5468.6484-.0362,1.4043-.0723,2.124-.0723.6113,0,1.2236.0361,1.6553.0723.6484.0351.9.3242.9.8281s.18.6836.5039.6836c1.08,0,2.4472-1.9082,5.1474-1.9082C298.8555,319.33,300.4756,321.8145,300.4756,328.51Z"/><path class="cls-3" d="M310.8086,342.7637c-6.48,0-8.6387-4.9678-8.6387-11.0157,0-8.8906,4.5352-12.5253,9.9346-12.5253,3.6357,0,6.4785,1.9433,6.4785,5.9746,0,6.1552-5.1465,6.875-8.3144,8.2793-1.1163.3964-1.584.72-1.584,1.332,0,1.043.7558,1.8711,2.4834,1.8711a7.6841,7.6841,0,0,0,6.1552-2.9151c.2168-.1806.36-.288.54-.288.5039,0,.9.9355.9,2.6269C318.7637,340.2793,315.0557,342.7637,310.8086,342.7637Zm.5039-18.5381c-1.9795,0-3.3477,2.1592-3.3477,4.6435,0,.3594.1084.6485.4317.6485a1.6165,1.6165,0,0,0,.6846-.1807c1.4394-.8642,3.8867-1.7637,3.8867-3.4912A1.54,1.54,0,0,0,311.3125,324.2256Z"/><path class="cls-3" d="M328.5918,320.77a80.6471,80.6471,0,0,1,.5762,10.0791c0,9.5752-1.836,11.9873-5.7237,11.9873a8.0614,8.0614,0,0,1-3.5634-.6484c-.252-.1445-.3955-.3965-.3955-.9a22.817,22.817,0,0,1,.4677-4.2471.83.83,0,0,1,.5762-.6123c.3594-.0351.5762.1084.8994-.0351.5762-.2168.7559-1.0449.7559-3.0606,0-5.4707-.3594-11.1582-.3594-12.2734,0-.6123.1436-.9727.72-1.1524a11.4448,11.4448,0,0,1,2.8076-.2158,20.9934,20.9934,0,0,1,2.3037.1084A.9356.9356,0,0,1,328.5918,320.77Zm-7.27-5.4707c0-1.9082,1.26-3.0957,3.9228-3.0957,2.8077,0,3.9239,1.1875,3.9239,3.0957,0,1.8711-1.1162,2.9512-3.9239,2.9512C322.5811,318.25,321.3213,317.17,321.3213,315.2988Z"/><path class="cls-3" d="M339.6436,314.9023a.6957.6957,0,0,1,.6845.7559,87.4136,87.4136,0,0,0-1.98,16.666c-.0352.9727-.4317,1.26-2.1954,1.44a10.2509,10.2509,0,0,1-1.4033.0713c-.9,0-1.332-.18-1.5127-.8271a52.7274,52.7274,0,0,1-1.5117-10.4756c-.1074-2.1592-.1435-3.9228-.1435-6.19.0361-.792.2158-1.3682,1.3681-1.4756.8633-.0723,2.0518-.1084,3.2754-.1084A31.7163,31.7163,0,0,1,339.6436,314.9023Zm-7.8829,24.1534c0-2.3389,1.5479-3.708,3.96-3.708,2.5195,0,3.959,1.3691,3.959,3.708,0,2.3037-1.44,3.5283-3.959,3.5283C333.3086,342.584,331.7607,341.3594,331.7607,339.0557Z"/><path class="cls-3" d="M350.5166,342.2949c-.6123-.0351-.9-.18-1.08-.539-.5039-1.045-.8994-3.7442-.8994-11.2305,0-7.5234.5752-12.2031,1.2236-14.9385.1436-.5762.4678-.792.8282-.8281,1.1875-.0713,2.6992-.1084,4.0312-.1084,8.9629,0,15.0459,3.3125,15.0459,16.2705,0,7.3789-2.4834,11.4463-12.5264,11.4463C355.3037,342.3672,351.2363,342.332,350.5166,342.2949Zm11.9863-12.5976c0-6.1553-2.4121-8.8907-5.0029-8.8907a1.2684,1.2684,0,0,0-.8281.3233c-.6485.6846-.8643,3.42-.8643,7.7031,0,4.4639.2881,6.7315.9717,7.415a1.3454,1.3454,0,0,0,1.0078.3965C360.5234,336.6445,362.5029,334.7725,362.5029,329.6973Z"/><path class="cls-3" d="M379.8193,342.7637c-6.4795,0-8.6386-4.9678-8.6386-11.0157,0-8.8906,4.5351-12.5253,9.9345-12.5253,3.6358,0,6.4786,1.9433,6.4786,5.9746,0,6.1552-5.1465,6.875-8.3145,8.2793-1.1162.3964-1.584.72-1.584,1.332,0,1.043.7559,1.8711,2.4834,1.8711a7.6842,7.6842,0,0,0,6.1553-2.9151c.2168-.1806.36-.288.54-.288.5039,0,.9.9355.9,2.6269C387.7744,340.2793,384.0664,342.7637,379.8193,342.7637Zm.5039-18.5381c-1.9794,0-3.3476,2.1592-3.3476,4.6435,0,.3594.1084.6485.4316.6485a1.6165,1.6165,0,0,0,.6846-.1807c1.4394-.8642,3.8867-1.7637,3.8867-3.4912A1.54,1.54,0,0,0,380.3232,324.2256Z"/><path class="cls-3" d="M398.7188,315.083a17.1355,17.1355,0,0,0-1.1524,4.2471c0,.3242.1807.5039.6846.5039.3594,0,1.1152-.1436,1.6191-.1436.3242,0,.5039.2158.5762.6475a14.6466,14.6466,0,0,1,.18,2.4121,14.9733,14.9733,0,0,1-.252,2.8789.5023.5023,0,0,1-.539.4326c-.4688,0-1.08-.1806-1.7286-.1806-.5752,0-.72.4326-.7558,1.0449a20.2878,20.2878,0,0,0-.1074,2.2314,47.63,47.63,0,0,0,1.6552,11.1582c.0362.252.1446.5049.1446.6846a.76.76,0,0,1-.3965.6475,13.6,13.6,0,0,1-5.9033,1.44c-.5039,0-.792-.1084-.9356-.5039-.72-1.9805-1.1162-6.5156-1.1523-10.5469,0-2.0527.1084-3.9961.1445-5.0762.0361-.6113-.1445-.8632-.54-.8632-.2881,0-.6123.0351-.8282.0351-.3242,0-.5039-.18-.54-.6113a6.0678,6.0678,0,0,1-.0713-.9,24.63,24.63,0,0,1,.3594-4.0313c.1084-.6836.3965-.8632.792-.8632.2881,0,.54.0351.792.0351.8642,0,.8994-.791,1.1162-2.6269a1.415,1.415,0,0,1,.792-1.4043,15.2718,15.2718,0,0,1,5.5791-1.295C398.6465,314.4355,398.791,314.7227,398.7188,315.083Z"/><path class="cls-3" d="M415.9268,342.2949c-.8282.0723-1.8.0723-2.8077.0723s-2.0517,0-2.916-.0723a1.0209,1.0209,0,0,1-1.0078-1.0429c-.2881-2.9522-.4316-6.4082-.4316-10.0079a134.92,134.92,0,0,1,1.0791-17.457.9479.9479,0,0,1,.9726-.9355c.8272-.0371,1.6192-.0723,2.4473-.0723s1.6553.0352,2.4121.0723c.5039.0351.8272.2519.8272.7558,0,.6114-.6475,6.91-.6475,13.5332,0,6.9844.7559,13.3906.7559,14.4356A.6706.6706,0,0,1,415.9268,342.2949Z"/><path class="cls-3" d="M419.5625,335.78c1.0078,0,2.34.2158,3.4912.2519,1.2959,0,2.2676-.1806,2.2676-.9365,0-.2148-.18-.3955-.4678-.5391-4.2832-2.0878-6.2265-5.3994-6.2265-13.498,0-.9727.2871-1.2969,1.1875-1.3682a21.45,21.45,0,0,1,2.3037-.1084c.8642,0,1.8359.0362,2.6992.1084.3965.0362.7558.1436.7558.6475,0,.36-.1435,1.5117-.1435,2.5918,0,4.5351,1.62,8.0625,2.88,8.0625.2519,0,.4316-.1436.54-.5039a22.9587,22.9587,0,0,0,.6113-5.9024c0-1.8007-.2519-3.7441-.2519-4.1757a.7528.7528,0,0,1,.7558-.72c.6123-.0722,1.5479-.0722,2.376-.0722a17.9183,17.9183,0,0,1,2.16.0722c1.0078.1436,1.2959.8994,1.2959,1.9795,0,12.4551-2.376,21.2373-16.0547,21.2373-.9717,0-1.1875-.3955-1.26-1.1513-.0361-.5039-.0722-1.08-.0722-1.7286a33.4547,33.4547,0,0,1,.1806-3.3476A.9049.9049,0,0,1,419.5625,335.78Z"/><path class="cls-3" d="M444.5449,342.2949c-.8271.0723-1.8349.0723-2.8437.0723-1.043,0-2.0157,0-2.9151-.0723a1.0209,1.0209,0,0,1-1.0078-1.0429c-.2158-2.9522-.2519-6.4082-.2519-10.0079a141.8629,141.8629,0,0,1,.9716-17.457.9628.9628,0,0,1,.9717-.9355c.7559-.0371,1.584-.0723,2.4483-.0723.8271,0,1.7275.0352,2.5195.0723.5039.0351.8633.2519.8633.7187,0,.4688-1.3672,9.3594-1.3672,14.3272,0,.54.18.8642.5762.8642,2.3037,0,3.8154-3.8515,3.9951-8.2441.0361-.6114.3242-.7559.8642-.8272.5391-.0361,1.44-.0361,2.4112-.0361,1.1523,0,2.34,0,2.8437.0361.4317.0362.792.18.792.8994,0,3.8164-2.7715,7.4873-4.1035,8.711a1.0143,1.0143,0,0,0-.36.6123c0,.18.1446.3232.36.5039,2.5195,1.8721,4.751,4.2832,4.751,10.7266,0,.8281-.1074,1.0439-.9356,1.1513-.5761.0371-1.4394.0723-2.4121.0723-.8633,0-1.7637,0-2.5195-.0723-.8994-.0713-1.1152-.18-1.1514-1.1152-.18-5.2559-1.8-8.5664-3.7793-8.5664-.792,0-1.1162.7558-1.1162,1.9433,0,2.6641,1.1162,6.1543,1.1162,7.02A.6988.6988,0,0,1,444.5449,342.2949Z"/><path class="cls-3" d="M464.9932,342.2949c-.8272.0723-1.835.0723-2.8438.0723-1.043,0-2.0156,0-2.915-.0723a1.0208,1.0208,0,0,1-1.0078-1.0429c-.2159-2.9522-.252-6.4082-.252-10.0079a141.8426,141.8426,0,0,1,.9717-17.457.9628.9628,0,0,1,.9717-.9355c.7558-.0371,1.584-.0723,2.4482-.0723.8272,0,1.7276.0352,2.5195.0723.5039.0351.8633.2519.8633.7187,0,.4688-1.3672,9.3594-1.3672,14.3272,0,.54.18.8642.5762.8642,2.3037,0,3.8154-3.8515,3.9951-8.2441.0362-.6114.3242-.7559.8643-.8272.539-.0361,1.4394-.0361,2.4111-.0361,1.1524,0,2.34,0,2.8438.0361.4316.0362.792.18.792.8994,0,3.8164-2.7715,7.4873-4.1036,8.711a1.0141,1.0141,0,0,0-.36.6123c0,.18.1445.3232.36.5039,2.52,1.8721,4.751,4.2832,4.751,10.7266,0,.8281-.1074,1.0439-.9355,1.1513-.5762.0371-1.4395.0723-2.4121.0723-.8633,0-1.7637,0-2.52-.0723-.8994-.0713-1.1152-.18-1.1513-1.1152-.1807-5.2559-1.8-8.5664-3.7793-8.5664-.792,0-1.1162.7558-1.1162,1.9433,0,2.6641,1.1162,6.1543,1.1162,7.02A.6988.6988,0,0,1,464.9932,342.2949Z"/><path class="cls-3" d="M486.3408,342.7637c-6.4795,0-8.6387-4.9678-8.6387-11.0157,0-8.8906,4.5352-12.5253,9.9346-12.5253,3.6358,0,6.4785,1.9433,6.4785,5.9746,0,6.1552-5.1464,6.875-8.3144,8.2793-1.1162.3964-1.584.72-1.584,1.332,0,1.043.7559,1.8711,2.4834,1.8711a7.6843,7.6843,0,0,0,6.1553-2.9151c.2168-.1806.36-.288.54-.288.5039,0,.9.9355.9,2.6269C494.2959,340.2793,490.5879,342.7637,486.3408,342.7637Zm.5039-18.5381c-1.9795,0-3.3476,2.1592-3.3476,4.6435,0,.3594.1084.6485.4316.6485a1.6165,1.6165,0,0,0,.6846-.1807c1.4394-.8642,3.8867-1.7637,3.8867-3.4912A1.54,1.54,0,0,0,486.8447,324.2256Z"/><path class="cls-3" d="M495.917,332.1445c0-8.2793,2.5918-12.9218,6.3711-12.9218a6.16,6.16,0,0,1,3.9961,1.8711.5136.5136,0,0,0,.3594.1445c.2168,0,.36-.1445.36-.5039,0-2.1953-.8994-6.2637-.8994-7.02,0-.539.3594-.7558.8633-.7919.6484-.0362,1.332-.0713,2.0156-.0713.9717,0,1.9805.0351,2.916.1074.6123.0722,1.0078.2519,1.1162,1.2246a143.7406,143.7406,0,0,1,.791,15.5488,78.2,78.2,0,0,1-.5752,10.5469,1.6114,1.6114,0,0,1-1.1162,1.2969,21.3176,21.3176,0,0,1-7.1992.9355C498.5449,342.5117,495.917,339.3438,495.917,332.1445Zm11.375-2.3037c0-3.96-1.08-5.3633-2.376-5.3633-1.4033,0-2.2676,1.62-2.2676,6.8037,0,4.8223.8643,6.2266,2.4473,6.2266C506.8242,337.5078,507.292,336.5361,507.292,329.8408Z"/><path class="cls-3" d="M524.32,342.7637c-6.48,0-8.6387-4.9678-8.6387-11.0157,0-8.8906,4.5352-12.5253,9.9346-12.5253,3.6358,0,6.4785,1.9433,6.4785,5.9746,0,6.1552-5.1465,6.875-8.3144,8.2793-1.1162.3964-1.584.72-1.584,1.332,0,1.043.7558,1.8711,2.4834,1.8711a7.6843,7.6843,0,0,0,6.1553-2.9151c.2168-.1806.36-.288.54-.288.5039,0,.9.9355.9,2.6269C532.2754,340.2793,528.5674,342.7637,524.32,342.7637Zm.5039-18.5381c-1.98,0-3.3476,2.1592-3.3476,4.6435,0,.3594.1084.6485.4316.6485a1.6165,1.6165,0,0,0,.6846-.1807c1.4394-.8642,3.8867-1.7637,3.8867-3.4912A1.54,1.54,0,0,0,524.8242,324.2256Z"/><path class="cls-3" d="M540.9521,337.3281c1.26,0,1.8-.5039,1.8-1.4043s-.6485-1.5117-2.628-2.4472c-3.4551-1.6563-6.2636-3.1319-6.2636-7.3438,0-4.3183,3.24-6.9463,8.3515-6.9463a13.0325,13.0325,0,0,1,5.9033,1.2959,1.1931,1.1931,0,0,1,.6836,1.1875,13.4254,13.4254,0,0,1-1.2236,4.7149.62.62,0,0,1-.5762.4326.7138.7138,0,0,1-.5039-.2158,9.1546,9.1546,0,0,0-5.1113-2.2676c-1.1514,0-1.7276.539-1.7276,1.2949,0,.9365.6475,1.3691,2.6993,2.3047,3.2041,1.4394,6.7675,3.1309,6.7675,7.5947,0,4.8233-3.0957,7.2354-7.8115,7.2354-4.8232,0-7.8105-2.3047-7.8105-6.0117a6.2009,6.2009,0,0,1,.6836-3.0958.6782.6782,0,0,1,.54-.3593.4941.4941,0,0,1,.4678.2871C536.2363,335.3848,538.4326,337.3281,540.9521,337.3281Z"/><path class="cls-3" d="M556.7559,332.1445c0-8.2793,2.5918-12.9218,6.3711-12.9218a6.1594,6.1594,0,0,1,3.996,1.8711.5139.5139,0,0,0,.3594.1445c.2168,0,.36-.1445.36-.5039,0-2.1953-.8994-6.2637-.8994-7.02,0-.539.3593-.7558.8632-.7919.6485-.0362,1.3321-.0713,2.0157-.0713.9726,0,1.98.0351,2.916.1074.6123.0722,1.0078.2519,1.1162,1.2246a143.7406,143.7406,0,0,1,.791,15.5488,78.2163,78.2163,0,0,1-.5752,10.5469,1.6115,1.6115,0,0,1-1.1162,1.2969,21.3181,21.3181,0,0,1-7.1992.9355C559.3838,342.5117,556.7559,339.3438,556.7559,332.1445Zm11.375-2.3037c0-3.96-1.08-5.3633-2.376-5.3633-1.4033,0-2.2676,1.62-2.2676,6.8037,0,4.8223.8643,6.2266,2.4473,6.2266C567.6631,337.5078,568.1309,336.5361,568.1309,329.8408Z"/><path class="cls-3" d="M584.3311,342.2949c-.8643.0723-1.8721.1084-2.9161.1084s-2.0517-.0361-2.9511-.1084a.9066.9066,0,0,1-.8994-.9355,71.1269,71.1269,0,0,1-.4327-8.2071,79.8472,79.8472,0,0,1,.9-12.5625.9657.9657,0,0,1,1.0078-.8994c.792-.0722,1.5118-.0722,2.1954-.0722.72,0,1.44,0,2.2314.0722.54.0362.8281.2881.8281.72,0,.7919-.2519,4.0673-.2519,7.8828a124.44,124.44,0,0,0,.9716,13.3545C585.0146,342.08,584.6914,342.26,584.3311,342.2949ZM577.42,315.2988c0-1.9082,1.26-3.0957,3.9239-3.0957,2.8076,0,3.9228,1.1875,3.9228,3.0957,0,1.8711-1.1152,2.9512-3.9228,2.9512C578.68,318.25,577.42,317.17,577.42,315.2988Z"/><path class="cls-3" d="M595.3818,319.1865c1.5127,0,2.1241.2158,2.8077.2158.9365,0,1.44-1.2959,2.1962-2.3037.3594-.6123.7559-.8994,1.1514-.8994.9,0,3.24,2.2676,3.24,3.2031a.7065.7065,0,0,1-.36.6114c-.792.4326-1.62.8642-1.62,1.7636,0,.9727,1.584,1.5489,1.584,4.9678,0,4.14-2.627,6.9834-8.459,6.9834-3.0957,0-3.959,1.1875-3.959,2.2676,0,.7207.3955,1.0439,1.2236,1.0439,1.6563,0,4.3194-1.5839,7.3067-1.5839a6.3193,6.3193,0,0,1,3.4922.8642,1.4154,1.4154,0,0,1,.6474,1.2959c0,1.6553-1.0078,5.0391-2.1592,5.0391a1.9263,1.9263,0,0,1-.7558-.18,5.254,5.254,0,0,0-3.0244-.792c-2.1954,0-3.8506,1.1523-6.875,1.1523-3.3477,0-5.2549-1.6211-5.2549-4.5722a6.8588,6.8588,0,0,1,2.5195-5.2188c.252-.2519.3955-.4316.3955-.6484a.9984.9984,0,0,0-.2871-.5391,7.4174,7.4174,0,0,1-2.16-5.4C587.0312,321.958,590.3789,319.1865,595.3818,319.1865Zm.4327,9.3584a2.3728,2.3728,0,0,0,2.5195-2.4121,2.485,2.485,0,1,0-2.5195,2.4121Z"/><path class="cls-3" d="M620.1143,342.2949c-.8643.0723-1.8721.1084-2.9161.1084s-2.0517-.0361-2.9511-.1084a.9066.9066,0,0,1-.8994-.9355,71.1269,71.1269,0,0,1-.4327-8.2071,79.8472,79.8472,0,0,1,.9-12.5625.9657.9657,0,0,1,1.0078-.8994c.792-.0722,1.5118-.0722,2.1954-.0722.72,0,1.44,0,2.2314.0722.54.0362.8281.2881.8281.72,0,.7919-.2519,4.0673-.2519,7.8828a124.4279,124.4279,0,0,0,.9717,13.3545C620.7979,342.08,620.4746,342.26,620.1143,342.2949Zm-6.9112-26.9961c0-1.9082,1.26-3.0957,3.9239-3.0957,2.8076,0,3.9228,1.1875,3.9228,3.0957,0,1.8711-1.1152,2.9512-3.9228,2.9512C614.4629,318.25,613.2031,317.17,613.2031,315.2988Z"/><path class="cls-3" d="M630.1572,342.2949c-.8271.0723-1.8349.0723-2.8437.0723-1.043,0-2.0156,0-2.9151-.0723a1.0209,1.0209,0,0,1-1.0078-1.0429c-.2158-2.9522-.2519-6.4082-.2519-10.0079a141.8426,141.8426,0,0,1,.9717-17.457.9627.9627,0,0,1,.9716-.9355c.7559-.0371,1.584-.0723,2.4483-.0723.8271,0,1.7275.0352,2.5195.0723.5039.0351.8633.2519.8633.7187,0,.4688-1.3672,9.3594-1.3672,14.3272,0,.54.18.8642.5762.8642,2.3037,0,3.8154-3.8515,3.9951-8.2441.0361-.6114.3242-.7559.8642-.8272.5391-.0361,1.4395-.0361,2.4112-.0361,1.1523,0,2.34,0,2.8437.0361.4317.0362.792.18.792.8994,0,3.8164-2.7715,7.4873-4.1035,8.711a1.0141,1.0141,0,0,0-.36.6123c0,.18.1445.3232.36.5039,2.5195,1.8721,4.751,4.2832,4.751,10.7266,0,.8281-.1074,1.0439-.9356,1.1513-.5761.0371-1.4394.0723-2.4121.0723-.8633,0-1.7636,0-2.5195-.0723-.8994-.0713-1.1152-.18-1.1514-1.1152-.1806-5.2559-1.8-8.5664-3.7793-8.5664-.792,0-1.1162.7558-1.1162,1.9433,0,2.6641,1.1162,6.1543,1.1162,7.02A.6988.6988,0,0,1,630.1572,342.2949Z"/><path class="cls-3" d="M650.6045,342.2949c-.8272.0723-1.835.0723-2.8438.0723-1.0429,0-2.0156,0-2.915-.0723a1.0209,1.0209,0,0,1-1.0078-1.0429c-.2158-2.9522-.252-6.4082-.252-10.0079a141.8426,141.8426,0,0,1,.9717-17.457.9628.9628,0,0,1,.9717-.9355c.7559-.0371,1.584-.0723,2.4482-.0723.8272,0,1.7276.0352,2.52.0723.5039.0351.8633.2519.8633.7187,0,.4688-1.3672,9.3594-1.3672,14.3272,0,.54.18.8642.5761.8642,2.3037,0,3.8155-3.8515,3.9952-8.2441.0361-.6114.3242-.7559.8642-.8272.5391-.0361,1.4395-.0361,2.4111-.0361,1.1524,0,2.34,0,2.8438.0361.4316.0362.792.18.792.8994,0,3.8164-2.7715,7.4873-4.1035,8.711a1.0138,1.0138,0,0,0-.36.6123c0,.18.1445.3232.36.5039,2.5195,1.8721,4.7509,4.2832,4.7509,10.7266,0,.8281-.1074,1.0439-.9355,1.1513-.5762.0371-1.4395.0723-2.4121.0723-.8633,0-1.7637,0-2.5195-.0723-.8995-.0713-1.1153-.18-1.1514-1.1152-.1807-5.2559-1.8-8.5664-3.7793-8.5664-.792,0-1.1162.7558-1.1162,1.9433,0,2.6641,1.1162,6.1543,1.1162,7.02A.6988.6988,0,0,1,650.6045,342.2949Z"/><path class="cls-3" d="M671.9521,342.7637c-6.4794,0-8.6386-4.9678-8.6386-11.0157,0-8.8906,4.5351-12.5253,9.9345-12.5253,3.6358,0,6.4786,1.9433,6.4786,5.9746,0,6.1552-5.1465,6.875-8.3145,8.2793-1.1162.3964-1.584.72-1.584,1.332,0,1.043.7559,1.8711,2.4834,1.8711a7.6842,7.6842,0,0,0,6.1553-2.9151c.2168-.1806.36-.288.54-.288.5039,0,.9.9355.9,2.6269C679.9072,340.2793,676.1992,342.7637,671.9521,342.7637Zm.504-18.5381c-1.98,0-3.3477,2.1592-3.3477,4.6435,0,.3594.1084.6485.4316.6485a1.6161,1.6161,0,0,0,.6846-.1807c1.4395-.8642,3.8867-1.7637,3.8867-3.4912A1.54,1.54,0,0,0,672.4561,324.2256Z"/><path class="cls-3" d="M687.5049,335.4922c0-5.2188,4.1035-7.3067,8.7822-7.99,1.1162-.1807,1.6563-.4327,1.6563-1.08,0-1.1162-.6123-1.836-2.34-1.836a8.1976,8.1976,0,0,0-5.4355,2.3028.9293.9293,0,0,1-.6114.3242.7032.7032,0,0,1-.4687-.2149,4.5425,4.5425,0,0,1-1.3311-3.2763c0-2.5557,3.1309-4.5352,8.2784-4.5352,6.0478,0,8.1709,3.0235,8.1709,8.3867,0,2.1963-.18,5.6514-.18,8.3155,0,2.0879.2881,4.4629.2881,5.039a1.0124,1.0124,0,0,1-.9,1.1153,61.7281,61.7281,0,0,1-7.4864.289C690.42,342.332,687.5049,340.2793,687.5049,335.4922Zm10.4746-2.5557c0-1.0791-.1445-1.3681-.7559-1.3681-1.98,0-3.6,1.1523-3.6,3.0234,0,1.584,1.0791,2.2676,2.9151,2.2676,1.1523,0,1.44-.5039,1.44-1.583Z"/><path class="cls-3" d="M715.7275,315.083a17.1362,17.1362,0,0,0-1.1523,4.2471c0,.3242.1807.5039.6846.5039.3593,0,1.1152-.1436,1.6191-.1436.3242,0,.5039.2158.5762.6475a14.6466,14.6466,0,0,1,.18,2.4121,14.9733,14.9733,0,0,1-.252,2.8789.5023.5023,0,0,1-.539.4326c-.4688,0-1.08-.1806-1.7286-.1806-.5752,0-.72.4326-.7558,1.0449a20.2878,20.2878,0,0,0-.1074,2.2314,47.63,47.63,0,0,0,1.6552,11.1582c.0362.252.1446.5049.1446.6846a.76.76,0,0,1-.3965.6475,13.6,13.6,0,0,1-5.9033,1.44c-.504,0-.792-.1084-.9356-.5039-.72-1.9805-1.1162-6.5156-1.1523-10.5469,0-2.0527.1084-3.9961.1445-5.0762.0361-.6113-.1445-.8632-.54-.8632-.2881,0-.6124.0351-.8282.0351-.3242,0-.5039-.18-.54-.6113a6.0678,6.0678,0,0,1-.0713-.9,24.63,24.63,0,0,1,.3594-4.0313c.1084-.6836.3965-.8632.792-.8632.2881,0,.54.0351.792.0351.8642,0,.8994-.791,1.1162-2.6269a1.4135,1.4135,0,0,1,.792-1.4043,15.2718,15.2718,0,0,1,5.5791-1.295C715.6553,314.4355,715.8,314.7227,715.7275,315.083Z"/><path class="cls-3" d="M732.9707,312.959a.6865.6865,0,0,1,.54.7558c0,.8282-1.331,3.8516-1.331,6.1553,0,.5762.18.8643.5752.8643.7558,0,2.3037-1.5479,5.04-1.5479,3.4551,0,5.543,2.2676,5.543,9.4668a92.7237,92.7237,0,0,1-.8643,12.6709c-.1074.6836-.4677.9707-.9716,1.0078-.4317,0-1.2237.0352-2.0879.0352-.9717,0-2.0879-.0352-2.88-.1074-.4678-.0362-.8633-.18-.8633-.8282,0-.8642.9355-6.5878.9355-11.0507,0-4.0313-.54-4.8955-1.871-4.8955-1.5127,0-2.5918,1.3681-2.5918,5.3632,0,5.6514.3593,9.5391.3593,10.5469,0,.6846-.4677.8281-.9355.8994-.6485.0371-1.5117.0723-2.4121.0723-.9356,0-1.8711-.0352-2.627-.0723-.36-.0351-.7207-.18-.8642-.8633-.18-1.5117-.3243-4.6435-.3243-8.4951a119.4774,119.4774,0,0,1,1.3321-18.8252c.1435-.7207.54-1.08.9355-1.1162a24.0055,24.0055,0,0,1,2.88-.1435A18.3951,18.3951,0,0,1,732.9707,312.959Z"/><path class="cls-3" d="M744.959,331.1367c0-7.1269,3.0605-11.95,9.1435-11.95s8.6026,4.6074,8.6026,11.95c0,8.1709-3.959,11.627-9.1065,11.627C748.5234,342.7637,744.959,339.3076,744.959,331.1367Zm11.4111-.5039c0-4.14-.9355-6.083-2.5195-6.083-1.6924,0-2.5918,1.9434-2.5918,6.083,0,4.1035.72,5.9033,2.5557,5.9033C755.6865,336.5361,756.37,334.6641,756.37,330.6328Z"/><path class="cls-3" d="M772.1748,342.2949c-.8281.0723-1.8.0723-2.8076.0723s-2.0518,0-2.916-.0723a1.0208,1.0208,0,0,1-1.0078-1.0429c-.2881-2.9522-.4317-6.4082-.4317-10.0079a134.9373,134.9373,0,0,1,1.0791-17.457.948.948,0,0,1,.9727-.9355c.8271-.0371,1.6191-.0723,2.4472-.0723s1.6553.0352,2.4122.0723c.5039.0351.8271.2519.8271.7558,0,.6114-.6475,6.91-.6475,13.5332,0,6.9844.7559,13.3906.7559,14.4356A.6706.6706,0,0,1,772.1748,342.2949Z"/><path class="cls-3" d="M774.5869,332.1445c0-8.2793,2.5918-12.9218,6.3711-12.9218a6.16,6.16,0,0,1,3.9961,1.8711.5138.5138,0,0,0,.3594.1445c.2168,0,.36-.1445.36-.5039,0-2.1953-.8994-6.2637-.8994-7.02,0-.539.3594-.7558.8633-.7919.6484-.0362,1.332-.0713,2.0156-.0713.9717,0,1.9805.0351,2.916.1074.6123.0722,1.0078.2519,1.1162,1.2246a143.71,143.71,0,0,1,.7911,15.5488,78.2163,78.2163,0,0,1-.5752,10.5469,1.6115,1.6115,0,0,1-1.1162,1.2969,21.3183,21.3183,0,0,1-7.1993.9355C777.2148,342.5117,774.5869,339.3438,774.5869,332.1445Zm11.375-2.3037c0-3.96-1.08-5.3633-2.376-5.3633-1.4033,0-2.2675,1.62-2.2675,6.8037,0,4.8223.8642,6.2266,2.4472,6.2266C785.4941,337.5078,785.9619,336.5361,785.9619,329.8408Z"/><path class="cls-3" d="M802.99,342.7637c-6.4795,0-8.6386-4.9678-8.6386-11.0157,0-8.8906,4.5351-12.5253,9.9345-12.5253,3.6358,0,6.4785,1.9433,6.4785,5.9746,0,6.1552-5.1464,6.875-8.3144,8.2793-1.1162.3964-1.584.72-1.584,1.332,0,1.043.7559,1.8711,2.4834,1.8711a7.6842,7.6842,0,0,0,6.1553-2.9151c.2168-.1806.36-.288.54-.288.5039,0,.9.9355.9,2.6269C810.9453,340.2793,807.2373,342.7637,802.99,342.7637Zm.5039-18.5381c-1.98,0-3.3476,2.1592-3.3476,4.6435,0,.3594.1084.6485.4316.6485a1.6165,1.6165,0,0,0,.6846-.1807c1.4394-.8642,3.8867-1.7637,3.8867-3.4912A1.54,1.54,0,0,0,803.4941,324.2256Z"/><path class="cls-3" d="M280.5879,387.9453c0-8.4951,3.8516-16.1269,11.0869-16.1269,5.7236,0,8.1348,4.3925,8.1348,8.4961a3.2848,3.2848,0,0,1-.9356,2.4834c-.9717,1.2236-3.708,3.0947-4.9316,3.0947-.3955,0-.54-.2871-.54-.8272s.0723-1.2959.0723-1.98c0-2.34-.54-4.7871-2.34-4.7871-1.9795,0-3.0957,2.8789-3.0957,7.8457,0,5.0039,1.44,6.6241,4.0673,6.6241,2.5918,0,4.4639-1.7647,5.8321-4.1758a.6961.6961,0,0,1,.5752-.36c.8281,0,1.5478,1.7285,1.5478,4.1035,0,4.1407-2.8076,8.1-8.999,8.1C284.4033,400.4355,280.5879,396.2246,280.5879,387.9453Z"/><path class="cls-3" d="M301.3955,388.7363c0-7.1269,3.0606-11.9492,9.1436-11.9492s8.6025,4.6074,8.6025,11.9492c0,8.1719-3.959,11.627-9.1064,11.627C304.96,400.3633,301.3955,396.9082,301.3955,388.7363Zm11.4111-.5039c0-4.1386-.9355-6.082-2.5195-6.082-1.6924,0-2.5918,1.9434-2.5918,6.082,0,4.1035.72,5.9043,2.5557,5.9043C312.123,394.1367,312.8066,392.2646,312.8066,388.2324Z"/><path class="cls-3" d="M328.1426,399.8594c-.6836.0361-1.5117.0722-2.4473.0722s-1.9082,0-2.916-.0722a1.1028,1.1028,0,0,1-1.0078-.9717,54.5,54.5,0,0,1-.72-10.2949c0-6.2627.288-9.1065.6123-10.294a1.11,1.11,0,0,1,.6836-.9,15.0854,15.0854,0,0,1,2.7353-.2168,7.2209,7.2209,0,0,1,1.62.1094c.3955.0713.5039.3233.54.7559s.2158.5752.3955.5752a1.1523,1.1523,0,0,0,.6123-.2881,3.8256,3.8256,0,0,1,2.2676-1.26c.6484,0,1.08.8281,1.08,3.6719a12.5429,12.5429,0,0,1-.2881,3.2393c-.18.6123-.4677.7558-.7919.7558-.4317,0-1.0079-.3232-1.6915-.3232s-1.26.6836-1.26,3.4912c0,4.5351,1.5117,10.3662,1.5117,11.0869C329.0791,399.4629,328.8633,399.7871,328.1426,399.8594Z"/><path class="cls-3" d="M341.4268,372.0352a.4635.4635,0,0,1,.5039.4677c0,.54-1.1875,2.7-1.1875,4.4268,0,.3242.18.5049.5761.5049.4678,0,1.2237-.1436,1.7276-.1436.3242,0,.5039.2149.5761.6475a15.2181,15.2181,0,0,1,.18,2.4472,14.9386,14.9386,0,0,1-.2519,2.8438.5039.5039,0,0,1-.54.4326c-.4677,0-1.08-.1807-1.7275-.1807-.54,0-.6836.3243-.7559,1.26a20.0584,20.0584,0,0,0-.1084,2.2315,45.34,45.34,0,0,0,1.7276,11.23,2.3736,2.3736,0,0,1,.0723.3965.7592.7592,0,0,1-.3956.6484,14.1942,14.1942,0,0,1-6.0117,1.44.7709.7709,0,0,1-.8281-.5039,23.8225,23.8225,0,0,1-1.1152-8.1709c0-3.6.3955-6.5156.4316-7.6318.0361-.3955-.1074-.5391-.4316-.6114a2.99,2.99,0,0,0-.4678-.0722.6679.6679,0,0,1-.5762-.7559,39.771,39.771,0,0,1,.2881-4.8594c.1074-.539.3242-.7558.6475-.7558h.54c.4678,0,.54-.5762.6484-1.836.1436-1.5117.2159-1.7636.8995-2.1591A14.4077,14.4077,0,0,1,341.4268,372.0352Z"/><path class="cls-3" d="M344.5957,393.0918c0-5.2188,4.1035-7.3066,8.7822-7.99,1.1162-.18,1.6563-.4317,1.6563-1.08,0-1.1153-.6123-1.836-2.34-1.836a8.1987,8.1987,0,0,0-5.4355,2.3038.9337.9337,0,0,1-.6113.3242.7005.7005,0,0,1-.4688-.2158,4.54,4.54,0,0,1-1.331-3.2754c0-2.5567,3.1308-4.5352,8.2783-4.5352,6.0478,0,8.1709,3.0234,8.1709,8.3867,0,2.1953-.18,5.65-.18,8.3145,0,2.0879.2881,4.4629.2881,5.039a1.0133,1.0133,0,0,1-.9,1.1163,61.7589,61.7589,0,0,1-7.4863.288C347.5107,399.9316,344.5957,397.88,344.5957,393.0918Zm10.4746-2.5547c0-1.08-.1445-1.3682-.7558-1.3682-1.9805,0-3.6,1.1514-3.6,3.0235,0,1.584,1.0791,2.2676,2.9151,2.2676,1.1523,0,1.44-.5039,1.44-1.583Z"/><path class="cls-3" d="M363.4941,389.7441c0-8.2783,2.5918-12.9218,6.3711-12.9218a6.1607,6.1607,0,0,1,3.9961,1.872.5123.5123,0,0,0,.3594.1436c.2168,0,.36-.1436.36-.5039,0-2.1953-.8995-6.2637-.8995-7.0195,0-.5391.3594-.7559.8633-.7911.6485-.0361,1.3321-.0722,2.0156-.0722.9727,0,1.9805.0361,2.9161.1074.6123.0723,1.0078.2519,1.1162,1.2246a143.7636,143.7636,0,0,1,.791,15.55,78.2254,78.2254,0,0,1-.5752,10.5469,1.6116,1.6116,0,0,1-1.1162,1.2959,21.3181,21.3181,0,0,1-7.1992.9355C366.1221,400.1113,363.4941,396.9434,363.4941,389.7441Zm11.375-2.3027c0-3.96-1.08-5.3633-2.3759-5.3633-1.4034,0-2.2676,1.6192-2.2676,6.8028,0,4.8232.8642,6.2265,2.4473,6.2265C374.4014,395.1074,374.8691,394.1367,374.8691,387.4414Z"/><path class="cls-3" d="M383.2939,388.7363c0-7.1269,3.0606-11.9492,9.1436-11.9492s8.6025,4.6074,8.6025,11.9492c0,8.1719-3.9589,11.627-9.1064,11.627C386.8584,400.3633,383.2939,396.9082,383.2939,388.7363Zm11.4112-.5039c0-4.1386-.9356-6.082-2.52-6.082-1.6923,0-2.5917,1.9434-2.5917,6.082,0,4.1035.72,5.9043,2.5556,5.9043C394.0215,394.1367,394.7051,392.2646,394.7051,388.2324Z"/><path class="cls-3" d="M411.6611,391.0039a26.032,26.032,0,0,1-3.0957.1094c-1.872,0-3.9238-.0723-5.1474-.1445-.72-.0723-1.1875-.3594-1.1875-1.2247a16.0681,16.0681,0,0,1,.6113-4.2109c.2168-.8633.5762-1.332,1.2246-1.4043.9356-.0713,2.3037-.1074,3.6357-.1074,1.6553,0,3.3829.0361,4.3907.1445.9726.1436,1.3681.4668,1.3681,1.5117a17.4661,17.4661,0,0,1-.6474,4.1035C412.6328,390.5,412.3447,390.9688,411.6611,391.0039Z"/><path class="cls-3" d="M417.17,399.8955c-.7207-.0361-1.1162-.36-1.2246-1.4033-.2158-2.5918-.3232-5.544-.3232-8.5313a128.496,128.496,0,0,1,.9355-16.0175c.18-1.2246.4678-1.4766,1.3682-1.5489.6836-.0351,1.583-.0722,2.5195-.0722.8994,0,1.8359.0371,2.7715.0722.6836.0371,1.0439.252.9717.9727-.0723,1.6914-1.2959,6.9824-1.2959,10.043,0,.3232.1084.5039.3242.5039s.5039-.2168.8994-.793c2.4121-2.1953,4.2119-6.3711,5.0039-9.7188.18-.7187.4317-.9707.9356-1.0078.8281-.0722,1.8-.1074,2.7714-.1074,1.044,0,2.0518.0352,2.7364.1074.5761.0371.8281.2891.8281.7559,0,2.7-1.7285,7.7392-4.8594,11.0869a.7622.7622,0,0,0-.3242.6475.8161.8161,0,0,0,.3242.6484c2.8789,2.7363,5.1465,8.3867,5.1465,13.2109,0,.7559-.2871,1.1153-.9355,1.1514-.7559.0361-1.6553.0713-2.7354.0713-.9365,0-1.9082-.0352-2.8437-.1074-.8643-.0723-1.08-.4317-1.1524-1.2959-.8994-6.9112-2.2676-9.61-4.0674-9.61-.8632,0-1.8359,1.2237-1.8359,3.06,0,2.3389.8281,5.5791.8281,6.8027a.9494.9494,0,0,1-1.0078,1.08c-.7558.0713-1.6914.0713-2.6992.0713C419.1133,399.9668,417.9971,399.9668,417.17,399.8955Z"/><path class="cls-3" d="M438.2666,393.0918c0-5.2188,4.1035-7.3066,8.7822-7.99,1.1162-.18,1.6563-.4317,1.6563-1.08,0-1.1153-.6123-1.836-2.34-1.836a8.1987,8.1987,0,0,0-5.4355,2.3038.9337.9337,0,0,1-.6113.3242.7005.7005,0,0,1-.4688-.2158,4.54,4.54,0,0,1-1.331-3.2754c0-2.5567,3.1308-4.5352,8.2783-4.5352,6.0478,0,8.1709,3.0234,8.1709,8.3867,0,2.1953-.18,5.65-.18,8.3145,0,2.0879.2881,4.4629.2881,5.039a1.0133,1.0133,0,0,1-.9,1.1163,61.7589,61.7589,0,0,1-7.4863.288C441.1816,399.9316,438.2666,397.88,438.2666,393.0918Zm10.4746-2.5547c0-1.08-.1445-1.3682-.7558-1.3682-1.9805,0-3.6,1.1514-3.6,3.0235,0,1.584,1.0791,2.2676,2.9151,2.2676,1.1523,0,1.44-.5039,1.44-1.583Z"/><path class="cls-3" d="M465.05,399.8955c-.8281.0713-1.8.0713-2.8076.0713s-2.0518,0-2.916-.0713a1.0225,1.0225,0,0,1-1.0078-1.0439c-.2881-2.9512-.4317-6.4073-.4317-10.0069a134.9519,134.9519,0,0,1,1.0791-17.458.9487.9487,0,0,1,.9727-.9355c.8271-.0362,1.6191-.0723,2.4472-.0723s1.6553.0361,2.4122.0723c.5039.0361.8271.2519.8271.7558,0,.6114-.6475,6.9112-.6475,13.5342,0,6.9834.7559,13.3906.7559,14.4346A.6715.6715,0,0,1,465.05,399.8955Z"/><path class="cls-3" d="M475.7051,399.8955c-.8281.0713-1.8.0713-2.8076.0713s-2.0518,0-2.9161-.0713a1.0226,1.0226,0,0,1-1.0078-1.0439c-.2881-2.9512-.4316-6.4073-.4316-10.0069a134.9519,134.9519,0,0,1,1.0791-17.458.9487.9487,0,0,1,.9727-.9355c.8271-.0362,1.6191-.0723,2.4472-.0723s1.6553.0361,2.4121.0723c.5039.0361.8272.2519.8272.7558,0,.6114-.6475,6.9112-.6475,13.5342,0,6.9834.7559,13.3906.7559,14.4346A.6715.6715,0,0,1,475.7051,399.8955Z"/><path class="cls-3" d="M486.792,400.3633c-6.4795,0-8.6387-4.9668-8.6387-11.0147,0-8.8906,4.5352-12.5263,9.9346-12.5263,3.6357,0,6.4785,1.9433,6.4785,5.9756,0,6.1552-5.1465,6.875-8.3144,8.2783-1.1163.3965-1.584.7207-1.584,1.332,0,1.0439.7558,1.8721,2.4834,1.8721a7.6841,7.6841,0,0,0,6.1552-2.9151c.2168-.1806.36-.289.54-.289.5039,0,.9.9365.9,2.6279C494.7471,397.88,491.0391,400.3633,486.792,400.3633Zm.5039-18.5371c-1.98,0-3.3477,2.1592-3.3477,4.6426,0,.36.1084.6484.4317.6484a1.63,1.63,0,0,0,.6846-.18c1.4394-.8643,3.8867-1.7637,3.8867-3.4922A1.5392,1.5392,0,0,0,487.2959,381.8262Z"/><path class="cls-3" d="M511.4512,400.0391a2.3428,2.3428,0,0,1-.9356.289,2.2732,2.2732,0,0,1-.9726-.289c-4.9307-2.6993-7.3067-8.2071-7.3067-18.3575a27.85,27.85,0,0,1,.1084-2.9873c.0352-.8994.252-1.26,1.2959-1.3681.6475-.0723,1.6192-.1074,2.5557-.1074a20.6114,20.6114,0,0,1,2.375.1074.6715.6715,0,0,1,.5762.7558c0,1.1875-.36,4.2119-.36,7.5586,0,2.2324.2881,5.1836,1.4766,6.7324a.53.53,0,0,0,.4677.2872.4814.4814,0,0,0,.4317-.2872c1.2236-1.8007,1.5117-4.8964,1.5117-7.416,0-3.0234-.3594-6.0468-.3594-6.8388,0-.5752.252-.7559.6475-.792a14.603,14.603,0,0,1,2.34-.1074,16.5744,16.5744,0,0,1,2.4121.1074c1.0079.0722,1.1153.4316,1.2237,1.4765.0713.8994.0713,1.7637.0713,2.627C519.01,392.084,516.3467,397.4473,511.4512,400.0391Z"/><path class="cls-3" d="M520.0928,393.0918c0-5.2188,4.1035-7.3066,8.7822-7.99,1.1162-.18,1.6562-.4317,1.6562-1.08,0-1.1153-.6123-1.836-2.34-1.836a8.1983,8.1983,0,0,0-5.4355,2.3038.9339.9339,0,0,1-.6114.3242.7.7,0,0,1-.4687-.2158,4.54,4.54,0,0,1-1.3311-3.2754c0-2.5567,3.1309-4.5352,8.2783-4.5352,6.0479,0,8.1709,3.0234,8.1709,8.3867,0,2.1953-.18,5.65-.18,8.3145,0,2.0879.288,4.4629.288,5.039a1.0132,1.0132,0,0,1-.9,1.1163,61.7607,61.7607,0,0,1-7.4864.288C523.0078,399.9316,520.0928,397.88,520.0928,393.0918Zm3.8515-21.3809c0-2.6269,1.835-4.1386,4.6426-4.1386,2.9883,0,4.6436,1.5117,4.6436,4.1386,0,2.5557-1.6553,3.959-4.6436,3.959C525.7793,375.67,523.9443,374.2666,523.9443,371.7109Zm6.6231,18.8262c0-1.08-.1445-1.3682-.7559-1.3682-1.98,0-3.6,1.1514-3.6,3.0235,0,1.584,1.0791,2.2676,2.9151,2.2676,1.1523,0,1.44-.5039,1.44-1.583Zm-.36-18.8262c0-.9716-.5761-1.4755-1.62-1.4755a1.394,1.394,0,0,0-1.583,1.4755c0,.8633.6113,1.3321,1.583,1.3321C529.6309,373.043,530.207,372.5742,530.207,371.7109Z"/><path class="cls-3" d="M547.415,376.7871c1.5127,0,2.1241.2149,2.8077.2149.9365,0,1.44-1.295,2.1962-2.3028.3594-.6123.7559-.9,1.1514-.9.9,0,3.24,2.2676,3.24,3.2032a.7068.7068,0,0,1-.36.6123c-.792.4326-1.62.8642-1.62,1.7636,0,.9717,1.584,1.5479,1.584,4.9678,0,4.1387-2.627,6.9824-8.459,6.9824-3.0957,0-3.959,1.1885-3.959,2.2676,0,.7207.3955,1.0449,1.2236,1.0449,1.6563,0,4.3194-1.584,7.3067-1.584a6.3281,6.3281,0,0,1,3.4922.8633,1.416,1.416,0,0,1,.6474,1.2969c0,1.6553-1.0078,5.0391-2.1592,5.0391a1.9439,1.9439,0,0,1-.7558-.18,5.2532,5.2532,0,0,0-3.0244-.793c-2.1954,0-3.8506,1.1523-6.875,1.1523-3.3477,0-5.2549-1.62-5.2549-4.5712a6.8628,6.8628,0,0,1,2.5195-5.22c.252-.2519.3955-.4316.3955-.6484a.9984.9984,0,0,0-.2871-.5391,7.4147,7.4147,0,0,1-2.16-5.3994C539.0645,379.5586,542.4121,376.7871,547.415,376.7871Zm.4327,9.3574a2.3725,2.3725,0,0,0,2.5195-2.4111,2.485,2.485,0,1,0-2.5195,2.4111Z"/><path class="cls-3" d="M566.6758,400.3633c-6.48,0-8.6387-4.9668-8.6387-11.0147,0-8.8906,4.5352-12.5263,9.9346-12.5263,3.6357,0,6.4785,1.9433,6.4785,5.9756,0,6.1552-5.1465,6.875-8.3145,8.2783-1.1162.3965-1.5839.7207-1.5839,1.332,0,1.0439.7558,1.8721,2.4834,1.8721a7.6841,7.6841,0,0,0,6.1552-2.9151c.2168-.1806.36-.289.54-.289.5039,0,.9.9365.9,2.6279C574.6309,397.88,570.9229,400.3633,566.6758,400.3633Zm.5039-18.5371c-1.98,0-3.3477,2.1592-3.3477,4.6426,0,.36.1084.6484.4317.6484a1.629,1.629,0,0,0,.6845-.18c1.4395-.8643,3.8868-1.7637,3.8868-3.4922A1.5392,1.5392,0,0,0,567.18,381.8262Z"/><path class="cls-3" d="M593.998,386.1094a114.364,114.364,0,0,1-.7558,12.7422c-.1084.6836-.4678,1.0078-1.0078,1.0439a20.1312,20.1312,0,0,1-2.1963.0713c-.8994,0-1.7637-.0352-2.5195-.0713-.5752-.0713-.792-.3232-.792-.7559,0-1.6552.54-7.6669.54-12.3818,0-2.5566-.4316-3.78-1.7637-3.78a2.2806,2.2806,0,0,0-1.6552.6475c-.6123.5762-.8643,1.584-.8643,4.2119,0,5.3994.5039,10.043.5039,11.1221,0,.6484-.2881.9-.9355.9365s-1.3321.0713-2.0157.0713c-.9,0-1.7646-.0352-2.4121-.0713-.6123-.0361-1.0078-.2158-1.08-1.1514-.2519-2.7714-.4316-6.3-.4316-10.3671,0-2.9161.0723-6.1192.3242-9.503.0713-1.1513.7559-1.4394,1.6914-1.5478.6485-.0352,1.4043-.0723,2.1241-.0723.6113,0,1.2236.0371,1.6552.0723.6485.0361.9.3242.9.8281s.18.6836.5039.6836c1.08,0,2.4473-1.9082,5.1475-1.9082C592.3779,376.93,593.998,379.4141,593.998,386.1094Z"/><path class="cls-3" d="M595.5479,396.6562c0-2.34,1.5478-3.708,3.96-3.708,2.5195,0,3.959,1.3682,3.959,3.708,0,2.3028-1.44,3.5274-3.959,3.5274C597.0957,400.1836,595.5479,398.959,595.5479,396.6562Z"/><path class="cls-3" d="M613.7988,399.8594a.9467.9467,0,0,1-1.0439-.8633,64.689,64.689,0,0,1-.8633-11.0869,69.05,69.05,0,0,1,1.4395-14.7588.94.94,0,0,1,.9355-.7559c1.1523-.1074,2.9522-.1435,4.68-.1435,5.3271,0,7.8105.6474,9.791,2.5918,1.4756,1.5117,2.0518,3.7431,2.0518,6.5146,0,6.5879-3.8877,9.3946-7.9551,11.1953-2.4844,1.1153-3.168,1.7276-3.168,3.0586a29.0505,29.0505,0,0,0,.6836,3.6367c0,.3956-.2519.5762-.6836.6114-.7558.0722-1.9072.1074-3.0957.1074C615.6348,399.9668,614.6631,399.9316,613.7988,399.8594Zm8.5313-13.1739a8.533,8.533,0,0,0,1.8-5.6523c0-2.3389-.7559-3.7793-2.916-3.7793a1.73,1.73,0,0,0-1.3682.3965c-.791.8281-1.1514,3.7793-1.1514,7.7383,0,1.7646.18,2.5566.8643,2.5566A4.333,4.333,0,0,0,622.33,386.6855Z"/><path class="cls-3" d="M639.3213,399.8594c-.6836.0361-1.5117.0722-2.4473.0722s-1.9082,0-2.916-.0722a1.1028,1.1028,0,0,1-1.0078-.9717,54.5088,54.5088,0,0,1-.72-10.2949c0-6.2627.2881-9.1065.6123-10.294a1.11,1.11,0,0,1,.6836-.9,15.0854,15.0854,0,0,1,2.7353-.2168,7.2209,7.2209,0,0,1,1.62.1094c.3955.0713.5039.3233.54.7559s.2158.5752.3955.5752a1.1523,1.1523,0,0,0,.6123-.2881,3.8256,3.8256,0,0,1,2.2676-1.26c.6484,0,1.08.8281,1.08,3.6719a12.5482,12.5482,0,0,1-.288,3.2393c-.18.6123-.4678.7558-.792.7558-.4317,0-1.0078-.3232-1.6914-.3232s-1.26.6836-1.26,3.4912c0,4.5351,1.5117,10.3662,1.5117,11.0869C640.2578,399.4629,640.042,399.7871,639.3213,399.8594Z"/><path class="cls-3" d="M646.3789,400.0039c-.2519.3242-.4326.5039-.7559.5039a1.2443,1.2443,0,0,1-.4326-.1084,5.3693,5.3693,0,0,1-1.6552-1.1514.67.67,0,0,1-.252-.5761,1.0015,1.0015,0,0,1,.2881-.6485c.3955-.5039.8271-1.0078,1.2959-1.6191a1.0932,1.0932,0,0,0,.18-.5762,1.4063,1.4063,0,0,0-.1084-.5039,17.8561,17.8561,0,0,1-1.08-6.5879c0-7.1269,3.0605-11.9492,9.1436-11.9492a7.7543,7.7543,0,0,1,4.6074,1.3311.9512.9512,0,0,0,.3594.1084.62.62,0,0,0,.5039-.2881c.3242-.4678.6123-.792.7919-1.044a1.0055,1.0055,0,0,1,.792-.5039,3.672,3.672,0,0,1,1.4756.5391.8726.8726,0,0,1,.5762.7568,1.152,1.152,0,0,1-.252.6123c-.3955.5752-.8994,1.295-1.4755,2.1231a1.4984,1.4984,0,0,0-.1446.54.9618.9618,0,0,0,.1084.4326,18.2737,18.2737,0,0,1,1.26,7.3418c0,8.1719-3.959,11.627-9.1065,11.627a8.3155,8.3155,0,0,1-4.7158-1.3321.6008.6008,0,0,0-.3955-.1435.4014.4014,0,0,0-.36.2158C646.7744,399.4629,646.5586,399.7148,646.3789,400.0039Zm3.4912-10.6553c.1436,0,.2158-.0713.3242-.2158,1.4756-2.0517,3.1309-4.1758,4.4629-6.0117a.9.9,0,0,0,.1807-.5752.9605.9605,0,0,0-.1084-.4326,2.314,2.314,0,0,0-1.98-1.0078c-2.0156,0-3.168,2.16-3.168,6.7314a7.3763,7.3763,0,0,0,.0723,1.2959C649.69,389.3125,649.7979,389.3486,649.87,389.3486Zm2.9512,5.94c2.0879,0,3.0244-1.9072,3.0244-6.0108a7.7766,7.7766,0,0,0-.1084-1.3681c-.0361-.1436-.0723-.252-.2158-.252-.0723,0-.1445.0362-.252.18-1.4394,2.0518-2.916,3.9951-4.1757,5.8311a.9138.9138,0,0,0-.252.6123C650.8418,394.82,651.85,395.2881,652.8213,395.2881Z"/><path class="cls-3" d="M672.5859,400.0391a2.3429,2.3429,0,0,1-.9355.289,2.2739,2.2739,0,0,1-.9727-.289c-4.9306-2.6993-7.3066-8.2071-7.3066-18.3575a27.85,27.85,0,0,1,.1084-2.9873c.0351-.8994.2519-1.26,1.2959-1.3681.6475-.0723,1.6191-.1074,2.5557-.1074a20.6114,20.6114,0,0,1,2.375.1074.6714.6714,0,0,1,.5761.7558c0,1.1875-.36,4.2119-.36,7.5586,0,2.2324.2881,5.1836,1.4765,6.7324a.53.53,0,0,0,.4678.2872.4815.4815,0,0,0,.4317-.2872c1.2236-1.8007,1.5117-4.8964,1.5117-7.416,0-3.0234-.3594-6.0468-.3594-6.8388,0-.5752.2519-.7559.6475-.792a14.603,14.603,0,0,1,2.34-.1074,16.5744,16.5744,0,0,1,2.4121.1074c1.0078.0722,1.1152.4316,1.2236,1.4765.0713.8994.0713,1.7637.0713,2.627C680.1445,392.084,677.4814,397.4473,672.5859,400.0391Z"/><path class="cls-3" d="M695.3379,399.8955c-.8643.0713-1.8721.1084-2.916.1084s-2.0508-.0371-2.9512-.1084a.9084.9084,0,0,1-.8994-.9365,71.1028,71.1028,0,0,1-.4326-8.207,79.8345,79.8345,0,0,1,.9-12.5616.9648.9648,0,0,1,1.0078-.8994c.792-.0722,1.5117-.0722,2.1953-.0722.72,0,1.44,0,2.2314.0722.54.0352.8282.2871.8282.7188,0,.7929-.252,4.0683-.252,7.8828a124.4288,124.4288,0,0,0,.9717,13.3554C696.0215,399.68,695.6982,399.8594,695.3379,399.8955Zm-6.9111-26.9971c0-1.9072,1.26-3.0957,3.9238-3.0957,2.8076,0,3.9228,1.1885,3.9228,3.0957,0,1.8721-1.1152,2.9522-3.9228,2.9522C689.6865,375.8506,688.4268,374.7705,688.4268,372.8984Z"/><path class="cls-3" d="M706.3887,376.7871c1.5127,0,2.124.2149,2.8076.2149.9365,0,1.44-1.295,2.1963-2.3028.3594-.6123.7558-.9,1.1513-.9.9,0,3.24,2.2676,3.24,3.2032a.7067.7067,0,0,1-.36.6123c-.792.4326-1.62.8642-1.62,1.7636,0,.9717,1.584,1.5479,1.584,4.9678,0,4.1387-2.627,6.9824-8.459,6.9824-3.0957,0-3.959,1.1885-3.959,2.2676,0,.7207.3955,1.0449,1.2237,1.0449,1.6562,0,4.3193-1.584,7.3066-1.584a6.3279,6.3279,0,0,1,3.4922.8633,1.416,1.416,0,0,1,.6474,1.2969c0,1.6553-1.0078,5.0391-2.1591,5.0391a1.9443,1.9443,0,0,1-.7559-.18,5.2517,5.2517,0,0,0-3.0234-.793c-2.1963,0-3.8516,1.1523-6.876,1.1523-3.3477,0-5.2549-1.62-5.2549-4.5712a6.8628,6.8628,0,0,1,2.5195-5.22c.252-.2519.3965-.4316.3965-.6484a1.0007,1.0007,0,0,0-.2881-.5391,7.4147,7.4147,0,0,1-2.16-5.3994C698.0381,379.5586,701.3857,376.7871,706.3887,376.7871Zm.4326,9.3574a2.3725,2.3725,0,0,0,2.5195-2.4111,2.485,2.485,0,1,0-2.5195,2.4111Z"/><path class="cls-3" d="M725.6494,400.3633c-6.48,0-8.6387-4.9668-8.6387-11.0147,0-8.8906,4.5352-12.5263,9.9346-12.5263,3.6358,0,6.4785,1.9433,6.4785,5.9756,0,6.1552-5.1465,6.875-8.3144,8.2783-1.1162.3965-1.584.7207-1.584,1.332,0,1.0439.7558,1.8721,2.4834,1.8721a7.6843,7.6843,0,0,0,6.1553-2.9151c.2168-.1806.36-.289.54-.289.5039,0,.9.9365.9,2.6279C733.6045,397.88,729.8965,400.3633,725.6494,400.3633Zm.5039-18.5371c-1.9795,0-3.3476,2.1592-3.3476,4.6426,0,.36.1084.6484.4316.6484a1.63,1.63,0,0,0,.6846-.18c1.4394-.8643,3.8867-1.7637,3.8867-3.4922A1.5392,1.5392,0,0,0,726.1533,381.8262Z"/><path class="cls-3" d="M752.9717,386.1094a114.3563,114.3563,0,0,1-.7559,12.7422c-.1084.6836-.4678,1.0078-1.0078,1.0439a20.1312,20.1312,0,0,1-2.1963.0713c-.8994,0-1.7637-.0352-2.5195-.0713-.5752-.0713-.792-.3232-.792-.7559,0-1.6552.54-7.6669.54-12.3818,0-2.5566-.4316-3.78-1.7636-3.78a2.2807,2.2807,0,0,0-1.6553.6475c-.6123.5762-.8643,1.584-.8643,4.2119,0,5.3994.5039,10.043.5039,11.1221,0,.6484-.288.9-.9355.9365s-1.332.0713-2.0156.0713c-.9,0-1.7637-.0352-2.4121-.0713-.6123-.0361-1.0079-.2158-1.08-1.1514-.252-2.7714-.4317-6.3-.4317-10.3671,0-2.9161.0723-6.1192.3243-9.503.0712-1.1513.7558-1.4394,1.6914-1.5478.6484-.0352,1.4043-.0723,2.124-.0723.6113,0,1.2236.0371,1.6553.0723.6484.0361.9.3242.9.8281s.18.6836.504.6836c1.08,0,2.4472-1.9082,5.1474-1.9082C751.3516,376.93,752.9717,379.4141,752.9717,386.1094Z"/><path class="cls-3" d="M763.16,372.5029a.6952.6952,0,0,1,.6845.7559,87.3956,87.3956,0,0,0-1.98,16.666c-.0352.9717-.4317,1.26-2.1954,1.44a10.2509,10.2509,0,0,1-1.4033.0713c-.9,0-1.332-.18-1.5127-.8271a52.7385,52.7385,0,0,1-1.5117-10.4756c-.1074-2.1592-.1435-3.9229-.1435-6.19.0361-.793.2158-1.3692,1.3681-1.4766.8633-.0723,2.0518-.1074,3.2754-.1074A31.46,31.46,0,0,1,763.16,372.5029Zm-7.8829,24.1533c0-2.34,1.5479-3.708,3.96-3.708,2.5195,0,3.959,1.3682,3.959,3.708,0,2.3028-1.4395,3.5274-3.959,3.5274C756.8252,400.1836,755.2773,398.959,755.2773,396.6562Z"/></g></svg>
