<svg xmlns="http://www.w3.org/2000/svg" width="1920" height="1080" viewBox="0 0 1920 1080"><defs><style>.cls-1{fill:#afa095;}.cls-2{fill:#42210b;}.cls-3{fill:#6b6b6b;}.cls-4{fill:#7f1616;}.cls-5{fill:#af1212;}.cls-6{fill:#999898;}.cls-7{fill:#fff;}.cls-8{fill:#c6c6c6;}.cls-9{fill:#3f3407;}.cls-10{fill:#cecaca;opacity:0.22;}.cls-11{fill:#754c24;}.cls-12,.cls-25{fill:none;stroke-linecap:round;stroke-linejoin:round;stroke-width:12px;}.cls-12{stroke:#fff;opacity:0.35;}.cls-13,.cls-27{fill:#c69c6d;}.cls-13{stroke:#c69c6d;stroke-miterlimit:10;opacity:0.28;}.cls-14{fill:#f9f9f9;}.cls-15{fill:#72513b;}.cls-16{opacity:0.12;}.cls-17{fill:#5b5656;}.cls-18{fill:#f7e4d7;}.cls-19{fill:#f2a672;}.cls-20{fill:#050505;}.cls-21{fill:#edcfbc;}.cls-22{fill:#100f3f;}.cls-23{fill:#efe3dc;}.cls-24{fill:#070707;}.cls-25{stroke:#312f84;}.cls-26{opacity:0.54;}</style></defs><title>Artboard_titel</title><g id="titelskærm"><rect class="cls-1" width="1920" height="1080"/><path class="cls-2" d="M115.7383,334.0942C92.4064,266.0928,87.1214,205.2217,152.1609,205.165c51.05-.0529,88.8445,34.9949,100.2869,67.84,3.1343,8.6426,2.6741,14.4033-.8522,19.8818-4.7741,9.7974-22.5151,24.7862-32.5066,24.7862-3.24.0031-5.1438-2.306-6.5756-6.6258-1.43-4.3227-2.91-10.3706-4.881-15.843-6.62-18.719-19.5721-38.2854-34.9341-38.2764-17.13.0125-14.9793,23.0144-1.2119,62.7637,13.2461,40.04,26.5432,53.0369,47.7823,53.0422,20.6224.0091,32.6171-14.1228,38.6008-33.44.9228-2.02,2.1474-2.8826,3.8978-2.8828,6.7007.0017,16.2981,13.842,20.2362,32.8933,6.954,33.1948-11.9638,64.95-60.39,64.9014C168.7917,434.1719,137.8615,400.3647,115.7383,334.0942Z"/><path class="cls-2" d="M655.6682,209.4421c11.1659-1.8032,50.6978-3.1855,64.025-3.2644,55.7807-.3339,95.9919,14.0606,95.3371,59.941-.1953,27.6355-13.9566,46.7727-33.5752,63.2016a5.4588,5.4588,0,0,0-1.9836,4.1087,3.9107,3.9107,0,0,0,2.0945,3.5236c30.0776,21.729,41.428,77.1587,41.5036,88.0645.0065,4.4177-2.5282,6.7595-6.76,7.0254-5.3617.2619-14.6724.4939-24.2676.4338-7.9019-.05-16.0883-.3938-21.455-.7209-5.93-.3286-8.213-2.1055-8.8392-6.2171-5.4116-43.4753-18.5126-66.6443-34.7106-66.6723-10.4038-.0191-14.9932,6.9951-14.47,20.7468.6339,15.8,6.7538,42.76,6.8124,46.5735.0764,3.2212-1.8671,4.6748-5.2468,4.95-6.2025.2573-14.662.5063-23.6928.4565-7.62-.04-14.9668-.3723-22.0329-.6985-3.9627-.3122-7.6554-1.2072-8.4383-7.051-3.4341-23.9641-6.9791-53.74-9.5279-86.6929-2.8257-37.33-4.535-78.9953-1.9244-121.5517C648.9593,211.5176,651.3067,210.0493,655.6682,209.4421Zm57.93,114.0047c16.596.0132,38.9757-26.36,38.15-53.6153-.5591-16.4018-11.3-23.0947-25.47-23.039-6.1516.0229-11.9226,1.2153-14.5074,3.8552-5.4846,5.5732-7.5124,27.7842-5.9809,53.7971C706.6877,319.937,708.6075,323.4448,713.5986,323.4468Z"/><path class="cls-2" d="M925.8153,432.5154c-4.2264-.3308-7.5859-2.427-8.0162-9.542-1.1955-11.2691-1.3969-26.3784-.8421-42.3709,2.1906-62.7722,12.3146-97.7121,13.3172-110.7448.3318-4.1436-.6625-6.8047-6.1352-6.7837-18.58.0769-32.7169,8.6892-39.3352,8.7087-2.4158.0051-4.1613-1.4665-3.9768-5.2981.3645-8.5574,5.5908-36.9021,8.8723-47.8379,1.485-3.5481,4.1641-5.927,9.0064-7.4363,10.3009-3.3151,37.3568-7.9475,72.64-8.2307,33.3651-.2673,58.12,3.3821,69.6081,9.2461,5.3348,3.5293,5.6458,6.8076,4.1649,13.3716-2.79,13.7254-7.9046,32.2332-11.813,42.6826-1.6885,3.2864-3.06,4.4827-5.1732,4.4905-6.022.0208-15.6568-9.1736-31.781-9.1008-4.8578.02-7.2466,2.11-9.14,8.0605a240.2578,240.2578,0,0,0-6.6058,37.7571c-5.296,57.0515,4.7326,107.4011,4.42,116.345-.1367,4.1662-1.8886,6.237-6.1475,7.0962-5.1061.8493-15.2779,1.363-26.2827,1.2773C943.848,434.1375,933.4153,433.7561,925.8153,432.5154Z"/><path class="cls-2" d="M1093.1672,434.21c-5.3448-.3479-8.1207-1.574-8.4039-6.9771a349.06,349.06,0,0,1,.9578-41.6977c5.7413-70.1668,37.5726-148.0032,116.0108-184.3282,3.6444-1.5417,6.16-2.47,8.3863-2.4939,2.5443-.0288,4.1605.8619,6.5308,2.3438,48.5959,36.2307,45.5641,102.9431,34.1729,183.8721-1.8608,13.0786-4.0483,26.7622-6.7422,41.34-1.1191,6.3774-4.3413,8.167-9.754,8.7205-6.5372.5405-14.46.7622-22.08.6818-9.312-.0961-18.3232-.4931-24.21-1.1557-3.6282-.6409-5.4905-2.4749-5.2076-6.4043.4841-6.6507,6.0737-20.5242,8.2647-38.981,1.4589-12.103-3.506-17.2705-16.1653-17.3242-16.9336-.07-32.5415,6.8005-34.1995,23.9649-1.2982,13.5544,1.0212,24.7238.5182,32.56.0719,3.3173-1.1595,5.1132-4.8639,5.68-6.2448.5442-14.727.7634-23.757.6792C1105.57,434.6213,1099.6431,434.5691,1093.1672,434.21Zm85.5035-101.9795c7.1141-.5992,11.8426-.8965,15.458-1.5,3.6734-.9048,5.2313-3.0245,6.05-7.2586,3.627-19.0681.1436-44.7654-5.6867-57.7073-1.0662-1.8056-1.6741-3.01-2.8893-3.0029-1.5183.0071-2.9593.9211-5.2934,3.0418-19.5152,17.2893-33.0911,49.2312-36.0077,68.5124-.431,2.71.5971,3.6182,2.3428,3.62C1156.13,337.9421,1165.9435,333.1292,1178.6707,332.2305Z"/><path class="cls-2" d="M1331.6406,436.666c-4.769-.3628-6.9233-1.6108-8.0428-4.6909-2.521-8.9341-5.551-31.9048,8.8406-95.6233C1347.9875,272.32,1369.9819,232.406,1385.5776,209c3.4069-4.9262,7.101-6.8032,10.4049-7.1472,10.73-.7326,24.1879-1.1965,35.9152-1.3359,39.3629-.4575,69.0961,6.2051,81.0171,27.1658,12.488,20.9387,7.1641,56.176-10.4987,112.3457-19.035,63.989-39.6866,98.8889-118.9074,97.8618C1369.1174,437.7136,1337.2581,437.0349,1331.6406,436.666ZM1447.58,329.3813c16.5684-53.0468,8.3031-76.4946-14.2947-76.3107a15.5783,15.5783,0,0,0-8.14,2.8293c-7.74,5.9016-19.24,29.3635-29.8574,66.0457-10.7726,38.2207-11.3648,57.6308-7.2,63.5263a8.5808,8.5808,0,0,0,7.3786,3.4456C1417.4679,389.08,1434.8539,373.1091,1447.58,329.3813Z"/><path class="cls-3" d="M618.6605,396.1266c-11.3156,22.7438-56.6155,40.0921-130.8674,47.9741s-121.5219.36-138.0394-19.59c-16.0145-19.3426,55.4511-51.0614,129.703-58.9434S629.8388,373.6588,618.6605,396.1266Z"/><ellipse class="cls-4" cx="480.9968" cy="399.0039" rx="135.2003" ry="41.4057" transform="translate(-39.4309 53.0024) rotate(-6.0593)"/><ellipse class="cls-5" cx="481.0579" cy="396.4251" rx="135.2003" ry="41.4057" transform="translate(-39.1584 52.9945) rotate(-6.0593)"/><ellipse class="cls-6" cx="477.6157" cy="393.9677" rx="99.7352" ry="23.1075" transform="translate(-38.9182 52.6174) rotate(-6.0593)"/><path class="cls-7" d="M546.6233,263.2642c1.4539,13.6966-34.7854,28.7719-81.1472,33.6933s-85.2895-2.1749-86.7434-15.8715,34.9511-28.79,81.3128-33.7109S545.1694,249.5675,546.6233,263.2642Z"/><path class="cls-5" d="M465.6787,298.8652c-37.3964,3.97-70.4514-2.6622-85.0234-15.4657a58.3885,58.3885,0,0,0-3.503,26.9643l5.1952,48.9414c3.5369,33.3194,34.8235,57.5667,69.5257,53.883l50.9727-5.4108c34.7023-3.6837,60.2012-33.9589,56.6643-67.2783l-5.1952-48.9413a58.3792,58.3792,0,0,0-8.9465-25.4108C533.6637,281.6167,502.8726,294.917,465.6787,298.8652Z"/><path class="cls-7" d="M546.6233,263.2642c1.4539,13.6966-34.7854,28.7719-81.1472,33.6933s-85.2895-2.1749-86.7434-15.8715,34.9511-28.79,81.3128-33.7109S545.1694,249.5675,546.6233,263.2642Z"/><path class="cls-8" d="M541.0107,264.0207c1.7122,9.9828-32.6106,22.1282-76.3522,26.9145-43.3289,4.7411-79.52.02-80.6106-10.2527-.9031-8.5075,38.2117-22.5649,74.5371-26.716.5561-.0635,1.1962-.1344,1.97-.2149C497.5287,249.9062,539.5392,255.4412,541.0107,264.0207Z"/><path class="cls-9" d="M404.4862,290.2489c8.3946-9.2509,27.2447-19.6117,59.3413-23.0188s53.818,1.8572,59.3647,5.595c5.7709,3.8889,4.229,3.46,2.4594,4.24-10.5565,4.6574-33.865,11.0012-59.2119,13.6806-23.3913,2.4727-49.526,3.0066-58.1421.7059-1.6528-.4414-3.79-.5-3.8114-1.2031"/><path class="cls-5" d="M552.9773,360.9783c23.7752-2.5237,41.0845-23.0753,38.6613-45.903s-23.6613-39.2875-47.4365-36.7637m1.5525,14.6257c15.3625-1.6308,29.0855,9.0047,30.6513,23.7549s-9.6187,28.03-24.9811,29.6605"/><path class="cls-10" d="M473.0142,273.3286c-3.6554,8.6423,23.9624-24.1561,22.3716-43.18a26.5943,26.5943,0,0,0-1.1387-6.0175c-3.43-10.497-12.8151-14.4946-24.19-22.09-16.0078-10.6885-24.1086-16.0974-26.0159-24.99-1.3486-6.288,1.634-12.9279,7.5992-26.2077,2.6857-5.979,9.5626-19.1056,11.9168-20.2353,8.6034-4.1286-80.6365,57.4324-6.1958,99.3678C468.4646,236.2306,479.7065,257.5062,473.0142,273.3286Z"/><path class="cls-2" d="M381.835,809.75c-6-.3-9.3-3-10.2-11.7-1.8-21.6006-2.7-46.2-2.7-71.1006,0-51.6006,3.6-104.1015,7.8-133.501,1.5-10.2,3.9-12.3007,11.4-12.9,5.7-.3,13.2-.6006,21-.6006,7.5,0,15.3.3007,23.1.6006,5.7.3,8.7,2.1,8.1,8.1-.6,14.1005-10.8,58.2011-10.8,83.7011,0,2.7.9,4.2,2.7,4.2s4.2-1.8,7.5-6.6006c20.1-18.3,35.1-53.1005,41.7006-81.0009,1.5-6,3.6-8.1,7.8-8.3994,6.9-.6006,15-.8995,23.1-.8995,8.7,0,17.1.2989,22.8.8995,4.8.3,6.9,2.3994,6.9,6.3,0,22.5-14.4,64.5009-40.5005,92.4013-2.1,1.8-2.7,3.3-2.7,5.3994a6.8136,6.8136,0,0,0,2.7,5.4c24,22.8,42.9,69.9,42.9,110.1016,0,6.3-2.4,9.3-7.8,9.6-6.3.3-13.8.6-22.8.6-7.8,0-15.9-.3-23.7-.8994-7.2-.6006-9-3.6006-9.6-10.8008-7.5-57.6006-18.9-80.1006-33.9-80.1006-7.2,0-15.3,10.2-15.3,25.501,0,19.5,6.9,46.5,6.9,56.7,0,6-3,8.7-8.4,9-6.3.6-14.1.6-22.5.6C398.0352,810.35,388.7349,810.35,381.835,809.75Z"/><path class="cls-2" d="M625.4307,809.75c-5.7-.3-8.7-1.5-9.3-6.9-1.2-13.5-2.1-27.3-2.1-41.7,0-70.2,17.7-148.2012,80.7007-183.6015,3-1.5,5.1-2.3995,7.2-2.3995,2.4,0,4.2.8995,6.9,2.3995,57,36.6005,78.3008,102.3007,78.3008,182.1015a391.5,391.5,0,0,1-2.1,40.8008c-.6,6.3-3.9,8.1-9.6,8.7-6.9.6-15.3.8994-23.4.8994-9.9,0-19.5-.3-25.8-.8994-3.9-.6006-6-2.4-6-6.3008,0-6.6,4.8-20.3994,4.8-38.7,0-12-6-17.1-19.2-17.1-17.7,0-33,6.8994-33,24,0,13.5,3.3,24.6,3.3,32.4.3,3.3-.9,5.1-4.8,5.7-6.6.6-15.6.8994-25.2.8994C638.6309,810.05,632.3306,810.05,625.4307,809.75Zm78-102.001c7.2-.6,12-.9,15.6-1.5,3.6-.9,4.8-3,4.8-7.2,0-18.9-9.6-44.4-18.6-57.3008-1.5-1.8-2.4-3-3.6-3-1.5,0-2.7.9-4.5,3-15,17.1006-22.5,48.9-22.5,68.1006,0,2.7,1.2,3.6006,3,3.6006C681.231,713.4492,690.5312,708.6494,703.4312,707.749Z"/><path class="cls-2" d="M981.5264,746.4492c4.2,9.9,9.3,42.6006,9.3,54.3008,0,5.1-3.3,8.7-9.6,9-14.7.9-32.4,1.2-49.501,1.2-22.8,0-44.7-.6006-60-1.2-6.6-.3-10.2-1.5-10.5-8.7-.6-12.9-.9-27.3-.9-42.3008-.3-54.6006,3.3-118.501,13.2-171.001.9-4.2,3.3-6.9,7.2-7.2,5.4-.6006,15-.9,25.8-.9,11.7,0,24,.6005,30.9,1.2,4.5.3,5.7,2.1,5.7,4.8,0,7.2-23.7,99.0009-23.7,153.3017,0,16.2,3.6,19.5,13.8,19.5,12.6006,0,27.001-6,36.9-12,3.9-2.3994,5.7-3,7.2-3A4.0263,4.0263,0,0,1,981.5264,746.4492Z"/><path class="cls-2" d="M1176.8223,746.4492c4.2,9.9,9.3,42.6006,9.3,54.3008,0,5.1-3.3,8.7-9.6,9-14.7.9-32.4,1.2-49.501,1.2-22.8,0-44.7-.6006-60-1.2-6.6006-.3-10.2-1.5-10.5-8.7-.6006-12.9-.9-27.3-.9-42.3008-.3-54.6006,3.3-118.501,13.2-171.001.8994-4.2,3.3-6.9,7.2-7.2,5.3994-.6006,15-.9,25.8-.9,11.7,0,24,.6005,30.9,1.2,4.5.3,5.7,2.1,5.7,4.8,0,7.2-23.7,99.0009-23.7,153.3017,0,16.2,3.6,19.5,13.8,19.5,12.6006,0,27.001-6,36.9-12,3.9-2.3994,5.7-3,7.2-3A4.0263,4.0263,0,0,1,1176.8223,746.4492Z"/><path class="cls-2" d="M1262.0166,809.75c-6.6-.3-10.1992-1.5-10.5-8.7-.6-13.2-.8994-27.9-.8994-43.2,0-53.4,4.2-117.001,15-169.2021,1.2-4.5,3.9-7.8,8.1-8.1,11.1006-.9,34.2012-1.5,58.2012-1.5,26.1,0,52.5.6,67.5,1.8,4.5009.3,5.7,2.1,5.7,4.2,0,3.8994-7.2,30.6005-12.8994,43.5a4.7475,4.7475,0,0,1-4.8008,3.3007c-2.3994,0-4.8-.9-9.3-2.4a128.1373,128.1373,0,0,0-40.5-6.3c-9.9,0-15.3008,1.8-19.2,5.7-4.5,5.1-6.9,18.3-6.9,30,0,6.3,2.7,9,8.1,9,10.501,0,24.3008-4.8,41.4-4.8,12.3008,0,21.3008,2.1,21.3008,7.5,0,6.3-6,30-9.6006,40.8-1.1992,3.6006-2.3994,4.5-4.8,4.5-4.2,0-17.4-4.8-31.2-4.8-19.8,0-26.7,8.1006-26.7,23.1006,0,21,4.8,25.2,20.1006,25.2a122.7976,122.7976,0,0,0,56.4-13.5c3-1.5,3.8994-2.4,5.7-2.4s3,.9,3.8994,3c3.9,10.2,9,43.501,9,54.9,0,4.8008-3,8.1006-8.7,8.4-19.5.9-42.6,1.2-64.8,1.2C1305.2178,810.95,1280.0176,810.65,1262.0166,809.75Z"/><path class="cls-11" d="M405.7935,796.75c-6-.3-9.3-3-10.2-11.7-1.8-21.6006-2.7-46.2-2.7-71.1006,0-51.6006,3.6-104.1015,7.8-133.501,1.5-10.2,3.9-12.3007,11.4-12.9,5.7-.3,13.2-.6006,21-.6006,7.5,0,15.3.3007,23.1.6006,5.7.3,8.7,2.1,8.1,8.1-.6,14.1005-10.8,58.2011-10.8,83.7011,0,2.7.9,4.2,2.7,4.2s4.2-1.8,7.5-6.6006c20.1-18.3,35.1006-53.1005,41.7007-81.0009,1.5-6,3.6-8.1,7.8-8.3994,6.9-.6006,15-.8995,23.1-.8995,8.7,0,17.1.2989,22.8.8995,4.8.3,6.9,2.3994,6.9,6.3,0,22.5-14.4,64.5009-40.5,92.4013-2.1,1.8-2.7,3.3-2.7,5.3994a6.8136,6.8136,0,0,0,2.7,5.4c24,22.8,42.9,69.9,42.9,110.1016,0,6.3-2.4,9.3-7.8,9.6-6.3.3-13.8.6-22.8.6-7.8,0-15.9-.3-23.7007-.8994-7.2-.6006-9-3.6006-9.6-10.8008-7.5-57.6006-18.9-80.1006-33.9-80.1006-7.2,0-15.3,10.2-15.3,25.501,0,19.5,6.9,46.5,6.9,56.7,0,6-3,8.7-8.4,9-6.3.6-14.1.6-22.5.6C421.9937,797.35,412.6934,797.35,405.7935,796.75Z"/><path class="cls-11" d="M649.3887,796.75c-5.7-.3-8.7-1.5-9.3-6.9-1.2-13.5-2.1-27.3-2.1-41.7,0-70.2,17.7-148.2012,80.7007-183.6015,3-1.5,5.1-2.3995,7.2-2.3995,2.4,0,4.2.8995,6.9,2.3995,57,36.6005,78.3007,102.3007,78.3007,182.1015a391.5,391.5,0,0,1-2.1,40.8008c-.6,6.3-3.9,8.1-9.6,8.7-6.9.6-15.3.8994-23.4.8994-9.9,0-19.5-.3-25.8-.8994-3.9-.6006-6-2.4-6-6.3008,0-6.6,4.8-20.3994,4.8-38.7,0-12-6-17.1-19.2-17.1-17.7,0-33,6.8994-33,24,0,13.5,3.3,24.6,3.3,32.4.3,3.3-.9,5.1-4.8,5.7-6.6.6-15.6.8994-25.2.8994C662.5889,797.05,656.2886,797.05,649.3887,796.75Zm78-102.001c7.2-.6,12-.9,15.6-1.5,3.6-.9,4.8-3,4.8-7.2,0-18.9-9.6-44.4-18.6-57.3008-1.5-1.8-2.4-3-3.6-3-1.5,0-2.7.9-4.5,3-15,17.1006-22.5,48.9-22.5,68.1006,0,2.7,1.2,3.6006,3,3.6006C705.189,700.4492,714.4893,695.6494,727.3892,694.749Z"/><path class="cls-11" d="M1005.4844,733.4492c4.2,9.9,9.3,42.6006,9.3,54.3008,0,5.1-3.3,8.7-9.6,9-14.7.9-32.4,1.2-49.501,1.2-22.8,0-44.7-.6006-60-1.2-6.6-.3-10.2-1.5-10.5-8.7-.6-12.9-.9-27.3-.9-42.3008-.3-54.6006,3.3-118.501,13.2-171.001.9-4.2,3.3-6.9,7.2-7.2,5.4-.6006,15-.9,25.8-.9,11.7,0,24,.6005,30.9,1.2,4.5.3,5.7,2.1,5.7,4.8,0,7.2-23.7,99.0009-23.7,153.3017,0,16.2,3.6,19.5,13.8,19.5,12.6006,0,27.001-6,36.9-12,3.9-2.3994,5.7-3,7.2-3A4.0263,4.0263,0,0,1,1005.4844,733.4492Z"/><path class="cls-11" d="M1200.78,733.4492c4.2,9.9,9.3,42.6006,9.3,54.3008,0,5.1-3.3,8.7-9.6,9-14.7.9-32.4,1.2-49.501,1.2-22.8,0-44.7-.6006-60-1.2-6.6006-.3-10.2-1.5-10.5-8.7-.6006-12.9-.9-27.3-.9-42.3008-.3-54.6006,3.3-118.501,13.2-171.001.8994-4.2,3.3-6.9,7.2-7.2,5.3994-.6006,15-.9,25.8-.9,11.7,0,24,.6005,30.9,1.2,4.5.3,5.7,2.1,5.7,4.8,0,7.2-23.7,99.0009-23.7,153.3017,0,16.2,3.6,19.5,13.8,19.5,12.6006,0,27.001-6,36.9-12,3.9-2.3994,5.7-3,7.2-3A4.0263,4.0263,0,0,1,1200.78,733.4492Z"/><path class="cls-11" d="M1285.9746,796.75c-6.6-.3-10.1992-1.5-10.5-8.7-.6-13.2-.8994-27.9-.8994-43.2,0-53.4,4.2-117.001,15-169.2021,1.2-4.5,3.9-7.8,8.1-8.1,11.1006-.9,34.2012-1.5,58.2012-1.5,26.1,0,52.5.6,67.5,1.8,4.501.3,5.7,2.1,5.7,4.2,0,3.8994-7.2,30.6005-12.8994,43.5a4.7475,4.7475,0,0,1-4.8008,3.3007c-2.3994,0-4.8-.9-9.3-2.4a128.1373,128.1373,0,0,0-40.5-6.3c-9.9,0-15.3008,1.8-19.2,5.7-4.5,5.1-6.9,18.3-6.9,30,0,6.3,2.7,9,8.1,9,10.501,0,24.3008-4.8,41.4-4.8,12.3008,0,21.3008,2.1,21.3008,7.5,0,6.3-6,30-9.6006,40.8-1.1992,3.6006-2.3994,4.5-4.8,4.5-4.2,0-17.4-4.8-31.2-4.8-19.8,0-26.7,8.1006-26.7,23.1006,0,21,4.8,25.2,20.1006,25.2a122.7976,122.7976,0,0,0,56.4-13.5c3-1.5,3.8994-2.4,5.7-2.4s3,.9,3.8994,3c3.9,10.2,9,43.501,9,54.9,0,4.8008-3,8.1006-8.7,8.4-19.5.9-42.6,1.2-64.8,1.2C1329.1758,797.95,1303.9756,797.65,1285.9746,796.75Z"/><path class="cls-12" d="M408.672,389.1264c-11.7559-14.1435-15.7826-21.6319-11.4032-34.5809h0"/><rect class="cls-13" x="403" y="681" width="25" height="105" rx="8" ry="8"/><circle class="cls-14" cx="1685.1365" cy="354.1209" r="97.1013"/><path class="cls-15" d="M1753.0409,336.3271a69.952,69.952,0,0,1-135.21,35.9347c-9.9231-37.3374,20.983-4.6708,56.4207-20.0564C1710.072,336.6534,1742.0341,294.9676,1753.0409,336.3271Z"/><g class="cls-16"><path class="cls-17" d="M1660.1958,260.2773a97.1013,97.1013,0,1,1,49.8813,187.6872"/></g><rect class="cls-14" x="1648.0038" y="425.3179" width="118.8696" height="25.4371" transform="translate(-55.2272 453.2551) rotate(-14.8834)"/><rect class="cls-5" x="1601.829" y="246.4409" width="118.8696" height="35.7098" transform="matrix(0.9665, -0.2569, 0.2569, 0.9665, -12.1507, 435.5662)"/><polyline class="cls-7" points="1714.118 231.774 1599.237 262.306 1577.773 231.061"/><rect class="cls-5" x="1709.9805" y="233.1108" width="72.8871" height="17.6103" transform="matrix(0.9665, -0.2569, 0.2569, 0.9665, -3.5453, 456.689)"/><rect class="cls-5" x="1747.0521" y="252.6154" width="72.8871" height="17.6103" transform="translate(1445.8617 -1509.2293) rotate(70.8653)"/><g class="cls-16"><rect class="cls-17" x="1660.5073" y="238.7765" width="59.1902" height="35.7098" transform="translate(-9.2146 442.7163) rotate(-14.8834)"/></g><g class="cls-16"><rect class="cls-17" x="1706.2011" y="417.7163" width="59.6794" height="25.4371" transform="translate(-52.3152 460.3467) rotate(-14.8834)"/></g><path class="cls-11" d="M140.7383,331.0942c-23.3319-68.0014-28.6168-128.8725,36.4226-128.9292,51.05-.0537,88.8445,34.9942,100.2869,67.84,3.1344,8.6391,2.674,14.4038-.8522,19.8818-4.774,9.7959-22.5153,24.7876-32.5066,24.7862-3.24-.0013-5.1436-2.3021-6.5756-6.6258-1.43-4.3232-2.91-10.3725-4.881-15.843-6.62-18.7187-19.5722-38.2837-34.9341-38.2764-17.13.01-14.9794,23.0152-1.2119,62.7637,13.246,40.0413,26.5432,53.0383,47.7823,53.0422,20.6228.0108,32.6169-14.12,38.6008-33.44.9226-2.0173,2.1477-2.8845,3.8978-2.8828,6.7005.0024,16.2984,13.8437,20.2362,32.8933,6.9542,33.1934-11.9637,64.95-60.39,64.9014C193.7916,431.1721,162.8616,397.3645,140.7383,331.0942Z"/><path class="cls-11" d="M680.6682,206.4421c11.1657-1.8034,50.6972-3.1853,64.025-3.2644,55.7807-.3342,95.9921,14.0608,95.3371,59.941-.1955,27.6347-13.9568,46.7719-33.5752,63.2016a5.4578,5.4578,0,0,0-1.9836,4.1087,3.9122,3.9122,0,0,0,2.0945,3.5236c30.0775,21.729,41.4277,77.1582,41.5036,88.0645.0063,4.4189-2.528,6.7593-6.76,7.0254-5.3617.2583-14.6728.4951-24.2676.4338-7.9022-.0515-16.0885-.3938-21.455-.7209-5.93-.3279-8.2127-2.1067-8.8392-6.2171-5.4113-43.476-18.5125-66.645-34.7106-66.6723-10.4035-.0188-14.9933,6.9953-14.47,20.7468.6337,15.7991,6.7533,42.76,6.8124,46.5735.0761,3.2212-1.8673,4.6738-5.2468,4.95-6.2029.2568-14.662.5083-23.6928.4565-7.6194-.04-14.9666-.3706-22.0329-.6985-3.9624-.3129-7.6557-1.2085-8.4383-7.051-3.4339-23.9636-6.9792-53.739-9.5279-86.6929-2.8259-37.3334-4.5348-78.9917-1.9244-121.5517C673.96,208.5156,676.3069,207.0479,680.6682,206.4421Zm57.93,114.0047c16.5957.0132,38.9754-26.3614,38.15-53.6153-.559-16.4038-11.3-23.0957-25.47-23.039-6.1518.02-11.923,1.2158-14.5074,3.8552-5.4853,5.5735-7.512,27.783-5.9809,53.7971C731.6877,316.9385,733.6068,320.4478,738.5986,320.4468Z"/><path class="cls-11" d="M950.8157,429.5154c-4.2259-.3308-7.5873-2.43-8.0171-9.542-1.1951-11.2664-1.3967-26.3816-.8416-42.3709,2.1907-62.7719,12.3149-97.7124,13.3172-110.7448.3316-4.1458-.6623-6.8069-6.1357-6.7837-18.5805.0776-32.7161,8.69-39.3347,8.7087-2.416.0083-4.1614-1.4624-3.9768-5.2981.3642-8.5561,5.5911-36.9013,8.8723-47.8379,1.4857-3.55,4.1644-5.9262,9.0064-7.4363,10.3013-3.3146,37.3572-7.9479,72.64-8.2307,33.3649-.268,58.1208,3.38,69.6081,9.2461,5.3342,3.53,5.6464,6.8084,4.1649,13.3716-2.79,13.7266-7.9047,32.2359-11.813,42.6826-1.6885,3.2879-3.06,4.48-5.1732,4.4905-6.0209.0215-15.6581-9.1728-31.781-9.1008-4.8579.0205-7.2464,2.1113-9.14,8.0605a240.1666,240.1666,0,0,0-6.606,37.7571c-5.2959,57.051,4.7329,107.4006,4.42,116.345-.1365,4.1677-1.8889,6.2375-6.1475,7.0962-5.1062.852-15.2785,1.3642-26.2827,1.2773C968.848,431.1394,958.4149,430.7561,950.8157,429.5154Z"/><path class="cls-11" d="M1118.1672,431.21c-5.3457-.35-8.12-1.5752-8.4039-6.9771a349.2,349.2,0,0,1,.9578-41.6977c5.7419-70.1665,37.5732-148.0025,116.0108-184.3282,3.6433-1.541,6.1609-2.47,8.3863-2.4939,2.5429-.0251,4.1606.8606,6.5308,2.3438,48.5943,36.2292,45.565,102.9431,34.1729,183.8721-1.86,13.0773-4.0492,26.7634-6.7422,41.34-1.1177,6.3816-4.34,8.17-9.754,8.7205-6.5366.54-14.46.7634-22.08.6818-9.3124-.0964-18.3226-.4914-24.21-1.1557-3.6271-.6389-5.4914-2.4749-5.2076-6.4043.4838-6.6507,6.0739-20.5232,8.2647-38.981,1.4584-12.102-3.5057-17.2705-16.1653-17.3242-16.9335-.0691-32.5421,6.8-34.1995,23.9649-1.2984,13.5527,1.0209,24.7226.5182,32.56.0724,3.3161-1.1595,5.114-4.8639,5.68-6.2449.5437-14.7266.7634-23.757.6792C1130.5693,431.6257,1124.6438,431.57,1118.1672,431.21Zm85.5035-101.9795c7.1138-.5992,11.8409-.8965,15.458-1.5,3.6738-.9065,5.2312-3.0232,6.05-7.2586,3.6282-19.0691.1438-44.7673-5.6867-57.7073-1.0655-1.8054-1.6744-3.01-2.8893-3.0029-1.5177.01-2.96.919-5.2934,3.0418-19.5146,17.29-33.0913,49.2312-36.0077,68.5124-.43,2.7105.5971,3.6182,2.3428,3.62C1181.13,334.9417,1190.9441,330.1287,1203.6707,329.2305Z"/><path class="cls-11" d="M1356.6406,433.666c-4.7688-.3616-6.9228-1.6135-8.0428-4.6909-2.5216-8.93-5.55-31.9065,8.8406-95.6233,15.5488-64.0312,37.5432-103.9453,53.1392-127.3516,3.4073-4.9262,7.1016-6.8022,10.4049-7.1472,10.7295-.7334,24.1875-1.1953,35.9152-1.3359,39.363-.4568,69.096,6.2048,81.0171,27.1645,12.4879,20.9385,7.1642,56.1753-10.4987,112.347-19.035,63.988-39.6876,98.8894-118.9074,97.8618C1394.118,434.7173,1362.2584,434.0337,1356.6406,433.666ZM1472.58,326.3813c16.5689-53.0459,8.3043-76.496-14.2947-76.3107a15.6125,15.6125,0,0,0-8.14,2.8293c-7.7395,5.9033-19.239,29.3638-29.8574,66.0457-10.7723,38.2233-11.3644,57.6291-7.2,63.5263a8.58,8.58,0,0,0,7.3786,3.4456C1442.4692,386.0784,1459.854,370.1057,1472.58,326.3813Z"/><circle class="cls-18" cx="1556.1355" cy="668.5208" r="49.9149"/><circle class="cls-19" cx="1555.7168" cy="667.7565" r="14.7896"/><circle class="cls-18" cx="1827.9366" cy="743.3244" r="49.9149"/><circle class="cls-19" cx="1827.5179" cy="742.5601" r="14.7896"/><path class="cls-18" d="M1662.5,951.9454l-82.2239-24.0172a91.22,91.22,0,0,1-54.4939-43.9186,94.5216,94.5216,0,0,1-11.3335-43.1172,91.0969,91.0969,0,0,1,3.6521-26.4486q26.4156-90.434,52.8309-180.8679c14.11-48.3064,65.1779-76.2851,113.4843-62.1751l82.2239,24.0172a91.2192,91.2192,0,0,1,54.4937,43.9186,94.4421,94.4421,0,0,1,10.8569,53.4039,88.6124,88.6124,0,0,1-3.1755,16.162q-26.4153,90.4339-52.8306,180.8678C1761.8738,938.0767,1710.8059,966.0555,1662.5,951.9454Z"/><rect class="cls-20" x="1648.8807" y="842.1879" width="204.0638" height="64.751" rx="12" ry="12" transform="translate(315.4397 -455.8401) rotate(16.2828)"/><rect class="cls-20" x="1457.6601" y="786.8544" width="195.2553" height="61.956" rx="12" ry="12" transform="translate(291.6869 -403.2665) rotate(16.2828)"/><rect class="cls-21" x="1601.9505" y="751.2458" width="123.3191" height="77.8085" rx="12" ry="12" transform="translate(438.7118 2165.49) rotate(-73.7172)"/><circle class="cls-20" cx="1741.6365" cy="758.6464" r="15.4149"/><circle class="cls-20" cx="1609.1718" cy="719.9541" r="15.4149"/><path class="cls-22" d="M1578.1,610.6781c15.0619-51.5652,98.6308-65.9929,156.3994-49.119S1850.412,634.2545,1835.35,685.82"/><rect class="cls-23" x="1644.5893" y="750.8319" width="23.4894" height="49.9149" rx="8" ry="8" transform="translate(283.9519 -433.2842) rotate(16.2828)"/><rect class="cls-24" x="1726.3152" y="732.3445" width="61.6596" height="24.9574" rx="8.5" ry="8.5" transform="translate(1196.0465 -1079.3173) rotate(49.9311)"/><ellipse class="cls-18" cx="1595.6188" cy="926.1296" rx="27.7375" ry="26.4469" transform="translate(259.2588 2198.0797) rotate(-73.7172)"/><ellipse class="cls-18" cx="1646.391" cy="940.9599" rx="27.7375" ry="26.4469" transform="translate(281.56 2257.4876) rotate(-73.7172)"/><rect class="cls-22" x="1561.8081" y="633.3152" width="289" height="22.0213" rx="7.5" ry="7.5" transform="translate(249.0967 -452.5689) rotate(16.2828)"/><path class="cls-7" d="M1596.4213,884.4527c4.66-15.9547,21.746-9.7071,42.37-3.6828s36.9775,9.544,32.3172,25.4987"/><path class="cls-25" d="M1776.6925,623.0389c11.1.4128,19.8881,8.6727,19.5281,18.3554l-.2182,5.8682"/><rect class="cls-24" x="1575.5309" y="688.3011" width="61.6596" height="24.9574" rx="8.5" ry="8.5" transform="translate(3348.6624 890.1773) rotate(162.6346)"/><g class="cls-26"><path class="cls-27" d="M149.4892,234.7676c.5866-2.8087,1.0747-5.9222,2.5774-8.4191,1.5122-2.5125,4.0163-3.4332,6.7175-4.25,7.3726-2.2286,4.2307-13.8145-3.19-11.5714-5.03,1.52-9.586,3.7527-12.7556,8.0854-2.7805,3.8009-3.9724,8.4251-4.9206,12.9648-1.5739,7.5352,9.9908,10.7568,11.5714,3.19Z"/></g></g></svg>
