<svg xmlns="http://www.w3.org/2000/svg" width="1000" height="690" viewBox="0 0 1000 690"><defs><style>.cls-1{fill:#81aa93;}.cls-1,.cls-2{opacity:0.91;}.cls-2{fill:#709980;}.cls-3{fill:#f2f2f2;}.cls-4{fill:#fff;}</style></defs><title>Artboard_vild</title><g id="vigtig_boks" data-name="vigtig boks"><rect class="cls-1" x="25" y="19" width="950" height="652" rx="42.8202" ry="42.8202"/><rect class="cls-2" x="86" y="141" width="822" height="303" rx="37.0292" ry="37.0292"/><path class="cls-3" d="M149.1016,248.6914c-1.1895-.0693-1.75-.35-2.1-1.05-.9805-2.03-1.75-7.28-1.75-21.8428,0-14.6308,1.12-23.7324,2.38-29.0527.28-1.1191.91-1.54,1.61-1.6094,2.31-.1406,5.25-.2109,7.8408-.2109,17.4316,0,29.2627,6.4414,29.2627,31.6435,0,14.3516-4.83,22.2627-24.3623,22.2627C158.4131,248.832,150.502,248.7617,149.1016,248.6914ZM172.4141,224.19c0-11.9707-4.69-17.292-9.73-17.292a2.4671,2.4671,0,0,0-1.61.63c-1.26,1.33-1.6806,6.65-1.6806,14.9825,0,8.68.5605,13.0908,1.8906,14.4209a2.6167,2.6167,0,0,0,1.96.77C168.5645,237.7012,172.4141,234.0605,172.4141,224.19Z"/><path class="cls-3" d="M220.8525,195.0664c2.24,0,4.4805,0,5.8809.14a1.721,1.721,0,0,1,1.47,1.19c.9805,2.59,2.4512,10.5713,2.4512,27.0928,0,16.1015-4.4111,26.1123-20.0225,26.1123-13.581,0-20.0918-8.1211-20.0918-24.9219,0-16.4522,2.1-24.9932,2.87-28.0733a1.7011,1.7011,0,0,1,1.33-1.33c1.26-.14,3.57-.14,6.0205-.14,2.1006,0,4.1309,0,5.3907.14a1.19,1.19,0,0,1,1.12,1.3994c-.21,3.0107-2.17,15.6123-2.17,26.043,0,9.6621,2.03,13.1621,5.88,13.1621,3.9913,0,5.6006-3.2207,5.6006-12.8819,0-11.831-1.26-23.3125-1.54-26.1826-.0693-.91.07-1.4707.9805-1.54A44.4393,44.4393,0,0,1,220.8525,195.0664Z"/><path class="cls-3" d="M250.3193,248.6914c-1.54-.0693-2.38-.35-2.45-2.0293-.14-3.08-.21-6.5117-.21-10.082,0-12.461.98-27.3028,3.501-39.4834a2.222,2.222,0,0,1,1.89-1.8906c2.5908-.21,7.9805-.35,13.5811-.35,6.0908,0,12.2519.14,15.7519.42,1.05.0693,1.33.49,1.33.98a53.6608,53.6608,0,0,1-3.01,10.1513,1.1078,1.1078,0,0,1-1.12.77,7.4958,7.4958,0,0,1-2.1709-.56,29.9251,29.9251,0,0,0-9.4512-1.47c-2.3095,0-3.57.42-4.48,1.33-1.05,1.1905-1.6094,4.27-1.6094,7.001,0,1.47.63,2.1,1.89,2.1,2.45,0,5.6709-1.1191,9.6612-1.1191,2.87,0,4.9707.4892,4.9707,1.75,0,1.47-1.4,7-2.24,9.52-.28.84-.5605,1.05-1.12,1.05-.98,0-4.06-1.1191-7.2812-1.1191-4.62,0-6.23,1.89-6.23,5.39,0,4.9014,1.12,5.8809,4.69,5.8809a28.6506,28.6506,0,0,0,13.1621-3.15c.6993-.3506.91-.56,1.33-.56a.9426.9426,0,0,1,.91.6992,59.7332,59.7332,0,0,1,2.1,12.8115,1.8914,1.8914,0,0,1-2.03,1.96c-4.55.2109-9.94.28-15.1211.28C260.4,248.9717,254.52,248.9023,250.3193,248.6914Z"/><path class="cls-3" d="M291.6191,195.4863c2.52-.42,11.2715-.7,14.212-.7,12.2509,0,21.1416,3.501,21.1416,14.4219,0,6.5811-3.22,11.1309-7.98,15.0518a1.3228,1.3228,0,0,0-.49.9795.9166.9166,0,0,0,.49.8408c7.1406,5.18,10.0107,18.3418,10.0107,20.9316a1.5786,1.5786,0,0,1-1.68,1.68c-1.33.07-3.6406.1406-6.02.1406-1.9609,0-3.99-.07-5.3213-.1406-1.47-.0693-2.03-.49-2.17-1.47-1.19-10.36-4.2-15.8916-8.1211-15.8916-2.5195,0-3.71,1.68-3.71,4.9707,0,3.78,1.33,10.2207,1.33,11.1308,0,.77-.49,1.12-1.33,1.19-1.54.0693-3.6407.14-5.8809.14-1.89,0-3.71-.07-5.46-.14-.98-.07-1.8906-.28-2.03-1.6807a192.5268,192.5268,0,0,1-1.12-20.792,174.25,174.25,0,0,1,2.38-29.1924C290.0791,195.9766,290.64,195.627,291.6191,195.4863ZM302.82,222.8594c3.99,0,9.5215-6.3008,9.5215-12.8115,0-3.9209-2.3809-5.53-5.6006-5.53a5.0647,5.0647,0,0,0-3.36.91c-1.33,1.33-2.1709,6.65-2.1709,12.8809C301.21,222.02,301.6309,222.8594,302.82,222.8594Z"/><path class="cls-3" d="M362.81,205.0771c-3.22,0-4.69,1.751-4.69,3.9209,0,2.94,2.03,4.4805,7.001,6.3008,10.9912,3.92,16.2412,8.4707,16.2412,17.711,0,9.0312-6.0205,16.5918-19.6718,16.5918-11.2706,0-18.5518-5.46-18.5518-14.4912,0-3.71,1.12-6.2305,2.5908-7.7a1.0793,1.0793,0,0,1,.84-.49,1.2246,1.2246,0,0,1,1.05.6992c3.29,5.8106,8.8213,9.5918,14.1416,9.5918,3.57,0,5.74-1.26,5.74-3.9209,0-2.59-2.1-4.0595-7.42-5.81-8.751-3.0107-15.752-7.3506-15.752-17.0811,0-9.0312,6.37-16.2422,18.4121-16.2422,6.7207,0,12.461,1.96,16.2412,4.83a2.0708,2.0708,0,0,1,.91,1.6807c0,2.1006-2.38,6.9307-4.4805,9.52a1.3282,1.3282,0,0,1-1.05.56,1.385,1.385,0,0,1-.98-.42C369.8809,206.9678,365.96,205.0771,362.81,205.0771Z"/><path class="cls-3" d="M387.7275,248.6914c-1.33-.0693-2.03-.35-2.1709-1.6094-.2793-3.15-.4892-6.3711-.4892-9.7314,0-16.3818,4.13-34.583,18.832-42.8447a3.9165,3.9165,0,0,1,1.68-.56,3.1888,3.1888,0,0,1,1.61.56c13.3007,8.541,18.2714,23.873,18.2714,42.4941a91.2076,91.2076,0,0,1-.49,9.5215c-.14,1.4707-.9092,1.8906-2.2393,2.03-1.61.14-3.5712.21-5.4609.21-2.3105,0-4.5508-.07-6.0205-.21-.91-.14-1.4-.56-1.4-1.47,0-1.541,1.12-4.7607,1.12-9.0312,0-2.8008-1.4-3.99-4.48-3.99-4.1309,0-7.7012,1.6094-7.7012,5.6006,0,3.15.7705,5.74.7705,7.5606.07.77-.21,1.19-1.12,1.33-1.54.14-3.6406.21-5.8809.21C390.8076,248.7617,389.3379,248.7617,387.7275,248.6914Zm8.5411-64.3359c0-5.1114,3.57-8.0508,9.03-8.0508,5.8106,0,9.0313,2.9394,9.0313,8.0508,0,4.9707-3.2207,7.7011-9.0313,7.7011C399.8389,192.0566,396.2686,189.3262,396.2686,184.3555ZM405.93,224.89c1.68-.14,2.8-.21,3.64-.3505.8409-.21,1.12-.6993,1.12-1.68a27.5358,27.5358,0,0,0-4.34-13.3711c-.3506-.42-.56-.7012-.8408-.7012-.35,0-.63.2109-1.05.7012-3.5,3.99-5.25,11.41-5.25,15.8906,0,.6309.2793.8408.6992.8408C400.749,226.22,402.9189,225.1,405.93,224.89Zm2.5195-40.5341c0-1.8907-1.12-2.8711-3.15-2.8711-1.89,0-3.08.98-3.08,2.8711,0,1.68,1.19,2.59,3.08,2.59C407.3291,186.9453,408.4492,186.0352,408.4492,184.3555Z"/><path class="cls-3" d="M472.6387,194.9961c1.6806,0,3.4306.07,4.7607.21a2.547,2.547,0,0,1,2.45,2.3105,65.2542,65.2542,0,0,1,1.82,14.9111c0,16.8721-7.07,30.3838-17.8515,37.1045a3.6749,3.6749,0,0,1-1.82.56,4.1537,4.1537,0,0,1-1.8906-.56c-11.831-6.3711-18.4111-19.3916-18.4111-35.9834a73.2636,73.2636,0,0,1,2.1-16.9424,1.8158,1.8158,0,0,1,1.82-1.47c1.47-.1406,3.4307-.2109,5.3906-.2109,1.8907,0,3.8506.07,5.53.2109,1.19.0694,1.6807.56,1.6807,1.33,0,1.1894-1.75,7.6309-1.75,18.4121,0,7.6309,1.54,13.5107,4.48,17.0117a1.3461,1.3461,0,0,0,1.05.6992c.28,0,.63-.2089.9805-.6992,2.59-3.15,4.2-9.5215,4.2-17.5722,0-11.2012-1.75-16.3819-1.75-17.8516,0-.84.35-1.1211,1.3994-1.2607A51.8387,51.8387,0,0,1,472.6387,194.9961Z"/><path class="cls-3" d="M496.6475,248.832a52.2615,52.2615,0,0,1-6.7207-.28c-.9805-.14-1.4-.4893-1.751-1.6807-.63-2.73-1.33-11.7607-1.33-21.0723,0-15.8906,1.61-25.832,2.3809-28.7724a2.0652,2.0652,0,0,1,1.89-1.82c1.96-.14,4.0606-.21,6.1611-.21,2.24,0,4.48.07,6.44.21.84.07,1.26.4209,1.19,1.2607,0,1.89-3.2207,11.2012-3.2207,25.5527,0,14.001,2.87,23.9414,2.87,25.3418,0,.84-.42,1.1211-1.26,1.19A52.2545,52.2545,0,0,1,496.6475,248.832Z"/><path class="cls-3" d="M538.23,233.92c.9795,2.3106,2.17,9.9414,2.17,12.6719a2.06,2.06,0,0,1-2.24,2.1c-3.4307.2109-7.5606.28-11.5518.28-5.32,0-10.4306-.14-14.001-.28-1.54-.0693-2.38-.35-2.45-2.0293-.1406-3.0107-.21-6.3711-.21-9.8711-.07-12.7422.7695-27.6533,3.08-39.9043a1.8643,1.8643,0,0,1,1.6806-1.6806c1.26-.14,3.5-.21,6.02-.21,2.73,0,5.6006.1406,7.21.28,1.0508.0693,1.3311.49,1.3311,1.12,0,1.68-5.5313,23.1025-5.5313,35.7734,0,3.7813.8408,4.5508,3.2207,4.5508a18.1812,18.1812,0,0,0,8.61-2.8008,3.3963,3.3963,0,0,1,1.6806-.6992A.94.94,0,0,1,538.23,233.92Z"/><path class="cls-3" d="M547.6055,248.6914c-1.1895-.0693-1.75-.35-2.1-1.05-.9805-2.03-1.75-7.28-1.75-21.8428,0-14.6308,1.12-23.7324,2.38-29.0527.28-1.1191.91-1.54,1.61-1.6094,2.3105-.1406,5.25-.2109,7.8408-.2109,17.4317,0,29.2627,6.4414,29.2627,31.6435,0,14.3516-4.83,22.2627-24.3623,22.2627C556.917,248.832,549.0059,248.7617,547.6055,248.6914ZM570.918,224.19c0-11.9707-4.6905-17.292-9.7305-17.292a2.4671,2.4671,0,0,0-1.61.63c-1.26,1.33-1.6806,6.65-1.6806,14.9825,0,8.68.5605,13.0908,1.8906,14.4209a2.6167,2.6167,0,0,0,1.96.77C567.0684,237.7012,570.918,234.0605,570.918,224.19Z"/><path class="cls-3" d="M588.2051,237.8408a30.8118,30.8118,0,0,1,5.46-4.5508,3.4036,3.4036,0,0,1,2.03-.7c3.0108,0,6.1611,3.2911,6.1611,8.0508,0,7.9112-7.77,12.3916-10.9209,12.3916a1.085,1.085,0,0,1-1.12-1.19c0-1.05.77-2.38.77-4.69a9.0555,9.0555,0,0,0-2.31-6.1611,2.4,2.4,0,0,1-.91-1.61A2.6,2.6,0,0,1,588.2051,237.8408Z"/><path class="cls-3" d="M634.8252,248.6914c-1.61.07-3.71.1406-6.2305.1406-2.31,0-4.7607,0-6.86-.1406a1.4167,1.4167,0,0,1-1.33-1.1894,123.1226,123.1226,0,0,1-1.9609-22.8223,199.8676,199.8676,0,0,1,2.1709-27.9336c.14-1.19.84-1.54,1.3994-1.54,1.54-.14,4.2705-.21,6.9306-.21,2.24,0,4.4112.07,5.9512.21a2.865,2.865,0,0,1,2.59,1.6806c2.3808,4.34,5.11,11.3408,7.6308,18.5518.1406.49.42.7.77.7s.56-.21.7-.6309c2.66-7.35,5.3906-14.001,7.49-18.2715a3.3782,3.3782,0,0,1,2.3809-1.8906c1.75-.14,3.78-.2793,5.88-.2793,1.8906,0,3.78.14,5.7412.2793a2.2809,2.2809,0,0,1,2.17,1.6807,118.42,118.42,0,0,1,3.08,26.8828,168.3924,168.3924,0,0,1-1.68,23.0322,1.8143,1.8143,0,0,1-1.6806,1.75c-1.68.1406-5.04.28-8.1905.28-2.45,0-4.6211-.14-6.02-.28-.91-.14-1.2607-.49-1.2607-1.1894,0-2.5206,3.57-12.1817,3.57-24.2227a48.0036,48.0036,0,0,0-.7695-9.5918.5333.5333,0,0,0-.5606-.4893.5944.5944,0,0,0-.56.49c-2.73,7.4912-5.6709,15.6816-9.3115,22.7519a1.741,1.741,0,0,1-1.54,1.12,1.9221,1.9221,0,0,1-1.68-1.12c-3.8506-7.1406-7.3506-17.081-9.1016-22.6123a.8056.8056,0,0,0-.6992-.5605c-.28,0-.49.2109-.56.5605a71.9439,71.9439,0,0,0-.7,11.1309c0,12.1113,3.57,20.7226,3.57,22.6826C636.1553,248.2715,635.665,248.5518,634.8252,248.6914Z"/><path class="cls-3" d="M681.0234,248.6914c-1.33-.0693-2.03-.35-2.1709-1.6094-.2793-3.15-.4892-6.3711-.4892-9.7314,0-16.3818,4.13-34.583,18.832-42.8447a3.9165,3.9165,0,0,1,1.68-.56,3.1888,3.1888,0,0,1,1.61.56c13.3017,8.541,18.2714,23.873,18.2714,42.4941a91.4707,91.4707,0,0,1-.4892,9.5215c-.1406,1.4707-.91,1.8906-2.24,2.03-1.61.14-3.5712.21-5.4609.21-2.3105,0-4.5508-.07-6.0205-.21-.91-.14-1.4-.56-1.4-1.47,0-1.541,1.12-4.7607,1.12-9.0312,0-2.8008-1.4-3.99-4.48-3.99-4.1309,0-7.7012,1.6094-7.7012,5.6006,0,3.15.7705,5.74.7705,7.5606.07.77-.21,1.19-1.12,1.33-1.54.14-3.6406.21-5.8809.21C684.1035,248.7617,682.6338,248.7617,681.0234,248.6914ZM699.2246,224.89c1.6807-.14,2.8008-.21,3.6406-.3505.84-.21,1.12-.6993,1.12-1.68a27.5358,27.5358,0,0,0-4.34-13.3711c-.3506-.42-.56-.7012-.8408-.7012-.35,0-.63.2109-1.05.7012-3.5,3.99-5.251,11.41-5.251,15.8906,0,.6309.28.8408.7.8408C694.0449,226.22,696.2148,225.1,699.2246,224.89Z"/><path class="cls-3" d="M727.2236,248.6914c-1.0507-.0693-1.6806-.49-1.82-1.47a170.2953,170.2953,0,0,1-1.4707-23.6631c0-12.1807.9805-23.2422,2.1709-26.7422a2.4174,2.4174,0,0,1,1.96-1.68c1.4-.07,3.01-.1406,4.62-.1406,1.54,0,3.08.07,4.2705.1406a2.4835,2.4835,0,0,1,1.82,1.19c2.87,4.06,8.2608,13.6523,14.7715,29.0527.21.42.42.5606.7.5606.42,0,.7695-.42.7695-1.05,0-14.7724-3.71-25.9736-3.71-28.3525a1.3313,1.3313,0,0,1,1.26-1.4c1.4707-.1406,3.6407-.2109,5.8116-.2109,1.8193,0,3.64.07,4.97.2109a1.7593,1.7593,0,0,1,1.82,1.6094c1.2607,7.0713,1.8906,18.4824,1.8906,29.334a171.4218,171.4218,0,0,1-1.0508,20.582,2.04,2.04,0,0,1-2.24,2.0293c-1.47.1406-3.92.1406-6.16.1406a31.63,31.63,0,0,1-3.9209-.1406c-1.54-.209-1.96-.49-2.31-1.96a120.4855,120.4855,0,0,0-11.9014-27.0927c-.42-.63-.77-.91-1.12-.91-.63,0-.91.77-.91,1.61-.28,11.7607,2.59,25.9726,2.59,26.9531,0,1.05-.56,1.33-1.3994,1.3994-1.4.1406-3.6407.2109-5.8106.2109C730.7236,248.9023,728.6934,248.832,727.2236,248.6914Z"/><path class="cls-3" d="M776.8516,248.6914c-1.1895-.0693-1.75-.35-2.1-1.05-.9805-2.03-1.75-7.28-1.75-21.8428,0-14.6308,1.12-23.7324,2.38-29.0527.28-1.1191.91-1.54,1.61-1.6094,2.31-.1406,5.25-.2109,7.8408-.2109,17.4316,0,29.2627,6.4414,29.2627,31.6435,0,14.3516-4.83,22.2627-24.3623,22.2627C786.1631,248.832,778.252,248.7617,776.8516,248.6914ZM800.1641,224.19c0-11.9707-4.69-17.292-9.7305-17.292a2.4671,2.4671,0,0,0-1.61.63c-1.26,1.33-1.6806,6.65-1.6806,14.9825,0,8.68.56,13.0908,1.8906,14.4209a2.6167,2.6167,0,0,0,1.96.77C796.3145,237.7012,800.1641,234.0605,800.1641,224.19Z"/><path class="cls-3" d="M833.5527,195.416a1.3516,1.3516,0,0,1,1.33,1.4707c0,1.82-2.8008,8.541-3.8506,32.4131-.0693,1.89-.84,2.45-4.27,2.8a19.67,19.67,0,0,1-2.7305.1406c-1.75,0-2.59-.35-2.9394-1.61a102.2218,102.2218,0,0,1-2.94-20.3721c-.21-4.2-.28-7.6308-.28-12.041.07-1.541.42-2.66,2.66-2.8711,1.6807-.14,3.99-.209,6.3711-.209A61.44,61.44,0,0,1,833.5527,195.416Zm-15.332,46.9746c0-4.55,3.0107-7.21,7.7012-7.21,4.9,0,7.7011,2.66,7.7011,7.21,0,4.4805-2.8007,6.8614-7.7011,6.8614C821.2314,249.252,818.2207,246.8711,818.2207,242.3906Z"/><path class="cls-4" d="M148.499,303.1133c0-7.08,3.21-13.4395,9.2393-13.4395,4.7695,0,6.7793,3.6592,6.7793,7.0791a2.7346,2.7346,0,0,1-.7793,2.0694c-.8106,1.0205-3.09,2.58-4.11,2.58-.33,0-.4492-.24-.4492-.6894s.06-1.08.06-1.65c0-1.9492-.45-3.9893-1.95-3.9893-1.6494,0-2.58,2.3995-2.58,6.54,0,4.17,1.2,5.5195,3.3906,5.5195,2.1592,0,3.72-1.4707,4.8594-3.48a.5833.5833,0,0,1,.4805-.3c.6894,0,1.29,1.44,1.29,3.42,0,3.45-2.3408,6.75-7.5,6.75C151.6787,313.5225,148.499,310.0117,148.499,303.1133Z"/><path class="cls-4" d="M165.8389,303.7725c0-5.9395,2.55-9.96,7.62-9.96s7.1689,3.84,7.1689,9.96c0,6.81-3.3,9.69-7.59,9.69C168.8086,313.4629,165.8389,310.582,165.8389,303.7725Zm9.51-.42c0-3.45-.78-5.0693-2.1006-5.0693-1.4091,0-2.1591,1.6191-2.1591,5.0693,0,3.42.6,4.92,2.13,4.92C174.7783,308.2725,175.3486,306.7129,175.3486,303.3525Z"/><path class="cls-4" d="M188.1289,313.043c-.57.0293-1.26.0586-2.04.0586s-1.59,0-2.43-.0586a.9213.9213,0,0,1-.84-.8106,45.3637,45.3637,0,0,1-.6005-8.58c0-5.22.24-7.59.51-8.5791a.9259.9259,0,0,1,.57-.75,12.459,12.459,0,0,1,2.28-.1806,6.1075,6.1075,0,0,1,1.35.09c.33.0606.42.2705.45.6309s.18.48.33.48a.9631.9631,0,0,0,.51-.2393,3.1812,3.1812,0,0,1,1.89-1.0508c.54,0,.9.69.9,3.0606a10.4643,10.4643,0,0,1-.24,2.6992c-.15.51-.39.6309-.66.6309-.3594,0-.84-.27-1.41-.27s-1.05.5693-1.05,2.9091c0,3.78,1.26,8.6407,1.26,9.24C188.9082,312.7129,188.7285,312.9824,188.1289,313.043Z"/><path class="cls-4" d="M199.1992,289.8535a.3864.3864,0,0,1,.42.39c0,.45-.99,2.25-.99,3.69,0,.2695.15.42.48.42.3906,0,1.02-.1211,1.44-.1211.27,0,.42.1807.48.541a13.6733,13.6733,0,0,1-.06,4.4092.4194.4194,0,0,1-.45.36c-.39,0-.8995-.15-1.4395-.15-.45,0-.57.2695-.63,1.0508a16.6222,16.6222,0,0,0-.0908,1.8593,37.7848,37.7848,0,0,0,1.44,9.3594,1.9292,1.9292,0,0,1,.06.33.63.63,0,0,1-.3291.54,11.8257,11.8257,0,0,1-5.0107,1.2.6414.6414,0,0,1-.6895-.42,19.8353,19.8353,0,0,1-.93-6.81c0-3,.33-5.43.3594-6.3594.03-.33-.09-.4492-.3594-.51a2.6106,2.6106,0,0,0-.3906-.06.5557.5557,0,0,1-.48-.6289,33.0131,33.0131,0,0,1,.24-4.0508c.09-.4492.27-.6289.5391-.6289h.45c.3906,0,.45-.48.54-1.5313.12-1.26.1807-1.4687.75-1.7988A12.0292,12.0292,0,0,1,199.1992,289.8535Z"/><path class="cls-4" d="M201.8389,307.4023c0-4.35,3.42-6.09,7.32-6.66.93-.1494,1.38-.3594,1.38-.8994,0-.93-.5108-1.53-1.95-1.53a6.8352,6.8352,0,0,0-4.53,1.92.7782.7782,0,0,1-.51.2705.576.576,0,0,1-.39-.1806,3.7794,3.7794,0,0,1-1.11-2.7295c0-2.13,2.61-3.78,6.9-3.78,5.0391,0,6.81,2.5205,6.81,6.99,0,1.83-.15,4.71-.15,6.93,0,1.74.24,3.72.24,4.1992a.8443.8443,0,0,1-.75.9307,51.4918,51.4918,0,0,1-6.24.2393C204.2686,313.1016,201.8389,311.3926,201.8389,307.4023Zm8.73-2.13c0-.8995-.1192-1.14-.63-1.14-1.6494,0-3,.96-3,2.52,0,1.32.9,1.8907,2.4306,1.8907.96,0,1.1993-.42,1.1993-1.32Z"/><path class="cls-4" d="M217.5889,304.6133c0-6.9,2.1591-10.7695,5.31-10.7695a5.1384,5.1384,0,0,1,3.33,1.5585.427.427,0,0,0,.3.1211c.18,0,.3-.1211.3-.42,0-1.83-.75-5.2207-.75-5.85,0-.4512.3-.6309.72-.66.54-.03,1.11-.0606,1.6806-.0606.81,0,1.6494.03,2.43.09.51.0606.84.21.93,1.02a119.6688,119.6688,0,0,1,.66,12.96,65.09,65.09,0,0,1-.48,8.79,1.3429,1.3429,0,0,1-.93,1.08,17.779,17.779,0,0,1-6,.7793C219.7783,313.252,217.5889,310.6123,217.5889,304.6133Zm9.48-1.92c0-3.3008-.9-4.4707-1.9805-4.4707-1.17,0-1.89,1.35-1.89,5.67,0,4.0195.72,5.1894,2.04,5.1894C226.6777,309.082,227.0684,308.2725,227.0684,302.6934Z"/><path class="cls-4" d="M234.0889,303.7725c0-5.9395,2.55-9.96,7.62-9.96s7.1689,3.84,7.1689,9.96c0,6.81-3.3,9.69-7.59,9.69C237.0586,313.4629,234.0889,310.582,234.0889,303.7725Zm9.51-.42c0-3.45-.78-5.0693-2.1006-5.0693-1.4091,0-2.1591,1.6191-2.1591,5.0693,0,3.42.6,4.92,2.13,4.92C243.0283,308.2725,243.5986,306.7129,243.5986,303.3525Z"/><path class="cls-4" d="M257.7285,305.6621a22.0073,22.0073,0,0,1-2.58.09c-1.56,0-3.27-.06-4.289-.1192-.6006-.06-.99-.3008-.99-1.0195a13.37,13.37,0,0,1,.51-3.5108c.18-.72.4805-1.11,1.02-1.17.78-.06,1.92-.09,3.03-.09,1.38,0,2.82.03,3.66.12.8095.12,1.14.39,1.14,1.26a14.5142,14.5142,0,0,1-.54,3.42C258.5391,305.2422,258.2988,305.6328,257.7285,305.6621Z"/><path class="cls-4" d="M262.3184,313.0723c-.6-.0293-.93-.3-1.02-1.17-.18-2.16-.2705-4.6191-.2705-7.1093a107.0823,107.0823,0,0,1,.78-13.35c.15-1.02.39-1.2305,1.14-1.29.57-.03,1.32-.06,2.1006-.06.75,0,1.5293.0292,2.31.06.57.03.87.21.81.81-.06,1.41-1.0791,5.82-1.0791,8.37,0,.27.09.42.2695.42s.42-.1806.75-.66c2.01-1.83,3.51-5.31,4.17-8.1.1494-.6006.36-.81.78-.84.6894-.06,1.5-.0908,2.31-.0908.87,0,1.71.0313,2.28.0908.48.03.69.2393.69.63a15.8216,15.8216,0,0,1-4.05,9.24.6354.6354,0,0,0-.2695.5391.68.68,0,0,0,.2695.54c2.4,2.28,4.29,6.9893,4.29,11.01,0,.63-.24.9307-.78.96-.63.0293-1.38.06-2.28.06-.7793,0-1.59-.0312-2.3692-.09-.7207-.0606-.9-.3614-.96-1.08-.75-5.76-1.8906-8.01-3.39-8.01-.7207,0-1.53,1.02-1.53,2.5489,0,1.9511.6894,4.65.6894,5.67a.7908.7908,0,0,1-.84.9c-.63.06-1.41.06-2.25.06C263.9385,313.1328,263.0088,313.1328,262.3184,313.0723Z"/><path class="cls-4" d="M279.8984,307.4023c0-4.35,3.42-6.09,7.32-6.66.93-.1494,1.38-.3594,1.38-.8994,0-.93-.5107-1.53-1.95-1.53a6.8349,6.8349,0,0,0-4.53,1.92.7782.7782,0,0,1-.51.2705.576.576,0,0,1-.39-.1806,3.779,3.779,0,0,1-1.11-2.7295c0-2.13,2.61-3.78,6.9-3.78,5.0391,0,6.81,2.5205,6.81,6.99,0,1.83-.15,4.71-.15,6.93,0,1.74.24,3.72.24,4.1992a.8443.8443,0,0,1-.75.9307,51.4936,51.4936,0,0,1-6.24.2393C282.3281,313.1016,279.8984,311.3926,279.8984,307.4023Zm8.73-2.13c0-.8995-.12-1.14-.63-1.14-1.6494,0-3,.96-3,2.52,0,1.32.9,1.8907,2.4307,1.8907.96,0,1.1992-.42,1.1992-1.32Z"/><path class="cls-4" d="M302.2178,313.0723c-.69.06-1.5.06-2.34.06s-1.71,0-2.43-.06a.8514.8514,0,0,1-.84-.87c-.24-2.46-.36-5.34-.36-8.3388a112.33,112.33,0,0,1,.9-14.55.791.791,0,0,1,.81-.78c.69-.0293,1.35-.0605,2.04-.0605s1.38.0312,2.01.0605c.42.03.69.21.69.63,0,.5107-.54,5.76-.54,11.28,0,5.8193.63,11.1591.63,12.0293A.5593.5593,0,0,1,302.2178,313.0723Z"/><path class="cls-4" d="M311.0977,313.0723c-.6895.06-1.5.06-2.34.06s-1.71,0-2.43-.06a.8513.8513,0,0,1-.84-.87c-.24-2.46-.36-5.34-.36-8.3388a112.3122,112.3122,0,0,1,.9-14.55.791.791,0,0,1,.81-.78c.69-.0293,1.35-.0605,2.04-.0605s1.38.0312,2.01.0605c.42.03.69.21.69.63,0,.5107-.54,5.76-.54,11.28,0,5.8193.63,11.1591.63,12.0293A.5594.5594,0,0,1,311.0977,313.0723Z"/><path class="cls-4" d="M320.3379,313.4629c-5.4,0-7.2-4.1406-7.2-9.18,0-7.41,3.78-10.4394,8.28-10.4394,3.0293,0,5.3994,1.6191,5.3994,4.9785,0,5.1308-4.29,5.73-6.93,6.9-.93.33-1.32.6-1.32,1.1093,0,.8711.63,1.5606,2.07,1.5606a6.4066,6.4066,0,0,0,5.13-2.43c.18-.15.3-.24.45-.24.42,0,.75.7793.75,2.1894C326.9678,311.3926,323.8779,313.4629,320.3379,313.4629Zm.42-15.45c-1.65,0-2.79,1.8-2.79,3.87,0,.3.09.54.36.54a1.3323,1.3323,0,0,0,.5694-.15c1.2-.72,3.24-1.47,3.24-2.9092A1.2836,1.2836,0,0,0,320.7578,298.0127Z"/><path class="cls-4" d="M340.498,313.4629c-5.4,0-7.2-4.1406-7.2-9.18,0-7.41,3.78-10.4394,8.28-10.4394,3.0293,0,5.3994,1.6191,5.3994,4.9785,0,5.1308-4.29,5.73-6.93,6.9-.93.33-1.32.6-1.32,1.1093,0,.8711.63,1.5606,2.07,1.5606a6.4064,6.4064,0,0,0,5.13-2.43c.18-.15.3-.24.45-.24.42,0,.75.7793.75,2.1894C347.1279,311.3926,344.0381,313.4629,340.498,313.4629Zm.42-15.45c-1.65,0-2.79,1.8-2.79,3.87,0,.3.09.54.36.54a1.3319,1.3319,0,0,0,.5693-.15c1.2-.72,3.24-1.47,3.24-2.9092A1.2836,1.2836,0,0,0,340.918,298.0127Z"/><path class="cls-4" d="M354.6582,313.043c-.57.0293-1.26.0586-2.04.0586s-1.59,0-2.43-.0586a.9213.9213,0,0,1-.84-.8106,45.3615,45.3615,0,0,1-.6006-8.58c0-5.22.24-7.59.51-8.5791a.9259.9259,0,0,1,.57-.75,12.459,12.459,0,0,1,2.28-.1806,6.1075,6.1075,0,0,1,1.35.09c.33.0606.42.2705.45.6309s.18.48.33.48a.9626.9626,0,0,0,.51-.2393,3.1817,3.1817,0,0,1,1.89-1.0508c.54,0,.9.69.9,3.0606a10.4643,10.4643,0,0,1-.24,2.6992c-.15.51-.39.6309-.66.6309-.3594,0-.84-.27-1.41-.27s-1.05.5693-1.05,2.9091c0,3.78,1.26,8.6407,1.26,9.24C355.4375,312.7129,355.2578,312.9824,354.6582,313.043Z"/><path class="cls-4" d="M373.4385,288.8633a17.2223,17.2223,0,0,1-.45,2.97c-.0606.24-.21.36-.36.36a10.0473,10.0473,0,0,0-1.14-.211c-.78,0-1.2.6006-1.2,1.6807,0,.42.24.66.84.66.45,0,1.14-.0908,1.47-.0908.3007,0,.42.1807.5107.541a15.292,15.292,0,0,1,.1494,1.9493,11.5417,11.5417,0,0,1-.24,2.52.4192.4192,0,0,1-.4492.3613c-.3907,0-.9307-.15-1.41-.15-.36,0-.4805.24-.51.8994-.03.5108-.06,1.05-.06,1.71a81.41,81.41,0,0,0,.78,10.17c.06.3594.03.69-.2705.75a14.1526,14.1526,0,0,1-2.85.24c-.7792,0-1.56,0-2.16-.0606-.42-.0293-.75-.09-.7793-.42-.1807-1.89-.24-4.1992-.24-6.3594,0-2.7.12-4.98.15-6.06.0292-.4795-.15-.7793-.57-.7793-.27,0-.51.0293-.6.0293a.4809.4809,0,0,1-.5107-.4795,9.6693,9.6693,0,0,1-.06-1.05,13.5108,13.5108,0,0,1,.36-3.33.4843.4843,0,0,1,.51-.39c.2393,0,.54.03.69.03.54,0,.54-.6006.78-2.01.3-2.58,1.65-4.59,5.01-4.59a4.9424,4.9424,0,0,1,2.28.3594A.7081.7081,0,0,1,373.4385,288.8633Z"/><path class="cls-4" d="M380.4883,313.043c-.57.0293-1.26.0586-2.04.0586s-1.59,0-2.43-.0586a.9212.9212,0,0,1-.84-.8106,45.3615,45.3615,0,0,1-.6006-8.58c0-5.22.24-7.59.51-8.5791a.9259.9259,0,0,1,.57-.75,12.459,12.459,0,0,1,2.28-.1806,6.1084,6.1084,0,0,1,1.35.09c.33.0606.42.2705.45.6309s.18.48.33.48a.9626.9626,0,0,0,.51-.2393,3.1814,3.1814,0,0,1,1.89-1.0508c.54,0,.9.69.9,3.0606a10.459,10.459,0,0,1-.24,2.6992c-.15.51-.39.6309-.66.6309-.3594,0-.84-.27-1.41-.27s-1.05.5693-1.05,2.9091c0,3.78,1.26,8.6407,1.26,9.24C381.2676,312.7129,381.0879,312.9824,380.4883,313.043Z"/><path class="cls-4" d="M390.4482,313.0723c-.72.06-1.56.09-2.43.09s-1.71-.0293-2.46-.09a.7572.7572,0,0,1-.75-.7793,59.2735,59.2735,0,0,1-.36-6.84,66.6252,66.6252,0,0,1,.75-10.4707.8068.8068,0,0,1,.8409-.75c.6591-.0595,1.26-.0595,1.8291-.0595.6006,0,1.2,0,1.86.0595.45.0313.69.24.69.6006,0,.66-.21,3.39-.21,6.5693a103.5791,103.5791,0,0,0,.8106,11.13C391.0186,312.8926,390.748,313.043,390.4482,313.0723Zm-5.76-22.4991c0-1.59,1.05-2.58,3.2705-2.58,2.34,0,3.2695.99,3.2695,2.58,0,1.56-.93,2.46-3.2695,2.46C385.7383,293.0332,384.6885,292.1328,384.6885,290.5732Z"/><path class="cls-4" d="M398.5186,308.9326c1.05,0,1.499-.42,1.499-1.17s-.5391-1.2607-2.19-2.04c-2.88-1.38-5.22-2.6094-5.22-6.1192,0-3.6006,2.7-5.791,6.96-5.791a10.8776,10.8776,0,0,1,4.92,1.08.997.997,0,0,1,.5693.99,11.2069,11.2069,0,0,1-1.0195,3.93.5153.5153,0,0,1-.4805.36.59.59,0,0,1-.42-.1807,7.6278,7.6278,0,0,0-4.26-1.8887c-.96,0-1.4394.4492-1.4394,1.0791,0,.78.54,1.14,2.25,1.92,2.67,1.2,5.64,2.61,5.64,6.33,0,4.0195-2.58,6.03-6.51,6.03-4.02,0-6.51-1.92-6.51-5.01a5.1745,5.1745,0,0,1,.5693-2.58.5651.5651,0,0,1,.45-.3007.4135.4135,0,0,1,.3907.24A6.0214,6.0214,0,0,0,398.5186,308.9326Z"/><path class="cls-4" d="M412.6182,313.0723c-.69.06-1.53.06-2.37.06-.87,0-1.68,0-2.43-.06a.8514.8514,0,0,1-.84-.87c-.1806-2.46-.21-5.34-.21-8.3388a118.1089,118.1089,0,0,1,.81-14.55.8037.8037,0,0,1,.81-.78c.63-.0293,1.32-.0605,2.04-.0605.69,0,1.44.0312,2.1006.0605.42.03.72.21.72.6s-1.14,7.8008-1.14,11.94c0,.4511.1494.7207.4795.7207,1.92,0,3.18-3.21,3.33-6.87.03-.51.2695-.63.72-.6905.45-.0293,1.2-.0293,2.01-.0293.96,0,1.95,0,2.37.0293.36.0313.66.15.66.75,0,3.1807-2.31,6.24-3.42,7.26a.8461.8461,0,0,0-.3.5107c0,.1494.12.27.3.42,2.1,1.5595,3.96,3.5693,3.96,8.9394,0,.69-.09.87-.78.96-.4795.0293-1.2.06-2.01.06-.72,0-1.47,0-2.1-.06-.75-.0606-.9306-.15-.96-.93-.15-4.38-1.5-7.1406-3.15-7.1406-.66,0-.93.6308-.93,1.621,0,2.2188.93,5.129.93,5.85A.583.583,0,0,1,412.6182,313.0723Z"/><path class="cls-4" d="M434.6084,308.9326c1.05,0,1.499-.42,1.499-1.17s-.539-1.2607-2.1894-2.04c-2.88-1.38-5.22-2.6094-5.22-6.1192,0-3.6006,2.7-5.791,6.96-5.791a10.8776,10.8776,0,0,1,4.92,1.08.9971.9971,0,0,1,.5694.99,11.207,11.207,0,0,1-1.02,3.93.5153.5153,0,0,1-.48.36.59.59,0,0,1-.42-.1807,7.6275,7.6275,0,0,0-4.26-1.8887c-.96,0-1.44.4492-1.44,1.0791,0,.78.54,1.14,2.25,1.92,2.67,1.2,5.64,2.61,5.64,6.33,0,4.0195-2.58,6.03-6.51,6.03-4.0205,0-6.51-1.92-6.51-5.01a5.1732,5.1732,0,0,1,.5694-2.58.5651.5651,0,0,1,.45-.3007.4133.4133,0,0,1,.3906.24A6.0214,6.0214,0,0,0,434.6084,308.9326Z"/><path class="cls-4" d="M442.2881,303.7725c0-5.9395,2.55-9.96,7.62-9.96s7.1689,3.84,7.1689,9.96c0,6.81-3.3,9.69-7.59,9.69C445.2578,313.4629,442.2881,310.582,442.2881,303.7725Zm9.51-.42c0-3.45-.78-5.0693-2.1006-5.0693-1.4092,0-2.1592,1.6191-2.1592,5.0693,0,3.42.6,4.92,2.13,4.92C451.2275,308.2725,451.7979,306.7129,451.7979,303.3525Z"/><path class="cls-4" d="M463.5283,313.0723c-.42.0293-.99.06-1.56.06-.6,0-1.29,0-2.01-.06-.51-.0293-.81-.21-.87-1.05-.21-2.52-.39-5.37-.39-8.76,0-2.31.09-4.89.33-7.7695.06-.9307.6-1.2,1.35-1.29a15.897,15.897,0,0,1,1.77-.06,12.5189,12.5189,0,0,1,1.68.06c.42.0606.5694.21.5694.54,0,.2392-.1192.5693-.1192.87a.2918.2918,0,0,0,.3291.3c.78,0,1.95-1.9795,4.0508-1.9795,1.9492,0,2.6094,1.4687,3.3594,1.4687.87,0,2.13-1.4687,4.41-1.4687,3.5391,0,4.9795,3.3291,4.9795,9.6894a39.3388,39.3388,0,0,1-.63,8.6387,1.0945,1.0945,0,0,1-1.08.8106c-.42.0293-1.02.06-1.65.06-.6592,0-1.35-.0312-2.0391-.06s-.9-.3907-.9-.87a84.6222,84.6222,0,0,0,.57-8.79c0-3.1494-.33-4.4394-1.4707-4.4394-.96,0-1.7695.8105-1.7695,2.7,0,1.6494.06,2.85.06,4.4091a47.2987,47.2987,0,0,1-.36,6c-.09.6309-.36.9-.8106.93a18.9663,18.9663,0,0,1-1.9794.09c-.6,0-1.26-.0293-1.83-.0586-.5694-.0606-.69-.3008-.69-.7207,0-.45.3-5.7295.3-9.51,0-2.67-.24-3.7793-1.38-3.7793-1.26,0-1.8906,1.2295-1.8906,4.1094,0,5.31.3906,8.55.3906,9.18C464.248,312.8027,463.9775,313.0117,463.5283,313.0723Z"/><path class="cls-4" d="M495.3281,313.4629c-5.4,0-7.2-4.1406-7.2-9.18,0-7.41,3.78-10.4394,8.28-10.4394,3.0293,0,5.3994,1.6191,5.3994,4.9785,0,5.1308-4.29,5.73-6.93,6.9-.93.33-1.32.6-1.32,1.1093,0,.8711.63,1.5606,2.07,1.5606a6.4064,6.4064,0,0,0,5.13-2.43c.18-.15.3-.24.45-.24.42,0,.75.7793.75,2.1894C501.958,311.3926,498.8682,313.4629,495.3281,313.4629Zm.42-15.45c-1.65,0-2.79,1.8-2.79,3.87,0,.3.09.54.36.54a1.3322,1.3322,0,0,0,.5693-.15c1.2-.72,3.24-1.47,3.24-2.9092A1.2836,1.2836,0,0,0,495.748,298.0127Z"/><path class="cls-4" d="M518.0977,301.582a95.3363,95.3363,0,0,1-.63,10.62c-.09.57-.39.8409-.84.87a16.4716,16.4716,0,0,1-1.83.06c-.75,0-1.47-.0312-2.1-.06-.48-.0606-.66-.27-.66-.63,0-1.38.45-6.39.45-10.3194,0-2.1308-.36-3.15-1.4707-3.15a1.8992,1.8992,0,0,0-1.38.54c-.51.48-.72,1.32-.72,3.51,0,4.5.42,8.37.42,9.2705,0,.539-.24.75-.78.7793s-1.1094.06-1.68.06c-.75,0-1.47-.0312-2.01-.06-.51-.0293-.84-.18-.8994-.96-.211-2.31-.36-5.25-.36-8.64,0-2.43.06-5.1.2695-7.92.0606-.96.63-1.1992,1.41-1.289.54-.0313,1.17-.0606,1.7705-.0606.51,0,1.0195.0293,1.38.0606.54.0293.75.27.75.6894s.1494.57.42.57c.8994,0,2.04-1.59,4.2891-1.59C516.748,293.9336,518.0977,296.0029,518.0977,301.582Z"/><path class="cls-4" d="M531.6279,288.623a.5743.5743,0,0,1,.45.6309c0,.69-1.11,3.209-1.11,5.1289,0,.4805.15.7207.48.7207.6308,0,1.92-1.291,4.2-1.291,2.88,0,4.62,1.8906,4.62,7.8906a77.3586,77.3586,0,0,1-.72,10.5586c-.0909.57-.3907.8106-.8106.84-.3594,0-1.0195.0312-1.74.0312-.81,0-1.7393-.0312-2.3994-.09-.39-.0313-.72-.15-.72-.69,0-.72.7793-5.49.7793-9.21,0-3.3594-.4492-4.08-1.5595-4.08-1.26,0-2.16,1.1406-2.16,4.4707,0,4.709.3,7.9492.3,8.7891,0,.57-.39.6894-.7793.75-.54.0293-1.26.06-2.01.06-.78,0-1.5605-.0312-2.19-.06-.3-.0293-.6-.15-.72-.72-.15-1.2607-.27-3.87-.27-7.08a99.5955,99.5955,0,0,1,1.11-15.6895c.12-.6.45-.8994.78-.93a20.0965,20.0965,0,0,1,2.3994-.12A15.2944,15.2944,0,0,1,531.6279,288.623Z"/><path class="cls-4" d="M541.5879,307.4023c0-4.35,3.42-6.09,7.32-6.66.93-.1494,1.38-.3594,1.38-.8994,0-.93-.5108-1.53-1.95-1.53a6.8352,6.8352,0,0,0-4.53,1.92.7783.7783,0,0,1-.51.2705.576.576,0,0,1-.39-.1806,3.7794,3.7794,0,0,1-1.11-2.7295c0-2.13,2.61-3.78,6.9-3.78,5.0391,0,6.81,2.5205,6.81,6.99,0,1.83-.15,4.71-.15,6.93,0,1.74.24,3.72.24,4.1992a.8444.8444,0,0,1-.75.9307,51.4945,51.4945,0,0,1-6.24.2393C544.0176,313.1016,541.5879,311.3926,541.5879,307.4023Zm8.73-2.13c0-.8995-.12-1.14-.63-1.14-1.6494,0-3,.96-3,2.52,0,1.32.9,1.8907,2.4307,1.8907.96,0,1.1992-.42,1.1992-1.32Z"/><path class="cls-4" d="M564.6572,313.1924a1.948,1.948,0,0,1-.78.2392,1.8924,1.8924,0,0,1-.81-.2392c-4.11-2.25-6.09-6.84-6.09-15.3a23.3468,23.3468,0,0,1,.09-2.49c.03-.75.21-1.0488,1.08-1.1386a21.2663,21.2663,0,0,1,2.13-.0908,17.0679,17.0679,0,0,1,1.9805.0908.5582.5582,0,0,1,.48.6289c0,.99-.3,3.51-.3,6.3008,0,1.8593.24,4.3193,1.23,5.6093a.4422.4422,0,0,0,.3906.24.4008.4008,0,0,0,.3594-.24c1.02-1.5,1.2607-4.08,1.2607-6.18,0-2.5195-.3007-5.04-.3007-5.7,0-.48.21-.63.54-.6592a12.005,12.005,0,0,1,1.95-.0908,13.6142,13.6142,0,0,1,2.01.0908c.84.06.93.3593,1.0205,1.23.0595.75.0595,1.47.0595,2.19C570.957,306.5625,568.7373,311.0322,564.6572,313.1924Z"/><path class="cls-4" d="M573.9873,313.1621c-.21.2695-.3594.42-.63.42a1.0207,1.0207,0,0,1-.3594-.09,4.4734,4.4734,0,0,1-1.3808-.96.5614.5614,0,0,1-.21-.4795.842.842,0,0,1,.24-.541c.33-.42.69-.84,1.08-1.35a.9081.9081,0,0,0,.15-.48,1.173,1.173,0,0,0-.0908-.4209,14.8816,14.8816,0,0,1-.8994-5.4892c0-5.9395,2.55-9.96,7.62-9.96a6.4677,6.4677,0,0,1,3.84,1.11.8008.8008,0,0,0,.3.0908.5191.5191,0,0,0,.42-.24c.2695-.3906.51-.66.66-.8711a.8384.8384,0,0,1,.6592-.42,3.0416,3.0416,0,0,1,1.2305.4512.7245.7245,0,0,1,.48.6289.9516.9516,0,0,1-.21.5107c-.33.48-.75,1.0791-1.23,1.77a1.2482,1.2482,0,0,0-.12.45.7979.7979,0,0,0,.09.3593,15.2515,15.2515,0,0,1,1.05,6.12c0,6.81-3.3,9.69-7.59,9.69a6.94,6.94,0,0,1-3.93-1.11.4959.4959,0,0,0-.33-.12.3325.3325,0,0,0-.3.18C574.3174,312.7129,574.1377,312.9219,573.9873,313.1621Zm2.91-8.8789c.12,0,.18-.0605.2695-.1807,1.2305-1.71,2.61-3.48,3.7207-5.01a.7588.7588,0,0,0,.1494-.48.8035.8035,0,0,0-.09-.36,1.9293,1.9293,0,0,0-1.65-.84c-1.68,0-2.64,1.8-2.64,5.6094a6.1118,6.1118,0,0,0,.0606,1.08C576.7471,304.252,576.8379,304.2832,576.8975,304.2832Zm2.46,4.9492c1.74,0,2.52-1.59,2.52-5.01a6.4606,6.4606,0,0,0-.09-1.1407c-.03-.1191-.06-.209-.18-.209-.06,0-.12.0293-.21.1495-1.2,1.71-2.43,3.33-3.4805,4.86a.7622.7622,0,0,0-.21.51C577.707,308.8418,578.5469,309.2324,579.3574,309.2324Z"/><path class="cls-4" d="M594.1777,313.043c-.57.0293-1.26.0586-2.04.0586s-1.59,0-2.43-.0586a.9211.9211,0,0,1-.84-.8106,45.3529,45.3529,0,0,1-.6006-8.58c0-5.22.24-7.59.51-8.5791a.926.926,0,0,1,.57-.75,12.4577,12.4577,0,0,1,2.28-.1806,6.1075,6.1075,0,0,1,1.35.09c.33.0606.42.2705.45.6309s.18.48.33.48a.9631.9631,0,0,0,.51-.2393,3.1814,3.1814,0,0,1,1.89-1.0508c.54,0,.9.69.9,3.0606a10.46,10.46,0,0,1-.24,2.6992c-.15.51-.39.6309-.66.6309-.3593,0-.84-.27-1.41-.27s-1.05.5693-1.05,2.9091c0,3.78,1.26,8.6407,1.26,9.24C594.957,312.7129,594.7773,312.9824,594.1777,313.043Z"/><path class="cls-4" d="M612.9873,301.582a95.3363,95.3363,0,0,1-.63,10.62c-.09.57-.39.8409-.84.87a16.4827,16.4827,0,0,1-1.83.06c-.75,0-1.47-.0312-2.1-.06-.4805-.0606-.66-.27-.66-.63,0-1.38.45-6.39.45-10.3194,0-2.1308-.36-3.15-1.4707-3.15a1.9,1.9,0,0,0-1.38.54c-.51.48-.72,1.32-.72,3.51,0,4.5.42,8.37.42,9.2705,0,.539-.24.75-.78.7793s-1.1094.06-1.68.06c-.75,0-1.47-.0312-2.01-.06-.51-.0293-.84-.18-.9-.96-.21-2.31-.3594-5.25-.3594-8.64,0-2.43.06-5.1.27-7.92.06-.96.63-1.1992,1.41-1.289.54-.0313,1.17-.0606,1.7705-.0606.51,0,1.02.0293,1.38.0606.54.0293.75.27.75.6894s.1494.57.42.57c.8995,0,2.0391-1.59,4.2891-1.59C611.6377,293.9336,612.9873,296.0029,612.9873,301.582Z"/><path class="cls-4" d="M614.5781,308.4219a13.1907,13.1907,0,0,1,2.34-1.9492,1.4537,1.4537,0,0,1,.8691-.3008c1.29,0,2.6406,1.41,2.6406,3.4511a5.6186,5.6186,0,0,1-4.68,5.3086.4648.4648,0,0,1-.48-.51,15.1785,15.1785,0,0,0,.33-2.01,3.8745,3.8745,0,0,0-.99-2.64,1.0293,1.0293,0,0,1-.39-.69A1.1178,1.1178,0,0,1,614.5781,308.4219Z"/><path class="cls-4" d="M626.7578,303.7725c0-5.9395,2.55-9.96,7.6192-9.96s7.17,3.84,7.17,9.96c0,6.81-3.3,9.69-7.59,9.69C629.7275,313.4629,626.7578,310.582,626.7578,303.7725Zm9.51-.42c0-3.45-.78-5.0693-2.1006-5.0693-1.4092,0-2.1592,1.6191-2.1592,5.0693,0,3.42.6,4.92,2.13,4.92C635.6973,308.2725,636.2676,306.7129,636.2676,303.3525Z"/><path class="cls-4" d="M649.8877,293.8125c1.26,0,1.7695.1807,2.34.1807.78,0,1.2-1.08,1.83-1.92.3-.5107.63-.75.96-.75.75,0,2.6992,1.89,2.6992,2.67a.5891.5891,0,0,1-.3.51c-.66.36-1.35.72-1.35,1.47,0,.8105,1.32,1.29,1.32,4.1406,0,3.4492-2.19,5.8193-7.05,5.8193-2.58,0-3.3.9893-3.3,1.89,0,.6.3291.87,1.0195.87,1.38,0,3.6-1.3194,6.09-1.3194a5.2756,5.2756,0,0,1,2.91.7188,1.1807,1.1807,0,0,1,.54,1.08c0,1.3808-.8409,4.2-1.8008,4.2a1.6143,1.6143,0,0,1-.63-.1494,4.3752,4.3752,0,0,0-2.5195-.66c-1.83,0-3.21.96-5.73.96-2.79,0-4.38-1.3506-4.38-3.81a5.7135,5.7135,0,0,1,2.1-4.35c.21-.211.33-.3613.33-.541a.8312.8312,0,0,0-.24-.4493,6.1845,6.1845,0,0,1-1.8-4.5C642.9277,296.123,645.7178,293.8125,649.8877,293.8125Zm.36,7.8008a1.9774,1.9774,0,0,0,2.1-2.01,2.0707,2.0707,0,1,0-2.1,2.01Z"/><path class="cls-4" d="M670.8574,288.623a.5743.5743,0,0,1,.45.6309c0,.69-1.11,3.209-1.11,5.1289,0,.4805.15.7207.48.7207.63,0,1.92-1.291,4.1993-1.291,2.88,0,4.62,1.8906,4.62,7.8906a77.3548,77.3548,0,0,1-.72,10.5586c-.0908.57-.3906.8106-.81.84-.3594,0-1.0195.0312-1.74.0312-.81,0-1.7393-.0312-2.3995-.09-.39-.0313-.72-.15-.72-.69,0-.72.7793-5.49.7793-9.21,0-3.3594-.4492-4.08-1.56-4.08-1.26,0-2.16,1.1406-2.16,4.4707,0,4.709.3,7.9492.3,8.7891,0,.57-.39.6894-.7793.75-.54.0293-1.26.06-2.01.06-.78,0-1.56-.0312-2.19-.06-.3-.0293-.6-.15-.72-.72-.15-1.2607-.27-3.87-.27-7.08a99.5955,99.5955,0,0,1,1.11-15.6895c.12-.6.45-.8994.78-.93a20.0965,20.0965,0,0,1,2.3994-.12A15.2944,15.2944,0,0,1,670.8574,288.623Z"/><path class="cls-4" d="M680.8477,303.7725c0-5.9395,2.55-9.96,7.6191-9.96s7.17,3.84,7.17,9.96c0,6.81-3.3,9.69-7.59,9.69C683.8174,313.4629,680.8477,310.582,680.8477,303.7725Zm9.51-.42c0-3.45-.78-5.0693-2.1006-5.0693-1.4091,0-2.1591,1.6191-2.1591,5.0693,0,3.42.6,4.92,2.13,4.92C689.7871,308.2725,690.3574,306.7129,690.3574,303.3525Z"/><path class="cls-4" d="M699.1172,313.7617c-.4492,0-.7793-.18-1.0195-1.14a48.13,48.13,0,0,1-.87-9.81c0-8.0391.63-9,5.7-9,6.81,0,8.669,3.06,8.669,7.0508,0,6.539-3.3291,9.8086-5.669,9.8086-1.38,0-2.34-2.0391-2.8506-2.0391-.2392,0-.3593.209-.3593.48a16.3574,16.3574,0,0,0,.6,3.54c0,.33-.2695.48-.66.57A27.8833,27.8833,0,0,1,699.1172,313.7617Zm3.45-11.1289c0,2.97.69,3.66,1.62,3.66,1.35,0,2.04-2.2207,2.04-5.5508,0-2.1-.75-2.9688-2.25-2.9688C702.9873,297.7734,702.5674,298.6729,702.5674,302.6328Z"/><path class="cls-4" d="M714.957,313.7617c-.4492,0-.7793-.18-1.0195-1.14a48.1377,48.1377,0,0,1-.87-9.81c0-8.0391.63-9,5.7-9,6.8095,0,8.6689,3.06,8.6689,7.0508,0,6.539-3.3291,9.8086-5.6689,9.8086-1.38,0-2.34-2.0391-2.8506-2.0391-.2393,0-.3594.209-.3594.48a16.3574,16.3574,0,0,0,.6,3.54c0,.33-.2695.48-.66.57A27.8872,27.8872,0,0,1,714.957,313.7617Zm3.45-11.1289c0,2.97.6905,3.66,1.62,3.66,1.35,0,2.04-2.2207,2.04-5.5508,0-2.1-.75-2.9688-2.25-2.9688C718.8271,297.7734,718.4072,298.6729,718.4072,302.6328Z"/><path class="cls-4" d="M735.5674,313.4629c-5.4,0-7.2-4.1406-7.2-9.18,0-7.41,3.78-10.4394,8.28-10.4394,3.0293,0,5.3994,1.6191,5.3994,4.9785,0,5.1308-4.29,5.73-6.93,6.9-.93.33-1.32.6-1.32,1.1093,0,.8711.63,1.5606,2.07,1.5606a6.4053,6.4053,0,0,0,5.13-2.43c.18-.15.3-.24.45-.24.42,0,.75.7793.75,2.1894C742.1973,311.3926,739.1074,313.4629,735.5674,313.4629Zm.42-15.45c-1.65,0-2.79,1.8-2.79,3.87,0,.3.09.54.36.54a1.3323,1.3323,0,0,0,.5694-.15c1.2-.72,3.24-1.47,3.24-2.9092A1.2836,1.2836,0,0,0,735.9873,298.0127Z"/><path class="cls-4" d="M749.7275,313.043c-.57.0293-1.26.0586-2.04.0586s-1.59,0-2.43-.0586a.9211.9211,0,0,1-.84-.8106,45.3529,45.3529,0,0,1-.6006-8.58c0-5.22.24-7.59.51-8.5791a.926.926,0,0,1,.57-.75,12.4577,12.4577,0,0,1,2.28-.1806,6.1075,6.1075,0,0,1,1.35.09c.33.0606.42.2705.45.6309s.18.48.33.48a.9631.9631,0,0,0,.51-.2393,3.1814,3.1814,0,0,1,1.89-1.0508c.54,0,.9.69.9,3.0606a10.46,10.46,0,0,1-.24,2.6992c-.15.51-.39.6309-.66.6309-.3593,0-.84-.27-1.41-.27s-1.05.5693-1.05,2.9091c0,3.78,1.26,8.6407,1.26,9.24C750.5068,312.7129,750.3271,312.9824,749.7275,313.043Z"/><path class="cls-4" d="M773.7871,301.582a95.3363,95.3363,0,0,1-.63,10.62c-.09.57-.39.8409-.84.87a16.4744,16.4744,0,0,1-1.83.06c-.75,0-1.47-.0312-2.1-.06-.4805-.0606-.66-.27-.66-.63,0-1.38.45-6.39.45-10.3194,0-2.1308-.36-3.15-1.4707-3.15a1.9,1.9,0,0,0-1.38.54c-.51.48-.72,1.32-.72,3.51,0,4.5.42,8.37.42,9.2705,0,.539-.24.75-.78.7793s-1.1094.06-1.68.06c-.75,0-1.47-.0312-2.01-.06-.51-.0293-.84-.18-.8994-.96-.2109-2.31-.36-5.25-.36-8.64,0-2.43.0595-5.1.2695-7.92.06-.96.63-1.1992,1.41-1.289.54-.0313,1.17-.0606,1.7705-.0606.51,0,1.02.0293,1.38.0606.54.0293.75.27.75.6894s.1494.57.42.57c.8994,0,2.04-1.59,4.289-1.59C772.4375,293.9336,773.7871,296.0029,773.7871,301.582Z"/><path class="cls-4" d="M775.7373,303.832a83.4518,83.4518,0,0,1,.63-8.6386c.09-.6309.36-.9.84-.961.6006-.0293,1.3506-.0595,2.07-.0595.69,0,1.32.03,1.83.0595.51.0606.66.3008.66.6905,0,.96-.45,6.1494-.45,10.05,0,2.46.5693,3.27,1.56,3.27a1.75,1.75,0,0,0,1.23-.48c.6-.57.84-1.5908.84-3.6006a82.6671,82.6671,0,0,0-.4805-9.0586c-.0293-.6006.21-.81.78-.8711a13.4315,13.4315,0,0,1,1.62-.0595c.75,0,1.47,0,2.04.0595.5694.0313.8994.211.9893,1.0508a63.9394,63.9394,0,0,1,.42,7.8594c0,2.6094-.1191,5.46-.39,8.64-.06.8994-.63,1.17-1.3194,1.23a13.9564,13.9564,0,0,1-1.62.0606c-.42,0-.84,0-1.1406-.0293-.51-.0606-.72-.2705-.72-.75,0-.4209-.1495-.57-.4795-.57-.96,0-2.25,1.6191-4.38,1.6191C776.9072,313.3418,775.7373,311.002,775.7373,303.832Z"/><path class="cls-4" d="M799.6465,313.7617c-.4492,0-.7793-.18-1.0195-1.14a48.13,48.13,0,0,1-.87-9.81c0-8.0391.63-9,5.7-9,6.81,0,8.669,3.06,8.669,7.0508,0,6.539-3.3291,9.8086-5.669,9.8086-1.38,0-2.34-2.0391-2.8506-2.0391-.2392,0-.3593.209-.3593.48a16.3574,16.3574,0,0,0,.6,3.54c0,.33-.27.48-.66.57A27.886,27.886,0,0,1,799.6465,313.7617Zm3.45-11.1289c0,2.97.69,3.66,1.62,3.66,1.35,0,2.04-2.2207,2.04-5.5508,0-2.1-.75-2.9688-2.25-2.9688C803.5166,297.7734,803.0967,298.6729,803.0967,302.6328Z"/><path class="cls-4" d="M813.0566,307.4023c0-4.35,3.42-6.09,7.32-6.66.93-.1494,1.38-.3594,1.38-.8994,0-.93-.5107-1.53-1.95-1.53a6.8349,6.8349,0,0,0-4.53,1.92.7782.7782,0,0,1-.51.2705.576.576,0,0,1-.39-.1806,3.779,3.779,0,0,1-1.11-2.7295c0-2.13,2.61-3.78,6.9-3.78,5.0391,0,6.81,2.5205,6.81,6.99,0,1.83-.15,4.71-.15,6.93,0,1.74.24,3.72.24,4.1992a.8443.8443,0,0,1-.75.9307,51.4936,51.4936,0,0,1-6.24.2393C815.4863,313.1016,813.0566,311.3926,813.0566,307.4023Zm3.21-17.8193c0-2.1894,1.53-3.45,3.87-3.45,2.49,0,3.87,1.2608,3.87,3.45,0,2.13-1.38,3.3-3.87,3.3C817.7969,292.8828,816.2666,291.7129,816.2666,289.583Zm5.5195,15.6895c0-.8995-.12-1.14-.63-1.14-1.6494,0-3,.96-3,2.52,0,1.32.9,1.8907,2.4307,1.8907.96,0,1.1992-.42,1.1992-1.32Zm-.3-15.6895c0-.81-.48-1.23-1.35-1.23a1.1622,1.1622,0,0,0-1.32,1.23c0,.72.51,1.11,1.32,1.11C821.0068,290.6934,821.4863,290.3027,821.4863,289.583Z"/><path class="cls-4" d="M839.9365,308.9326c1.05,0,1.499-.42,1.499-1.17s-.539-1.2607-2.1894-2.04c-2.88-1.38-5.22-2.6094-5.22-6.1192,0-3.6006,2.7-5.791,6.96-5.791a10.8776,10.8776,0,0,1,4.92,1.08.9969.9969,0,0,1,.5694.99,11.2091,11.2091,0,0,1-1.0195,3.93.5155.5155,0,0,1-.4805.36.59.59,0,0,1-.42-.1807,7.6278,7.6278,0,0,0-4.26-1.8887c-.96,0-1.4395.4492-1.4395,1.0791,0,.78.54,1.14,2.25,1.92,2.67,1.2,5.64,2.61,5.64,6.33,0,4.0195-2.58,6.03-6.51,6.03-4.0205,0-6.51-1.92-6.51-5.01a5.1745,5.1745,0,0,1,.5693-2.58.5651.5651,0,0,1,.45-.3007.4133.4133,0,0,1,.3906.24A6.0216,6.0216,0,0,0,839.9365,308.9326Z"/><path class="cls-4" d="M854.0957,313.0723c-.72.06-1.56.09-2.43.09s-1.71-.0293-2.46-.09a.7566.7566,0,0,1-.75-.7793,59.2511,59.2511,0,0,1-.36-6.84,66.6132,66.6132,0,0,1,.75-10.4707.8067.8067,0,0,1,.8408-.75c.6592-.0595,1.26-.0595,1.8291-.0595.6006,0,1.2,0,1.86.0595.45.0313.6894.24.6894.6006,0,.66-.21,3.39-.21,6.5693a103.5916,103.5916,0,0,0,.8105,11.13C854.666,312.8926,854.3955,313.043,854.0957,313.0723Zm-5.76-22.4991c0-1.59,1.05-2.58,3.27-2.58,2.34,0,3.27.99,3.27,2.58,0,1.56-.93,2.46-3.27,2.46C849.3857,293.0332,848.3359,292.1328,848.3359,290.5732Z"/><path class="cls-4" d="M871.0752,301.582a95.3363,95.3363,0,0,1-.63,10.62c-.09.57-.39.8409-.84.87a16.4836,16.4836,0,0,1-1.83.06c-.75,0-1.47-.0312-2.1-.06-.4805-.0606-.66-.27-.66-.63,0-1.38.45-6.39.45-10.3194,0-2.1308-.36-3.15-1.4707-3.15a1.9,1.9,0,0,0-1.38.54c-.51.48-.72,1.32-.72,3.51,0,4.5.42,8.37.42,9.2705,0,.539-.24.75-.78.7793s-1.1094.06-1.68.06c-.75,0-1.47-.0312-2.01-.06-.51-.0293-.84-.18-.9-.96-.21-2.31-.3594-5.25-.3594-8.64,0-2.43.06-5.1.27-7.92.0605-.96.63-1.1992,1.41-1.289.54-.0313,1.17-.0606,1.7705-.0606.51,0,1.02.0293,1.38.0606.54.0293.75.27.75.6894s.1494.57.42.57c.8995,0,2.0391-1.59,4.2891-1.59C869.7256,293.9336,871.0752,296.0029,871.0752,301.582Z"/><path class="cls-4" d="M251.7129,339.1133c0-7.08,3.21-13.4395,9.2392-13.4395,4.77,0,6.7793,3.6592,6.7793,7.0791a2.7342,2.7342,0,0,1-.7793,2.0694c-.81,1.0205-3.09,2.58-4.11,2.58-.33,0-.4492-.24-.4492-.6894s.0595-1.08.0595-1.65c0-1.9492-.45-3.9893-1.95-3.9893-1.6495,0-2.58,2.3995-2.58,6.54,0,4.17,1.2,5.5195,3.3906,5.5195,2.1592,0,3.72-1.4707,4.8594-3.48a.5833.5833,0,0,1,.48-.3c.6895,0,1.2891,1.44,1.2891,3.42,0,3.45-2.34,6.75-7.499,6.75C254.8926,349.5225,251.7129,346.0117,251.7129,339.1133Z"/><path class="cls-4" d="M275.8926,324.623a.5743.5743,0,0,1,.45.6309c0,.69-1.11,3.209-1.11,5.1289,0,.4805.15.7207.4805.7207.63,0,1.92-1.291,4.1992-1.291,2.88,0,4.62,1.8906,4.62,7.8906a77.3586,77.3586,0,0,1-.72,10.5586c-.0908.57-.3906.8106-.81.84-.3594,0-1.02.0312-1.74.0312-.81,0-1.7392-.0312-2.3994-.09-.39-.0313-.72-.15-.72-.69,0-.72.7793-5.49.7793-9.21,0-3.3594-.4492-4.08-1.56-4.08-1.26,0-2.16,1.1406-2.16,4.4707,0,4.709.3,7.9492.3,8.7891,0,.57-.39.6894-.7793.75-.54.0293-1.26.06-2.01.06-.78,0-1.5606-.0312-2.19-.06-.3-.0293-.6-.15-.72-.72-.15-1.2607-.2705-3.87-.2705-7.08a99.5838,99.5838,0,0,1,1.11-15.6895c.12-.6.45-.8994.78-.93a20.0954,20.0954,0,0,1,2.3994-.12A15.2944,15.2944,0,0,1,275.8926,324.623Z"/><path class="cls-4" d="M292.3027,349.043c-.57.0293-1.26.0586-2.04.0586s-1.59,0-2.43-.0586a.9211.9211,0,0,1-.84-.8106,45.3529,45.3529,0,0,1-.6006-8.58c0-5.22.24-7.59.51-8.5791a.926.926,0,0,1,.57-.75,12.4577,12.4577,0,0,1,2.28-.1806,6.1075,6.1075,0,0,1,1.35.09c.33.0606.42.2705.45.6309s.18.48.33.48a.9631.9631,0,0,0,.51-.2393,3.1814,3.1814,0,0,1,1.89-1.0508c.54,0,.9.69.9,3.0606a10.46,10.46,0,0,1-.24,2.6992c-.15.51-.39.6309-.66.6309-.3593,0-.84-.27-1.41-.27s-1.05.5693-1.05,2.9091c0,3.78,1.26,8.6407,1.26,9.24C293.082,348.7129,292.9023,348.9824,292.3027,349.043Z"/><path class="cls-4" d="M302.2627,349.0723c-.72.06-1.56.09-2.43.09s-1.71-.0293-2.46-.09a.7573.7573,0,0,1-.75-.7793,59.2749,59.2749,0,0,1-.36-6.84,66.6132,66.6132,0,0,1,.75-10.4707.8067.8067,0,0,1,.8408-.75c.6592-.0595,1.26-.0595,1.8291-.0595.6006,0,1.2,0,1.86.0595.45.0313.6894.24.6894.6006,0,.66-.21,3.39-.21,6.5693a103.5916,103.5916,0,0,0,.8105,11.13C302.833,348.8926,302.5625,349.043,302.2627,349.0723Zm-5.76-22.4991c0-1.59,1.05-2.58,3.27-2.58,2.34,0,3.27.99,3.27,2.58,0,1.56-.93,2.46-3.27,2.46C297.5527,329.0332,296.5029,328.1328,296.5029,326.5732Z"/><path class="cls-4" d="M310.333,344.9326c1.05,0,1.499-.42,1.499-1.17s-.539-1.2607-2.1894-2.04c-2.88-1.38-5.22-2.6094-5.22-6.1192,0-3.6006,2.7-5.791,6.96-5.791a10.8776,10.8776,0,0,1,4.92,1.08.9969.9969,0,0,1,.5694.99,11.207,11.207,0,0,1-1.02,3.93.5153.5153,0,0,1-.48.36.59.59,0,0,1-.42-.1807,7.6275,7.6275,0,0,0-4.26-1.8887c-.96,0-1.44.4492-1.44,1.0791,0,.78.54,1.14,2.25,1.92,2.67,1.2,5.64,2.61,5.64,6.33,0,4.0195-2.58,6.03-6.51,6.03-4.02,0-6.51-1.92-6.51-5.01a5.1743,5.1743,0,0,1,.5694-2.58.5651.5651,0,0,1,.45-.3007.4133.4133,0,0,1,.3906.24A6.0214,6.0214,0,0,0,310.333,344.9326Z"/><path class="cls-4" d="M325.3027,325.8535a.3865.3865,0,0,1,.42.39c0,.45-.99,2.25-.99,3.69,0,.2695.15.42.48.42.3906,0,1.02-.1211,1.44-.1211.27,0,.42.1807.4795.541a13.6733,13.6733,0,0,1-.06,4.4092.4194.4194,0,0,1-.45.36c-.39,0-.8994-.15-1.44-.15-.45,0-.57.2695-.63,1.0508a16.6222,16.6222,0,0,0-.0908,1.8593,37.7848,37.7848,0,0,0,1.44,9.3594,1.9292,1.9292,0,0,1,.06.33.63.63,0,0,1-.3291.54,11.8257,11.8257,0,0,1-5.0107,1.2.6414.6414,0,0,1-.69-.42,19.8378,19.8378,0,0,1-.93-6.81c0-3,.33-5.43.3594-6.3594.03-.33-.09-.4492-.3594-.51a2.6106,2.6106,0,0,0-.3906-.06.5557.5557,0,0,1-.48-.6289,33.0131,33.0131,0,0,1,.24-4.0508c.09-.4492.27-.6289.5391-.6289h.45c.3906,0,.45-.48.54-1.5313.12-1.26.1807-1.4687.75-1.7988A12.0292,12.0292,0,0,1,325.3027,325.8535Z"/><path class="cls-4" d="M334.4521,349.0723c-.72.06-1.5595.09-2.43.09s-1.71-.0293-2.46-.09a.7572.7572,0,0,1-.75-.7793,59.2735,59.2735,0,0,1-.36-6.84,66.6252,66.6252,0,0,1,.75-10.4707.8068.8068,0,0,1,.8409-.75c.6591-.0595,1.26-.0595,1.8291-.0595.6006,0,1.2,0,1.86.0595.45.0313.69.24.69.6006,0,.66-.21,3.39-.21,6.5693a103.5791,103.5791,0,0,0,.8106,11.13C335.0225,348.8926,334.752,349.043,334.4521,349.0723Zm-5.76-22.4991c0-1.59,1.05-2.58,3.27-2.58,2.34,0,3.2695.99,3.2695,2.58,0,1.56-.93,2.46-3.2695,2.46C329.7422,329.0332,328.6924,328.1328,328.6924,326.5732Z"/><path class="cls-4" d="M336.3721,343.4023c0-4.35,3.42-6.09,7.32-6.66.93-.1494,1.38-.3594,1.38-.8994,0-.93-.5108-1.53-1.95-1.53a6.8352,6.8352,0,0,0-4.53,1.92.7782.7782,0,0,1-.51.2705.576.576,0,0,1-.39-.1806,3.7794,3.7794,0,0,1-1.11-2.7295c0-2.13,2.61-3.78,6.9-3.78,5.0391,0,6.81,2.5205,6.81,6.99,0,1.83-.15,4.71-.15,6.93,0,1.74.24,3.72.24,4.1992a.8443.8443,0,0,1-.75.9307,51.4918,51.4918,0,0,1-6.24.2393C338.8018,349.1016,336.3721,347.3926,336.3721,343.4023Zm8.73-2.13c0-.8995-.1192-1.14-.63-1.14-1.6494,0-3,.96-3,2.52,0,1.32.9,1.8907,2.4306,1.8907.96,0,1.1993-.42,1.1993-1.32Z"/><path class="cls-4" d="M366.9111,337.582a95.3363,95.3363,0,0,1-.63,10.62c-.09.57-.39.8409-.84.87a16.4827,16.4827,0,0,1-1.83.06c-.75,0-1.47-.0312-2.1-.06-.4805-.0606-.66-.27-.66-.63,0-1.38.45-6.39.45-10.3194,0-2.1308-.36-3.15-1.4707-3.15a1.8992,1.8992,0,0,0-1.38.54c-.51.48-.72,1.32-.72,3.51,0,4.5.42,8.37.42,9.2705,0,.539-.24.75-.78.7793s-1.1094.06-1.68.06c-.75,0-1.47-.0312-2.01-.06-.51-.0293-.84-.18-.9-.96-.21-2.31-.3593-5.25-.3593-8.64,0-2.43.06-5.1.2695-7.92.0606-.96.63-1.1992,1.41-1.289.54-.0313,1.17-.0606,1.77-.0606.51,0,1.0195.0293,1.38.0606.54.0293.75.27.75.6894s.1494.57.42.57c.8994,0,2.039-1.59,4.289-1.59C365.5615,329.9336,366.9111,332.0029,366.9111,337.582Z"/><path class="cls-4" d="M374.8311,349.0723c-.72.06-1.56.09-2.43.09s-1.71-.0293-2.46-.09a.7573.7573,0,0,1-.75-.7793,59.2749,59.2749,0,0,1-.36-6.84,66.6132,66.6132,0,0,1,.75-10.4707.8067.8067,0,0,1,.8408-.75c.6592-.0595,1.26-.0595,1.8291-.0595.6006,0,1.2,0,1.86.0595.45.0313.6895.24.6895.6006,0,.66-.21,3.39-.21,6.5693a103.5791,103.5791,0,0,0,.8106,11.13C375.4014,348.8926,375.1309,349.043,374.8311,349.0723Zm-5.76-22.4991c0-1.59,1.05-2.58,3.27-2.58,2.34,0,3.27.99,3.27,2.58,0,1.56-.93,2.46-3.27,2.46C370.1211,329.0332,369.0713,328.1328,369.0713,326.5732Z"/><path class="cls-4" d="M376.751,343.4023c0-4.35,3.42-6.09,7.32-6.66.93-.1494,1.38-.3594,1.38-.8994,0-.93-.5108-1.53-1.95-1.53a6.8352,6.8352,0,0,0-4.53,1.92.7782.7782,0,0,1-.51.2705.576.576,0,0,1-.39-.1806,3.7794,3.7794,0,0,1-1.11-2.7295c0-2.13,2.61-3.78,6.9-3.78,5.0391,0,6.81,2.5205,6.81,6.99,0,1.83-.15,4.71-.15,6.93,0,1.74.24,3.72.24,4.1992a.8443.8443,0,0,1-.75.9307,51.4918,51.4918,0,0,1-6.24.2393C379.1807,349.1016,376.751,347.3926,376.751,343.4023Zm8.73-2.13c0-.8995-.1192-1.14-.63-1.14-1.6494,0-3,.96-3,2.52,0,1.32.9,1.8907,2.4306,1.8907.96,0,1.1993-.42,1.1993-1.32Z"/><path class="cls-4" d="M397.4805,340.7031c0-7.4707,3.36-10.8906,7.7695-10.8906,3.51,0,5.22,2.4609,5.22,5.58a3.92,3.92,0,0,1-3.72,3.54c-.42,0-.6-.12-.63-.4795-.09-1.92-.12-3.78-1.35-3.78-1.11,0-1.89,1.71-1.89,4.8291,0,2.5507.51,4.41,2.46,4.41,1.92,0,3.0293-1.47,3.6592-2.85a.4131.4131,0,0,1,.3906-.2695.4621.4621,0,0,1,.3291.209,4.2412,4.2412,0,0,1,.9307,2.82c0,3.09-2.13,5.6406-6.33,5.6406C399.5205,349.4629,397.4805,345.8027,397.4805,340.7031Z"/><path class="cls-4" d="M412.57,343.6426c.84,0,1.95.18,2.91.21,1.08,0,1.89-.1494,1.89-.78,0-.18-.15-.33-.39-.4493-3.57-1.74-5.19-4.5-5.19-11.25,0-.81.24-1.08.99-1.1406a18.08,18.08,0,0,1,1.92-.09c.72,0,1.53.03,2.25.09.33.0313.63.1211.63.541,0,.3-.12,1.26-.12,2.16,0,3.7793,1.35,6.7187,2.4,6.7187.21,0,.3593-.1191.4492-.42a19.1136,19.1136,0,0,0,.5107-4.92c0-1.5-.21-3.1191-.21-3.4795a.6281.6281,0,0,1,.63-.6006c.51-.0595,1.29-.0595,1.9795-.0595a15.0861,15.0861,0,0,1,1.8.0595c.84.1211,1.08.75,1.08,1.65,0,10.38-1.98,17.6992-13.3789,17.6992-.8105,0-.99-.33-1.0508-.96-.0293-.42-.0595-.8994-.0595-1.44a27.6973,27.6973,0,0,1,.15-2.789A.7541.7541,0,0,1,412.57,343.6426Z"/><path class="cls-4" d="M433.39,349.0723c-.69.06-1.53.06-2.37.06-.87,0-1.68,0-2.43-.06a.8514.8514,0,0,1-.84-.87c-.1807-2.46-.21-5.34-.21-8.3388a118.1083,118.1083,0,0,1,.81-14.55.8037.8037,0,0,1,.81-.78c.63-.0293,1.32-.0605,2.04-.0605.69,0,1.44.0312,2.1006.0605.42.03.72.21.72.6s-1.14,7.8008-1.14,11.94c0,.4511.1494.7207.4795.7207,1.92,0,3.18-3.21,3.33-6.87.03-.51.2695-.63.72-.6905.45-.0293,1.2-.0293,2.01-.0293.96,0,1.95,0,2.37.0293.36.0313.66.15.66.75,0,3.1807-2.3105,6.24-3.42,7.26a.8461.8461,0,0,0-.3.5107c0,.1494.12.27.3.42,2.1,1.5595,3.96,3.5693,3.96,8.9394,0,.69-.09.87-.78.96-.48.0293-1.2.06-2.01.06-.72,0-1.47,0-2.1-.06-.75-.0606-.9307-.15-.96-.93-.15-4.38-1.5-7.1406-3.15-7.1406-.66,0-.93.6308-.93,1.621,0,2.2188.93,5.129.93,5.85A.583.583,0,0,1,433.39,349.0723Z"/><path class="cls-4" d="M451.18,349.4629c-5.4,0-7.2-4.1406-7.2-9.18,0-7.41,3.78-10.4394,8.28-10.4394,3.0293,0,5.3994,1.6191,5.3994,4.9785,0,5.1308-4.29,5.73-6.93,6.9-.93.33-1.32.6-1.32,1.1093,0,.8711.63,1.5606,2.07,1.5606a6.4066,6.4066,0,0,0,5.13-2.43c.18-.15.3-.24.45-.24.42,0,.75.7793.75,2.1894C457.81,347.3926,454.72,349.4629,451.18,349.4629Zm.42-15.45c-1.65,0-2.79,1.8-2.79,3.87,0,.3.09.54.36.54a1.3323,1.3323,0,0,0,.5694-.15c1.2-.72,3.24-1.47,3.24-2.9092A1.2836,1.2836,0,0,0,451.6,334.0127Z"/><path class="cls-4" d="M465.73,349.0723c-.6895.06-1.5.06-2.34.06s-1.71,0-2.43-.06a.8514.8514,0,0,1-.84-.87c-.24-2.46-.36-5.34-.36-8.3388a112.3122,112.3122,0,0,1,.9-14.55.7909.7909,0,0,1,.81-.78c.69-.0293,1.35-.0605,2.04-.0605s1.38.0312,2.01.0605c.42.03.69.21.69.63,0,.5107-.54,5.76-.54,11.28,0,5.8193.63,11.1591.63,12.0293A.5593.5593,0,0,1,465.73,349.0723Z"/><path class="cls-4" d="M473.02,343.4023c0-4.35,3.42-6.09,7.32-6.66.93-.1494,1.38-.3594,1.38-.8994,0-.93-.5107-1.53-1.95-1.53a6.8349,6.8349,0,0,0-4.53,1.92.7782.7782,0,0,1-.51.2705.5764.5764,0,0,1-.39-.1806,3.7794,3.7794,0,0,1-1.11-2.7295c0-2.13,2.61-3.78,6.9-3.78,5.039,0,6.81,2.5205,6.81,6.99,0,1.83-.15,4.71-.15,6.93,0,1.74.24,3.72.24,4.1992a.8443.8443,0,0,1-.75.9307,51.4936,51.4936,0,0,1-6.24.2393C475.4492,349.1016,473.02,347.3926,473.02,343.4023Zm8.73-2.13c0-.8995-.12-1.14-.63-1.14-1.6494,0-3,.96-3,2.52,0,1.32.9,1.8907,2.4307,1.8907.96,0,1.1992-.42,1.1992-1.32Z"/><path class="cls-4" d="M498.2793,324.8633a17.2029,17.2029,0,0,1-.45,2.97c-.06.24-.21.36-.36.36a10.0543,10.0543,0,0,0-1.14-.211c-.78,0-1.2.6006-1.2,1.6807,0,.42.24.66.84.66.45,0,1.1406-.0908,1.47-.0908.3008,0,.42.1807.5107.541a15.292,15.292,0,0,1,.1494,1.9493,11.5356,11.5356,0,0,1-.24,2.52.4192.4192,0,0,1-.4492.3613c-.3906,0-.9307-.15-1.41-.15-.36,0-.48.24-.51.8994-.03.5108-.0606,1.05-.0606,1.71a81.41,81.41,0,0,0,.78,10.17c.06.3594.03.69-.2705.75a14.1522,14.1522,0,0,1-2.85.24c-.78,0-1.56,0-2.16-.0606-.42-.0293-.75-.09-.7793-.42-.1806-1.89-.24-4.1992-.24-6.3594,0-2.7.12-4.98.15-6.06.0293-.4795-.15-.7793-.57-.7793-.2705,0-.51.0293-.6.0293a.4809.4809,0,0,1-.5107-.4795,9.6693,9.6693,0,0,1-.06-1.05,13.4672,13.4672,0,0,1,.36-3.33.4843.4843,0,0,1,.51-.39c.24,0,.54.03.6894.03.54,0,.54-.6006.78-2.01.3-2.58,1.6494-4.59,5.01-4.59a4.9424,4.9424,0,0,1,2.28.3594A.7081.7081,0,0,1,498.2793,324.8633Z"/><path class="cls-4" d="M505.0293,344.9326c1.05,0,1.5-.42,1.5-1.17s-.54-1.2607-2.19-2.04c-2.88-1.38-5.22-2.6094-5.22-6.1192,0-3.6006,2.7-5.791,6.96-5.791a10.8776,10.8776,0,0,1,4.92,1.08.9971.9971,0,0,1,.5694.99,11.207,11.207,0,0,1-1.02,3.93.5153.5153,0,0,1-.48.36.59.59,0,0,1-.42-.1807,7.6275,7.6275,0,0,0-4.26-1.8887c-.96,0-1.4395.4492-1.4395,1.0791,0,.78.54,1.14,2.25,1.92,2.67,1.2,5.64,2.61,5.64,6.33,0,4.0195-2.58,6.03-6.51,6.03-4.02,0-6.51-1.92-6.51-5.01a5.1732,5.1732,0,0,1,.5694-2.58.5651.5651,0,0,1,.45-.3007.4133.4133,0,0,1,.3906.24A6.0214,6.0214,0,0,0,505.0293,344.9326Z"/><path class="cls-4" d="M519.999,325.8535a.3864.3864,0,0,1,.42.39c0,.45-.99,2.25-.99,3.69,0,.2695.15.42.4795.42.3906,0,1.0205-.1211,1.44-.1211.27,0,.42.1807.4795.541a13.6733,13.6733,0,0,1-.0595,4.4092.4194.4194,0,0,1-.45.36c-.39,0-.8995-.15-1.4395-.15-.45,0-.57.2695-.63,1.0508a16.6222,16.6222,0,0,0-.0908,1.8593,37.7848,37.7848,0,0,0,1.44,9.3594,1.9292,1.9292,0,0,1,.06.33.6291.6291,0,0,1-.33.54,11.8178,11.8178,0,0,1-5.01,1.2.6414.6414,0,0,1-.6895-.42,19.8378,19.8378,0,0,1-.93-6.81c0-3,.33-5.43.3594-6.3594.03-.33-.09-.4492-.3594-.51a2.6106,2.6106,0,0,0-.3906-.06.5557.5557,0,0,1-.4795-.6289,33.0131,33.0131,0,0,1,.24-4.0508c.09-.4492.27-.6289.54-.6289h.4492c.3906,0,.45-.48.54-1.5313.12-1.26.1807-1.4687.75-1.7988A12.0292,12.0292,0,0,1,519.999,325.8535Z"/><path class="cls-4" d="M529.8389,349.4629c-5.4,0-7.2-4.1406-7.2-9.18,0-7.41,3.78-10.4394,8.28-10.4394,3.0293,0,5.3995,1.6191,5.3995,4.9785,0,5.1308-4.29,5.73-6.93,6.9-.93.33-1.32.6-1.32,1.1093,0,.8711.63,1.5606,2.07,1.5606a6.4053,6.4053,0,0,0,5.13-2.43c.18-.15.3-.24.45-.24.42,0,.75.7793.75,2.1894C536.4688,347.3926,533.3789,349.4629,529.8389,349.4629Zm.42-15.45c-1.65,0-2.79,1.8-2.79,3.87,0,.3.09.54.36.54a1.3315,1.3315,0,0,0,.5693-.15c1.2-.72,3.24-1.47,3.24-2.9092A1.2836,1.2836,0,0,0,530.2588,334.0127Z"/><path class="cls-4" d="M537.8193,340.6133c0-6.9,2.1592-10.7695,5.31-10.7695a5.1384,5.1384,0,0,1,3.33,1.5585.4267.4267,0,0,0,.3.1211c.18,0,.3-.1211.3-.42,0-1.83-.75-5.2207-.75-5.85,0-.4512.3-.6309.72-.66.54-.03,1.11-.0606,1.6807-.0606.81,0,1.6494.03,2.43.09.51.0606.84.21.93,1.02a119.6948,119.6948,0,0,1,.66,12.96,65.0882,65.0882,0,0,1-.4805,8.79,1.3426,1.3426,0,0,1-.93,1.08,17.78,17.78,0,0,1-6,.7793C540.0088,349.252,537.8193,346.6123,537.8193,340.6133Zm9.48-1.92c0-3.3008-.9-4.4707-1.98-4.4707-1.17,0-1.89,1.35-1.89,5.67,0,4.0195.72,5.1894,2.04,5.1894C546.9082,345.082,547.2988,344.2725,547.2988,338.6934Z"/><path class="cls-4" d="M564.94,349.0723c-.42.0293-.99.06-1.5606.06-.6,0-1.29,0-2.01-.06-.51-.0293-.8095-.21-.87-1.05-.21-2.52-.39-5.37-.39-8.76,0-2.31.09-4.89.33-7.7695.06-.9307.6-1.2,1.35-1.29a15.8952,15.8952,0,0,1,1.7705-.06,12.52,12.52,0,0,1,1.68.06c.42.0606.5693.21.5693.54,0,.2392-.1191.5693-.1191.87a.2918.2918,0,0,0,.3291.3c.78,0,1.95-1.9795,4.05-1.9795,1.95,0,2.61,1.4687,3.36,1.4687.87,0,2.13-1.4687,4.41-1.4687,3.539,0,4.98,3.3291,4.98,9.6894a39.3388,39.3388,0,0,1-.63,8.6387,1.0947,1.0947,0,0,1-1.08.8106c-.42.0293-1.0195.06-1.65.06-.6592,0-1.35-.0312-2.0391-.06s-.9-.3907-.9-.87a84.6222,84.6222,0,0,0,.57-8.79c0-3.1494-.33-4.4394-1.4707-4.4394-.96,0-1.77.8105-1.77,2.7,0,1.6494.06,2.85.06,4.4091a47.3305,47.3305,0,0,1-.3594,6c-.09.6309-.36.9-.8105.93a18.97,18.97,0,0,1-1.98.09c-.6,0-1.26-.0293-1.83-.0586-.5693-.0606-.6894-.3008-.6894-.7207,0-.45.3-5.7295.3-9.51,0-2.67-.24-3.7793-1.38-3.7793-1.26,0-1.89,1.2295-1.89,4.1094,0,5.31.39,8.55.39,9.18C565.6592,348.8027,565.3887,349.0117,564.94,349.0723Z"/><path class="cls-4" d="M584.3193,339.7725c0-5.9395,2.55-9.96,7.62-9.96s7.1689,3.84,7.1689,9.96c0,6.81-3.3,9.69-7.59,9.69C587.2891,349.4629,584.3193,346.582,584.3193,339.7725Zm9.51-.42c0-3.45-.78-5.0693-2.1006-5.0693-1.4092,0-2.1592,1.6191-2.1592,5.0693,0,3.42.6,4.92,2.13,4.92C593.2588,344.2725,593.8291,342.7129,593.8291,339.3525Z"/><path class="cls-4" d="M600.43,340.6133c0-6.9,2.1592-10.7695,5.31-10.7695a5.1381,5.1381,0,0,1,3.33,1.5585.427.427,0,0,0,.3.1211c.18,0,.3-.1211.3-.42,0-1.83-.75-5.2207-.75-5.85,0-.4512.3-.6309.72-.66.54-.03,1.11-.0606,1.6806-.0606.81,0,1.6495.03,2.43.09.51.0606.84.21.93,1.02a119.6638,119.6638,0,0,1,.66,12.96,65.0882,65.0882,0,0,1-.4805,8.79,1.3429,1.3429,0,0,1-.93,1.08,17.7785,17.7785,0,0,1-6,.7793C602.6191,349.252,600.43,346.6123,600.43,340.6133Zm9.48-1.92c0-3.3008-.9-4.4707-1.9805-4.4707-1.17,0-1.89,1.35-1.89,5.67,0,4.0195.72,5.1894,2.04,5.1894C609.5186,345.082,609.9092,344.2725,609.9092,338.6934Z"/><path class="cls-4" d="M631.93,324.8633a17.2126,17.2126,0,0,1-.45,2.97c-.0606.24-.21.36-.36.36a10.0473,10.0473,0,0,0-1.14-.211c-.78,0-1.2.6006-1.2,1.6807,0,.42.24.66.84.66.45,0,1.1407-.0908,1.47-.0908.3007,0,.42.1807.5107.541a15.292,15.292,0,0,1,.1494,1.9493,11.5356,11.5356,0,0,1-.24,2.52.4192.4192,0,0,1-.4492.3613c-.3907,0-.9307-.15-1.41-.15-.36,0-.4805.24-.51.8994-.03.5108-.06,1.05-.06,1.71a81.41,81.41,0,0,0,.78,10.17c.0595.3594.03.69-.2705.75a14.1522,14.1522,0,0,1-2.85.24c-.78,0-1.56,0-2.16-.0606-.42-.0293-.75-.09-.7793-.42-.1807-1.89-.24-4.1992-.24-6.3594,0-2.7.12-4.98.15-6.06.0293-.4795-.15-.7793-.57-.7793-.27,0-.51.0293-.6.0293a.4809.4809,0,0,1-.5107-.4795,9.6693,9.6693,0,0,1-.06-1.05,13.4623,13.4623,0,0,1,.36-3.33.4843.4843,0,0,1,.51-.39c.24,0,.54.03.69.03.54,0,.54-.6006.78-2.01.3-2.58,1.6494-4.59,5.01-4.59a4.9424,4.9424,0,0,1,2.28.3594A.7081.7081,0,0,1,631.93,324.8633Z"/><path class="cls-4" d="M639.43,349.4629c-5.4,0-7.2-4.1406-7.2-9.18,0-7.41,3.78-10.4394,8.28-10.4394,3.0293,0,5.3994,1.6191,5.3994,4.9785,0,5.1308-4.29,5.73-6.93,6.9-.93.33-1.32.6-1.32,1.1093,0,.8711.63,1.5606,2.07,1.5606a6.4066,6.4066,0,0,0,5.13-2.43c.18-.15.3-.24.45-.24.42,0,.75.7793.75,2.1894C646.06,347.3926,642.97,349.4629,639.43,349.4629Zm.42-15.45c-1.65,0-2.79,1.8-2.79,3.87,0,.3.09.54.36.54a1.3323,1.3323,0,0,0,.5694-.15c1.2-.72,3.24-1.47,3.24-2.9092A1.2836,1.2836,0,0,0,639.85,334.0127Z"/><path class="cls-4" d="M653.59,349.043c-.57.0293-1.26.0586-2.04.0586s-1.59,0-2.43-.0586a.9211.9211,0,0,1-.84-.8106,45.3529,45.3529,0,0,1-.6006-8.58c0-5.22.24-7.59.51-8.5791a.9258.9258,0,0,1,.57-.75,12.4577,12.4577,0,0,1,2.28-.1806,6.1075,6.1075,0,0,1,1.35.09c.33.0606.42.2705.45.6309s.18.48.33.48a.9631.9631,0,0,0,.51-.2393,3.1814,3.1814,0,0,1,1.89-1.0508c.54,0,.9.69.9,3.0606a10.46,10.46,0,0,1-.24,2.6992c-.15.51-.39.6309-.66.6309-.3593,0-.84-.27-1.41-.27s-1.05.5693-1.05,2.9091c0,3.78,1.26,8.6407,1.26,9.24C654.3691,348.7129,654.19,348.9824,653.59,349.043Z"/><path class="cls-4" d="M672.3994,337.582a95.3363,95.3363,0,0,1-.63,10.62c-.09.57-.39.8409-.84.87a16.4827,16.4827,0,0,1-1.83.06c-.75,0-1.47-.0312-2.1-.06-.4805-.0606-.66-.27-.66-.63,0-1.38.45-6.39.45-10.3194,0-2.1308-.36-3.15-1.4707-3.15a1.8992,1.8992,0,0,0-1.38.54c-.51.48-.72,1.32-.72,3.51,0,4.5.42,8.37.42,9.2705,0,.539-.24.75-.78.7793s-1.1094.06-1.68.06c-.75,0-1.47-.0312-2.01-.06-.51-.0293-.84-.18-.9-.96-.21-2.31-.3593-5.25-.3593-8.64,0-2.43.0595-5.1.2695-7.92.06-.96.63-1.1992,1.41-1.289.54-.0313,1.17-.0606,1.7706-.0606.51,0,1.0195.0293,1.38.0606.54.0293.75.27.75.6894s.1494.57.42.57c.8994,0,2.039-1.59,4.289-1.59C671.05,329.9336,672.3994,332.0029,672.3994,337.582Z"/><path class="cls-4" d="M680.3193,349.0723c-.72.06-1.5595.09-2.43.09s-1.71-.0293-2.46-.09a.7572.7572,0,0,1-.75-.7793,59.2735,59.2735,0,0,1-.36-6.84,66.6252,66.6252,0,0,1,.75-10.4707.8068.8068,0,0,1,.8409-.75c.6591-.0595,1.26-.0595,1.8291-.0595.6005,0,1.2,0,1.86.0595.45.0313.6895.24.6895.6006,0,.66-.21,3.39-.21,6.5693a103.5916,103.5916,0,0,0,.81,11.13C680.89,348.8926,680.6191,349.043,680.3193,349.0723Zm-5.76-22.4991c0-1.59,1.05-2.58,3.27-2.58,2.34,0,3.2695.99,3.2695,2.58,0,1.56-.93,2.46-3.2695,2.46C675.6094,329.0332,674.56,328.1328,674.56,326.5732Z"/><path class="cls-4" d="M688.39,344.9326c1.05,0,1.4991-.42,1.4991-1.17s-.5391-1.2607-2.1895-2.04c-2.88-1.38-5.22-2.6094-5.22-6.1192,0-3.6006,2.7-5.791,6.96-5.791a10.8776,10.8776,0,0,1,4.92,1.08.997.997,0,0,1,.5693.99,11.2069,11.2069,0,0,1-1.0195,3.93.5153.5153,0,0,1-.4805.36.59.59,0,0,1-.42-.1807,7.6278,7.6278,0,0,0-4.26-1.8887c-.96,0-1.4394.4492-1.4394,1.0791,0,.78.54,1.14,2.25,1.92,2.67,1.2,5.64,2.61,5.64,6.33,0,4.0195-2.58,6.03-6.51,6.03-4.0206,0-6.51-1.92-6.51-5.01a5.1745,5.1745,0,0,1,.5693-2.58.5651.5651,0,0,1,.45-.3007.4133.4133,0,0,1,.3906.24A6.0217,6.0217,0,0,0,688.39,344.9326Z"/><path class="cls-4" d="M703.2393,349.4629c-5.4,0-7.2-4.1406-7.2-9.18,0-7.41,3.78-10.4394,8.28-10.4394,3.0293,0,5.3995,1.6191,5.3995,4.9785,0,5.1308-4.29,5.73-6.93,6.9-.93.33-1.32.6-1.32,1.1093,0,.8711.63,1.5606,2.07,1.5606a6.405,6.405,0,0,0,5.13-2.43c.18-.15.3-.24.45-.24.42,0,.75.7793.75,2.1894C709.8691,347.3926,706.7793,349.4629,703.2393,349.4629Zm.42-15.45c-1.65,0-2.79,1.8-2.79,3.87,0,.3.09.54.36.54a1.3319,1.3319,0,0,0,.5693-.15c1.2-.72,3.24-1.47,3.24-2.9092A1.2836,1.2836,0,0,0,703.6592,334.0127Z"/><path class="cls-4" d="M717.3994,349.043c-.57.0293-1.26.0586-2.04.0586s-1.59,0-2.43-.0586a.9213.9213,0,0,1-.84-.8106,45.3637,45.3637,0,0,1-.6005-8.58c0-5.22.24-7.59.51-8.5791a.9259.9259,0,0,1,.57-.75,12.459,12.459,0,0,1,2.28-.1806,6.1075,6.1075,0,0,1,1.35.09c.33.0606.42.2705.45.6309s.18.48.33.48a.9631.9631,0,0,0,.51-.2393,3.1814,3.1814,0,0,1,1.89-1.0508c.54,0,.9.69.9,3.0606a10.46,10.46,0,0,1-.24,2.6992c-.15.51-.39.6309-.66.6309-.3594,0-.84-.27-1.41-.27s-1.05.5693-1.05,2.9091c0,3.78,1.26,8.6407,1.26,9.24C718.1787,348.7129,717.999,348.9824,717.3994,349.043Z"/><path class="cls-4" d="M727.3594,349.0723c-.72.06-1.56.09-2.43.09s-1.71-.0293-2.46-.09a.7567.7567,0,0,1-.75-.7793,59.2749,59.2749,0,0,1-.36-6.84,66.6132,66.6132,0,0,1,.75-10.4707.8067.8067,0,0,1,.8408-.75c.6592-.0595,1.26-.0595,1.8291-.0595.6006,0,1.2,0,1.86.0595.45.0313.69.24.69.6006,0,.66-.21,3.39-.21,6.5693a103.5791,103.5791,0,0,0,.8106,11.13C727.93,348.8926,727.6592,349.043,727.3594,349.0723Zm-5.76-22.4991c0-1.59,1.05-2.58,3.27-2.58,2.34,0,3.2695.99,3.2695,2.58,0,1.56-.93,2.46-3.2695,2.46C722.6494,329.0332,721.6,328.1328,721.6,326.5732Z"/><path class="cls-4" d="M744.3389,337.582a95.3363,95.3363,0,0,1-.63,10.62c-.09.57-.39.8409-.84.87a16.4808,16.4808,0,0,1-1.83.06c-.75,0-1.47-.0312-2.1-.06-.4805-.0606-.66-.27-.66-.63,0-1.38.45-6.39.45-10.3194,0-2.1308-.36-3.15-1.4707-3.15a1.9,1.9,0,0,0-1.38.54c-.51.48-.72,1.32-.72,3.51,0,4.5.42,8.37.42,9.2705,0,.539-.24.75-.78.7793s-1.1093.06-1.68.06c-.75,0-1.47-.0312-2.01-.06-.51-.0293-.84-.18-.9-.96-.21-2.31-.3594-5.25-.3594-8.64,0-2.43.06-5.1.2695-7.92.0606-.96.63-1.1992,1.41-1.289.54-.0313,1.17-.0606,1.77-.0606.51,0,1.0195.0293,1.38.0606.54.0293.75.27.75.6894s.1494.57.42.57c.8994,0,2.0391-1.59,4.2891-1.59C742.9893,329.9336,744.3389,332.0029,744.3389,337.582Z"/><path class="cls-4" d="M753.0391,329.8125c1.26,0,1.7695.1807,2.34.1807.78,0,1.2-1.08,1.83-1.92.3-.5107.63-.75.96-.75.75,0,2.6993,1.89,2.6993,2.67a.5893.5893,0,0,1-.3.51c-.66.36-1.35.72-1.35,1.47,0,.8105,1.32,1.29,1.32,4.1406,0,3.4492-2.19,5.8193-7.05,5.8193-2.58,0-3.3.9893-3.3,1.89,0,.6.33.87,1.0195.87,1.38,0,3.6-1.3194,6.09-1.3194a5.2762,5.2762,0,0,1,2.91.7188,1.1806,1.1806,0,0,1,.54,1.08c0,1.3808-.8408,4.2-1.8008,4.2a1.6138,1.6138,0,0,1-.63-.1494,4.3758,4.3758,0,0,0-2.52-.66c-1.83,0-3.21.96-5.73.96-2.79,0-4.38-1.3506-4.38-3.81a5.7132,5.7132,0,0,1,2.1-4.35c.21-.211.33-.3613.33-.541a.8317.8317,0,0,0-.24-.4493,6.1841,6.1841,0,0,1-1.8-4.5C746.0791,332.123,748.8691,329.8125,753.0391,329.8125Zm.3593,7.8008a1.9777,1.9777,0,0,0,2.1006-2.01,2.0707,2.0707,0,1,0-2.1006,2.01Z"/><path class="cls-4" d="M761.7686,346.373c0-1.9511,1.29-3.09,3.3-3.09,2.1005,0,3.3,1.1387,3.3,3.09,0,1.92-1.1993,2.94-3.3,2.94C763.0586,349.3125,761.7686,348.293,761.7686,346.373Z"/><path class="cls-4" d="M424.4678,392.2715c-.6123-.0352-.9-.18-1.08-.5391-.5039-1.0449-.8994-3.7441-.8994-11.23,0-7.5235.5752-12.2032,1.2236-14.9385.1436-.5762.4678-.792.8281-.8281,1.1875-.0713,2.6993-.1084,4.0313-.1084,8.9629,0,15.0459,3.3125,15.0459,16.27,0,7.3789-2.4834,11.4463-12.5264,11.4463C429.2549,392.3438,425.1875,392.3086,424.4678,392.2715Zm11.9863-12.5977c0-6.1552-2.4121-8.8906-5.0029-8.8906a1.2687,1.2687,0,0,0-.8282.3232c-.6484.6846-.8642,3.42-.8642,7.7032,0,4.4638.2881,6.7314.9717,7.415a1.3457,1.3457,0,0,0,1.0078.3965C434.4746,386.6211,436.4541,384.749,436.4541,379.6738Z"/><path class="cls-4" d="M453.7705,392.74c-6.48,0-8.6387-4.9677-8.6387-11.0156,0-8.8906,4.5352-12.5254,9.9346-12.5254,3.6357,0,6.4785,1.9434,6.4785,5.9746,0,6.1553-5.1465,6.875-8.3144,8.2793-1.1162.3965-1.584.72-1.584,1.3321,0,1.0429.7558,1.871,2.4834,1.871a7.6842,7.6842,0,0,0,6.1553-2.915c.2168-.1807.36-.2881.54-.2881.5039,0,.9.9356.9,2.627C461.7256,390.2559,458.0176,392.74,453.7705,392.74Zm-3.4912-26.2773a9.0241,9.0241,0,0,0,4.2109-5.3984c.2159-.5411.4317-.7559.9356-.7559a21.1624,21.1624,0,0,1,5.1836.7559.918.918,0,0,1,.7558,1.0078c0,1.5117-2.8437,5.7949-8.9267,5.7949a5.7758,5.7758,0,0,1-2.2676-.3242.6256.6256,0,0,1-.36-.5039C449.8105,366.8594,449.9551,366.6426,450.2793,366.4629Zm3.9951,7.7392c-1.98,0-3.3476,2.1592-3.3476,4.6436,0,.3594.1084.6484.4316.6484a1.6163,1.6163,0,0,0,.6846-.1806c1.4394-.8643,3.8867-1.7637,3.8867-3.4912A1.54,1.54,0,0,0,454.2744,374.2021Z"/><path class="cls-4" d="M472.67,365.06a17.1352,17.1352,0,0,0-1.1523,4.247c0,.3243.1806.5039.6845.5039.3594,0,1.1153-.1435,1.6192-.1435.3242,0,.5039.2158.5762.6475a14.647,14.647,0,0,1,.18,2.4121,14.9741,14.9741,0,0,1-.2519,2.8789.5024.5024,0,0,1-.5391.4326c-.4687,0-1.08-.1807-1.7285-.1807-.5752,0-.72.4326-.7558,1.0449a20.2888,20.2888,0,0,0-.1075,2.2315A47.631,47.631,0,0,0,472.85,390.292c.0361.2519.1445.5049.1445.6846a.76.76,0,0,1-.3964.6474,13.599,13.599,0,0,1-5.9034,1.44c-.5039,0-.792-.1084-.9355-.504-.72-1.98-1.1162-6.5156-1.1524-10.5468,0-2.0528.1084-3.9961.1446-5.0762.0361-.6113-.1446-.8633-.54-.8633-.288,0-.6123.0352-.8281.0352-.3242,0-.5039-.18-.54-.6114a6.0517,6.0517,0,0,1-.0713-.9,24.629,24.629,0,0,1,.3594-4.0313c.1084-.6836.3964-.8633.792-.8633.288,0,.54.0352.7919.0352.8643,0,.8995-.791,1.1163-2.627a1.4151,1.4151,0,0,1,.7919-1.4043,15.2741,15.2741,0,0,1,5.5791-1.2949C472.5977,364.4121,472.7422,364.6992,472.67,365.06Z"/><path class="cls-4" d="M489.9131,362.9355a.6867.6867,0,0,1,.54.7559c0,.8281-1.332,3.8516-1.332,6.1553,0,.5762.1807.8642.5762.8642.7558,0,2.3037-1.5478,5.04-1.5478,3.4551,0,5.543,2.2676,5.543,9.4668a92.7263,92.7263,0,0,1-.8643,12.6709c-.1074.6836-.4678.9707-.9717,1.0078-.4316,0-1.2236.0352-2.0879.0352-.9716,0-2.0878-.0352-2.88-.1075-.4678-.0361-.8633-.18-.8633-.8281,0-.8643.9355-6.5879.9355-11.0508,0-4.0312-.54-4.8955-1.8711-4.8955-1.5127,0-2.5918,1.3682-2.5918,5.3633,0,5.6514.3594,9.5391.3594,10.5469,0,.6845-.4678.8281-.9355.8994-.6485.0371-1.5118.0723-2.4121.0723-.9356,0-1.8711-.0352-2.627-.0723-.36-.0352-.7207-.18-.8643-.8633-.18-1.5117-.3242-4.6436-.3242-8.4951a119.4646,119.4646,0,0,1,1.3321-18.8252c.1435-.7207.54-1.08.9355-1.1162a24.0046,24.0046,0,0,1,2.88-.1436A18.3958,18.3958,0,0,1,489.9131,362.9355Z"/><path class="cls-4" d="M509.6768,392.2715c-.8643.0723-1.8721.1084-2.9161.1084s-2.0517-.0361-2.9511-.1084a.9067.9067,0,0,1-.8994-.9356,71.1251,71.1251,0,0,1-.4327-8.207,79.8454,79.8454,0,0,1,.9-12.5625.9656.9656,0,0,1,1.0078-.8994c.792-.0723,1.5118-.0723,2.1954-.0723.72,0,1.44,0,2.2314.0723.54.0361.8281.2881.8281.72,0,.792-.2519,4.0674-.2519,7.8828a124.4253,124.4253,0,0,0,.9717,13.3545C510.36,392.0566,510.0371,392.2363,509.6768,392.2715Zm-6.9112-26.9961c0-1.9082,1.26-3.0957,3.9239-3.0957,2.8076,0,3.9228,1.1875,3.9228,3.0957,0,1.8711-1.1152,2.9512-3.9228,2.9512C504.0254,368.2266,502.7656,367.1465,502.7656,365.2754Z"/><path class="cls-4" d="M514.8965,393.1c-.54,0-.9356-.2158-1.2236-1.3672a57.8155,57.8155,0,0,1-1.044-11.7715c0-9.6464.7559-10.7978,6.8389-10.7978,8.1709,0,10.4033,3.6709,10.4033,8.458,0,7.8477-3.9961,11.7715-6.8037,11.7715-1.6553,0-2.8076-2.4473-3.419-2.4473-.288,0-.4326.252-.4326.5752a19.5724,19.5724,0,0,0,.7207,4.2471c0,.3965-.3242.5762-.792.6845A33.25,33.25,0,0,1,514.8965,393.1Zm4.14-13.3535c0,3.5625.8282,4.3906,1.9434,4.3906,1.62,0,2.4482-2.664,2.4482-6.6582,0-2.52-.9-3.5644-2.7-3.5644C519.54,373.9141,519.0361,374.9941,519.0361,379.7461Z"/><path class="cls-4" d="M538.3682,387.3047c1.26,0,1.8-.5039,1.8-1.4043s-.6485-1.5117-2.628-2.4473c-3.455-1.6562-6.2636-3.1318-6.2636-7.3437,0-4.3184,3.24-6.9463,8.3515-6.9463a13.0325,13.0325,0,0,1,5.9033,1.2959,1.193,1.193,0,0,1,.6836,1.1875,13.4254,13.4254,0,0,1-1.2236,4.7148.62.62,0,0,1-.5762.4326.7137.7137,0,0,1-.5039-.2158,9.1546,9.1546,0,0,0-5.1113-2.2676c-1.1514,0-1.7275.5391-1.7275,1.295,0,.9365.6474,1.3691,2.6992,2.3047,3.2041,1.4394,6.7676,3.1308,6.7676,7.5947,0,4.8232-3.0957,7.2353-7.8116,7.2353-4.8232,0-7.81-2.3047-7.81-6.0117a6.2,6.2,0,0,1,.6836-3.0957.6784.6784,0,0,1,.54-.3594.4942.4942,0,0,1,.4678.2871C533.6523,385.3613,535.8486,387.3047,538.3682,387.3047Z"/><path class="cls-4" d="M556.3311,364.4121a.4628.4628,0,0,1,.5039.4668c0,.541-1.1875,2.7-1.1875,4.4277,0,.3243.18.5039.5761.5039.4678,0,1.2237-.1435,1.7276-.1435.3242,0,.5039.2158.5761.6475a15.2181,15.2181,0,0,1,.18,2.4472,14.9393,14.9393,0,0,1-.2519,2.8438.5039.5039,0,0,1-.54.4326c-.4677,0-1.08-.1807-1.7275-.1807-.54,0-.6836.3242-.7559,1.26a20.09,20.09,0,0,0-.1084,2.2324,45.34,45.34,0,0,0,1.7276,11.2305,2.3367,2.3367,0,0,1,.0722.3965.7588.7588,0,0,1-.3955.6474,14.1969,14.1969,0,0,1-6.0117,1.44.771.771,0,0,1-.8281-.504,23.8277,23.8277,0,0,1-1.1152-8.1718c0-3.6.3955-6.5147.4316-7.6309.0361-.3965-.1074-.54-.4316-.6113a2.8765,2.8765,0,0,0-.4678-.0723.6684.6684,0,0,1-.5762-.7558,39.7586,39.7586,0,0,1,.2881-4.8594c.1074-.54.3242-.7559.6475-.7559h.54c.4678,0,.54-.5761.6484-1.8359.1436-1.5117.2159-1.7637.8995-2.16A14.4212,14.4212,0,0,1,556.3311,364.4121Z"/><path class="cls-4" d="M568.1387,392.74c-6.4795,0-8.6387-4.9677-8.6387-11.0156,0-8.8906,4.5352-12.5254,9.9346-12.5254,3.6357,0,6.4785,1.9434,6.4785,5.9746,0,6.1553-5.1465,6.875-8.3145,8.2793-1.1162.3965-1.584.72-1.584,1.3321,0,1.0429.7559,1.871,2.4834,1.871a7.6841,7.6841,0,0,0,6.1553-2.915c.2168-.1807.36-.2881.54-.2881.5039,0,.9.9356.9,2.627C576.0938,390.2559,572.3857,392.74,568.1387,392.74Zm.5039-18.5381c-1.98,0-3.3477,2.1592-3.3477,4.6436,0,.3594.1084.6484.4317.6484a1.6159,1.6159,0,0,0,.6845-.1806c1.4395-.8643,3.8868-1.7637,3.8868-3.4912A1.54,1.54,0,0,0,568.6426,374.2021Z"/><path class="cls-4" d="M585.13,392.2363c-.6836.0352-1.5117.0723-2.4473.0723s-1.9082,0-2.916-.0723a1.1046,1.1046,0,0,1-1.0078-.9726,54.4933,54.4933,0,0,1-.72-10.2949c0-6.2627.288-9.1065.6123-10.294a1.1083,1.1083,0,0,1,.6836-.8994,14.9931,14.9931,0,0,1,2.7353-.2168,7.2862,7.2862,0,0,1,1.62.1084c.3955.0713.5039.3232.54.7559s.2158.5751.3955.5751a1.1494,1.1494,0,0,0,.6123-.2871,3.8206,3.8206,0,0,1,2.2676-1.26c.6484,0,1.08.8281,1.08,3.6718a12.5434,12.5434,0,0,1-.288,3.2383c-.18.6133-.4678.7559-.792.7559-.4317,0-1.0079-.3233-1.6914-.3233s-1.26.6846-1.26,3.4913c0,4.5351,1.5117,10.3671,1.5117,11.0869C586.0664,391.84,585.8506,392.1641,585.13,392.2363Z"/><path class="cls-4" d="M598.126,364.8789a.6957.6957,0,0,1,.6845.7559,87.4118,87.4118,0,0,0-1.98,16.666c-.0352.9726-.4317,1.26-2.1953,1.44a10.2523,10.2523,0,0,1-1.4034.0713c-.9,0-1.332-.18-1.5126-.8271A52.72,52.72,0,0,1,590.207,372.51c-.1074-2.1592-.1435-3.9229-.1435-6.19.0361-.792.2158-1.3681,1.3681-1.4755.8633-.0723,2.0518-.1084,3.2754-.1084A31.7151,31.7151,0,0,1,598.126,364.8789Zm-7.8828,24.1533c0-2.3388,1.5478-3.708,3.96-3.708,2.52,0,3.959,1.3692,3.959,3.708,0,2.3037-1.4394,3.5283-3.959,3.5283C591.791,392.5605,590.2432,391.3359,590.2432,389.0322Z"/></g></svg>
