<svg xmlns="http://www.w3.org/2000/svg" width="1920" height="1080" viewBox="0 0 1920 1080"><defs><style>.cls-1{fill:#81aa93;}.cls-2{fill:#fcfcfc;}.cls-16,.cls-3{fill:#5b5551;}.cls-3{opacity:0.45;}.cls-4{fill:#ceb38a;}.cls-5{fill:#f4edea;}.cls-6{fill:#fc9;}.cls-7{fill:#f4ebe6;}.cls-8{fill:#f4e1d3;}.cls-9{fill:#d3aa85;}.cls-10{fill:#63412a;}.cls-11{opacity:0.38;}.cls-12{fill:#a88a7d;}.cls-13{fill:#020202;}.cls-14{fill:#e49c6d;}.cls-15{fill:#fff;}.cls-17{fill:#454545;}.cls-18{opacity:0.12;}.cls-19{fill:#f9f9f9;}.cls-20{fill:#72513b;}.cls-21{fill:#5b5656;}.cls-22{fill:#af1212;}.cls-23{fill:#684127;}.cls-24{fill:#3a2012;}.cls-25{fill:#281407;}.cls-26{opacity:0.84;}.cls-27{fill:#4c2d1c;}.cls-28,.cls-31,.cls-36,.cls-37{fill:none;stroke-linecap:round;stroke-linejoin:round;}.cls-28{stroke:#7f522d;}.cls-28,.cls-31,.cls-37{stroke-width:6px;}.cls-29{fill:#f7e4d7;}.cls-30{fill:#f2a672;}.cls-31{stroke:#050505;}.cls-32{fill:#050505;}.cls-33{fill:#edcfbc;}.cls-34{fill:#100f3f;}.cls-35{fill:#efe3dc;}.cls-36{stroke:#312f84;stroke-width:12px;}.cls-37{stroke:#020202;}.cls-38{fill:#d3c9c2;}</style></defs><title>Artboard_spilside</title><g id="kaffebønner"><rect class="cls-1" width="1920" height="1079"/><path class="cls-2" d="M1518.07,0C1651.6781,148.1809,1733,344.346,1733,559.4871a832.1816,832.1816,0,0,1-181.0892,519.52c-2.4431,3.0746-1309.4715,2.9576-1311.82.0026A832.1818,832.1818,0,0,1,59,559.4871C59,344.3473,140.3209,148.1833,273.9281.0027"/><polygon class="cls-3" points="1918 280.747 1920 1079.002 1178 1081 789.132 737.331 1534 0.009 1918 280.747"/><path class="cls-4" d="M1534.07,0C1667.6781,148.1809,1749,344.346,1749,559.4871a832.1816,832.1816,0,0,1-181.0892,519.52c-2.4431,3.0746-1309.4715,2.9576-1311.82.0026A832.1818,832.1818,0,0,1,75,559.4871C75,344.3473,156.3209,148.1833,289.9281.0027"/><circle class="cls-5" cx="261.2047" cy="314.3467" r="131.6754"/><circle class="cls-6" cx="266.074" cy="318.8103" r="131.6754"/><circle class="cls-5" cx="260.3685" cy="312.6234" r="103.9406"/><rect class="cls-7" x="302.8032" y="208.9703" width="49.4059" height="17.0648" rx="8.5324" ry="8.5324" transform="translate(-38.5718 360.8715) rotate(-54.9759)"/><circle class="cls-8" cx="266.3332" cy="319.0695" r="103.9406"/><circle class="cls-8" cx="266.3332" cy="319.0695" r="103.9406"/><rect class="cls-8" x="306.4552" y="210.9992" width="49.4059" height="17.0648" rx="8.5324" ry="8.5324" transform="translate(-38.6773 364.7266) rotate(-54.9759)"/><circle class="cls-9" cx="266.4879" cy="319.221" r="90.2883"/><path class="cls-10" d="M338.9114,318.81c5.1134,46.4816-28.519,76.8307-72.6345,71.62-39.7267-4.6923-76.2519-35.6122-57.6207-71.0114,8.1156-15.42,3.77-29.8408,11.3619-38.9548,10.249-12.3049,27.9987-4.4636,50.3166-17.8543C304.6369,242.0286,334.5371,279.0473,338.9114,318.81Z"/><circle class="cls-10" cx="195.2655" cy="306.434" r="4.4636"/><circle class="cls-10" cx="199.3233" cy="291.826" r="4.4636"/><circle class="cls-10" cx="203.7869" cy="277.2179" r="4.4636"/><circle class="cls-10" cx="245.5822" cy="261.3925" r="4.4636"/><circle class="cls-10" cx="241.3215" cy="243.3354" r="3.0433"/><circle class="cls-10" cx="249.2342" cy="245.1614" r="1.6231"/><circle class="cls-10" cx="210.6851" cy="263.8272" r="1.6231"/><circle class="cls-10" cx="215.5545" cy="258.9579" r="1.6231"/><circle class="cls-10" cx="249.2342" cy="253.6827" r="1.6231"/><circle class="cls-10" cx="226.5105" cy="265.4503" r="1.6231"/><circle class="cls-10" cx="229.7568" cy="268.2908" r="1.6231"/><circle class="cls-10" cx="238.2781" cy="268.2908" r="1.6231"/><circle class="cls-10" cx="192.4251" cy="284.522" r="1.6231"/><circle class="cls-10" cx="190.8019" cy="296.2896" r="1.6231"/><circle class="cls-10" cx="203.7869" cy="301.9705" r="1.6231"/><circle class="cls-10" cx="201.3522" cy="312.5207" r="1.6231"/><circle class="cls-10" cx="192.4251" cy="314.1438" r="1.6231"/><circle class="cls-10" cx="215.5545" cy="280.0584" r="1.6231"/><circle class="cls-10" cx="213.9314" cy="275.5948" r="1.6231"/><circle class="cls-10" cx="211.4967" cy="270.7255" r="1.6231"/><circle class="cls-10" cx="292.2468" cy="245.1614" r="1.6231"/><circle class="cls-10" cx="257.7555" cy="254.4943" r="2.4347"/><circle class="cls-10" cx="257.7555" cy="243.1325" r="2.4347"/><circle class="cls-10" cx="263.8422" cy="251.2481" r="2.4347"/><circle class="cls-10" cx="234.6261" cy="261.3925" r="2.4347"/><circle class="cls-10" cx="273.1751" cy="253.2769" r="2.4347"/><circle class="cls-10" cx="286.5659" cy="248.8134" r="2.4347"/><circle class="cls-10" cx="286.5659" cy="238.2631" r="2.4347"/><circle class="cls-10" cx="210.888" cy="287.5653" r="3.0433"/><circle class="cls-10" cx="219.2065" cy="268.2908" r="4.4636"/><circle class="cls-10" cx="228.1336" cy="253.5698" r="6.6792"/><circle class="cls-10" cx="273.1751" cy="243.0196" r="6.6792"/><g class="cls-11"><path class="cls-12" d="M354.331,298.7242c-.928-4.64-18.981-21.034-43.8242-35.3028-23.2425-13.3494-56.7613-12.745-75.8807-4.8693-16.298,6.7135-31.1007,29.9252-34.897,53.9686-3.652,23.13,1.6231,68.5767,1.6231,68.5767-.5012.78-2.1386-1.2829-4.0578-3.652a81.8169,81.8169,0,0,1-7.71-10.956,130.5522,130.5522,0,0,1-6.8982-13.3907c-18.6659-46.6647,4.2372-98.85,50.8493-117.7021s97.6659,4.49,117.5491,51.1543"/></g><circle class="cls-5" cx="293.1511" cy="312.9016" r="15.2167"/><circle class="cls-5" cx="258.0686" cy="321.4728" r="15.2167"/><circle class="cls-13" cx="257.3498" cy="322.2594" r="6.4925"/><circle class="cls-13" cx="293.0583" cy="312.9265" r="6.4925"/><circle class="cls-5" cx="509.2047" cy="138.3467" r="131.6754"/><circle class="cls-6" cx="514.074" cy="142.8103" r="131.6754"/><circle class="cls-5" cx="508.3685" cy="136.6234" r="103.9406"/><rect class="cls-7" x="550.8032" y="32.9703" width="49.4059" height="17.0648" rx="8.5324" ry="8.5324" transform="translate(211.2239 488.9714) rotate(-54.9759)"/><circle class="cls-8" cx="514.3332" cy="143.0695" r="103.9406"/><circle class="cls-8" cx="514.3332" cy="143.0695" r="103.9406"/><rect class="cls-8" x="554.4552" y="34.9992" width="49.4059" height="17.0648" rx="8.5324" ry="8.5324" transform="translate(211.1185 492.8265) rotate(-54.9759)"/><circle class="cls-9" cx="514.4879" cy="143.221" r="90.2883"/><path class="cls-10" d="M586.9114,142.81c5.1134,46.4816-28.519,76.8307-72.6345,71.62-39.7267-4.6923-76.2519-35.6122-57.6207-71.0114,8.1156-15.42,3.77-29.8408,11.3619-38.9548,10.249-12.3049,27.9987-4.4636,50.3166-17.8543C552.6369,66.0286,582.5371,103.0473,586.9114,142.81Z"/><circle class="cls-10" cx="443.2655" cy="130.434" r="4.4636"/><circle class="cls-10" cx="447.3233" cy="115.826" r="4.4636"/><circle class="cls-10" cx="451.7869" cy="101.2179" r="4.4636"/><circle class="cls-10" cx="493.5822" cy="85.3925" r="4.4636"/><circle class="cls-10" cx="489.3215" cy="67.3354" r="3.0433"/><circle class="cls-10" cx="497.2342" cy="69.1614" r="1.6231"/><circle class="cls-10" cx="458.6851" cy="87.8272" r="1.6231"/><circle class="cls-10" cx="463.5545" cy="82.9579" r="1.6231"/><circle class="cls-10" cx="497.2342" cy="77.6827" r="1.6231"/><circle class="cls-10" cx="474.5105" cy="89.4503" r="1.6231"/><circle class="cls-10" cx="477.7568" cy="92.2908" r="1.6231"/><circle class="cls-10" cx="486.2781" cy="92.2908" r="1.6231"/><circle class="cls-10" cx="440.4251" cy="108.522" r="1.6231"/><circle class="cls-10" cx="438.8019" cy="120.2896" r="1.6231"/><circle class="cls-10" cx="451.7869" cy="125.9705" r="1.6231"/><circle class="cls-10" cx="449.3522" cy="136.5207" r="1.6231"/><circle class="cls-10" cx="440.4251" cy="138.1438" r="1.6231"/><circle class="cls-10" cx="463.5545" cy="104.0584" r="1.6231"/><circle class="cls-10" cx="461.9314" cy="99.5948" r="1.6231"/><circle class="cls-10" cx="459.4967" cy="94.7255" r="1.6231"/><circle class="cls-10" cx="540.2468" cy="69.1614" r="1.6231"/><circle class="cls-10" cx="505.7555" cy="78.4943" r="2.4347"/><circle class="cls-10" cx="505.7555" cy="67.1325" r="2.4347"/><circle class="cls-10" cx="511.8422" cy="75.2481" r="2.4347"/><circle class="cls-10" cx="482.6261" cy="85.3925" r="2.4347"/><circle class="cls-10" cx="521.1751" cy="77.2769" r="2.4347"/><circle class="cls-10" cx="534.5659" cy="72.8134" r="2.4347"/><circle class="cls-10" cx="534.5659" cy="62.2631" r="2.4347"/><circle class="cls-10" cx="458.888" cy="111.5653" r="3.0433"/><circle class="cls-10" cx="467.2065" cy="92.2908" r="4.4636"/><circle class="cls-10" cx="476.1336" cy="77.5698" r="6.6792"/><circle class="cls-10" cx="521.1751" cy="67.0196" r="6.6792"/><g class="cls-11"><path class="cls-12" d="M602.331,122.7242c-.928-4.64-18.981-21.034-43.8242-35.3028-23.2425-13.3494-56.7613-12.745-75.8807-4.8693-16.298,6.7135-31.1007,29.9252-34.897,53.9686-3.652,23.13,1.6231,68.5767,1.6231,68.5767-.5012.78-2.1386-1.2829-4.0578-3.652a81.8169,81.8169,0,0,1-7.71-10.956,130.5522,130.5522,0,0,1-6.8982-13.3907c-18.6659-46.6647,4.2372-98.85,50.8493-117.7021s97.6659,4.49,117.5491,51.1543"/></g><circle class="cls-5" cx="541.1511" cy="136.9016" r="15.2167"/><circle class="cls-5" cx="506.0686" cy="145.4728" r="15.2167"/><circle class="cls-13" cx="505.3498" cy="146.2594" r="6.4925"/><circle class="cls-13" cx="541.0583" cy="136.9265" r="6.4925"/><circle class="cls-5" cx="1577.9511" cy="415.948" r="131.6754"/><circle class="cls-6" cx="1582.8205" cy="420.4116" r="131.6754"/><circle class="cls-5" cx="1577.115" cy="414.2247" r="103.9406"/><rect class="cls-7" x="1619.5497" y="310.5716" width="49.4059" height="17.0648" rx="8.5324" ry="8.5324" transform="translate(439.2635 1482.4591) rotate(-54.9759)"/><circle class="cls-8" cx="1583.0797" cy="420.6708" r="103.9406"/><circle class="cls-8" cx="1583.0797" cy="420.6708" r="103.9406"/><rect class="cls-8" x="1623.2017" y="312.6005" width="49.4059" height="17.0648" rx="8.5324" ry="8.5324" transform="translate(439.1579 1486.3141) rotate(-54.9759)"/><circle class="cls-9" cx="1583.2344" cy="420.8224" r="90.2883"/><path class="cls-10" d="M1655.6579,420.4116c5.1134,46.4816-28.519,76.8308-72.6345,71.62-39.7268-4.6923-76.2519-35.6121-57.6207-71.0114,8.1156-15.42,3.77-29.8408,11.3618-38.9548,10.249-12.3049,27.9988-4.4636,50.3167-17.8543C1621.3833,343.63,1651.2836,380.6486,1655.6579,420.4116Z"/><circle class="cls-10" cx="1512.012" cy="408.0353" r="4.4636"/><circle class="cls-10" cx="1516.0698" cy="393.4273" r="4.4636"/><circle class="cls-10" cx="1520.5334" cy="378.8192" r="4.4636"/><circle class="cls-10" cx="1562.3286" cy="362.9938" r="4.4636"/><circle class="cls-10" cx="1558.0679" cy="344.9367" r="3.0433"/><circle class="cls-10" cx="1565.9806" cy="346.7627" r="1.6231"/><circle class="cls-10" cx="1527.4316" cy="365.4285" r="1.6231"/><circle class="cls-10" cx="1532.301" cy="360.5592" r="1.6231"/><circle class="cls-10" cx="1565.9806" cy="355.284" r="1.6231"/><circle class="cls-10" cx="1543.257" cy="367.0516" r="1.6231"/><circle class="cls-10" cx="1546.5032" cy="369.8921" r="1.6231"/><circle class="cls-10" cx="1555.0246" cy="369.8921" r="1.6231"/><circle class="cls-10" cx="1509.1715" cy="386.1233" r="1.6231"/><circle class="cls-10" cx="1507.5484" cy="397.8909" r="1.6231"/><circle class="cls-10" cx="1520.5334" cy="403.5718" r="1.6231"/><circle class="cls-10" cx="1518.0987" cy="414.122" r="1.6231"/><circle class="cls-10" cx="1509.1715" cy="415.7452" r="1.6231"/><circle class="cls-10" cx="1532.301" cy="381.6597" r="1.6231"/><circle class="cls-10" cx="1530.6778" cy="377.1961" r="1.6231"/><circle class="cls-10" cx="1528.2432" cy="372.3268" r="1.6231"/><circle class="cls-10" cx="1608.9932" cy="346.7627" r="1.6231"/><circle class="cls-10" cx="1574.502" cy="356.0956" r="2.4347"/><circle class="cls-10" cx="1574.502" cy="344.7338" r="2.4347"/><circle class="cls-10" cx="1580.5887" cy="352.8494" r="2.4347"/><circle class="cls-10" cx="1551.3726" cy="362.9938" r="2.4347"/><circle class="cls-10" cx="1589.9216" cy="354.8783" r="2.4347"/><circle class="cls-10" cx="1603.3123" cy="350.4147" r="2.4347"/><circle class="cls-10" cx="1603.3123" cy="339.8644" r="2.4347"/><circle class="cls-10" cx="1527.6345" cy="389.1666" r="3.0433"/><circle class="cls-10" cx="1535.953" cy="369.8921" r="4.4636"/><circle class="cls-10" cx="1544.8801" cy="355.1712" r="6.6792"/><circle class="cls-10" cx="1589.9216" cy="344.6209" r="6.6792"/><g class="cls-11"><path class="cls-12" d="M1671.0775,400.3255c-.9281-4.64-18.9811-21.034-43.8242-35.3028-23.2425-13.3494-56.7613-12.745-75.8807-4.8693-16.298,6.7135-31.1008,29.9252-34.897,53.9686-3.6521,23.13,1.6231,68.5767,1.6231,68.5767-.5013.78-2.1386-1.2828-4.0578-3.652a81.7986,81.7986,0,0,1-7.71-10.956,130.5555,130.5555,0,0,1-6.8983-13.3907c-18.6658-46.6647,4.2372-98.85,50.8494-117.702s97.6659,4.49,117.549,51.1542"/></g><circle class="cls-5" cx="1609.8975" cy="414.5029" r="15.2167"/><circle class="cls-5" cx="1574.8151" cy="423.0741" r="15.2167"/><circle class="cls-13" cx="1574.0962" cy="423.8607" r="6.4925"/><circle class="cls-13" cx="1609.8048" cy="414.5278" r="6.4925"/><circle class="cls-5" cx="641.9541" cy="853.2968" r="131.6754"/><circle class="cls-6" cx="646.8234" cy="857.7603" r="131.6754"/><circle class="cls-5" cx="641.1179" cy="851.5734" r="103.9406"/><rect class="cls-7" x="683.5526" y="747.9203" width="49.4059" height="17.0648" rx="8.5324" ry="8.5324" transform="translate(-317.6944 902.3062) rotate(-54.9759)"/><circle class="cls-8" cx="647.0826" cy="858.0195" r="103.9406"/><circle class="cls-8" cx="647.0826" cy="858.0195" r="103.9406"/><rect class="cls-8" x="687.2046" y="749.9492" width="49.4059" height="17.0648" rx="8.5324" ry="8.5324" transform="translate(-317.7999 906.1614) rotate(-54.9759)"/><circle class="cls-9" cx="647.2373" cy="858.1711" r="90.2883"/><path class="cls-10" d="M719.6608,857.76c5.1134,46.4816-28.519,76.8308-72.6345,71.62-39.7267-4.6923-76.2519-35.6121-57.6207-71.0114,8.1156-15.42,3.77-29.8408,11.3619-38.9548,10.249-12.3049,27.9987-4.4636,50.3166-17.8543C685.3863,780.9786,715.2865,817.9973,719.6608,857.76Z"/><circle class="cls-10" cx="576.0149" cy="845.3841" r="4.4636"/><circle class="cls-10" cx="580.0727" cy="830.776" r="4.4636"/><circle class="cls-10" cx="584.5363" cy="816.1679" r="4.4636"/><circle class="cls-10" cx="626.3316" cy="800.3425" r="4.4636"/><circle class="cls-10" cx="622.0709" cy="782.2854" r="3.0433"/><circle class="cls-10" cx="629.9836" cy="784.1114" r="1.6231"/><circle class="cls-10" cx="591.4345" cy="802.7772" r="1.6231"/><circle class="cls-10" cx="596.3039" cy="797.9079" r="1.6231"/><circle class="cls-10" cx="629.9836" cy="792.6327" r="1.6231"/><circle class="cls-10" cx="607.2599" cy="804.4003" r="1.6231"/><circle class="cls-10" cx="610.5062" cy="807.2408" r="1.6231"/><circle class="cls-10" cx="619.0275" cy="807.2408" r="1.6231"/><circle class="cls-10" cx="573.1745" cy="823.472" r="1.6231"/><circle class="cls-10" cx="571.5513" cy="835.2396" r="1.6231"/><circle class="cls-10" cx="584.5363" cy="840.9205" r="1.6231"/><circle class="cls-10" cx="582.1016" cy="851.4707" r="1.6231"/><circle class="cls-10" cx="573.1745" cy="853.0939" r="1.6231"/><circle class="cls-10" cx="596.3039" cy="819.0084" r="1.6231"/><circle class="cls-10" cx="594.6808" cy="814.5448" r="1.6231"/><circle class="cls-10" cx="592.2461" cy="809.6755" r="1.6231"/><circle class="cls-10" cx="672.9962" cy="784.1114" r="1.6231"/><circle class="cls-10" cx="638.5049" cy="793.4443" r="2.4347"/><circle class="cls-10" cx="638.5049" cy="782.0825" r="2.4347"/><circle class="cls-10" cx="644.5916" cy="790.1981" r="2.4347"/><circle class="cls-10" cx="615.3755" cy="800.3425" r="2.4347"/><circle class="cls-10" cx="653.9245" cy="792.227" r="2.4347"/><circle class="cls-10" cx="667.3153" cy="787.7634" r="2.4347"/><circle class="cls-10" cx="667.3153" cy="777.2131" r="2.4347"/><circle class="cls-10" cx="591.6374" cy="826.5153" r="3.0433"/><circle class="cls-10" cx="599.9559" cy="807.2408" r="4.4636"/><circle class="cls-10" cx="608.883" cy="792.5199" r="6.6792"/><circle class="cls-10" cx="653.9245" cy="781.9696" r="6.6792"/><g class="cls-11"><path class="cls-12" d="M735.08,837.6742c-.928-4.64-18.981-21.034-43.8242-35.3028-23.2425-13.3494-56.7613-12.745-75.8807-4.8693-16.298,6.7135-31.1007,29.9252-34.897,53.9686-3.652,23.13,1.6231,68.5767,1.6231,68.5767-.5012.78-2.1386-1.2828-4.0578-3.652a81.8169,81.8169,0,0,1-7.71-10.956,130.5522,130.5522,0,0,1-6.8982-13.3907c-18.6659-46.6646,4.2372-98.85,50.8493-117.702s97.6659,4.4895,117.5491,51.1542"/></g><circle class="cls-5" cx="673.9005" cy="851.8516" r="15.2167"/><circle class="cls-5" cx="638.818" cy="860.4228" r="15.2167"/><circle class="cls-13" cx="638.0992" cy="861.2094" r="6.4925"/><circle class="cls-13" cx="673.8077" cy="851.8765" r="6.4925"/><circle class="cls-5" cx="238.9541" cy="620.2968" r="131.6754"/><circle class="cls-6" cx="243.8234" cy="624.7603" r="131.6754"/><circle class="cls-5" cx="238.1179" cy="618.5734" r="103.9406"/><rect class="cls-7" x="280.5526" y="514.9203" width="49.4059" height="17.0648" rx="8.5324" ry="8.5324" transform="translate(-298.598 473.009) rotate(-54.9759)"/><circle class="cls-8" cx="244.0826" cy="625.0195" r="103.9406"/><circle class="cls-8" cx="244.0826" cy="625.0195" r="103.9406"/><rect class="cls-8" x="284.2046" y="516.9492" width="49.4059" height="17.0648" rx="8.5324" ry="8.5324" transform="translate(-298.7035 476.8642) rotate(-54.9759)"/><circle class="cls-9" cx="244.2373" cy="625.1711" r="90.2883"/><path class="cls-10" d="M316.6608,624.76c5.1134,46.4816-28.519,76.8308-72.6345,71.62-39.7267-4.6923-76.2519-35.6121-57.6207-71.0114,8.1156-15.42,3.77-29.8408,11.3619-38.9548,10.249-12.3049,27.9987-4.4636,50.3166-17.8543C282.3863,547.9786,312.2865,584.9973,316.6608,624.76Z"/><circle class="cls-10" cx="173.0149" cy="612.3841" r="4.4636"/><circle class="cls-10" cx="177.0727" cy="597.776" r="4.4636"/><circle class="cls-10" cx="181.5363" cy="583.1679" r="4.4636"/><circle class="cls-10" cx="223.3316" cy="567.3425" r="4.4636"/><circle class="cls-10" cx="219.0709" cy="549.2854" r="3.0433"/><circle class="cls-10" cx="226.9836" cy="551.1114" r="1.6231"/><circle class="cls-10" cx="188.4345" cy="569.7772" r="1.6231"/><circle class="cls-10" cx="193.3039" cy="564.9079" r="1.6231"/><circle class="cls-10" cx="226.9836" cy="559.6327" r="1.6231"/><circle class="cls-10" cx="204.2599" cy="571.4003" r="1.6231"/><circle class="cls-10" cx="207.5062" cy="574.2408" r="1.6231"/><circle class="cls-10" cx="216.0275" cy="574.2408" r="1.6231"/><circle class="cls-10" cx="170.1745" cy="590.472" r="1.6231"/><circle class="cls-10" cx="168.5513" cy="602.2396" r="1.6231"/><circle class="cls-10" cx="181.5363" cy="607.9205" r="1.6231"/><circle class="cls-10" cx="179.1016" cy="618.4707" r="1.6231"/><circle class="cls-10" cx="170.1745" cy="620.0939" r="1.6231"/><circle class="cls-10" cx="193.3039" cy="586.0084" r="1.6231"/><circle class="cls-10" cx="191.6808" cy="581.5448" r="1.6231"/><circle class="cls-10" cx="189.2461" cy="576.6755" r="1.6231"/><circle class="cls-10" cx="269.9962" cy="551.1114" r="1.6231"/><circle class="cls-10" cx="235.5049" cy="560.4443" r="2.4347"/><circle class="cls-10" cx="235.5049" cy="549.0825" r="2.4347"/><circle class="cls-10" cx="241.5916" cy="557.1981" r="2.4347"/><circle class="cls-10" cx="212.3755" cy="567.3425" r="2.4347"/><circle class="cls-10" cx="250.9245" cy="559.227" r="2.4347"/><circle class="cls-10" cx="264.3153" cy="554.7634" r="2.4347"/><circle class="cls-10" cx="264.3153" cy="544.2131" r="2.4347"/><circle class="cls-10" cx="188.6374" cy="593.5153" r="3.0433"/><circle class="cls-10" cx="196.9559" cy="574.2408" r="4.4636"/><circle class="cls-10" cx="205.883" cy="559.5199" r="6.6792"/><circle class="cls-10" cx="250.9245" cy="548.9696" r="6.6792"/><g class="cls-11"><path class="cls-12" d="M332.08,604.6742c-.928-4.64-18.981-21.034-43.8242-35.3028-23.2425-13.3494-56.7613-12.745-75.8807-4.8693-16.298,6.7135-31.1007,29.9252-34.897,53.9686-3.652,23.13,1.6231,68.5767,1.6231,68.5767-.5012.78-2.1386-1.2828-4.0578-3.652a81.8169,81.8169,0,0,1-7.71-10.956,130.5522,130.5522,0,0,1-6.8982-13.3907c-18.6659-46.6646,4.2372-98.85,50.8493-117.702s97.6659,4.4895,117.5491,51.1542"/></g><circle class="cls-5" cx="270.9005" cy="618.8516" r="15.2167"/><circle class="cls-5" cx="235.818" cy="627.4228" r="15.2167"/><circle class="cls-13" cx="235.0992" cy="628.2094" r="6.4925"/><circle class="cls-13" cx="270.8077" cy="618.8765" r="6.4925"/><circle class="cls-5" cx="1348.9541" cy="936.2968" r="131.6754"/><circle class="cls-6" cx="1353.8234" cy="940.7603" r="131.6754"/><circle class="cls-5" cx="1348.1179" cy="934.5734" r="103.9406"/><rect class="cls-7" x="1390.5526" y="830.9203" width="49.4059" height="17.0648" rx="8.5324" ry="8.5324" transform="matrix(0.5739, -0.8189, 0.8189, 0.5739, -84.4264, 1516.6404)"/><circle class="cls-8" cx="1354.0826" cy="941.0195" r="103.9406"/><circle class="cls-8" cx="1354.0826" cy="941.0195" r="103.9406"/><rect class="cls-8" x="1394.2046" y="832.9492" width="49.4059" height="17.0648" rx="8.5324" ry="8.5324" transform="translate(-84.5318 1520.4957) rotate(-54.9759)"/><circle class="cls-9" cx="1354.2373" cy="941.1711" r="90.2883"/><path class="cls-10" d="M1426.6608,940.76c5.1134,46.4816-28.519,76.8308-72.6345,71.62-39.7267-4.6923-76.2519-35.6121-57.6207-71.0114,8.1156-15.42,3.77-29.8408,11.3619-38.9548,10.249-12.3049,27.9987-4.4636,50.3166-17.8543C1392.3863,863.9786,1422.2865,900.9973,1426.6608,940.76Z"/><circle class="cls-10" cx="1283.0149" cy="928.3841" r="4.4636"/><circle class="cls-10" cx="1287.0727" cy="913.776" r="4.4636"/><circle class="cls-10" cx="1291.5363" cy="899.1679" r="4.4636"/><circle class="cls-10" cx="1333.3316" cy="883.3425" r="4.4636"/><circle class="cls-10" cx="1329.0709" cy="865.2854" r="3.0433"/><circle class="cls-10" cx="1336.9836" cy="867.1114" r="1.6231"/><circle class="cls-10" cx="1298.4345" cy="885.7772" r="1.6231"/><circle class="cls-10" cx="1303.3039" cy="880.9079" r="1.6231"/><circle class="cls-10" cx="1336.9836" cy="875.6327" r="1.6231"/><circle class="cls-10" cx="1314.2599" cy="887.4003" r="1.6231"/><circle class="cls-10" cx="1317.5062" cy="890.2408" r="1.6231"/><circle class="cls-10" cx="1326.0275" cy="890.2408" r="1.6231"/><circle class="cls-10" cx="1280.1745" cy="906.472" r="1.6231"/><circle class="cls-10" cx="1278.5513" cy="918.2396" r="1.6231"/><circle class="cls-10" cx="1291.5363" cy="923.9205" r="1.6231"/><circle class="cls-10" cx="1289.1016" cy="934.4707" r="1.6231"/><circle class="cls-10" cx="1280.1745" cy="936.0939" r="1.6231"/><circle class="cls-10" cx="1303.3039" cy="902.0084" r="1.6231"/><circle class="cls-10" cx="1301.6808" cy="897.5448" r="1.6231"/><circle class="cls-10" cx="1299.2461" cy="892.6755" r="1.6231"/><circle class="cls-10" cx="1379.9962" cy="867.1114" r="1.6231"/><circle class="cls-10" cx="1345.5049" cy="876.4443" r="2.4347"/><circle class="cls-10" cx="1345.5049" cy="865.0825" r="2.4347"/><circle class="cls-10" cx="1351.5916" cy="873.1981" r="2.4347"/><circle class="cls-10" cx="1322.3755" cy="883.3425" r="2.4347"/><circle class="cls-10" cx="1360.9245" cy="875.227" r="2.4347"/><circle class="cls-10" cx="1374.3153" cy="870.7634" r="2.4347"/><circle class="cls-10" cx="1374.3153" cy="860.2131" r="2.4347"/><circle class="cls-10" cx="1298.6374" cy="909.5153" r="3.0433"/><circle class="cls-10" cx="1306.9559" cy="890.2408" r="4.4636"/><circle class="cls-10" cx="1315.883" cy="875.5199" r="6.6792"/><circle class="cls-10" cx="1360.9245" cy="864.9696" r="6.6792"/><g class="cls-11"><path class="cls-12" d="M1442.08,920.6742c-.928-4.64-18.981-21.034-43.8242-35.3028-23.2425-13.3494-56.7613-12.745-75.8807-4.8693-16.298,6.7135-31.1007,29.9252-34.897,53.9686-3.652,23.13,1.6231,68.5767,1.6231,68.5767-.5012.78-2.1386-1.2828-4.0578-3.652a81.8169,81.8169,0,0,1-7.71-10.956,130.5522,130.5522,0,0,1-6.8982-13.3907c-18.6659-46.6646,4.2372-98.85,50.8493-117.702s97.6659,4.4895,117.5491,51.1542"/></g><circle class="cls-5" cx="1380.9005" cy="934.8516" r="15.2167"/><circle class="cls-5" cx="1345.818" cy="943.4228" r="15.2167"/><circle class="cls-13" cx="1345.0992" cy="944.2094" r="6.4925"/><circle class="cls-13" cx="1380.8077" cy="934.8765" r="6.4925"/><circle class="cls-5" cx="877.4038" cy="588.3588" r="131.6754"/><circle class="cls-6" cx="882.2732" cy="592.8223" r="131.6754"/><circle class="cls-5" cx="876.5677" cy="586.6354" r="103.9406"/><rect class="cls-7" x="919.0024" y="482.9823" width="49.4059" height="17.0648" rx="8.5324" ry="8.5324" transform="translate(-0.4138 982.234) rotate(-54.9759)"/><circle class="cls-8" cx="882.5324" cy="593.0815" r="103.9406"/><circle class="cls-8" cx="882.5324" cy="593.0815" r="103.9406"/><rect class="cls-8" x="922.6544" y="485.0112" width="49.4059" height="17.0648" rx="8.5324" ry="8.5324" transform="translate(-0.5193 986.0891) rotate(-54.9759)"/><circle class="cls-9" cx="882.6871" cy="593.2331" r="90.2883"/><path class="cls-10" d="M955.1105,592.8223c5.1135,46.4816-28.5189,76.8308-72.6345,71.62-39.7267-4.6923-76.2518-35.6121-57.6206-71.0114,8.1156-15.42,3.77-29.8407,11.3618-38.9548,10.249-12.3048,27.9988-4.4636,50.3166-17.8543C920.836,516.0406,950.7362,553.0593,955.1105,592.8223Z"/><circle class="cls-10" cx="811.4647" cy="580.4461" r="4.4636"/><circle class="cls-10" cx="815.5225" cy="565.838" r="4.4636"/><circle class="cls-10" cx="819.986" cy="551.23" r="4.4636"/><circle class="cls-10" cx="861.7813" cy="535.4046" r="4.4636"/><circle class="cls-10" cx="857.5206" cy="517.3474" r="3.0433"/><circle class="cls-10" cx="865.4333" cy="519.1734" r="1.6231"/><circle class="cls-10" cx="826.8843" cy="537.8392" r="1.6231"/><circle class="cls-10" cx="831.7536" cy="532.9699" r="1.6231"/><circle class="cls-10" cx="865.4333" cy="527.6948" r="1.6231"/><circle class="cls-10" cx="842.7097" cy="539.4624" r="1.6231"/><circle class="cls-10" cx="845.9559" cy="542.3028" r="1.6231"/><circle class="cls-10" cx="854.4773" cy="542.3028" r="1.6231"/><circle class="cls-10" cx="808.6242" cy="558.534" r="1.6231"/><circle class="cls-10" cx="807.0011" cy="570.3016" r="1.6231"/><circle class="cls-10" cx="819.986" cy="575.9825" r="1.6231"/><circle class="cls-10" cx="817.5514" cy="586.5328" r="1.6231"/><circle class="cls-10" cx="808.6242" cy="588.1559" r="1.6231"/><circle class="cls-10" cx="831.7536" cy="554.0704" r="1.6231"/><circle class="cls-10" cx="830.1305" cy="549.6068" r="1.6231"/><circle class="cls-10" cx="827.6958" cy="544.7375" r="1.6231"/><circle class="cls-10" cx="908.4459" cy="519.1734" r="1.6231"/><circle class="cls-10" cx="873.9547" cy="528.5063" r="2.4347"/><circle class="cls-10" cx="873.9547" cy="517.1445" r="2.4347"/><circle class="cls-10" cx="880.0414" cy="525.2601" r="2.4347"/><circle class="cls-10" cx="850.8253" cy="535.4046" r="2.4347"/><circle class="cls-10" cx="889.3743" cy="527.289" r="2.4347"/><circle class="cls-10" cx="902.765" cy="522.8254" r="2.4347"/><circle class="cls-10" cx="902.765" cy="512.2751" r="2.4347"/><circle class="cls-10" cx="827.0872" cy="561.5773" r="3.0433"/><circle class="cls-10" cx="835.4056" cy="542.3028" r="4.4636"/><circle class="cls-10" cx="844.3328" cy="527.5819" r="6.6792"/><circle class="cls-10" cx="889.3743" cy="517.0316" r="6.6792"/><g class="cls-11"><path class="cls-12" d="M970.53,572.7363c-.9281-4.64-18.9811-21.0341-43.8242-35.3028-23.2425-13.35-56.7613-12.7451-75.8807-4.8694-16.2981,6.7135-31.1008,29.9253-34.8971,53.9687-3.652,23.13,1.6232,68.5767,1.6232,68.5767-.5013.78-2.1386-1.2829-4.0578-3.6521a81.7986,81.7986,0,0,1-7.71-10.956,130.525,130.525,0,0,1-6.8983-13.3907c-18.6658-46.6646,4.2372-98.85,50.8494-117.702s97.6658,4.49,117.549,51.1542"/></g><circle class="cls-5" cx="909.3502" cy="586.9136" r="15.2167"/><circle class="cls-5" cx="874.2677" cy="595.4849" r="15.2167"/><circle class="cls-13" cx="873.5489" cy="596.2715" r="6.4925"/><circle class="cls-13" cx="909.2575" cy="586.9385" r="6.4925"/><circle class="cls-5" cx="1033.793" cy="150.6754" r="131.6754"/><circle class="cls-6" cx="1038.6624" cy="155.139" r="131.6754"/><circle class="cls-5" cx="1032.9569" cy="148.952" r="103.9406"/><rect class="cls-7" x="1075.3916" y="45.299" width="49.4059" height="17.0648" rx="8.5324" ry="8.5324" transform="translate(424.6437 923.8152) rotate(-54.9759)"/><circle class="cls-8" cx="1038.9216" cy="155.3982" r="103.9406"/><circle class="cls-8" cx="1038.9216" cy="155.3982" r="103.9406"/><rect class="cls-8" x="1079.0436" y="47.3279" width="49.4059" height="17.0648" rx="8.5324" ry="8.5324" transform="translate(424.5382 927.6703) rotate(-54.9759)"/><circle class="cls-9" cx="1039.0763" cy="155.5497" r="90.2883"/><path class="cls-10" d="M1111.5,155.139c5.1135,46.4815-28.5189,76.8307-72.6344,71.62-39.7268-4.6923-76.2519-35.6121-57.6207-71.0114,8.1156-15.42,3.77-29.8407,11.3618-38.9548,10.249-12.3048,27.9988-4.4636,50.3166-17.8543C1077.2252,78.3572,1107.1254,115.376,1111.5,155.139Z"/><circle class="cls-10" cx="967.8539" cy="142.7627" r="4.4636"/><circle class="cls-10" cx="971.9117" cy="128.1546" r="4.4636"/><circle class="cls-10" cx="976.3752" cy="113.5466" r="4.4636"/><circle class="cls-10" cx="1018.1705" cy="97.7212" r="4.4636"/><circle class="cls-10" cx="1013.9098" cy="79.664" r="3.0433"/><circle class="cls-10" cx="1021.8225" cy="81.49" r="1.6231"/><circle class="cls-10" cx="983.2735" cy="100.1559" r="1.6231"/><circle class="cls-10" cx="988.1428" cy="95.2865" r="1.6231"/><circle class="cls-10" cx="1021.8225" cy="90.0114" r="1.6231"/><circle class="cls-10" cx="999.0989" cy="101.779" r="1.6231"/><circle class="cls-10" cx="1002.3451" cy="104.6194" r="1.6231"/><circle class="cls-10" cx="1010.8665" cy="104.6194" r="1.6231"/><circle class="cls-10" cx="965.0134" cy="120.8506" r="1.6231"/><circle class="cls-10" cx="963.3903" cy="132.6182" r="1.6231"/><circle class="cls-10" cx="976.3752" cy="138.2991" r="1.6231"/><circle class="cls-10" cx="973.9406" cy="148.8494" r="1.6231"/><circle class="cls-10" cx="965.0134" cy="150.4725" r="1.6231"/><circle class="cls-10" cx="988.1428" cy="116.387" r="1.6231"/><circle class="cls-10" cx="986.5197" cy="111.9235" r="1.6231"/><circle class="cls-10" cx="984.085" cy="107.0541" r="1.6231"/><circle class="cls-10" cx="1064.8351" cy="81.49" r="1.6231"/><circle class="cls-10" cx="1030.3439" cy="90.8229" r="2.4347"/><circle class="cls-10" cx="1030.3439" cy="79.4611" r="2.4347"/><circle class="cls-10" cx="1036.4306" cy="87.5767" r="2.4347"/><circle class="cls-10" cx="1007.2145" cy="97.7212" r="2.4347"/><circle class="cls-10" cx="1045.7635" cy="89.6056" r="2.4347"/><circle class="cls-10" cx="1059.1542" cy="85.142" r="2.4347"/><circle class="cls-10" cx="1059.1542" cy="74.5918" r="2.4347"/><circle class="cls-10" cx="983.4764" cy="123.894" r="3.0433"/><circle class="cls-10" cx="991.7948" cy="104.6194" r="4.4636"/><circle class="cls-10" cx="1000.722" cy="89.8985" r="6.6792"/><circle class="cls-10" cx="1045.7635" cy="79.3482" r="6.6792"/><g class="cls-11"><path class="cls-12" d="M1126.9194,135.0529c-.9281-4.64-18.9811-21.034-43.8242-35.3028-23.2425-13.35-56.7613-12.745-75.8807-4.8694-16.2981,6.7135-31.1008,29.9253-34.8971,53.9687-3.652,23.13,1.6232,68.5767,1.6232,68.5767-.5013.78-2.1386-1.2829-4.0578-3.652a81.8,81.8,0,0,1-7.71-10.9561,130.525,130.525,0,0,1-6.8983-13.3907c-18.6658-46.6646,4.2372-98.85,50.8494-117.702s97.6658,4.49,117.549,51.1542"/></g><circle class="cls-5" cx="1065.7394" cy="149.2302" r="15.2167"/><circle class="cls-5" cx="1030.6569" cy="157.8015" r="15.2167"/><circle class="cls-13" cx="1029.9381" cy="158.5881" r="6.4925"/><circle class="cls-13" cx="1065.6467" cy="149.2552" r="6.4925"/><circle class="cls-5" cx="1576.0737" cy="720.0476" r="131.6754"/><circle class="cls-6" cx="1580.943" cy="724.5112" r="131.6754"/><circle class="cls-5" cx="1575.2375" cy="718.3243" r="103.9406"/><rect class="cls-7" x="1617.6722" y="614.6712" width="49.4059" height="17.0648" rx="8.5324" ry="8.5324" transform="translate(189.4332 1610.492) rotate(-54.9759)"/><circle class="cls-8" cx="1581.2022" cy="724.7704" r="103.9406"/><circle class="cls-8" cx="1581.2022" cy="724.7704" r="103.9406"/><rect class="cls-8" x="1621.3242" y="616.7001" width="49.4059" height="17.0648" rx="8.5324" ry="8.5324" transform="translate(189.3277 1614.347) rotate(-54.9759)"/><circle class="cls-9" cx="1581.357" cy="724.9219" r="90.2883"/><path class="cls-10" d="M1653.78,724.5112c5.1135,46.4815-28.519,76.8307-72.6345,71.62-39.7267-4.6923-76.2518-35.6121-57.6206-71.0113,8.1155-15.42,3.7705-29.8408,11.3618-38.9549,10.249-12.3048,27.9988-4.4635,50.3166-17.8542C1619.5059,647.7294,1649.4061,684.7482,1653.78,724.5112Z"/><circle class="cls-10" cx="1510.1345" cy="712.1349" r="4.4636"/><circle class="cls-10" cx="1514.1923" cy="697.5269" r="4.4636"/><circle class="cls-10" cx="1518.6559" cy="682.9188" r="4.4636"/><circle class="cls-10" cx="1560.4512" cy="667.0934" r="4.4636"/><circle class="cls-10" cx="1556.1905" cy="649.0362" r="3.0433"/><circle class="cls-10" cx="1564.1032" cy="650.8622" r="1.6231"/><circle class="cls-10" cx="1525.5542" cy="669.5281" r="1.6231"/><circle class="cls-10" cx="1530.4235" cy="664.6587" r="1.6231"/><circle class="cls-10" cx="1564.1032" cy="659.3836" r="1.6231"/><circle class="cls-10" cx="1541.3796" cy="671.1512" r="1.6231"/><circle class="cls-10" cx="1544.6258" cy="673.9917" r="1.6231"/><circle class="cls-10" cx="1553.1472" cy="673.9917" r="1.6231"/><circle class="cls-10" cx="1507.2941" cy="690.2228" r="1.6231"/><circle class="cls-10" cx="1505.671" cy="701.9904" r="1.6231"/><circle class="cls-10" cx="1518.6559" cy="707.6713" r="1.6231"/><circle class="cls-10" cx="1516.2212" cy="718.2216" r="1.6231"/><circle class="cls-10" cx="1507.2941" cy="719.8447" r="1.6231"/><circle class="cls-10" cx="1530.4235" cy="685.7593" r="1.6231"/><circle class="cls-10" cx="1528.8004" cy="681.2957" r="1.6231"/><circle class="cls-10" cx="1526.3657" cy="676.4263" r="1.6231"/><circle class="cls-10" cx="1607.1158" cy="650.8622" r="1.6231"/><circle class="cls-10" cx="1572.6246" cy="660.1952" r="2.4347"/><circle class="cls-10" cx="1572.6246" cy="648.8333" r="2.4347"/><circle class="cls-10" cx="1578.7113" cy="656.9489" r="2.4347"/><circle class="cls-10" cx="1549.4951" cy="667.0934" r="2.4347"/><circle class="cls-10" cx="1588.0442" cy="658.9778" r="2.4347"/><circle class="cls-10" cx="1601.4349" cy="654.5143" r="2.4347"/><circle class="cls-10" cx="1601.4349" cy="643.964" r="2.4347"/><circle class="cls-10" cx="1525.757" cy="693.2662" r="3.0433"/><circle class="cls-10" cx="1534.0755" cy="673.9917" r="4.4636"/><circle class="cls-10" cx="1543.0027" cy="659.2707" r="6.6792"/><circle class="cls-10" cx="1588.0442" cy="648.7205" r="6.6792"/><g class="cls-11"><path class="cls-12" d="M1669.2,704.4251c-.928-4.64-18.981-21.034-43.8241-35.3028-23.2426-13.3494-56.7614-12.745-75.8808-4.8693-16.298,6.7134-31.1007,29.9252-34.897,53.9686-3.652,23.13,1.6231,68.5767,1.6231,68.5767-.5012.78-2.1385-1.2829-4.0578-3.652a81.8234,81.8234,0,0,1-7.71-10.956,130.5422,130.5422,0,0,1-6.8982-13.3908c-18.6659-46.6646,4.2372-98.85,50.8494-117.702s97.6658,4.49,117.549,51.1542"/></g><circle class="cls-5" cx="1608.0201" cy="718.6024" r="15.2167"/><circle class="cls-5" cx="1572.9376" cy="727.1737" r="15.2167"/><circle class="cls-13" cx="1572.2188" cy="727.9603" r="6.4925"/><circle class="cls-13" cx="1607.9274" cy="718.6274" r="6.4925"/><circle class="cls-5" cx="1253.0737" cy="404.0476" r="131.6754"/><circle class="cls-6" cx="1257.943" cy="408.5112" r="131.6754"/><circle class="cls-5" cx="1252.2375" cy="402.3243" r="103.9406"/><rect class="cls-7" x="1294.6722" y="298.6712" width="49.4059" height="17.0648" rx="8.5324" ry="8.5324" transform="translate(310.5855 1211.343) rotate(-54.9759)"/><circle class="cls-8" cx="1258.2022" cy="408.7704" r="103.9406"/><circle class="cls-8" cx="1258.2022" cy="408.7704" r="103.9406"/><rect class="cls-8" x="1298.3242" y="300.7001" width="49.4059" height="17.0648" rx="8.5324" ry="8.5324" transform="translate(310.48 1215.1981) rotate(-54.9759)"/><circle class="cls-9" cx="1258.357" cy="408.9219" r="90.2883"/><path class="cls-10" d="M1330.78,408.5112c5.1135,46.4815-28.519,76.8307-72.6345,71.62-39.7267-4.6923-76.2518-35.6121-57.6206-71.0113,8.1155-15.42,3.7705-29.8408,11.3618-38.9549,10.249-12.3048,27.9988-4.4635,50.3166-17.8542C1296.5059,331.7294,1326.4061,368.7482,1330.78,408.5112Z"/><circle class="cls-10" cx="1187.1345" cy="396.1349" r="4.4636"/><circle class="cls-10" cx="1191.1923" cy="381.5269" r="4.4636"/><circle class="cls-10" cx="1195.6559" cy="366.9188" r="4.4636"/><circle class="cls-10" cx="1237.4512" cy="351.0934" r="4.4636"/><circle class="cls-10" cx="1233.1905" cy="333.0362" r="3.0433"/><circle class="cls-10" cx="1241.1032" cy="334.8622" r="1.6231"/><circle class="cls-10" cx="1202.5542" cy="353.5281" r="1.6231"/><circle class="cls-10" cx="1207.4235" cy="348.6587" r="1.6231"/><circle class="cls-10" cx="1241.1032" cy="343.3836" r="1.6231"/><circle class="cls-10" cx="1218.3796" cy="355.1512" r="1.6231"/><circle class="cls-10" cx="1221.6258" cy="357.9917" r="1.6231"/><circle class="cls-10" cx="1230.1472" cy="357.9917" r="1.6231"/><circle class="cls-10" cx="1184.2941" cy="374.2228" r="1.6231"/><circle class="cls-10" cx="1182.671" cy="385.9904" r="1.6231"/><circle class="cls-10" cx="1195.6559" cy="391.6713" r="1.6231"/><circle class="cls-10" cx="1193.2212" cy="402.2216" r="1.6231"/><circle class="cls-10" cx="1184.2941" cy="403.8447" r="1.6231"/><circle class="cls-10" cx="1207.4235" cy="369.7593" r="1.6231"/><circle class="cls-10" cx="1205.8004" cy="365.2957" r="1.6231"/><circle class="cls-10" cx="1203.3657" cy="360.4263" r="1.6231"/><circle class="cls-10" cx="1284.1158" cy="334.8622" r="1.6231"/><circle class="cls-10" cx="1249.6246" cy="344.1952" r="2.4347"/><circle class="cls-10" cx="1249.6246" cy="332.8333" r="2.4347"/><circle class="cls-10" cx="1255.7113" cy="340.9489" r="2.4347"/><circle class="cls-10" cx="1226.4951" cy="351.0934" r="2.4347"/><circle class="cls-10" cx="1265.0442" cy="342.9778" r="2.4347"/><circle class="cls-10" cx="1278.4349" cy="338.5143" r="2.4347"/><circle class="cls-10" cx="1278.4349" cy="327.964" r="2.4347"/><circle class="cls-10" cx="1202.757" cy="377.2662" r="3.0433"/><circle class="cls-10" cx="1211.0755" cy="357.9917" r="4.4636"/><circle class="cls-10" cx="1220.0027" cy="343.2707" r="6.6792"/><circle class="cls-10" cx="1265.0442" cy="332.7205" r="6.6792"/><g class="cls-11"><path class="cls-12" d="M1346.2,388.4251c-.928-4.64-18.981-21.034-43.8241-35.3028-23.2426-13.3494-56.7614-12.745-75.8808-4.8693-16.298,6.7134-31.1007,29.9252-34.897,53.9686-3.652,23.13,1.6231,68.5767,1.6231,68.5767-.5012.78-2.1385-1.2829-4.0578-3.652a81.8234,81.8234,0,0,1-7.71-10.956,130.5422,130.5422,0,0,1-6.8982-13.3908c-18.6659-46.6646,4.2372-98.85,50.8494-117.702s97.6658,4.49,117.549,51.1542"/></g><circle class="cls-5" cx="1285.0201" cy="402.6024" r="15.2167"/><circle class="cls-5" cx="1249.9376" cy="411.1737" r="15.2167"/><circle class="cls-13" cx="1249.2188" cy="411.9603" r="6.4925"/><circle class="cls-13" cx="1284.9274" cy="402.6274" r="6.4925"/><circle class="cls-5" cx="972.6836" cy="919.0008" r="132.64"/><circle class="cls-6" cx="977.5886" cy="923.4971" r="132.64"/><circle class="cls-5" cx="971.8414" cy="917.2648" r="104.7021"/><rect class="cls-7" x="1014.5869" y="812.8524" width="49.7678" height="17.1898" rx="8.5949" ry="8.5949" transform="translate(-229.7955 1201.2342) rotate(-54.9759)"/><circle class="cls-8" cx="977.8497" cy="923.7582" r="104.7021"/><circle class="cls-8" cx="977.8497" cy="923.7582" r="104.7021"/><rect class="cls-8" x="1018.2657" y="814.8961" width="49.7678" height="17.1898" rx="8.5949" ry="8.5949" transform="translate(-229.9017 1205.1177) rotate(-54.9759)"/><circle class="cls-9" cx="978.0056" cy="923.9108" r="90.9497"/><path class="cls-10" d="M1050.96,923.4971c5.1509,46.822-28.7279,77.3936-73.1666,72.1447-40.0177-4.7267-76.8105-35.873-58.0428-71.5316,8.1751-15.5326,3.7981-30.0594,11.4451-39.24,10.3241-12.395,28.2039-4.4963,50.6852-17.9851C1016.434,846.1528,1046.5533,883.4428,1050.96,923.4971Z"/><circle class="cls-10" cx="906.2614" cy="911.0301" r="4.4963"/><circle class="cls-10" cx="910.3489" cy="896.315" r="4.4963"/><circle class="cls-10" cx="914.8452" cy="881.6" r="4.4963"/><circle class="cls-10" cx="956.9467" cy="865.6586" r="4.4963"/><circle class="cls-10" cx="952.6548" cy="847.4692" r="3.0656"/><circle class="cls-10" cx="960.6254" cy="849.3086" r="1.635"/><circle class="cls-10" cx="921.794" cy="868.1111" r="1.635"/><circle class="cls-10" cx="926.699" cy="863.2061" r="1.635"/><circle class="cls-10" cx="960.6254" cy="857.8923" r="1.635"/><circle class="cls-10" cx="937.7353" cy="869.7462" r="1.635"/><circle class="cls-10" cx="941.0053" cy="872.6074" r="1.635"/><circle class="cls-10" cx="949.5891" cy="872.6074" r="1.635"/><circle class="cls-10" cx="903.4001" cy="888.9575" r="1.635"/><circle class="cls-10" cx="901.7651" cy="900.8113" r="1.635"/><circle class="cls-10" cx="914.8452" cy="906.5338" r="1.635"/><circle class="cls-10" cx="912.3927" cy="917.1614" r="1.635"/><circle class="cls-10" cx="903.4001" cy="918.7964" r="1.635"/><circle class="cls-10" cx="926.699" cy="884.4612" r="1.635"/><circle class="cls-10" cx="925.064" cy="879.965" r="1.635"/><circle class="cls-10" cx="922.6115" cy="875.0599" r="1.635"/><circle class="cls-10" cx="1003.9532" cy="849.3086" r="1.635"/><circle class="cls-10" cx="969.2092" cy="858.7099" r="2.4525"/><circle class="cls-10" cx="969.2092" cy="847.2648" r="2.4525"/><circle class="cls-10" cx="975.3405" cy="855.4398" r="2.4525"/><circle class="cls-10" cx="945.9104" cy="865.6586" r="2.4525"/><circle class="cls-10" cx="984.7418" cy="857.4836" r="2.4525"/><circle class="cls-10" cx="998.2306" cy="852.9873" r="2.4525"/><circle class="cls-10" cx="998.2306" cy="842.3598" r="2.4525"/><circle class="cls-10" cx="921.9984" cy="892.0231" r="3.0656"/><circle class="cls-10" cx="930.3778" cy="872.6074" r="4.4963"/><circle class="cls-10" cx="939.3703" cy="857.7786" r="6.7281"/><circle class="cls-10" cx="984.7418" cy="847.1511" r="6.7281"/><g class="cls-11"><path class="cls-12" d="M1066.4922,903.2638c-.9348-4.6742-19.12-21.1881-44.1452-35.5614-23.4128-13.4473-57.1772-12.8384-76.4366-4.905-16.4175,6.7626-31.3286,30.1445-35.1527,54.364-3.6788,23.2991,1.635,69.0791,1.635,69.0791-.5049.7854-2.1543-1.2923-4.0875-3.6788a82.4051,82.4051,0,0,1-7.7663-11.0363,131.4984,131.4984,0,0,1-6.9488-13.4888c-18.8026-47.0065,4.2682-99.5743,51.2219-118.5643s98.3813,4.5225,118.41,51.529"/></g><circle class="cls-5" cx="1004.8641" cy="917.545" r="15.3282"/><circle class="cls-5" cx="969.5246" cy="926.1791" r="15.3282"/><circle class="cls-13" cx="968.8005" cy="924.5189" r="6.54"/><circle class="cls-13" cx="1004.7707" cy="915.5264" r="6.54"/><path class="cls-14" d="M982.2893,914.7089c1.6354,4.57-3.2866,7.3852-13.4888,11.0363s-14.7147,7.431-16.35,2.8613-.3922-13.9253,9.81-17.5764S980.6539,910.1391,982.2893,914.7089Z"/><path class="cls-14" d="M1021.1207,915.5264c-.48,4.83-4.5345,3.8139-15.3172,2.7419s-17.0456-.7734-16.5654-5.6032,6.1779-11.567,16.9606-10.4949S1021.6009,910.6966,1021.1207,915.5264Z"/><circle class="cls-5" cx="1193.6836" cy="690.0008" r="132.64"/><circle class="cls-6" cx="1198.5886" cy="694.4971" r="132.64"/><circle class="cls-5" cx="1192.8414" cy="688.2648" r="104.7021"/><rect class="cls-7" x="1235.5869" y="583.8524" width="49.7678" height="17.1898" rx="8.5949" ry="8.5949" transform="translate(51.8982 1284.6414) rotate(-54.9759)"/><circle class="cls-8" cx="1198.8497" cy="694.7582" r="104.7021"/><circle class="cls-8" cx="1198.8497" cy="694.7582" r="104.7021"/><rect class="cls-8" x="1239.2657" y="585.8961" width="49.7678" height="17.1898" rx="8.5949" ry="8.5949" transform="translate(51.7921 1288.5249) rotate(-54.9759)"/><circle class="cls-9" cx="1199.0056" cy="694.9108" r="90.9497"/><path class="cls-10" d="M1271.96,694.4971c5.1509,46.822-28.7279,77.3936-73.1666,72.1447-40.0177-4.7267-76.81-35.873-58.0428-71.5316,8.1751-15.5326,3.7981-30.0594,11.4451-39.24,10.3241-12.395,28.2039-4.4963,50.6852-17.9851C1237.434,617.1528,1267.5533,654.4428,1271.96,694.4971Z"/><circle class="cls-10" cx="1127.2614" cy="682.0301" r="4.4963"/><circle class="cls-10" cx="1131.3489" cy="667.315" r="4.4963"/><circle class="cls-10" cx="1135.8452" cy="652.6" r="4.4963"/><circle class="cls-10" cx="1177.9467" cy="636.6586" r="4.4963"/><circle class="cls-10" cx="1173.6548" cy="618.4692" r="3.0656"/><circle class="cls-10" cx="1181.6254" cy="620.3086" r="1.635"/><circle class="cls-10" cx="1142.794" cy="639.1111" r="1.635"/><circle class="cls-10" cx="1147.699" cy="634.2061" r="1.635"/><circle class="cls-10" cx="1181.6254" cy="628.8923" r="1.635"/><circle class="cls-10" cx="1158.7353" cy="640.7462" r="1.635"/><circle class="cls-10" cx="1162.0053" cy="643.6074" r="1.635"/><circle class="cls-10" cx="1170.5891" cy="643.6074" r="1.635"/><circle class="cls-10" cx="1124.4001" cy="659.9575" r="1.635"/><circle class="cls-10" cx="1122.7651" cy="671.8113" r="1.635"/><circle class="cls-10" cx="1135.8452" cy="677.5338" r="1.635"/><circle class="cls-10" cx="1133.3927" cy="688.1614" r="1.635"/><circle class="cls-10" cx="1124.4001" cy="689.7964" r="1.635"/><circle class="cls-10" cx="1147.699" cy="655.4612" r="1.635"/><circle class="cls-10" cx="1146.064" cy="650.965" r="1.635"/><circle class="cls-10" cx="1143.6115" cy="646.0599" r="1.635"/><circle class="cls-10" cx="1224.9532" cy="620.3086" r="1.635"/><circle class="cls-10" cx="1190.2092" cy="629.7099" r="2.4525"/><circle class="cls-10" cx="1190.2092" cy="618.2648" r="2.4525"/><circle class="cls-10" cx="1196.3405" cy="626.4398" r="2.4525"/><circle class="cls-10" cx="1166.9104" cy="636.6586" r="2.4525"/><circle class="cls-10" cx="1205.7418" cy="628.4836" r="2.4525"/><circle class="cls-10" cx="1219.2306" cy="623.9873" r="2.4525"/><circle class="cls-10" cx="1219.2306" cy="613.3598" r="2.4525"/><circle class="cls-10" cx="1142.9984" cy="663.0231" r="3.0656"/><circle class="cls-10" cx="1151.3778" cy="643.6074" r="4.4963"/><circle class="cls-10" cx="1160.3703" cy="628.7786" r="6.7281"/><circle class="cls-10" cx="1205.7418" cy="618.1511" r="6.7281"/><g class="cls-11"><path class="cls-12" d="M1287.4922,674.2638c-.9348-4.6742-19.12-21.1881-44.1452-35.5614-23.4128-13.4473-57.1772-12.8384-76.4366-4.905-16.4175,6.7626-31.3286,30.1445-35.1527,54.364-3.6788,23.2991,1.635,69.0791,1.635,69.0791-.5049.7854-2.1543-1.2923-4.0875-3.6788a82.4051,82.4051,0,0,1-7.7663-11.0363,131.4984,131.4984,0,0,1-6.9488-13.4888c-18.8026-47.0065,4.2682-99.5743,51.2219-118.5643s98.3813,4.5225,118.41,51.529"/></g><circle class="cls-5" cx="1225.8641" cy="688.545" r="15.3282"/><circle class="cls-5" cx="1190.5246" cy="697.1791" r="15.3282"/><circle class="cls-13" cx="1189.8005" cy="695.5189" r="6.54"/><circle class="cls-13" cx="1225.7707" cy="686.5264" r="6.54"/><path class="cls-14" d="M1203.2893,685.7089c1.6354,4.57-3.2866,7.3852-13.4888,11.0363s-14.7147,7.431-16.35,2.8613-.3922-13.9253,9.81-17.5764S1201.6539,681.1391,1203.2893,685.7089Z"/><path class="cls-14" d="M1242.1207,686.5264c-.48,4.83-4.5345,3.8139-15.3172,2.7419s-17.0456-.7734-16.5654-5.6032,6.1779-11.567,16.9606-10.4949S1242.6009,681.6966,1242.1207,686.5264Z"/><circle class="cls-5" cx="780.6836" cy="326.0008" r="132.64"/><circle class="cls-6" cx="785.5886" cy="330.4971" r="132.64"/><circle class="cls-5" cx="779.8414" cy="324.2648" r="104.7021"/><rect class="cls-7" x="822.5869" y="219.8524" width="49.7678" height="17.1898" rx="8.5949" ry="8.5949" transform="translate(174.0112 791.3389) rotate(-54.9759)"/><circle class="cls-8" cx="785.8497" cy="330.7582" r="104.7021"/><circle class="cls-8" cx="785.8497" cy="330.7582" r="104.7021"/><rect class="cls-8" x="826.2657" y="221.8961" width="49.7678" height="17.1898" rx="8.5949" ry="8.5949" transform="translate(173.9051 795.2224) rotate(-54.9759)"/><circle class="cls-9" cx="786.0056" cy="330.9108" r="90.9497"/><path class="cls-10" d="M858.96,330.4971c5.1509,46.822-28.7279,77.3936-73.1666,72.1447-40.0177-4.7267-76.8105-35.873-58.0428-71.5316,8.1751-15.5326,3.7981-30.0594,11.4451-39.24,10.3241-12.395,28.2039-4.4963,50.6852-17.9851C824.434,253.1528,854.5533,290.4428,858.96,330.4971Z"/><circle class="cls-10" cx="714.2614" cy="318.0301" r="4.4963"/><circle class="cls-10" cx="718.3489" cy="303.315" r="4.4963"/><circle class="cls-10" cx="722.8452" cy="288.6" r="4.4963"/><circle class="cls-10" cx="764.9467" cy="272.6586" r="4.4963"/><circle class="cls-10" cx="760.6548" cy="254.4692" r="3.0656"/><circle class="cls-10" cx="768.6254" cy="256.3086" r="1.635"/><circle class="cls-10" cx="729.794" cy="275.1111" r="1.635"/><circle class="cls-10" cx="734.699" cy="270.2061" r="1.635"/><circle class="cls-10" cx="768.6254" cy="264.8923" r="1.635"/><circle class="cls-10" cx="745.7353" cy="276.7462" r="1.635"/><circle class="cls-10" cx="749.0053" cy="279.6074" r="1.635"/><circle class="cls-10" cx="757.5891" cy="279.6074" r="1.635"/><circle class="cls-10" cx="711.4001" cy="295.9575" r="1.635"/><circle class="cls-10" cx="709.7651" cy="307.8113" r="1.635"/><circle class="cls-10" cx="722.8452" cy="313.5338" r="1.635"/><circle class="cls-10" cx="720.3927" cy="324.1614" r="1.635"/><circle class="cls-10" cx="711.4001" cy="325.7964" r="1.635"/><circle class="cls-10" cx="734.699" cy="291.4612" r="1.635"/><circle class="cls-10" cx="733.064" cy="286.965" r="1.635"/><circle class="cls-10" cx="730.6115" cy="282.0599" r="1.635"/><circle class="cls-10" cx="811.9532" cy="256.3086" r="1.635"/><circle class="cls-10" cx="777.2092" cy="265.7099" r="2.4525"/><circle class="cls-10" cx="777.2092" cy="254.2648" r="2.4525"/><circle class="cls-10" cx="783.3405" cy="262.4398" r="2.4525"/><circle class="cls-10" cx="753.9104" cy="272.6586" r="2.4525"/><circle class="cls-10" cx="792.7418" cy="264.4836" r="2.4525"/><circle class="cls-10" cx="806.2306" cy="259.9873" r="2.4525"/><circle class="cls-10" cx="806.2306" cy="249.3598" r="2.4525"/><circle class="cls-10" cx="729.9984" cy="299.0231" r="3.0656"/><circle class="cls-10" cx="738.3778" cy="279.6074" r="4.4963"/><circle class="cls-10" cx="747.3703" cy="264.7786" r="6.7281"/><circle class="cls-10" cx="792.7418" cy="254.1511" r="6.7281"/><g class="cls-11"><path class="cls-12" d="M874.4922,310.2638c-.9348-4.6742-19.12-21.1881-44.1452-35.5614-23.4128-13.4473-57.1772-12.8384-76.4366-4.905-16.4175,6.7626-31.3286,30.1445-35.1527,54.364-3.6788,23.2991,1.635,69.0791,1.635,69.0791-.5049.7854-2.1543-1.2923-4.0875-3.6788a82.4051,82.4051,0,0,1-7.7663-11.0363,131.4984,131.4984,0,0,1-6.9488-13.4888c-18.8026-47.0065,4.2682-99.5743,51.2219-118.5643s98.3813,4.5225,118.41,51.529"/></g><circle class="cls-5" cx="812.8641" cy="324.545" r="15.3282"/><circle class="cls-5" cx="777.5246" cy="333.1791" r="15.3282"/><circle class="cls-13" cx="776.8005" cy="331.5189" r="6.54"/><circle class="cls-13" cx="812.7707" cy="322.5264" r="6.54"/><path class="cls-14" d="M790.2893,321.7089c1.6354,4.57-3.2866,7.3852-13.4888,11.0363s-14.7147,7.431-16.35,2.8613-.3922-13.9253,9.81-17.5764S788.6539,317.1391,790.2893,321.7089Z"/><path class="cls-14" d="M829.1207,322.5264c-.48,4.83-4.5345,3.8139-15.3172,2.7419s-17.0456-.7734-16.5654-5.6032,6.1779-11.567,16.9606-10.4949S829.6009,317.6966,829.1207,322.5264Z"/><circle class="cls-5" cx="528.6836" cy="496.0008" r="132.64"/><circle class="cls-6" cx="533.5886" cy="500.4971" r="132.64"/><circle class="cls-5" cx="527.8414" cy="494.2648" r="104.7021"/><rect class="cls-7" x="570.5869" y="389.8524" width="49.7678" height="17.1898" rx="8.5949" ry="8.5949" transform="translate(-72.5753 657.4069) rotate(-54.9759)"/><circle class="cls-8" cx="533.8497" cy="500.7582" r="104.7021"/><circle class="cls-8" cx="533.8497" cy="500.7582" r="104.7021"/><rect class="cls-8" x="574.2657" y="391.8961" width="49.7678" height="17.1898" rx="8.5949" ry="8.5949" transform="translate(-72.6815 661.2904) rotate(-54.9759)"/><circle class="cls-9" cx="534.0056" cy="500.9108" r="90.9497"/><path class="cls-10" d="M606.96,500.4971c5.1509,46.822-28.7279,77.3936-73.1666,72.1447-40.0177-4.7267-76.81-35.873-58.0428-71.5316,8.1751-15.5326,3.7981-30.0594,11.4451-39.24,10.3241-12.395,28.2039-4.4963,50.6852-17.9851C572.434,423.1528,602.5533,460.4428,606.96,500.4971Z"/><circle class="cls-10" cx="462.2614" cy="488.0301" r="4.4963"/><circle class="cls-10" cx="466.3489" cy="473.315" r="4.4963"/><circle class="cls-10" cx="470.8452" cy="458.6" r="4.4963"/><circle class="cls-10" cx="512.9467" cy="442.6586" r="4.4963"/><circle class="cls-10" cx="508.6548" cy="424.4692" r="3.0656"/><circle class="cls-10" cx="516.6254" cy="426.3086" r="1.635"/><circle class="cls-10" cx="477.794" cy="445.1111" r="1.635"/><circle class="cls-10" cx="482.699" cy="440.2061" r="1.635"/><circle class="cls-10" cx="516.6254" cy="434.8923" r="1.635"/><circle class="cls-10" cx="493.7353" cy="446.7462" r="1.635"/><circle class="cls-10" cx="497.0053" cy="449.6074" r="1.635"/><circle class="cls-10" cx="505.5891" cy="449.6074" r="1.635"/><circle class="cls-10" cx="459.4001" cy="465.9575" r="1.635"/><circle class="cls-10" cx="457.7651" cy="477.8113" r="1.635"/><circle class="cls-10" cx="470.8452" cy="483.5338" r="1.635"/><circle class="cls-10" cx="468.3927" cy="494.1614" r="1.635"/><circle class="cls-10" cx="459.4001" cy="495.7964" r="1.635"/><circle class="cls-10" cx="482.699" cy="461.4612" r="1.635"/><circle class="cls-10" cx="481.064" cy="456.965" r="1.635"/><circle class="cls-10" cx="478.6115" cy="452.0599" r="1.635"/><circle class="cls-10" cx="559.9532" cy="426.3086" r="1.635"/><circle class="cls-10" cx="525.2092" cy="435.7099" r="2.4525"/><circle class="cls-10" cx="525.2092" cy="424.2648" r="2.4525"/><circle class="cls-10" cx="531.3405" cy="432.4398" r="2.4525"/><circle class="cls-10" cx="501.9104" cy="442.6586" r="2.4525"/><circle class="cls-10" cx="540.7418" cy="434.4836" r="2.4525"/><circle class="cls-10" cx="554.2306" cy="429.9873" r="2.4525"/><circle class="cls-10" cx="554.2306" cy="419.3598" r="2.4525"/><circle class="cls-10" cx="477.9984" cy="469.0231" r="3.0656"/><circle class="cls-10" cx="486.3778" cy="449.6074" r="4.4963"/><circle class="cls-10" cx="495.3703" cy="434.7786" r="6.7281"/><circle class="cls-10" cx="540.7418" cy="424.1511" r="6.7281"/><g class="cls-11"><path class="cls-12" d="M622.4922,480.2638c-.9348-4.6742-19.12-21.1881-44.1452-35.5614-23.4128-13.4473-57.1772-12.8384-76.4366-4.905-16.4175,6.7626-31.3286,30.1445-35.1527,54.364-3.6788,23.2991,1.635,69.0791,1.635,69.0791-.5049.7854-2.1543-1.2923-4.0875-3.6788a82.4051,82.4051,0,0,1-7.7663-11.0363,131.4984,131.4984,0,0,1-6.9488-13.4888c-18.8026-47.0065,4.2682-99.5743,51.2219-118.5643s98.3813,4.5225,118.41,51.529"/></g><circle class="cls-5" cx="560.8641" cy="494.545" r="15.3282"/><circle class="cls-5" cx="525.5246" cy="503.1791" r="15.3282"/><circle class="cls-13" cx="524.8005" cy="501.5189" r="6.54"/><circle class="cls-13" cx="560.7707" cy="492.5264" r="6.54"/><path class="cls-14" d="M538.2893,491.7089c1.6354,4.57-3.2866,7.3852-13.4888,11.0363s-14.7147,7.431-16.35,2.8613-.3922-13.9253,9.81-17.5764S536.6539,487.1391,538.2893,491.7089Z"/><path class="cls-14" d="M577.1207,492.5264c-.48,4.83-4.5345,3.8139-15.3172,2.7419s-17.0456-.7734-16.5654-5.6032,6.1779-11.567,16.9606-10.4949S577.6009,487.6966,577.1207,492.5264Z"/><circle class="cls-5" cx="353.6836" cy="927.0008" r="132.64"/><circle class="cls-6" cx="358.5886" cy="931.4971" r="132.64"/><circle class="cls-5" cx="352.8414" cy="925.2648" r="104.7021"/><rect class="cls-7" x="395.5869" y="820.8524" width="49.7678" height="17.1898" rx="8.5949" ry="8.5949" transform="translate(-500.0893 697.7374) rotate(-54.9759)"/><circle class="cls-8" cx="358.8497" cy="931.7582" r="104.7021"/><circle class="cls-8" cx="358.8497" cy="931.7582" r="104.7021"/><rect class="cls-8" x="399.2657" y="822.8961" width="49.7678" height="17.1898" rx="8.5949" ry="8.5949" transform="translate(-500.1956 701.6209) rotate(-54.9759)"/><circle class="cls-9" cx="359.0056" cy="931.9108" r="90.9497"/><path class="cls-10" d="M431.96,931.4971c5.1509,46.822-28.7279,77.3936-73.1666,72.1447-40.0177-4.7267-76.81-35.873-58.0428-71.5316,8.1751-15.5326,3.7981-30.0594,11.4451-39.24,10.3241-12.395,28.2039-4.4963,50.6852-17.9851C397.434,854.1528,427.5533,891.4428,431.96,931.4971Z"/><circle class="cls-10" cx="287.2614" cy="919.0301" r="4.4963"/><circle class="cls-10" cx="291.3489" cy="904.315" r="4.4963"/><circle class="cls-10" cx="295.8452" cy="889.6" r="4.4963"/><circle class="cls-10" cx="337.9467" cy="873.6586" r="4.4963"/><circle class="cls-10" cx="333.6548" cy="855.4692" r="3.0656"/><circle class="cls-10" cx="341.6254" cy="857.3086" r="1.635"/><circle class="cls-10" cx="302.794" cy="876.1111" r="1.635"/><circle class="cls-10" cx="307.699" cy="871.2061" r="1.635"/><circle class="cls-10" cx="341.6254" cy="865.8923" r="1.635"/><circle class="cls-10" cx="318.7353" cy="877.7462" r="1.635"/><circle class="cls-10" cx="322.0053" cy="880.6074" r="1.635"/><circle class="cls-10" cx="330.5891" cy="880.6074" r="1.635"/><circle class="cls-10" cx="284.4001" cy="896.9575" r="1.635"/><circle class="cls-10" cx="282.7651" cy="908.8113" r="1.635"/><circle class="cls-10" cx="295.8452" cy="914.5338" r="1.635"/><circle class="cls-10" cx="293.3927" cy="925.1614" r="1.635"/><circle class="cls-10" cx="284.4001" cy="926.7964" r="1.635"/><circle class="cls-10" cx="307.699" cy="892.4612" r="1.635"/><circle class="cls-10" cx="306.064" cy="887.965" r="1.635"/><circle class="cls-10" cx="303.6115" cy="883.0599" r="1.635"/><circle class="cls-10" cx="384.9532" cy="857.3086" r="1.635"/><circle class="cls-10" cx="350.2092" cy="866.7099" r="2.4525"/><circle class="cls-10" cx="350.2092" cy="855.2648" r="2.4525"/><circle class="cls-10" cx="356.3405" cy="863.4398" r="2.4525"/><circle class="cls-10" cx="326.9104" cy="873.6586" r="2.4525"/><circle class="cls-10" cx="365.7418" cy="865.4836" r="2.4525"/><circle class="cls-10" cx="379.2306" cy="860.9873" r="2.4525"/><circle class="cls-10" cx="379.2306" cy="850.3598" r="2.4525"/><circle class="cls-10" cx="302.9984" cy="900.0231" r="3.0656"/><circle class="cls-10" cx="311.3778" cy="880.6074" r="4.4963"/><circle class="cls-10" cx="320.3703" cy="865.7786" r="6.7281"/><circle class="cls-10" cx="365.7418" cy="855.1511" r="6.7281"/><g class="cls-11"><path class="cls-12" d="M447.4922,911.2638c-.9348-4.6742-19.12-21.1881-44.1452-35.5614-23.4128-13.4473-57.1772-12.8384-76.4366-4.905-16.4175,6.7626-31.3286,30.1445-35.1527,54.364-3.6788,23.2991,1.635,69.0791,1.635,69.0791-.5049.7854-2.1543-1.2923-4.0875-3.6788a82.4051,82.4051,0,0,1-7.7663-11.0363,131.4984,131.4984,0,0,1-6.9488-13.4888c-18.8026-47.0065,4.2682-99.5743,51.2219-118.5643s98.3813,4.5225,118.41,51.529"/></g><circle class="cls-5" cx="385.8641" cy="925.545" r="15.3282"/><circle class="cls-5" cx="350.5246" cy="934.1791" r="15.3282"/><circle class="cls-13" cx="349.8005" cy="932.5189" r="6.54"/><circle class="cls-13" cx="385.7707" cy="923.5264" r="6.54"/><path class="cls-14" d="M363.2893,922.7089c1.6354,4.57-3.2866,7.3852-13.4888,11.0363s-14.7147,7.431-16.35,2.8613-.3922-13.9253,9.81-17.5764S361.6539,918.1391,363.2893,922.7089Z"/><path class="cls-14" d="M402.1207,923.5264c-.48,4.83-4.5345,3.8139-15.3172,2.7419s-17.0456-.7734-16.5654-5.6032,6.1779-11.567,16.9606-10.4949S402.6009,918.6966,402.1207,923.5264Z"/><circle class="cls-5" cx="1427.5576" cy="143.0447" r="132.64"/><circle class="cls-6" cx="1432.4626" cy="147.541" r="132.64"/><circle class="cls-5" cx="1426.7153" cy="141.3088" r="104.7021"/><rect class="cls-7" x="1469.4609" y="36.8963" width="49.7678" height="17.1898" rx="8.5949" ry="8.5949" transform="translate(599.4549 1243.1172) rotate(-54.9759)"/><circle class="cls-8" cx="1432.7237" cy="147.8021" r="104.7021"/><circle class="cls-8" cx="1432.7237" cy="147.8021" r="104.7021"/><rect class="cls-8" x="1473.1397" y="38.9401" width="49.7678" height="17.1898" rx="8.5949" ry="8.5949" transform="translate(599.3487 1247.0005) rotate(-54.9759)"/><circle class="cls-9" cx="1432.8796" cy="147.9548" r="90.9497"/><path class="cls-10" d="M1505.8336,147.541c5.1509,46.8221-28.7279,77.3936-73.1666,72.1448-40.0178-4.7267-76.81-35.873-58.0428-71.5317,8.175-15.5325,3.7981-30.0593,11.4451-39.24,10.324-12.395,28.2038-4.4963,50.6852-17.9851C1471.308,70.1968,1501.4272,107.4867,1505.8336,147.541Z"/><circle class="cls-10" cx="1361.1354" cy="135.0741" r="4.4963"/><circle class="cls-10" cx="1365.2229" cy="120.359" r="4.4963"/><circle class="cls-10" cx="1369.7192" cy="105.6439" r="4.4963"/><circle class="cls-10" cx="1411.8206" cy="89.7026" r="4.4963"/><circle class="cls-10" cx="1407.5287" cy="71.5131" r="3.0656"/><circle class="cls-10" cx="1415.4994" cy="73.3525" r="1.635"/><circle class="cls-10" cx="1376.668" cy="92.1551" r="1.635"/><circle class="cls-10" cx="1381.573" cy="87.2501" r="1.635"/><circle class="cls-10" cx="1415.4994" cy="81.9363" r="1.635"/><circle class="cls-10" cx="1392.6093" cy="93.7901" r="1.635"/><circle class="cls-10" cx="1395.8793" cy="96.6514" r="1.635"/><circle class="cls-10" cx="1404.4631" cy="96.6514" r="1.635"/><circle class="cls-10" cx="1358.2741" cy="113.0015" r="1.635"/><circle class="cls-10" cx="1356.6391" cy="124.8553" r="1.635"/><circle class="cls-10" cx="1369.7192" cy="130.5778" r="1.635"/><circle class="cls-10" cx="1367.2667" cy="141.2054" r="1.635"/><circle class="cls-10" cx="1358.2741" cy="142.8404" r="1.635"/><circle class="cls-10" cx="1381.573" cy="108.5052" r="1.635"/><circle class="cls-10" cx="1379.938" cy="104.0089" r="1.635"/><circle class="cls-10" cx="1377.4855" cy="99.1039" r="1.635"/><circle class="cls-10" cx="1458.8271" cy="73.3525" r="1.635"/><circle class="cls-10" cx="1424.0832" cy="82.7538" r="2.4525"/><circle class="cls-10" cx="1424.0832" cy="71.3088" r="2.4525"/><circle class="cls-10" cx="1430.2145" cy="79.4838" r="2.4525"/><circle class="cls-10" cx="1400.7843" cy="89.7026" r="2.4525"/><circle class="cls-10" cx="1439.6158" cy="81.5276" r="2.4525"/><circle class="cls-10" cx="1453.1046" cy="77.0313" r="2.4525"/><circle class="cls-10" cx="1453.1046" cy="66.4037" r="2.4525"/><circle class="cls-10" cx="1376.8723" cy="116.0671" r="3.0656"/><circle class="cls-10" cx="1385.2517" cy="96.6514" r="4.4963"/><circle class="cls-10" cx="1394.2443" cy="81.8226" r="6.7281"/><circle class="cls-10" cx="1439.6158" cy="71.1951" r="6.7281"/><g class="cls-11"><path class="cls-12" d="M1521.3662,127.3078c-.9349-4.6743-19.12-21.1881-44.1452-35.5614-23.4128-13.4473-57.1772-12.8384-76.4367-4.9051-16.4174,6.7627-31.3286,30.1445-35.1527,54.3641-3.6787,23.2991,1.6351,69.0791,1.6351,69.0791-.505.7854-2.1543-1.2923-4.0876-3.6788a82.4142,82.4142,0,0,1-7.7663-11.0363,131.4955,131.4955,0,0,1-6.9487-13.4888c-18.8026-47.0065,4.2682-99.5744,51.2219-118.5643s98.3813,4.5224,118.41,51.5289"/></g><circle class="cls-5" cx="1459.738" cy="141.589" r="15.3282"/><circle class="cls-5" cx="1424.3985" cy="150.223" r="15.3282"/><circle class="cls-13" cx="1423.6744" cy="148.5629" r="6.54"/><circle class="cls-13" cx="1459.6446" cy="139.5704" r="6.54"/><path class="cls-14" d="M1437.1633,138.7529c1.6353,4.57-3.2866,7.3852-13.4889,11.0363s-14.7147,7.431-16.35,2.8612-.3922-13.9252,9.81-17.5763S1435.5279,134.1831,1437.1633,138.7529Z"/><path class="cls-14" d="M1475.9947,139.57c-.48,4.83-4.5345,3.8139-15.3172,2.7419s-17.0456-.7734-16.5655-5.6032,6.1779-11.567,16.9607-10.495S1476.4749,134.7406,1475.9947,139.57Z"/><path class="cls-15" d="M81.6838,977.6294a35.0956,35.0956,0,1,0,35.0956,35.0956A35.0956,35.0956,0,0,0,81.6838,977.6294Zm0,47.9912a12.8956,12.8956,0,1,1,12.8956-12.8956A12.8957,12.8957,0,0,1,81.6838,1025.6206Z"/><rect class="cls-15" x="72.7059" y="1038.3529" width="18.2824" height="26.7706" rx="9.1412" ry="9.1412"/><rect class="cls-15" x="72.7059" y="960" width="18.2824" height="26.7706" rx="9.1412" ry="9.1412"/><rect class="cls-15" x="103.7206" y="970.4471" width="18.2824" height="26.7706" rx="9.1412" ry="9.1412" transform="translate(728.731 208.3525) rotate(45)"/><rect class="cls-15" x="115.4735" y="1003.4206" width="18.2824" height="26.7706" rx="9.1412" ry="9.1412" transform="translate(1141.4206 892.1912) rotate(90)"/><rect class="cls-15" x="103.7206" y="1031.1706" width="18.2824" height="26.7706" rx="9.1412" ry="9.1412" transform="translate(931.2796 1703.3631) rotate(135)"/><rect class="cls-15" x="39.4059" y="970.4471" width="18.2824" height="26.7706" rx="9.1412" ry="9.1412" transform="translate(778.5495 1645.179) rotate(135)"/><rect class="cls-15" x="31.2441" y="1003.0941" width="18.2824" height="26.7706" rx="9.1412" ry="9.1412" transform="translate(1056.8647 976.0941) rotate(90)"/><rect class="cls-15" x="45.2824" y="1031.1706" width="18.2824" height="26.7706" rx="9.1412" ry="9.1412" transform="translate(754.5528 267.4601) rotate(45)"/><path class="cls-16" d="M84.6838,978.6294a35.0956,35.0956,0,1,0,35.0956,35.0956A35.0956,35.0956,0,0,0,84.6838,978.6294Zm0,47.9912a12.8956,12.8956,0,1,1,12.8956-12.8956A12.8957,12.8957,0,0,1,84.6838,1026.6206Z"/><rect class="cls-16" x="75.7059" y="1039.3529" width="18.2824" height="26.7706" rx="9.1412" ry="9.1412"/><rect class="cls-16" x="75.7059" y="961" width="18.2824" height="26.7706" rx="9.1412" ry="9.1412"/><rect class="cls-16" x="106.7206" y="971.4471" width="18.2824" height="26.7706" rx="9.1412" ry="9.1412" transform="translate(730.3168 206.5241) rotate(45)"/><rect class="cls-16" x="118.4735" y="1004.4206" width="18.2824" height="26.7706" rx="9.1412" ry="9.1412" transform="translate(1145.4206 890.1912) rotate(90)"/><rect class="cls-16" x="106.7206" y="1032.1706" width="18.2824" height="26.7706" rx="9.1412" ry="9.1412" transform="translate(937.108 1702.9489) rotate(135)"/><rect class="cls-16" x="42.4059" y="971.4471" width="18.2824" height="26.7706" rx="9.1412" ry="9.1412" transform="translate(784.3779 1644.7648) rotate(135)"/><rect class="cls-16" x="34.2441" y="1004.0941" width="18.2824" height="26.7706" rx="9.1412" ry="9.1412" transform="translate(1060.8647 974.0941) rotate(90)"/><rect class="cls-16" x="48.2824" y="1032.1706" width="18.2824" height="26.7706" rx="9.1412" ry="9.1412" transform="translate(756.1386 265.6317) rotate(45)"/><circle class="cls-17" cx="130.5631" cy="130.5924" r="70.3475"/><path class="cls-17" d="M181.4189,130.77a50.6786,50.6786,0,0,1-101.3571,0c0-27.989,15.5609.6342,43.2362-3.544C151.2726,123.0022,181.4086,99.7627,181.4189,130.77Z"/><g class="cls-18"><path class="cls-17" d="M130.5631,60.2449a70.3475,70.3475,0,1,1,0,140.6949"/></g><rect class="cls-17" x="87.5041" y="184.2832" width="86.118" height="18.4286"/><rect class="cls-17" x="87.5041" y="50.3218" width="86.118" height="25.8709"/><polyline class="cls-17" points="173.622 50.322 87.504 50.322 78.29 24.451"/><rect class="cls-17" x="167.9518" y="57.0553" width="52.8049" height="12.7582"/><rect class="cls-17" x="190.2787" y="77.6103" width="52.8049" height="12.7582" transform="translate(284.3767 -138.3218) rotate(85.7487)"/><g class="cls-18"><rect class="cls-17" x="130.7403" y="50.3218" width="42.8818" height="25.8709"/></g><g class="cls-18"><rect class="cls-17" x="130.3859" y="184.2832" width="43.2362" height="18.4286"/></g><circle class="cls-19" cx="119.3475" cy="127.1414" r="70.3475"/><path class="cls-20" d="M170.2032,127.3186a50.6786,50.6786,0,0,1-101.3571,0c0-27.989,15.5609.6342,43.2363-3.544C140.057,119.5512,170.1929,96.3117,170.2032,127.3186Z"/><g class="cls-18"><path class="cls-21" d="M119.3475,56.7939a70.3475,70.3475,0,0,1,0,140.6949"/></g><rect class="cls-19" x="76.2884" y="180.8323" width="86.118" height="18.4286"/><rect class="cls-22" x="76.2884" y="46.8709" width="86.118" height="25.8709"/><polyline class="cls-15" points="162.406 46.871 76.288 46.871 67.074 21"/><rect class="cls-22" x="156.7362" y="53.6044" width="52.8049" height="12.7582"/><rect class="cls-22" x="179.0631" y="74.1593" width="52.8049" height="12.7582" transform="matrix(0.0741, 0.9972, -0.9972, 0.0741, 270.5509, -130.3322)"/><g class="cls-18"><rect class="cls-21" x="119.5247" y="46.8709" width="42.8818" height="25.8709"/></g><g class="cls-18"><rect class="cls-21" x="119.1703" y="180.8323" width="43.2362" height="18.4286"/></g><ellipse class="cls-23" cx="1825.1795" cy="246.2413" rx="26.1716" ry="15.8654" transform="translate(1563.7223 2069.3034) rotate(-89.5221)"/><path class="cls-24" d="M1825.4733,220.0713c-.8587,2.601-1.2687,6.5634-1.54,11.344-.411,7.2435,1.2862,9.9866,1.7774,16.9472.8522,12.0788-3.5361,23.43-2.3347,23.8941,1.3217.51,8.7484-14.4651,8.8634-24.3288.08-6.8774-3.3135-7.0248-5.2588-19.4478C1826.4228,224.9175,1825.5781,221.9074,1825.4733,220.0713Z"/><path class="cls-25" d="M1825.4052,220a43.8647,43.8647,0,0,0-2.1574,11.2679c-.4109,7.2435,1.2862,9.9866,1.7774,16.9472.8522,12.0789-2.8505,23.5778-1.6491,24.0414,1.3217.51,8.0628-14.6124,8.1778-24.4761.08-6.8774-3.3135-7.0248-5.2588-19.4478C1825.7373,224.77,1825.51,221.8362,1825.4052,220Z"/><g class="cls-26"><path class="cls-27" d="M1832.1819,222.6716c3.4128,3.2429,8.7779,9.149,8.8636,23.5721.0883,14.8851-7.7919,26.3232-16.0224,26.1689-.89-.0167.3392.0052,1.9267-.4058,2.7955-.7239,6.0882-3.65,8.4455-7.6837,3.08-5.27,4.096-13.07,4.1471-19.01.0554-6.4361-2.2016-15.54-5.3208-20.2243"/></g><path class="cls-28" d="M1817.4756,229.7541a6.6891,6.6891,0,0,1,2.2619-3.8982"/><ellipse class="cls-23" cx="1825.1795" cy="308.0699" rx="23.3094" ry="15.8652" transform="translate(1496.9838 2129.738) rotate(-89.3676)"/><path class="cls-24" d="M1825.4733,284.7621c-.8587,2.3165-1.2687,5.8455-1.54,10.1033-.411,6.4512,1.2862,8.8943,1.7774,15.0936.8522,10.7578-3.5361,20.8678-2.3347,21.2808,1.3217.4543,8.7484-12.883,8.8634-21.668.08-6.1251-3.3135-6.2564-5.2588-17.3207C1826.4228,289.0783,1825.5781,286.3974,1825.4733,284.7621Z"/><path class="cls-25" d="M1825.4052,284.6987a35.3409,35.3409,0,0,0-2.1574,10.0355c-.4109,6.4512,1.2862,8.8943,1.7774,15.0937.8522,10.7577-2.8505,20.9989-1.6491,21.4119,1.3217.4543,8.0628-13.0142,8.1778-21.7992.08-6.1251-3.3135-6.2564-5.2588-17.3207A68.14,68.14,0,0,1,1825.4052,284.6987Z"/><g class="cls-26"><path class="cls-27" d="M1832.1819,287.078c3.4128,2.8882,8.7779,8.1483,8.8636,20.994.0883,13.2571-7.7919,23.4441-16.0224,23.3067-.89-.0149.3392.0046,1.9267-.3615,2.7955-.6446,6.0882-3.25,8.4455-6.8433,3.08-4.6939,4.096-11.64,4.1471-16.9308.0554-5.7323-2.2016-13.8405-5.3208-18.0124"/></g><path class="cls-28" d="M1817.4756,293.3859a5.8609,5.8609,0,0,1,2.2619-3.4719"/><ellipse class="cls-23" cx="1824.3606" cy="370.7249" rx="26.1716" ry="15.8654" transform="translate(1438.4309 2191.9297) rotate(-89.5221)"/><path class="cls-24" d="M1824.6543,344.5549c-.8587,2.6009-1.2687,6.5634-1.54,11.344-.4109,7.2435,1.2862,9.9865,1.7774,16.9472.8522,12.0788-3.5361,23.43-2.3347,23.8941,1.3217.51,8.7484-14.4651,8.8634-24.3289.08-6.8773-3.3135-7.0247-5.2588-19.4478C1825.6039,349.4011,1824.7592,346.391,1824.6543,344.5549Z"/><path class="cls-25" d="M1824.5862,344.4837a43.869,43.869,0,0,0-2.1574,11.2679c-.4109,7.2435,1.2863,9.9866,1.7774,16.9472.8523,12.0788-2.8505,23.5778-1.6491,24.0414,1.3217.51,8.0629-14.6124,8.1778-24.4761.08-6.8774-3.3134-7.0248-5.2588-19.4479C1824.9183,349.2538,1824.6911,346.32,1824.5862,344.4837Z"/><g class="cls-26"><path class="cls-27" d="M1831.3629,347.1552c3.4128,3.2429,8.7779,9.149,8.8636,23.5721.0884,14.8851-7.7919,26.3232-16.0223,26.1689-.89-.0167.3391.0052,1.9266-.4058,2.7956-.7239,6.0882-3.65,8.4455-7.6838,3.08-5.27,4.0961-13.07,4.1471-19.01.0554-6.4362-2.2016-15.54-5.3207-20.2244"/></g><path class="cls-28" d="M1816.6566,354.2377a6.69,6.69,0,0,1,2.2619-3.8982"/><ellipse class="cls-23" cx="1824.3606" cy="432.5534" rx="23.3094" ry="15.8652" transform="translate(1371.6979 2252.0288) rotate(-89.3676)"/><path class="cls-24" d="M1824.6543,409.2457c-.8587,2.3165-1.2687,5.8455-1.54,10.1033-.4109,6.4512,1.2862,8.8943,1.7774,15.0936.8522,10.7577-3.5361,20.8678-2.3347,21.2808,1.3217.4543,8.7484-12.8831,8.8634-21.668.08-6.1251-3.3135-6.2564-5.2588-17.3207C1825.6039,413.5619,1824.7592,410.881,1824.6543,409.2457Z"/><path class="cls-25" d="M1824.5862,409.1823a35.3444,35.3444,0,0,0-2.1574,10.0355c-.4109,6.4512,1.2863,8.8943,1.7774,15.0936.8523,10.7578-2.8505,20.999-1.6491,21.412,1.3217.4543,8.0629-13.0142,8.1778-21.7992.08-6.1251-3.3134-6.2564-5.2588-17.3207A68.14,68.14,0,0,1,1824.5862,409.1823Z"/><g class="cls-26"><path class="cls-27" d="M1831.3629,411.5616c3.4128,2.8882,8.7779,8.1483,8.8636,20.994.0884,13.257-7.7919,23.4441-16.0223,23.3067-.89-.0149.3391.0046,1.9266-.3615,2.7956-.6446,6.0882-3.25,8.4455-6.8433,3.08-4.6939,4.0961-11.64,4.1471-16.9308.0554-5.7323-2.2016-13.8405-5.3207-18.0124"/></g><path class="cls-28" d="M1816.6566,417.87a5.8608,5.8608,0,0,1,2.2619-3.4719"/><ellipse class="cls-23" cx="1825.1795" cy="492.7516" rx="26.1716" ry="15.8654" transform="translate(1317.2206 2313.7574) rotate(-89.5221)"/><path class="cls-24" d="M1825.4733,466.5816c-.8587,2.6009-1.2687,6.5633-1.54,11.344-.411,7.2435,1.2862,9.9865,1.7774,16.9472.8522,12.0788-3.5361,23.43-2.3347,23.8941,1.3217.51,8.7484-14.4651,8.8634-24.3289.08-6.8773-3.3135-7.0247-5.2588-19.4478C1826.4228,471.4278,1825.5781,468.4177,1825.4733,466.5816Z"/><path class="cls-25" d="M1825.4052,466.51a43.8629,43.8629,0,0,0-2.1574,11.2679c-.4109,7.2435,1.2862,9.9865,1.7774,16.9472.8522,12.0788-2.8505,23.5777-1.6491,24.0414,1.3217.51,8.0628-14.6124,8.1778-24.4762.08-6.8773-3.3135-7.0247-5.2588-19.4478C1825.7373,471.2805,1825.51,468.3465,1825.4052,466.51Z"/><g class="cls-26"><path class="cls-27" d="M1832.1819,469.1819c3.4128,3.2429,8.7779,9.1489,8.8636,23.5721.0883,14.8851-7.7919,26.3232-16.0224,26.1689-.89-.0167.3392.0052,1.9267-.4059,2.7955-.7238,6.0882-3.65,8.4455-7.6837,3.08-5.27,4.096-13.07,4.1471-19.01.0554-6.4362-2.2016-15.54-5.3208-20.2244"/></g><path class="cls-28" d="M1817.4756,476.2644a6.6888,6.6888,0,0,1,2.2619-3.8982"/><ellipse class="cls-23" cx="1825.1795" cy="554.5801" rx="23.3094" ry="15.8652" transform="translate(1250.4886 2373.5275) rotate(-89.3676)"/><path class="cls-24" d="M1825.4733,531.2724c-.8587,2.3164-1.2687,5.8455-1.54,10.1033-.411,6.4512,1.2862,8.8942,1.7774,15.0936.8522,10.7577-3.5361,20.8678-2.3347,21.2807,1.3217.4543,8.7484-12.883,8.8634-21.6679.08-6.1252-3.3135-6.2564-5.2588-17.3208C1826.4228,535.5885,1825.5781,532.9076,1825.4733,531.2724Z"/><path class="cls-25" d="M1825.4052,531.209a35.3409,35.3409,0,0,0-2.1574,10.0355c-.4109,6.4512,1.2862,8.8943,1.7774,15.0936.8522,10.7577-2.8505,20.999-1.6491,21.4119,1.3217.4543,8.0628-13.0142,8.1778-21.7991.08-6.1251-3.3135-6.2564-5.2588-17.3207A68.1427,68.1427,0,0,1,1825.4052,531.209Z"/><g class="cls-26"><path class="cls-27" d="M1832.1819,533.5883c3.4128,2.8882,8.7779,8.1483,8.8636,20.9939.0883,13.2571-7.7919,23.4442-16.0224,23.3068-.89-.0149.3392.0046,1.9267-.3615,2.7955-.6447,6.0882-3.25,8.4455-6.8433,3.08-4.6939,4.096-11.64,4.1471-16.9309.0554-5.7322-2.2016-13.84-5.3208-18.0123"/></g><path class="cls-28" d="M1817.4756,539.8961a5.86,5.86,0,0,1,2.2619-3.4718"/><ellipse class="cls-23" cx="1824.3606" cy="617.2352" rx="26.1716" ry="15.8654" transform="translate(1191.9292 2436.3837) rotate(-89.5221)"/><path class="cls-24" d="M1824.6543,591.0651c-.8587,2.601-1.2687,6.5634-1.54,11.3441-.4109,7.2434,1.2862,9.9865,1.7774,16.9472.8522,12.0788-3.5361,23.43-2.3347,23.8941,1.3217.51,8.7484-14.4651,8.8634-24.3289.08-6.8773-3.3135-7.0247-5.2588-19.4478C1825.6039,595.9114,1824.7592,592.9012,1824.6543,591.0651Z"/><path class="cls-25" d="M1824.5862,590.994a43.8672,43.8672,0,0,0-2.1574,11.2679c-.4109,7.2434,1.2863,9.9865,1.7774,16.9472.8523,12.0788-2.8505,23.5777-1.6491,24.0414,1.3217.51,8.0629-14.6124,8.1778-24.4762.08-6.8773-3.3134-7.0247-5.2588-19.4478C1824.9183,595.7641,1824.6911,592.83,1824.5862,590.994Z"/><g class="cls-26"><path class="cls-27" d="M1831.3629,593.6655c3.4128,3.2429,8.7779,9.1489,8.8636,23.5721.0884,14.8851-7.7919,26.3231-16.0223,26.1689-.89-.0167.3391.0052,1.9266-.4059,2.7956-.7238,6.0882-3.65,8.4455-7.6837,3.08-5.27,4.0961-13.07,4.1471-19.01.0554-6.4362-2.2016-15.54-5.3207-20.2244"/></g><path class="cls-28" d="M1816.6566,600.748a6.69,6.69,0,0,1,2.2619-3.8983"/><ellipse class="cls-23" cx="1824.3606" cy="679.0637" rx="23.3094" ry="15.8652" transform="translate(1125.2026 2495.8183) rotate(-89.3676)"/><path class="cls-24" d="M1824.6543,655.7559c-.8587,2.3165-1.2687,5.8456-1.54,10.1034-.4109,6.4512,1.2862,8.8942,1.7774,15.0936.8522,10.7577-3.5361,20.8678-2.3347,21.2807,1.3217.4543,8.7484-12.883,8.8634-21.6679.08-6.1252-3.3135-6.2565-5.2588-17.3208C1825.6039,660.0721,1824.7592,657.3912,1824.6543,655.7559Z"/><path class="cls-25" d="M1824.5862,655.6926a35.3436,35.3436,0,0,0-2.1574,10.0355c-.4109,6.4512,1.2863,8.8942,1.7774,15.0936.8523,10.7577-2.8505,20.999-1.6491,21.4119,1.3217.4543,8.0629-13.0142,8.1778-21.7991.08-6.1252-3.3134-6.2564-5.2588-17.3208A68.1415,68.1415,0,0,1,1824.5862,655.6926Z"/><g class="cls-26"><path class="cls-27" d="M1831.3629,658.0719c3.4128,2.8882,8.7779,8.1483,8.8636,20.9939.0884,13.2571-7.7919,23.4441-16.0223,23.3067-.89-.0148.3391.0047,1.9266-.3614,2.7956-.6447,6.0882-3.2505,8.4455-6.8433,3.08-4.6939,4.0961-11.64,4.1471-16.9309.0554-5.7322-2.2016-13.84-5.3207-18.0124"/></g><path class="cls-28" d="M1816.6566,664.38a5.8608,5.8608,0,0,1,2.2619-3.4718"/><ellipse class="cls-23" cx="1824.3606" cy="744.9946" rx="26.1716" ry="15.8654" transform="translate(1064.1742 2563.0775) rotate(-89.5221)"/><path class="cls-24" d="M1824.6543,718.8246c-.8587,2.601-1.2687,6.5634-1.54,11.344-.4109,7.2435,1.2862,9.9866,1.7774,16.9472.8522,12.0789-3.5361,23.43-2.3347,23.8941,1.3217.51,8.7484-14.4651,8.8634-24.3288.08-6.8774-3.3135-7.0248-5.2588-19.4478C1825.6039,723.6708,1824.7592,720.6607,1824.6543,718.8246Z"/><path class="cls-25" d="M1824.5862,718.7534a43.869,43.869,0,0,0-2.1574,11.2679c-.4109,7.2435,1.2863,9.9866,1.7774,16.9473.8523,12.0788-2.8505,23.5777-1.6491,24.0413,1.3217.51,8.0629-14.6124,8.1778-24.4761.08-6.8774-3.3134-7.0248-5.2588-19.4478C1824.9183,723.5235,1824.6911,720.59,1824.5862,718.7534Z"/><g class="cls-26"><path class="cls-27" d="M1831.3629,721.4249c3.4128,3.2429,8.7779,9.149,8.8636,23.5721.0884,14.8851-7.7919,26.3232-16.0223,26.1689-.89-.0167.3391.0052,1.9266-.4058,2.7956-.7239,6.0882-3.65,8.4455-7.6837,3.08-5.27,4.0961-13.07,4.1471-19.01.0554-6.4362-2.2016-15.54-5.3207-20.2244"/></g><path class="cls-28" d="M1816.6566,728.5074a6.69,6.69,0,0,1,2.2619-3.8982"/><ellipse class="cls-23" cx="1824.3606" cy="806.8232" rx="23.3094" ry="15.8652" transform="translate(997.4509 2622.1676) rotate(-89.3676)"/><path class="cls-24" d="M1824.6543,783.5154c-.8587,2.3165-1.2687,5.8455-1.54,10.1033-.4109,6.4512,1.2862,8.8943,1.7774,15.0937.8522,10.7577-3.5361,20.8677-2.3347,21.2807,1.3217.4543,8.7484-12.883,8.8634-21.668.08-6.1251-3.3135-6.2564-5.2588-17.3207C1825.6039,787.8316,1824.7592,785.1507,1824.6543,783.5154Z"/><path class="cls-25" d="M1824.5862,783.452a35.3444,35.3444,0,0,0-2.1574,10.0355c-.4109,6.4513,1.2863,8.8943,1.7774,15.0937.8523,10.7577-2.8505,20.9989-1.6491,21.4119,1.3217.4543,8.0629-13.0142,8.1778-21.7992.08-6.1251-3.3134-6.2564-5.2588-17.3207A68.14,68.14,0,0,1,1824.5862,783.452Z"/><g class="cls-26"><path class="cls-27" d="M1831.3629,785.8313c3.4128,2.8882,8.7779,8.1484,8.8636,20.994.0884,13.2571-7.7919,23.4441-16.0223,23.3067-.89-.0149.3391.0046,1.9266-.3615,2.7956-.6446,6.0882-3.25,8.4455-6.8433,3.08-4.6939,4.0961-11.64,4.1471-16.9308.0554-5.7323-2.2016-13.84-5.3207-18.0124"/></g><path class="cls-28" d="M1816.6566,792.1392a5.8614,5.8614,0,0,1,2.2619-3.4719"/><ellipse class="cls-29" cx="1785.8594" cy="956.1067" rx="15.7528" ry="14.0141"/><path class="cls-29" d="M1842.2782,1019.9308l-27.0334-.0988a30.6452,30.6452,0,0,1-20.3593-7.6207,25.9458,25.9458,0,0,1-7.199-10.7543,22.9491,22.9491,0,0,1-1.2-7.42q.1223-26.4509.2443-52.9018c.0652-14.1291,13.113-25.6417,28.9951-25.5837l27.0335.0988a30.6437,30.6437,0,0,1,20.3592,7.6207,25.8875,25.8875,0,0,1,7.9518,13.5667,22.2011,22.2011,0,0,1,.4469,4.6073q-.1221,26.451-.2442,52.9018C1871.2081,1008.4761,1858.16,1019.9888,1842.2782,1019.9308Z"/><path class="cls-30" d="M1785.636,960.3659a4.1808,4.1808,0,1,1,.0383-8.3046"/><path class="cls-31" d="M1815.4969,959.1776c-5.7424,5.3491-13.8619,6.8189-18.0434,3.2663l-2.5343-2.1532"/><ellipse class="cls-29" cx="1871.2472" cy="956.2421" rx="15.7528" ry="14.0141"/><path class="cls-30" d="M1871.0621,952.1967a4.1808,4.1808,0,1,1-.0384,8.3046"/><rect class="cls-32" x="1827.2302" y="986.1069" width="56.839" height="18.1795" rx="7.9785" ry="7.9785" transform="translate(3.6488 -6.7738) rotate(0.2094)"/><rect class="cls-32" x="1771.7235" y="986.4024" width="54.3855" height="17.3948" rx="7.6341" ry="7.6341" transform="translate(3.6481 -6.5665) rotate(0.2094)"/><rect class="cls-33" x="1810.8" y="966.9024" width="34.6231" height="24.5558" rx="10.7769" ry="10.7769" transform="translate(842.2576 2803.7016) rotate(-89.7906)"/><path class="cls-34" d="M1786.5193,937.392c.07-15.0823,24.157-25.4611,43.15-25.3917s41.4979,10.6185,41.4283,25.7007"/><rect class="cls-35" x="1820.9454" y="968.8632" width="7.4131" height="14.0141" rx="3.2534" ry="3.2534" transform="translate(3.5786 -6.6618) rotate(0.2094)"/><ellipse class="cls-29" cx="1819.3531" cy="1021.1471" rx="8.3465" ry="7.7876" transform="translate(-2.8747 5.1387) rotate(-0.1617)"/><ellipse class="cls-29" cx="1836.0458" cy="1021.2081" rx="8.3465" ry="7.7876" transform="matrix(1, -0.0028, 0.0028, 1, -2.8748, 5.1858)"/><rect class="cls-34" x="1782.7366" y="933.429" width="91.2064" height="6.1827" rx="2.7134" ry="2.7134" transform="translate(3.4342 -6.6744) rotate(0.2094)"/><path class="cls-36" d="M1847.83,925.3141c3.4028-.75,6.7887.7965,7.5242,3.437l.4457,1.6"/><path class="cls-37" d="M1839.5242,959.12c5.3253,5.68,13.3154,7.6324,17.7559,4.3378l2.6912-1.9967"/><ellipse class="cls-15" cx="1834.5261" cy="1009.6403" rx="4.2605" ry="3.7903"/><path class="cls-38" d="M1847.4118,1007.0763l-1.5153-.0453,2.588-1.6907a1.0476,1.0476,0,0,0,.27-1.57,1.1976,1.1976,0,0,0-.31-.26,1.3281,1.3281,0,0,0-.8842-.3629l-5.0466-.151a1.2138,1.2138,0,0,0-1.3041,1.0846,1.191,1.191,0,0,0,1.2192,1.16l1.8559.0555-1.72,1.1236a3.2456,3.2456,0,0,0-1.3491,2.2746h0a1.2811,1.2811,0,0,0,.7727.432,1.3859,1.3859,0,0,0,.2918.0427l5.0467.151a1.2138,1.2138,0,0,0,1.3041-1.0846A1.1911,1.1911,0,0,0,1847.4118,1007.0763Z"/><path class="cls-38" d="M1854.3581,999.1631l-1.9144-.0573,3.2762-2.313a1.499,1.499,0,0,0,.3475-2.1414,1.535,1.535,0,0,0-.391-.353,1.6086,1.6086,0,0,0-1.1158-.4922l-6.3753-.1908a1.5837,1.5837,0,0,0-1.6518,1.4828,1.5538,1.5538,0,0,0,1.536,1.5783l2.3446.07-3.5428,2.5013a1.499,1.499,0,0,0-.3475,2.1414h0a1.5825,1.5825,0,0,0,.9746.5867,1.63,1.63,0,0,0,.3685.0573l6.3754.1908a1.5835,1.5835,0,0,0,1.6517-1.4828A1.5538,1.5538,0,0,0,1854.3581,999.1631Z"/><path class="cls-38" d="M1867.554,993.6077l-2.2972-.0687,3.9314-2.7757a1.7989,1.7989,0,0,0,.417-2.57,1.8416,1.8416,0,0,0-.4692-.4236,1.93,1.93,0,0,0-1.3389-.5906l-7.65-.2289a1.9,1.9,0,0,0-1.9821,1.7794,1.8646,1.8646,0,0,0,1.8431,1.8939l2.8135.0842L1858.57,993.71a1.7988,1.7988,0,0,0-.417,2.57h0a1.8989,1.8989,0,0,0,1.1695.704,1.9547,1.9547,0,0,0,.4422.0688l7.65.229a1.9005,1.9005,0,0,0,1.9821-1.7795A1.8646,1.8646,0,0,0,1867.554,993.6077Z"/><circle class="cls-29" cx="1782.4907" cy="101.3738" r="14.2529"/><circle class="cls-30" cx="1782.3169" cy="101.1957" r="4.2231"/><circle class="cls-29" cx="1862.9869" cy="101.1084" r="14.2529"/><circle class="cls-30" cx="1862.8131" cy="100.9303" r="4.2231"/><path class="cls-29" d="M1833.4786,171.1759l-24.4577-.3015a26.0469,26.0469,0,0,1-18.3564-7.9017,26.99,26.99,0,0,1-6.4234-10.9906,26.0118,26.0118,0,0,1-1.0234-7.5549q.3316-26.9.6632-53.8a26.2039,26.2039,0,0,1,26.4472-25.8031l24.4578.3015a26.0466,26.0466,0,0,1,18.3563,7.9017,26.9666,26.9666,0,0,1,7.081,13.8566,25.2967,25.2967,0,0,1,.3658,4.6889q-.3315,26.9-.6632,53.8A26.2038,26.2038,0,0,1,1833.4786,171.1759Z"/><rect class="cls-32" x="1822.7293" y="133.8678" width="58.2691" height="18.4892" rx="8.5216" ry="8.5216" transform="translate(1.9047 -22.8157) rotate(0.7063)"/><rect class="cls-32" x="1765.8292" y="133.6623" width="55.7539" height="17.6911" rx="8.1538" ry="8.1538" transform="translate(1.8929 -22.0989) rotate(0.7063)"/><rect class="cls-33" x="1803.7718" y="115.4791" width="35.213" height="22.2177" rx="10.24" ry="10.24" transform="translate(1672.349 1946.2675) rotate(-89.2937)"/><circle class="cls-32" cx="1840.4244" cy="111.94" r="4.4016"/><circle class="cls-32" cx="1801.0224" cy="111.4542" r="4.4016"/><path class="cls-34" d="M1784.0969,83.78c.1891-15.3382,22.069-25.7144,39.2524-25.5026s37.4566,11.1076,37.2675,26.4459"/><rect class="cls-35" x="1814.9222" y="116.0694" width="6.7072" height="14.2529" rx="3.0913" ry="3.0913" transform="matrix(0.9999, 0.0123, -0.0123, 0.9999, 1.6567, -22.4032)"/><ellipse class="cls-29" cx="1813.1032" cy="169.2033" rx="7.9203" ry="7.5517" transform="translate(1621.5642 1980.0831) rotate(-89.2937)"/><ellipse class="cls-29" cx="1828.2055" cy="169.3894" rx="7.9203" ry="7.5517" transform="translate(1636.2942 1995.3681) rotate(-89.2937)"/><rect class="cls-34" x="1780.6804" y="80.0602" width="82.5221" height="6.288" rx="2.8981" ry="2.8981" transform="translate(1.164 -22.4514) rotate(0.7063)"/><path class="cls-15" d="M1811.8876,153.4145c-.0415,4.7459,5.1445,4.4468,11.2795,4.5006s10.8958.44,10.9374-4.306"/><path class="cls-36" d="M1839.6689,71.9523c3.0849-.7376,6.1353.8606,6.7787,3.5514l.39,1.6309"/></g></svg>
