<svg xmlns="http://www.w3.org/2000/svg" width="190" height="200" viewBox="0 0 190 200"><defs><style>.cls-1{fill:#454545;}.cls-2{opacity:0.12;}.cls-3{fill:#f9f9f9;}.cls-4{fill:#72513b;}.cls-5{fill:#5b5656;}.cls-6{fill:#af1212;}.cls-7{fill:#fff;}</style></defs><title>Artboard_kaffekande</title><g id="kaffekande"><circle class="cls-1" cx="88.5631" cy="116.3424" r="70.3475"/><path class="cls-1" d="M139.4189,116.52a50.6786,50.6786,0,0,1-101.3571,0c0-27.989,15.5609.6342,43.2362-3.544C109.2726,108.7522,139.4086,85.5127,139.4189,116.52Z"/><g class="cls-2"><path class="cls-1" d="M88.5631,45.9949a70.3475,70.3475,0,1,1,0,140.6949"/></g><rect class="cls-1" x="45.5041" y="170.0332" width="86.118" height="18.4286"/><rect class="cls-1" x="45.5041" y="36.0718" width="86.118" height="25.8709"/><polyline class="cls-1" points="131.622 36.072 45.504 36.072 36.29 10.201"/><rect class="cls-1" x="125.9518" y="42.8053" width="52.8049" height="12.7582"/><rect class="cls-1" x="148.2787" y="63.3603" width="52.8049" height="12.7582" transform="translate(231.2794 -109.631) rotate(85.7487)"/><g class="cls-2"><rect class="cls-1" x="88.7403" y="36.0718" width="42.8818" height="25.8709"/></g><g class="cls-2"><rect class="cls-1" x="88.3859" y="170.0332" width="43.2362" height="18.4286"/></g><circle class="cls-3" cx="77.3475" cy="112.8914" r="70.3475"/><path class="cls-4" d="M128.2032,113.0686a50.6786,50.6786,0,0,1-101.3571,0c0-27.989,15.5609.6342,43.2363-3.544C98.057,105.3012,128.1929,82.0617,128.2032,113.0686Z"/><g class="cls-2"><path class="cls-5" d="M77.3475,42.5439a70.3475,70.3475,0,0,1,0,140.6949"/></g><rect class="cls-3" x="34.2884" y="166.5823" width="86.118" height="18.4286"/><rect class="cls-6" x="34.2884" y="32.6209" width="86.118" height="25.8709"/><polyline class="cls-7" points="120.406 32.621 34.288 32.621 25.074 6.75"/><rect class="cls-6" x="114.7362" y="39.3544" width="52.8049" height="12.7582"/><rect class="cls-6" x="137.0631" y="59.9093" width="52.8049" height="12.7582" transform="matrix(0.0741, 0.9972, -0.9972, 0.0741, 217.4536, -101.6414)"/><g class="cls-2"><rect class="cls-5" x="77.5247" y="32.6209" width="42.8818" height="25.8709"/></g><g class="cls-2"><rect class="cls-5" x="77.1703" y="166.5823" width="43.2362" height="18.4286"/></g></g></svg>
