<svg xmlns="http://www.w3.org/2000/svg" width="70" height="90" viewBox="0 0 70 90"><defs><style>.cls-1{fill:#89786d;}.cls-2{fill:#f7e4d7;}</style></defs><title>Artboard_exit</title><g id="infoboks"><path class="cls-1" d="M50.5481,45.6514,66.3821,22.185A9.5392,9.5392,0,0,0,63.8178,8.9807L60.5326,6.7641A9.5393,9.5393,0,0,0,47.3283,9.3284L36.6837,25.1041,26.039,9.3284A9.5393,9.5393,0,0,0,12.8347,6.7641L9.55,8.9807A9.5393,9.5393,0,0,0,6.9852,22.185L22.8193,45.6514,6.9852,69.1179A9.5392,9.5392,0,0,0,9.55,82.3222l3.2851,2.2167A9.5392,9.5392,0,0,0,26.039,81.9745L36.6837,66.1989,47.3283,81.9745a9.5393,9.5393,0,0,0,13.2043,2.5644l3.2852-2.2167a9.5392,9.5392,0,0,0,2.5643-13.2043Z"/><path class="cls-2" d="M48.17,45.6514,64.0043,22.185A9.5392,9.5392,0,0,0,61.44,8.9807L58.1548,6.7641A9.5393,9.5393,0,0,0,44.9505,9.3284L34.3058,25.1041,23.6612,9.3284A9.5393,9.5393,0,0,0,10.4569,6.7641L7.1717,8.9807A9.5392,9.5392,0,0,0,4.6074,22.185l15.834,23.4664L4.6074,69.1179A9.5392,9.5392,0,0,0,7.1717,82.3222l3.2852,2.2167a9.5393,9.5393,0,0,0,13.2043-2.5644L34.3058,66.1989,44.9505,81.9745a9.5393,9.5393,0,0,0,13.2043,2.5644L61.44,82.3222a9.5392,9.5392,0,0,0,2.5643-13.2043Z"/></g></svg>
